<svg width="369" height="369" viewBox="0 0 369 369" fill="none" xmlns="http://www.w3.org/2000/svg">
<path fill-rule="evenodd" clip-rule="evenodd" d="M6.0983 138.95C30.9029 41.947 130.445 -18.0519 227.774 5.53417C328.649 30.07 389.043 132.568 361.997 232.176C340.477 312.487 268.889 366.085 189.761 368.509C189.189 346.273 203.131 326.144 224.333 319.24C237.842 314.905 249.949 309.601 260.224 304.043L257.179 311.42C255.438 315.702 257.02 320.875 261.133 322.808C265.548 324.941 270.729 322.886 272.64 318.412L285.886 286.699C291.307 281.978 295.25 277.454 297.656 273.349C301.409 266.875 300.07 262.124 297.511 258.826L303.741 243.992L304.776 243.676C315.543 240.268 324.299 232.404 328.648 221.934L340.542 184.635C341.335 182.116 339.795 179.448 337.077 178.957C334.942 178.504 332.916 179.861 332.131 181.906L319.118 216.293C318.392 218.117 316.403 218.89 314.58 218.164C312.756 217.438 311.983 215.45 312.709 213.626L326.446 179.195C327.261 177.039 326.274 174.519 324.037 173.563L323.705 173.474L323.372 173.385C321.135 172.43 318.615 173.417 317.659 175.654L302.955 209.707C302.229 211.53 300.24 212.304 298.417 211.577C296.593 210.851 295.82 208.863 296.546 207.039L311.856 173.386C312.981 170.957 311.803 168.267 309.314 167.363C307.158 166.547 304.83 167.704 303.823 169.69L285.911 204.19C281.592 214.549 282.088 226.436 287.372 236.4L287.94 237.384L278.635 259.704C276.811 258.978 274.942 259.308 273.203 261.811C271.863 263.708 271.675 266.625 271.768 269.381C248.111 289.875 214.8 297.215 192.835 299.877C190.02 300.192 187.636 298.01 187.543 295.254C187.443 292.971 189.033 291.023 191.184 290.53C226.615 282.809 258.559 250.882 270.402 206.683C286.134 147.973 260.318 90.1211 212.796 77.3876C165.273 64.654 113.99 101.847 98.2589 160.557C86.4455 204.646 98.2277 248.407 124.941 272.781C126.557 274.282 126.96 276.765 125.731 278.691C124.273 281.032 121.148 281.619 118.867 279.939C100.792 266.31 75.1786 242.706 65.3676 212.414C66.4557 210.568 67.2709 208.412 67.0515 206.573C66.7155 203.396 65.1212 202.256 63.0382 202.054L66.4209 177.909L77.9898 171.511C77.9898 171.511 84.1975 144.798 81.096 119.153C79.9475 109.703 76.0058 100.93 70.1788 93.432C68.5193 91.2065 64.9427 92.1478 64.4519 94.8657L49.7136 175.569L47.277 193.082C44.1572 194.977 41.6783 198.468 41.7668 204.784C41.7625 208.345 42.496 212.697 43.8052 217.559L38.5222 255.443C37.8591 260.133 40.9862 264.414 45.6764 265.077C50.3665 265.74 54.6476 262.613 55.3106 257.923L56.8605 246.821C63.1343 257.526 71.4238 269.126 81.7745 280.567C96.7655 297.288 99.2183 321.809 87.4348 340.973C20.8356 299.738 -14.2974 218.613 6.0983 138.95ZM177.922 260.264C177.922 260.264 180.042 198.737 244.205 207.856C244.202 207.851 244.196 207.936 244.184 208.103C243.87 212.57 239.413 275.939 177.922 260.264ZM152.334 253.407C152.334 253.407 181.261 199.064 121.135 174.88C121.165 174.769 88.9571 235.595 152.334 253.407Z" fill="#220F58"/>
</svg>
