<svg width="24" height="24" viewBox="0 0 24 24" fill="none" xmlns="http://www.w3.org/2000/svg">
<path d="M21.3542 16.4872C20.0162 15.9812 19.1212 14.7662 19.0202 13.3172C18.9212 11.9052 19.6132 10.6512 20.8712 9.96216L21.9172 9.38916L21.1702 8.45916C19.9152 6.89616 18.1192 5.96216 16.3662 5.96216C15.1512 5.96216 14.3082 6.28016 13.6312 6.53616C13.1532 6.71716 12.7762 6.85916 12.3622 6.85916C11.8902 6.85916 11.4242 6.69316 10.8842 6.50116C10.1762 6.24916 9.37422 5.96316 8.34422 5.96316C6.35422 5.96316 4.34722 7.15116 3.10722 9.06116C1.25622 11.9102 1.76422 16.7952 4.31522 20.6772C5.32622 22.2152 6.74322 23.9822 8.75022 24.0002C8.76322 24.0002 8.77622 24.0002 8.78922 24.0002C10.4322 24.0002 10.7922 23.1242 12.3872 23.1142C14.1292 23.1962 14.3492 24.0072 15.9762 23.9962C17.9372 23.9782 19.3512 22.2252 20.4752 20.5122C21.1392 19.5052 21.3962 18.9782 21.9132 17.8342L22.3512 16.8642L21.3542 16.4872Z" fill="black"/>
<path d="M15.1003 3.45008C15.7503 2.61608 16.2432 1.43908 16.0642 0.236084C15.0022 0.309084 13.7622 0.984084 13.0372 1.86408C12.3792 2.66308 11.8363 3.84708 12.0473 4.99908C13.2053 5.03508 14.4043 4.34308 15.1003 3.45008Z" fill="black"/>
</svg>
