<svg width="183" height="52" viewBox="0 0 183 52" fill="none" xmlns="http://www.w3.org/2000/svg">
<path d="M24.6502 37.3598C24.6502 37.3598 26.6518 28.7082 17.3715 27.5833C17.3715 27.5667 15.1549 37.244 24.6502 37.3598Z" fill="#3B2186"/>
<path d="M28.4713 37.3598C28.4713 37.3598 26.4697 28.7082 35.75 27.5833C35.7334 27.5667 37.9667 37.244 28.4713 37.3598Z" fill="#3B2186"/>
<path d="M25.9073 0.00709707C11.4658 0.354487 -0.163436 12.4304 0.00198733 26.8719C0.134326 38.7328 8.05812 48.7244 18.8768 51.9832C19.8032 48.8733 18.546 45.5482 15.833 43.7782C13.9637 42.5706 12.3757 41.2638 11.1019 40.0065L11.3004 41.6111C11.3831 42.2894 10.9034 42.8849 10.2252 42.9676C9.54693 43.0503 8.95141 42.5706 8.8687 41.8924L8.19046 36.4168C7.82653 35.7882 7.56185 35.2093 7.42951 34.713C7.18138 33.8362 7.39643 33.2573 7.76036 32.8768L7.44605 30.3458L6.4866 18.5511C6.45351 18.1541 6.9167 17.8894 7.231 18.1375C8.3228 18.9647 9.19954 20.0399 9.71236 21.3137C11.1019 24.771 11.2343 28.7246 11.2343 28.7246L9.86124 30.048L10.2913 33.5385C10.5891 33.4888 10.8538 33.5881 11.0192 34.0182C11.1185 34.2663 11.0854 34.5972 11.0027 34.8949C13.5006 38.7493 17.9505 41.0818 20.9777 42.3059C21.3582 42.4548 21.7717 42.2563 21.8875 41.8758C21.9868 41.5615 21.8379 41.2307 21.5567 41.0818C16.9248 38.6832 13.6494 33.0257 13.6494 26.4418C13.6494 17.6743 19.4062 10.5777 26.5029 10.5777C33.5995 10.5777 39.3563 17.6743 39.3563 26.4418C39.3563 33.0422 36.0974 38.6832 31.449 41.0818C31.1678 41.2307 31.0189 41.5615 31.1182 41.8758C31.234 42.2563 31.6475 42.4714 32.028 42.3225C34.9891 41.1314 39.3563 38.8651 41.8873 35.1265C41.7715 34.7461 41.6888 34.3325 41.8046 34.0182C41.9534 33.6046 42.2016 33.4888 42.4828 33.5219L42.946 30.0646L42.8302 29.9488C41.7218 28.7577 41.209 27.12 41.4241 25.5154L42.6317 20.0399C42.6978 19.7256 42.9791 19.4775 43.3099 19.5105C43.6904 19.5436 43.9551 19.8745 43.8889 20.255L43.0121 25.5154C42.9791 25.7966 43.161 26.0448 43.4422 26.0779C43.7235 26.111 43.9716 25.929 44.0047 25.6478L44.7822 20.3542C44.8318 20.0068 45.1461 19.7752 45.4935 19.8249H45.5431H45.5928C45.9401 19.8745 46.1717 20.1888 46.1386 20.5196L45.51 25.8297C45.477 26.111 45.6589 26.3591 45.9401 26.3922C46.2214 26.4253 46.4695 26.2433 46.5026 25.9621L47.0319 20.6851C47.065 20.3708 47.2966 20.1061 47.6109 20.0895C48.0079 20.0564 48.3222 20.3708 48.3057 20.7512L48.041 26.3922C47.826 28.0133 46.8996 29.436 45.5266 30.3127L45.3942 30.3954L45.0799 32.6948C45.5597 33.0587 45.9236 33.6708 45.6424 34.713C45.4604 35.3747 45.0799 36.1522 44.501 37.0124L43.8393 41.9255C43.74 42.6202 43.0949 43.1 42.4001 42.9676C41.7549 42.8518 41.3414 42.1901 41.4241 41.5284L41.573 40.387C40.3488 41.545 38.86 42.736 37.1396 43.8444C34.4432 45.5979 33.2521 48.9229 34.162 51.9998C45.0965 48.7078 53.0699 38.5674 53.0699 26.5741C53.1195 11.686 40.8782 -0.340293 25.9073 0.00709707Z" fill="#3B2186"/>
<path d="M64.7983 25.9787C64.7983 20.5032 69.2482 16.0698 74.7238 16.0698C77.5525 16.0698 80.0835 17.2609 81.9031 19.1302L77.4202 23.6793C76.7585 22.9018 75.799 22.4386 74.7238 22.4386C72.7718 22.4386 71.1672 24.0267 71.1672 25.9952C71.1672 27.9803 72.7552 29.5684 74.7238 29.5684C75.7659 29.5684 76.7254 29.1052 77.3705 28.3608L81.9031 32.8769C80.0835 34.7462 77.536 35.9372 74.7238 35.9372C69.2482 35.9207 64.7983 31.4873 64.7983 25.9787Z" fill="black"/>
<path d="M104.169 16.384V35.6393H97.734V28.5427H90.0087V35.6393H83.5737V16.384H90.0087V23.4476H97.734V16.384H104.169Z" fill="black"/>
<path d="M106.237 25.9787C106.237 20.5032 110.687 16.0698 116.162 16.0698C121.638 16.0698 126.088 20.5032 126.088 25.9787C126.088 31.4873 121.638 35.9041 116.162 35.9041C110.687 35.9041 106.237 31.4873 106.237 25.9787ZM119.719 25.9787C119.719 24.0267 118.131 22.4221 116.162 22.4221C114.194 22.4221 112.606 24.0102 112.606 25.9787C112.606 27.9638 114.194 29.5519 116.162 29.5519C118.131 29.5519 119.719 27.9638 119.719 25.9787Z" fill="black"/>
<path d="M128.305 16.384H134.74V35.6393H128.305V16.384Z" fill="black"/>
<path d="M136.939 25.9787C136.939 20.5032 141.389 16.0698 146.865 16.0698C149.694 16.0698 152.225 17.2609 154.044 19.1302L149.561 23.6628C148.9 22.8853 147.94 22.4221 146.865 22.4221C144.913 22.4221 143.308 24.0102 143.308 25.9787C143.308 27.9638 144.896 29.5519 146.865 29.5519C147.907 29.5519 148.866 29.0887 149.512 28.3443L154.044 32.8603C152.225 34.7296 149.677 35.9207 146.865 35.9207C141.406 35.9207 136.939 31.4873 136.939 25.9787Z" fill="black"/>
<path d="M155.848 16.384H162.283V35.6393H155.848V16.384Z" fill="black"/>
<path d="M171.612 21.446V23.4476H182.183V28.5427H171.612V30.5774H182.183V35.6393H165.177V16.384H182.183V21.446H171.612Z" fill="black"/>
</svg>
