<svg width="24" height="24" viewBox="0 0 24 24" fill="none" xmlns="http://www.w3.org/2000/svg">
<path d="M2 22H0V20H2C2.552 20 3 19.552 3 19V18.606L1.312 17.727C0.635 17.374 0.223 16.682 0.236 15.919C0.25 15.156 0.684 14.479 1.373 14.148L3 13.37V12C3 11.541 3.312 11.141 3.758 11.03L6.044 10.459L3.293 7.707C3.105 7.52 3 7.266 3 7V1H5V6.586L7.458 9.044C7.975 9.561 8.166 10.289 7.972 10.993C7.777 11.696 7.238 12.222 6.529 12.399L5 12.781V14C5 14.385 4.779 14.735 4.432 14.901L2.237 15.953L4.463 17.113C4.793 17.285 5 17.627 5 18V19C5 20.654 3.654 22 2 22Z" fill="#C7C0A6"/>
<path d="M21 3H13C11.346 3 10 4.346 10 6V11.667L6 17H21C22.654 17 24 15.654 24 14V6C24 4.346 22.654 3 21 3ZM20 13H14V11H20V13ZM20 9H14V7H20V9Z" fill="#C7C0A6"/>
</svg>
