<svg width="44" height="44" viewBox="0 0 44 44" fill="none" xmlns="http://www.w3.org/2000/svg">
<path d="M22.6689 43.6035C22.5915 43.6033 22.5161 43.5786 22.4536 43.533C22.391 43.4873 22.3446 43.4231 22.3208 43.3494C22.297 43.2757 22.2972 43.1964 22.3212 43.1228C22.3453 43.0493 22.392 42.9852 22.4547 42.9398L26.5467 39.9867L20.4241 43.5235C20.3418 43.5713 20.2441 43.5851 20.1517 43.5621C20.0594 43.5391 19.9796 43.4811 19.9292 43.4004C19.8788 43.3196 19.8618 43.2224 19.8818 43.1294C19.9017 43.0363 19.9571 42.9546 20.0362 42.9017L22.1812 41.4636L18.7785 43.4282C18.6974 43.474 18.6018 43.4872 18.5113 43.4651C18.4208 43.4429 18.342 43.3872 18.2912 43.3091C18.2403 43.2311 18.221 43.1365 18.2373 43.0448C18.2536 42.953 18.3042 42.8709 18.3789 42.8151L23.7755 38.8669L16.3446 43.1539C16.2619 43.2001 16.1646 43.2125 16.073 43.1886C15.9814 43.1646 15.9026 43.1061 15.8531 43.0254C15.8036 42.9447 15.7873 42.8479 15.8076 42.7554C15.8278 42.6629 15.8831 42.5818 15.9618 42.5291L16.1649 42.3964L15.1823 42.964C15.0995 43.0121 15.0012 43.026 14.9084 43.0026C14.8155 42.9792 14.7355 42.9204 14.6854 42.8389C14.6354 42.7573 14.6192 42.6593 14.6403 42.566C14.6615 42.4726 14.7184 42.3912 14.7987 42.3392L15.3583 41.9725L14.0493 42.7286C13.9669 42.7755 13.8695 42.7886 13.7776 42.7652C13.6857 42.7419 13.6064 42.6838 13.5564 42.6033C13.5064 42.5227 13.4896 42.4259 13.5094 42.3332C13.5292 42.2405 13.5842 42.1591 13.6628 42.106L15.2637 41.0375L12.8598 42.4257C12.7777 42.4719 12.681 42.4847 12.5897 42.4615C12.4984 42.4383 12.4196 42.3808 12.3695 42.3011C12.3194 42.2213 12.302 42.1253 12.3208 42.033C12.3395 41.9407 12.3931 41.8592 12.4704 41.8053L14.5846 40.368L11.6777 42.0459C11.5967 42.0926 11.501 42.1066 11.4101 42.0851C11.3192 42.0637 11.2399 42.0083 11.1884 41.9303C11.1369 41.8524 11.1171 41.7577 11.1331 41.6656C11.1491 41.5736 11.1996 41.4911 11.2743 41.435L15.2659 38.4437L10.1699 41.3859C10.0892 41.4328 9.99354 41.4472 9.90254 41.4261C9.81154 41.4049 9.73205 41.3498 9.6803 41.2721C9.62854 41.1943 9.60842 41.0997 9.62405 41.0076C9.63968 40.9155 9.68988 40.8328 9.76439 40.7765L13.0813 38.2479L9.02006 40.5946C8.94056 40.6403 8.84681 40.6546 8.75731 40.6346C8.66781 40.6146 8.58906 40.5617 8.53658 40.4865C8.48411 40.4113 8.46172 40.3192 8.47384 40.2283C8.48597 40.1374 8.53171 40.0543 8.60206 39.9955L11.5479 37.552L8.29553 39.4293C8.21745 39.4734 8.12593 39.4874 8.03826 39.4686C7.95059 39.4498 7.87286 39.3995 7.81976 39.3272C7.76665 39.255 7.74186 39.1658 7.75008 39.0765C7.75829 38.9872 7.79893 38.904 7.86433 38.8427L8.80006 37.9825C8.71424 38.0223 8.61632 38.0275 8.52679 37.9969C8.43725 37.9662 8.36303 37.9021 8.31966 37.818C8.27628 37.7339 8.26709 37.6363 8.29403 37.5456C8.32097 37.4549 8.38194 37.3781 8.46419 37.3313L11.3059 35.6908C11.384 35.6461 11.4758 35.6316 11.5638 35.6502C11.6518 35.6688 11.73 35.7191 11.7833 35.7916C11.8367 35.8641 11.8615 35.9536 11.8531 36.0432C11.8447 36.1328 11.8037 36.2162 11.7378 36.2775L10.8079 37.1311L14.9329 34.7507C15.0124 34.7049 15.1062 34.6907 15.1957 34.7107C15.2852 34.7307 15.3639 34.7835 15.4164 34.8587C15.4689 34.9339 15.4913 35.0261 15.4791 35.117C15.467 35.2079 15.4213 35.291 15.3509 35.3498L12.4073 37.7918L17.6807 34.747C17.7613 34.7014 17.8562 34.688 17.9463 34.7094C18.0365 34.7309 18.1151 34.7857 18.1664 34.8628C18.2178 34.9399 18.2381 35.0336 18.2232 35.125C18.2083 35.2164 18.1594 35.2988 18.0863 35.3557L14.7687 37.8857L20.2093 34.7448C20.2902 34.6991 20.3854 34.6858 20.4756 34.7077C20.5659 34.7295 20.6446 34.7847 20.6957 34.8623C20.7468 34.9399 20.7666 35.0339 20.751 35.1255C20.7355 35.2171 20.6857 35.2993 20.6119 35.3557L16.6189 38.3477L22.8661 34.7419C22.9482 34.6957 23.0449 34.6829 23.1362 34.7061C23.2275 34.7293 23.3064 34.7868 23.3564 34.8665C23.4065 34.9463 23.4239 35.0423 23.4052 35.1346C23.3864 35.2269 23.3328 35.3084 23.2555 35.3623L21.1421 36.7989L24.709 34.7397C24.7915 34.6907 24.8899 34.6759 24.9831 34.6987C25.0764 34.7214 25.1569 34.7798 25.2076 34.8613C25.2583 34.9427 25.275 35.0408 25.2542 35.1345C25.2333 35.2282 25.1766 35.3099 25.0962 35.3623L23.5012 36.4256L26.4257 34.7389C26.5086 34.688 26.6083 34.672 26.7029 34.6946C26.7975 34.7171 26.8793 34.7763 26.9303 34.8592C26.9812 34.942 26.9972 35.0417 26.9746 35.1364C26.9521 35.231 26.8929 35.3128 26.81 35.3637L26.2431 35.7304L27.9694 34.7338C28.0521 34.6876 28.1494 34.6752 28.241 34.6991C28.3326 34.7231 28.4114 34.7816 28.4609 34.8623C28.5104 34.9431 28.5267 35.0398 28.5064 35.1323C28.4862 35.2248 28.4309 35.3059 28.3522 35.3586L28.1586 35.4847L29.2652 34.846C29.3462 34.8015 29.441 34.7892 29.5307 34.8116C29.6204 34.8341 29.6983 34.8895 29.7488 34.9669C29.7993 35.0444 29.8187 35.138 29.8032 35.2291C29.7876 35.3202 29.7382 35.4021 29.6649 35.4583L24.2661 39.4132L31.3061 35.3469C31.3884 35.2991 31.4861 35.2853 31.5785 35.3083C31.6708 35.3313 31.7507 35.3893 31.801 35.47C31.8514 35.5508 31.8684 35.648 31.8484 35.741C31.8285 35.8341 31.7731 35.9158 31.694 35.9687L29.5424 37.4112L32.4581 35.7245C32.5395 35.6789 32.6351 35.666 32.7256 35.6885C32.8161 35.7109 32.8947 35.767 32.9453 35.8452C32.9959 35.9235 33.0148 36.0182 32.9982 36.1099C32.9815 36.2016 32.9305 36.2836 32.8556 36.3391L28.7673 39.2922L33.8632 36.3501C33.9445 36.3038 34.0403 36.2904 34.1312 36.3125C34.222 36.3346 34.301 36.3906 34.3519 36.469C34.4029 36.5474 34.422 36.6422 34.4053 36.7342C34.3886 36.8262 34.3374 36.9084 34.2621 36.9639L31.0413 39.3025L34.9214 37.0621C35.0009 37.0172 35.0943 37.0035 35.1833 37.0238C35.2723 37.0441 35.3506 37.0968 35.4028 37.1717C35.455 37.2467 35.4773 37.3384 35.4655 37.4289C35.4536 37.5194 35.4084 37.6023 35.3387 37.6613L32.2491 40.2279L35.7134 38.2267C35.792 38.1813 35.8846 38.1667 35.9734 38.1856C36.0621 38.2046 36.1407 38.2558 36.1939 38.3293C36.247 38.4028 36.2711 38.4935 36.2613 38.5837C36.2515 38.6739 36.2086 38.7573 36.1409 38.8177L35.1011 39.7469L35.3387 39.6105C35.3804 39.5839 35.4271 39.5661 35.4759 39.5581C35.5247 39.5501 35.5746 39.552 35.6226 39.5638C35.6706 39.5755 35.7158 39.5969 35.7554 39.6266C35.7949 39.6562 35.8281 39.6936 35.8528 39.7364C35.8776 39.7792 35.8934 39.8266 35.8994 39.8757C35.9053 39.9248 35.9013 39.9746 35.8875 40.0221C35.8738 40.0696 35.8505 40.1138 35.8192 40.1521C35.7879 40.1903 35.7492 40.2219 35.7053 40.2448L32.3753 42.1669C32.2967 42.2122 32.2041 42.2269 32.1153 42.2079C32.0266 42.189 31.948 42.1378 31.8948 42.0642C31.8416 41.9907 31.8176 41.9001 31.8274 41.8098C31.8372 41.7196 31.88 41.6362 31.9477 41.5758L32.9861 40.6511L28.8736 43.0249C28.7941 43.0698 28.7007 43.0835 28.6117 43.0632C28.5227 43.0429 28.4444 42.9902 28.3922 42.9153C28.34 42.8403 28.3177 42.7486 28.3296 42.6581C28.3414 42.5676 28.3866 42.4847 28.4563 42.4257L31.5466 39.8591L25.3257 43.4524C25.2445 43.4986 25.1486 43.5121 25.0578 43.49C24.9669 43.4679 24.888 43.4119 24.837 43.3335C24.7861 43.2551 24.767 43.1602 24.7837 43.0682C24.8004 42.9762 24.8516 42.8941 24.9268 42.8386L28.1476 40.5007L22.8522 43.558C22.7962 43.5892 22.7329 43.6049 22.6689 43.6035Z" fill="#BFDBF0"/>
<path d="M22.2133 40.6641C22.137 40.6641 22.0627 40.6403 22.0006 40.5961C21.9385 40.5519 21.8918 40.4894 21.8668 40.4174C21.8419 40.3453 21.8401 40.2673 21.8615 40.1942C21.883 40.121 21.9267 40.0564 21.9867 40.0093L24.2857 38.2067L20.8793 40.1728C20.7978 40.2182 20.7021 40.2308 20.6116 40.2081C20.5211 40.1854 20.4427 40.129 20.3923 40.0505C20.3419 39.972 20.3234 39.8772 20.3404 39.7855C20.3575 39.6937 20.4088 39.612 20.4841 39.5568L24.4309 36.7577L19.8446 39.4057C19.7628 39.4514 19.6666 39.4641 19.5758 39.4411C19.4849 39.4181 19.4064 39.3612 19.3562 39.2821C19.3059 39.203 19.2879 39.1077 19.3058 39.0157C19.3237 38.9237 19.3761 38.8421 19.4523 38.7875L25.3057 34.7447L18.7461 38.5316C18.6638 38.5785 18.5667 38.5917 18.4749 38.5686C18.3832 38.5455 18.3039 38.4878 18.2537 38.4075C18.2035 38.3273 18.1862 38.2308 18.2056 38.1381C18.2249 38.0455 18.2793 37.9639 18.3574 37.9105L25.5683 33.0404L17.6615 37.6017C17.5787 37.6472 17.4816 37.6591 17.3904 37.6348C17.2992 37.6105 17.2208 37.5519 17.1717 37.4713C17.1225 37.3907 17.1064 37.2942 17.1266 37.202C17.1468 37.1098 17.2018 37.0289 17.2801 36.9762L21.6552 34.1734L16.9054 36.9153C16.8221 36.9656 16.7223 36.9808 16.6279 36.9574C16.5335 36.9341 16.4522 36.8743 16.402 36.791C16.3517 36.7078 16.3365 36.608 16.3598 36.5136C16.3832 36.4192 16.443 36.3379 16.5263 36.2876L19.4596 34.4411L16.2513 36.2927C16.1684 36.3365 16.0719 36.3468 15.9816 36.3216C15.8913 36.2963 15.8141 36.2375 15.7659 36.1572C15.7176 36.0768 15.702 35.981 15.7221 35.8895C15.7423 35.798 15.7968 35.7176 15.8743 35.665L18.0061 34.3333L15.6485 35.6943C15.5655 35.7452 15.4657 35.761 15.3711 35.7383C15.2765 35.7156 15.1948 35.6563 15.1439 35.5733C15.0931 35.4904 15.0772 35.3906 15.0999 35.296C15.1226 35.2014 15.182 35.1197 15.2649 35.0688L24.6648 28.9726L14.7127 34.7161C14.6298 34.7617 14.5324 34.7734 14.441 34.7489C14.3496 34.7244 14.2712 34.6655 14.2223 34.5845C14.1733 34.5035 14.1575 34.4067 14.1783 34.3144C14.199 34.2221 14.2547 34.1413 14.3336 34.0891L22.1209 29.1449L13.9486 33.8632C13.8653 33.9112 13.7666 33.9246 13.6735 33.9005C13.5805 33.8764 13.5006 33.8168 13.4511 33.7344C13.4016 33.652 13.3865 33.5535 13.4089 33.4601C13.4313 33.3666 13.4895 33.2857 13.5709 33.2347L20.0595 29.1655L13.2857 33.0734C13.2024 33.1203 13.104 33.1329 13.0116 33.1083C12.9192 33.0838 12.84 33.0242 12.791 32.9421C12.7419 32.86 12.7268 32.7621 12.749 32.6691C12.7711 32.576 12.8287 32.4954 12.9095 32.4442L17.517 29.5842L12.7159 32.3599C12.6326 32.4068 12.5342 32.4193 12.4418 32.3948C12.3494 32.3703 12.2702 32.3106 12.2212 32.2286C12.1721 32.1465 12.157 32.0485 12.1792 31.9555C12.2013 31.8625 12.2589 31.7818 12.3397 31.7307L15.8487 29.5651L12.1967 31.6735C12.1138 31.7198 12.0162 31.7322 11.9244 31.708C11.8326 31.6838 11.7537 31.625 11.7044 31.5438C11.6551 31.4627 11.6392 31.3656 11.66 31.273C11.6808 31.1804 11.7368 31.0994 11.8161 31.0472L22.5403 24.2331L11.4567 30.6321C11.3733 30.6821 11.2734 30.6969 11.1791 30.6733C11.0847 30.6496 11.0036 30.5894 10.9537 30.506C10.9037 30.4226 10.8889 30.3227 10.9125 30.2283C10.9362 30.134 10.9964 30.0529 11.0798 30.0029L16.7881 26.469L10.9397 29.8423C10.8566 29.8889 10.7587 29.9013 10.6667 29.8769C10.5746 29.8525 10.4956 29.7933 10.4465 29.7117C10.3973 29.6302 10.3818 29.5327 10.4032 29.4399C10.4247 29.3471 10.4814 29.2663 10.5613 29.2146L19.2682 23.7667L10.3663 28.9088C10.2832 28.9562 10.185 28.9694 10.0924 28.9454C9.99981 28.9214 9.92027 28.8622 9.87072 28.7804C9.82117 28.6987 9.80553 28.6007 9.82714 28.5076C9.84875 28.4144 9.90589 28.3334 9.98639 28.2818L21.763 20.8018L9.72459 27.7538C9.64144 27.8043 9.54165 27.8196 9.44717 27.7965C9.35269 27.7734 9.27126 27.7137 9.22079 27.6306C9.17032 27.5474 9.15494 27.4477 9.17805 27.3532C9.20115 27.2587 9.26084 27.1773 9.34399 27.1268L21.3465 19.5067L9.13059 26.5555C9.04734 26.6 8.95014 26.6107 8.85922 26.5853C8.7683 26.56 8.69066 26.5005 8.64247 26.4193C8.59428 26.3382 8.57925 26.2415 8.60051 26.1496C8.62176 26.0576 8.67767 25.9774 8.75659 25.9256L9.00152 25.7789L8.82406 25.8816C8.74113 25.9272 8.64378 25.939 8.55237 25.9144C8.46096 25.8899 8.38258 25.831 8.33361 25.75C8.28464 25.669 8.26888 25.5723 8.28962 25.4799C8.31037 25.3876 8.36602 25.3068 8.44492 25.2546L19.8116 18.0679L8.34226 24.6892C8.25891 24.7353 8.1609 24.7471 8.06897 24.7222C7.97704 24.6973 7.89841 24.6376 7.84972 24.5558C7.80103 24.4739 7.7861 24.3763 7.80808 24.2837C7.83007 24.191 7.88725 24.1105 7.96752 24.0593L10.7241 22.3726L8.06286 23.9126C7.9796 23.9606 7.88084 23.974 7.7878 23.9499C7.69477 23.9258 7.61491 23.8662 7.56541 23.7838C7.51591 23.7014 7.50073 23.6029 7.52313 23.5095C7.54553 23.416 7.60372 23.3351 7.68519 23.2841L16.7426 17.6001L7.72259 22.8067C7.63956 22.8542 7.54129 22.8673 7.44872 22.8433C7.35615 22.8194 7.27661 22.7602 7.22705 22.6784C7.1775 22.5966 7.16187 22.4987 7.18347 22.4055C7.20508 22.3124 7.26223 22.2313 7.34272 22.1797L18.8627 14.8508L7.37426 21.4816C7.29106 21.5267 7.19365 21.5379 7.1024 21.5128C7.01114 21.4878 6.9331 21.4284 6.88461 21.3472C6.83611 21.2659 6.82092 21.169 6.8422 21.0768C6.86348 20.9846 6.91959 20.9042 6.99879 20.8524L10.3553 18.7859L7.19606 20.6067C7.11431 20.6435 7.02192 20.6491 6.93634 20.6224C6.85076 20.5957 6.77793 20.5386 6.73161 20.4618C6.68529 20.3851 6.66869 20.294 6.68495 20.2059C6.70121 20.1177 6.7492 20.0386 6.81986 19.9834L17.5038 13.1773L6.98559 19.2471C6.90234 19.2916 6.80514 19.3023 6.71422 19.2769C6.62329 19.2516 6.54566 19.1921 6.49747 19.1109C6.44928 19.0298 6.43425 18.9331 6.45551 18.8412C6.47676 18.7492 6.53267 18.669 6.61159 18.6172L6.85286 18.4705C6.76812 18.5054 6.67341 18.5072 6.58738 18.4757C6.50134 18.4442 6.43021 18.3817 6.388 18.3004C6.34578 18.2191 6.33553 18.1249 6.35927 18.0364C6.383 17.9479 6.43901 17.8715 6.51625 17.8223L16.5153 11.4181L6.81986 17.0134C6.73725 17.0604 6.63963 17.0734 6.54758 17.0498C6.45553 17.0262 6.37624 16.9678 6.32642 16.8869C6.27659 16.806 6.26013 16.7089 6.28049 16.6161C6.30086 16.5232 6.35646 16.442 6.43559 16.3893L17.3065 9.28993L6.84699 15.3267C6.76406 15.3723 6.66671 15.3841 6.5753 15.3596C6.4839 15.3351 6.40551 15.2761 6.35654 15.1952C6.30757 15.1142 6.29181 15.0174 6.31256 14.9251C6.3333 14.8327 6.38895 14.752 6.46785 14.6997L11.7207 11.3821L6.98192 14.1197C6.89937 14.1675 6.80141 14.1813 6.70885 14.1581C6.61629 14.1349 6.53642 14.0765 6.48621 13.9954C6.436 13.9143 6.41939 13.8167 6.43993 13.7235C6.46047 13.6304 6.51652 13.5488 6.59619 13.4963L15.6675 7.48299L7.38085 12.268C7.29826 12.3128 7.20161 12.3242 7.11085 12.2999C7.02009 12.2755 6.94215 12.2172 6.89312 12.137C6.8441 12.0569 6.82773 11.9609 6.84739 11.869C6.86705 11.7771 6.92125 11.6963 6.99879 11.6432L11.4369 8.78319L7.85386 10.8534C7.7711 10.9015 7.6728 10.9154 7.57996 10.892C7.48713 10.8686 7.40712 10.8098 7.35704 10.7282C7.30696 10.6467 7.29077 10.5487 7.31194 10.4554C7.33311 10.362 7.38995 10.2806 7.47032 10.2286L10.9749 7.94719L8.53366 9.35666C8.4509 9.40479 8.3526 9.41864 8.25976 9.39525C8.16693 9.37187 8.08692 9.3131 8.03684 9.23151C7.98676 9.14992 7.97057 9.05198 7.99174 8.95862C8.01291 8.86525 8.06975 8.78387 8.15012 8.73186L9.35352 7.94866C9.27273 7.98951 9.17968 7.99903 9.09229 7.97538C9.00489 7.95173 8.92934 7.89658 8.88018 7.82056C8.83101 7.74454 8.81171 7.65301 8.82599 7.56361C8.84027 7.47421 8.88712 7.39325 8.95752 7.33633L12.4907 4.50053C12.4047 4.53697 12.308 4.5392 12.2204 4.50676C12.1328 4.47432 12.0609 4.40967 12.0193 4.326C11.9778 4.24233 11.9697 4.14595 11.9968 4.05654C12.0239 3.96714 12.0841 3.89145 12.1651 3.84493L16.263 1.47919C16.3429 1.43477 16.4365 1.42178 16.5254 1.44278C16.6144 1.46378 16.6923 1.51724 16.7439 1.5927C16.7955 1.66815 16.817 1.76015 16.8043 1.85066C16.7916 1.94118 16.7455 2.02368 16.6751 2.08199L13.1551 4.90826L20.8302 0.475992C20.913 0.427866 21.0112 0.414016 21.1041 0.4374C21.1969 0.460785 21.2769 0.51955 21.327 0.601139C21.3771 0.682727 21.3933 0.780668 21.3721 0.874033C21.3509 0.967397 21.2941 1.04878 21.2137 1.10079L20.0323 1.87006L22.4787 0.457659C22.5615 0.409533 22.6598 0.395682 22.7526 0.419067C22.8455 0.442452 22.9255 0.501217 22.9755 0.582806C23.0256 0.664394 23.0418 0.762335 23.0206 0.855699C22.9995 0.949064 22.9426 1.03045 22.8623 1.08246L19.3533 3.36753L24.1199 0.615326C24.2025 0.57161 24.2985 0.561031 24.3886 0.585745C24.4787 0.610459 24.5559 0.668605 24.6045 0.748319C24.6532 0.828032 24.6696 0.923305 24.6504 1.0147C24.6312 1.10609 24.5779 1.18672 24.5013 1.24013L20.0551 4.10673L25.5859 0.912326C25.6684 0.864462 25.7664 0.850666 25.8589 0.873868C25.9515 0.89707 26.0314 0.955441 26.0816 1.03658C26.1318 1.11773 26.1484 1.21525 26.1279 1.30844C26.1073 1.40163 26.0513 1.48314 25.9716 1.53566L16.9047 7.54459L27.3767 1.49899C27.4596 1.45339 27.5569 1.44162 27.6483 1.46614C27.7398 1.49066 27.8181 1.54957 27.8671 1.63056C27.9161 1.71154 27.9318 1.80832 27.9111 1.90066C27.8903 1.993 27.8347 2.07374 27.7558 2.12599L22.5132 5.43919L28.4884 1.99253C28.5709 1.94707 28.6678 1.93514 28.7589 1.95919C28.85 1.98325 28.9283 2.04145 28.9777 2.12172C29.027 2.202 29.0435 2.29818 29.0239 2.39032C29.0042 2.48246 28.9498 2.56349 28.8719 2.61659L17.9966 9.72039L29.9433 2.82706C30.0261 2.78156 30.1231 2.76973 30.2144 2.79402C30.3056 2.81832 30.384 2.87687 30.4331 2.95749C30.4823 3.0381 30.4984 3.13457 30.4782 3.22679C30.458 3.31902 30.403 3.3999 30.3247 3.45259L20.3235 9.84946L31.0807 3.63886C31.1641 3.59278 31.2621 3.58093 31.354 3.60584C31.4459 3.63074 31.5246 3.69044 31.5733 3.77229C31.622 3.85414 31.6369 3.95173 31.6149 4.04439C31.5929 4.13706 31.5357 4.21754 31.4555 4.26879L31.3359 4.34213L31.6872 4.13973C31.7701 4.0934 31.8677 4.08103 31.9595 4.10521C32.0513 4.12939 32.1301 4.18823 32.1794 4.26936C32.2287 4.35049 32.2447 4.44758 32.2238 4.54021C32.203 4.63283 32.1471 4.71377 32.0678 4.76599L21.3809 11.5735L32.6596 5.06006C32.701 5.03541 32.7468 5.01914 32.7944 5.01219C32.8421 5.00524 32.8906 5.00775 32.9373 5.01956C32.984 5.03138 33.0279 5.05227 33.0665 5.08105C33.1051 5.10983 33.1376 5.14593 33.1623 5.18729C33.187 5.22865 33.2032 5.27447 33.2102 5.32212C33.2171 5.36976 33.2146 5.41831 33.2028 5.46499C33.191 5.51167 33.1701 5.55557 33.1413 5.59417C33.1125 5.63278 33.0764 5.66534 33.0351 5.68999L29.6581 7.77339L33.2419 5.70099C33.283 5.676 33.3287 5.65937 33.3763 5.65203C33.4239 5.6447 33.4725 5.64681 33.5193 5.65825C33.5661 5.66969 33.6101 5.69024 33.649 5.71871C33.6878 5.74718 33.7207 5.78302 33.7457 5.82419C33.7707 5.86536 33.7873 5.91105 33.7946 5.95865C33.802 6.00625 33.7998 6.05483 33.7884 6.10161C33.777 6.14839 33.7564 6.19246 33.728 6.2313C33.6995 6.27015 33.6636 6.303 33.6225 6.32799L22.1128 13.6496L34.0727 6.74673C34.1561 6.69655 34.2559 6.68153 34.3503 6.70498C34.4448 6.72843 34.526 6.78842 34.5762 6.87176C34.6263 6.9551 34.6414 7.05496 34.6179 7.14937C34.5945 7.24378 34.5345 7.32501 34.4511 7.37519L25.3842 13.0534L34.6975 7.67659C34.7809 7.63051 34.8789 7.61867 34.9708 7.64357C35.0627 7.66847 35.1414 7.72817 35.1901 7.81002C35.2388 7.89187 35.2537 7.98946 35.2317 8.08213C35.2097 8.1748 35.1525 8.25527 35.0723 8.30653L32.3186 9.99319L35.1148 8.37986C35.1977 8.33426 35.2951 8.32248 35.3865 8.347C35.4779 8.37152 35.5563 8.43044 35.6052 8.51142C35.6542 8.59241 35.67 8.68919 35.6492 8.78153C35.6285 8.87387 35.5728 8.95461 35.4939 9.00686L24.1273 16.1935L35.6905 9.52019C35.774 9.47259 35.8729 9.4597 35.9658 9.48431C36.0588 9.50891 36.1383 9.56904 36.1874 9.65174C36.2364 9.73444 36.251 9.83309 36.228 9.92644C36.205 10.0198 36.1463 10.1004 36.0645 10.1509L35.8159 10.3027L35.9845 10.2051C36.0677 10.1547 36.1675 10.1393 36.262 10.1624C36.3564 10.1855 36.4379 10.2452 36.4883 10.3283C36.5388 10.4115 36.5542 10.5113 36.5311 10.6057C36.508 10.7002 36.4483 10.7817 36.3651 10.8321L24.3597 18.4588L36.4509 11.4767C36.534 11.4293 36.6322 11.4161 36.7248 11.4401C36.8174 11.4641 36.8969 11.5233 36.9465 11.6051C36.996 11.6869 37.0117 11.7848 36.9901 11.8779C36.9684 11.9711 36.9113 12.0521 36.8308 12.1037L25.0593 19.5801L36.7993 12.8026C36.8825 12.7546 36.9813 12.7412 37.0743 12.7653C37.1674 12.7894 37.2472 12.849 37.2967 12.9314C37.3462 13.0137 37.3614 13.1123 37.339 13.2057C37.3166 13.2992 37.2584 13.3801 37.1769 13.4311L28.4627 18.8812L37.0141 13.9451C37.0972 13.9008 37.1941 13.8901 37.2848 13.9152C37.3756 13.9404 37.4531 13.9994 37.5015 14.0802C37.5498 14.161 37.5653 14.2573 37.5446 14.3491C37.5239 14.441 37.4687 14.5214 37.3903 14.5736L31.6872 18.1046L37.13 14.9601C37.213 14.9126 37.3113 14.8995 37.4039 14.9235C37.4964 14.9474 37.576 15.0066 37.6255 15.0884C37.6751 15.1702 37.6907 15.2681 37.6691 15.3613C37.6475 15.4544 37.5904 15.5354 37.5099 15.5871L26.7893 22.4019L37.1945 16.3945C37.2359 16.3698 37.2817 16.3535 37.3294 16.3466C37.377 16.3396 37.4256 16.3421 37.4722 16.354C37.5189 16.3658 37.5628 16.3867 37.6014 16.4155C37.64 16.4442 37.6726 16.4803 37.6972 16.5217C37.7219 16.5631 37.7382 16.6089 37.7451 16.6565C37.7521 16.7042 37.7495 16.7527 37.7377 16.7994C37.7259 16.8461 37.705 16.89 37.6762 16.9286C37.6475 16.9672 37.6114 16.9997 37.57 17.0244L34.05 19.1951L37.1557 17.4013C37.2391 17.3513 37.339 17.3366 37.4333 17.3602C37.5277 17.3839 37.6088 17.444 37.6587 17.5275C37.7087 17.6109 37.7235 17.7108 37.6999 17.8051C37.6762 17.8995 37.616 17.9805 37.5326 18.0305L32.9324 20.8847L37.0486 18.5079C37.1319 18.4578 37.2318 18.4427 37.3262 18.4662C37.373 18.4778 37.417 18.4985 37.4557 18.5271C37.4945 18.5557 37.5272 18.5917 37.552 18.633C37.5769 18.6742 37.5934 18.72 37.6005 18.7676C37.6077 18.8152 37.6054 18.8638 37.5938 18.9106C37.5822 18.9573 37.5615 19.0013 37.5329 19.0401C37.5042 19.0788 37.4683 19.1115 37.427 19.1364L30.9355 23.2071L36.8543 19.7905C36.9372 19.7449 37.0345 19.7332 37.126 19.7577C37.2174 19.7822 37.2957 19.8411 37.3447 19.9221C37.3937 20.0031 37.4094 20.0999 37.3887 20.1922C37.368 20.2845 37.3123 20.3653 37.2334 20.4175L29.4461 25.3631L36.5411 21.2667C36.5822 21.2415 36.6278 21.2247 36.6754 21.2171C36.723 21.2096 36.7716 21.2115 36.8185 21.2227C36.8653 21.234 36.9095 21.2543 36.9485 21.2826C36.9875 21.3109 37.0205 21.3467 37.0457 21.3877C37.0709 21.4288 37.0877 21.4744 37.0952 21.522C37.1028 21.5696 37.1009 21.6182 37.0897 21.6651C37.0784 21.7119 37.0581 21.7561 37.0298 21.7951C37.0015 21.8341 36.9657 21.8671 36.9247 21.8923L27.5277 27.9877L36.0065 23.0913C36.0897 23.0455 36.1873 23.0337 36.2789 23.0584C36.3706 23.0832 36.4491 23.1425 36.4979 23.2238C36.5467 23.3052 36.562 23.4024 36.5407 23.4949C36.5194 23.5873 36.463 23.6679 36.3835 23.7197L34.2465 25.0551L35.5665 24.2947C35.6495 24.2491 35.7468 24.2373 35.8382 24.2618C35.9296 24.2863 36.008 24.3452 36.057 24.4262C36.106 24.5072 36.1217 24.604 36.101 24.6963C36.0802 24.7887 36.0246 24.8694 35.9457 24.9217L33.0123 26.7704L35.0026 25.6213C35.0855 25.5749 35.1831 25.5626 35.2749 25.5867C35.3667 25.6109 35.4455 25.6698 35.4948 25.7509C35.5441 25.832 35.5601 25.9291 35.5392 26.0217C35.5184 26.1144 35.4625 26.1953 35.3832 26.2475L31.0111 29.0496L34.2135 27.2009C34.2956 27.1547 34.3923 27.1419 34.4836 27.1651C34.5749 27.1883 34.6538 27.2458 34.7038 27.3255C34.7539 27.4053 34.7714 27.5013 34.7526 27.5936C34.7338 27.6859 34.6802 27.7674 34.6029 27.8213L27.3899 32.6921L32.796 29.571C32.8779 29.5247 32.9745 29.5117 33.0657 29.5347C33.1569 29.5576 33.2358 29.6147 33.2861 29.6942C33.3364 29.7737 33.3543 29.8695 33.3359 29.9618C33.3176 30.054 33.2645 30.1357 33.1876 30.1899L27.3334 34.2328L30.8805 32.1853C30.962 32.1399 31.0578 32.1273 31.1483 32.15C31.2387 32.1728 31.3172 32.2291 31.3675 32.3076C31.4179 32.3862 31.4365 32.4809 31.4194 32.5727C31.4024 32.6644 31.351 32.7462 31.2758 32.8013L27.3312 35.5983L28.3784 34.994C28.4587 34.9478 28.5535 34.9336 28.6438 34.9545C28.7341 34.9753 28.8131 35.0295 28.865 35.1062C28.917 35.183 28.9379 35.2765 28.9237 35.3681C28.9095 35.4596 28.8611 35.5424 28.7883 35.5997L24.6743 38.8301C24.6823 38.8409 24.6897 38.8521 24.6963 38.8638C24.7449 38.948 24.7581 39.0481 24.733 39.142C24.7078 39.236 24.6463 39.316 24.5621 39.3647L22.3966 40.6113C22.3413 40.6451 22.278 40.6633 22.2133 40.6641Z" fill="#3B2186"/>
<path d="M23.3844 26.0115C23.3061 26.0116 23.2299 25.9867 23.1668 25.9403C23.1037 25.894 23.0571 25.8286 23.0338 25.7539C23.0106 25.6791 23.0118 25.5989 23.0374 25.5249C23.063 25.4509 23.1117 25.3871 23.1762 25.3427L23.6037 25.0494L22.0219 25.9602C21.9418 26.0059 21.8474 26.0197 21.7576 25.9989C21.6678 25.9781 21.5891 25.9242 21.5372 25.848C21.4853 25.7718 21.464 25.6788 21.4776 25.5876C21.4912 25.4964 21.5386 25.4137 21.6105 25.3559L25.0645 22.6111L19.2624 25.9602C19.1823 26.0065 19.0878 26.0208 18.9976 26.0004C18.9075 25.9799 18.8284 25.9261 18.7761 25.8498C18.7239 25.7735 18.7025 25.6803 18.7161 25.5888C18.7297 25.4974 18.7773 25.4145 18.8495 25.3567L22.3365 22.57L16.4698 25.958C16.3883 26.0034 16.2926 26.016 16.2021 25.9933C16.1116 25.9706 16.0332 25.9142 15.9828 25.8357C15.9324 25.7572 15.9139 25.6624 15.9309 25.5707C15.948 25.4789 15.9993 25.3972 16.0746 25.342L17.8052 24.1181L14.7758 25.8663C14.6944 25.9123 14.5984 25.9255 14.5076 25.9031C14.4168 25.8807 14.338 25.8244 14.2873 25.7458C14.2366 25.6672 14.2178 25.5722 14.2349 25.4802C14.252 25.3882 14.3036 25.3062 14.3791 25.2511L16.1296 24.0044L13.681 25.4183C13.6004 25.4636 13.5058 25.4768 13.4159 25.4553C13.3261 25.4339 13.2476 25.3793 13.1963 25.3024C13.1449 25.2256 13.1245 25.1323 13.139 25.041C13.1536 24.9498 13.202 24.8674 13.2747 24.8103L15.7468 22.9088L12.7716 24.6263C12.693 24.6716 12.6004 24.6863 12.5117 24.6673C12.4229 24.6483 12.3444 24.5972 12.2912 24.5236C12.238 24.4501 12.214 24.3595 12.2237 24.2692C12.2335 24.179 12.2764 24.0956 12.3441 24.0352L14.7135 21.9269L12.1153 23.4229C12.0372 23.4664 11.946 23.4799 11.8587 23.4608C11.7714 23.4418 11.694 23.3915 11.6412 23.3195C11.5883 23.2474 11.5636 23.1586 11.5716 23.0696C11.5796 22.9806 11.6199 22.8976 11.6848 22.8362L12.7768 21.8425L11.9386 22.3258C11.8673 22.3671 11.7842 22.3832 11.7026 22.3715C11.621 22.3598 11.5458 22.321 11.489 22.2613C11.4321 22.2014 11.3971 22.124 11.3897 22.0418C11.3822 21.9595 11.4028 21.8772 11.448 21.8081L12.053 20.8841C11.9759 20.9017 11.8952 20.8944 11.8225 20.8632C11.7499 20.8319 11.6891 20.7784 11.6489 20.7102C11.6004 20.6262 11.5873 20.5264 11.6123 20.4326C11.6373 20.3389 11.6985 20.2589 11.7824 20.2101L12.999 19.5083C13.0703 19.4671 13.1535 19.4511 13.2351 19.4629C13.3167 19.4748 13.3919 19.5138 13.4486 19.5736C13.5053 19.6334 13.5401 19.7106 13.5476 19.7927C13.555 19.8748 13.5346 19.957 13.4896 20.026L12.9029 20.9229L15.3566 19.5068C15.4347 19.4633 15.5259 19.4498 15.6132 19.4689C15.7005 19.4879 15.7779 19.5382 15.8308 19.6102C15.8836 19.6823 15.9084 19.7711 15.9003 19.8601C15.8923 19.9491 15.852 20.0321 15.7871 20.0935L14.6952 21.0872L17.4356 19.5068C17.5136 19.4655 17.6038 19.4537 17.6898 19.4735C17.7758 19.4934 17.8517 19.5435 17.9037 19.6149C17.9557 19.6862 17.9802 19.7738 17.9727 19.8618C17.9653 19.9497 17.9264 20.032 17.8632 20.0935L15.4908 22.2099L20.1842 19.5032C20.2647 19.4579 20.3593 19.4446 20.4492 19.4661C20.5391 19.4876 20.6175 19.5422 20.6689 19.619C20.7202 19.6958 20.7406 19.7892 20.7261 19.8804C20.7116 19.9717 20.6631 20.0541 20.5904 20.1111L18.1132 22.0141L22.4619 19.5068C22.5434 19.4603 22.6397 19.4469 22.7309 19.4692C22.8221 19.4916 22.9012 19.5481 22.952 19.6271C23.0028 19.706 23.0213 19.8015 23.0038 19.8937C22.9863 19.986 22.9341 20.068 22.8579 20.1229L21.106 21.3695L24.3326 19.5076C24.4141 19.4622 24.5099 19.4496 24.6004 19.4723C24.6908 19.495 24.7693 19.5514 24.8196 19.6299C24.87 19.7084 24.8886 19.8032 24.8715 19.8949C24.8545 19.9866 24.8031 20.0684 24.7279 20.1236L22.9928 21.3475L26.1858 19.5068C26.2658 19.4606 26.3604 19.4462 26.4505 19.4667C26.5407 19.4871 26.6198 19.5409 26.672 19.6172C26.7242 19.6935 26.7456 19.7867 26.732 19.8782C26.7184 19.9696 26.6708 20.0526 26.5986 20.1104L23.1131 22.8971L28.9798 19.5098C29.0599 19.4641 29.1542 19.4503 29.2441 19.4711C29.3339 19.4919 29.4126 19.5457 29.4645 19.6219C29.5164 19.6982 29.5377 19.7911 29.5241 19.8823C29.5105 19.9735 29.463 20.0563 29.3912 20.114L25.9364 22.8597L31.3631 19.7261C31.445 19.6799 31.5416 19.6669 31.6328 19.6898C31.724 19.7127 31.8029 19.7699 31.8532 19.8494C31.9035 19.9288 31.9214 20.0246 31.903 20.1169C31.8847 20.2092 31.8316 20.2908 31.7547 20.345L31.3279 20.6384L31.9028 20.3069C31.9828 20.2623 32.0766 20.2492 32.1657 20.2702C32.2549 20.2913 32.3329 20.3449 32.3845 20.4206C32.4361 20.4963 32.4575 20.5885 32.4445 20.6792C32.4315 20.7698 32.385 20.8523 32.3142 20.9105L29.8466 22.8751L32.0612 21.5969C32.1394 21.5485 32.2328 21.5313 32.323 21.5486C32.4133 21.5658 32.4937 21.6163 32.5485 21.6901C32.6033 21.7639 32.6284 21.8555 32.6188 21.9469C32.6092 22.0382 32.5657 22.1227 32.4968 22.1835L30.8102 23.7969L31.6975 23.2835C31.7813 23.2397 31.8788 23.2299 31.9696 23.2563C32.0605 23.2826 32.1376 23.343 32.1849 23.4249C32.2322 23.5068 32.2461 23.6038 32.2236 23.6957C32.2011 23.7875 32.144 23.8671 32.0642 23.9179L28.5119 25.9602C28.4341 26.0185 28.3363 26.0436 28.24 26.0298C28.1438 26.0161 28.0569 25.9647 27.9986 25.8869C27.9402 25.8091 27.9152 25.7113 27.9289 25.615C27.9427 25.5187 27.9941 25.4319 28.0719 25.3735L29.7637 23.7602L25.9658 25.9602C25.8858 26.0048 25.792 26.0179 25.7029 25.9969C25.6137 25.9758 25.5357 25.9222 25.4841 25.8465C25.4325 25.7709 25.4111 25.6786 25.4241 25.588C25.4371 25.4973 25.4836 25.4148 25.5544 25.3567L28.025 23.3877L23.5678 25.9602C23.5122 25.9931 23.449 26.0109 23.3844 26.0115Z" fill="#D3B571"/>
<path d="M21.129 20.1449C21.0558 20.1447 20.9843 20.1227 20.9237 20.0816C20.8631 20.0404 20.8162 19.9821 20.7891 19.9141C20.762 19.8461 20.7558 19.7715 20.7714 19.7C20.787 19.6285 20.8237 19.5633 20.8767 19.5127L21.6878 18.7383L19.3367 20.0935C19.2594 20.1381 19.1685 20.153 19.081 20.1353C18.9936 20.1177 18.9155 20.0688 18.8615 19.9977C18.8076 19.9266 18.7814 19.8383 18.7878 19.7493C18.7943 19.6603 18.833 19.5767 18.8967 19.5142L19.7657 18.6665L17.2929 20.0935C17.2165 20.1372 17.1269 20.1519 17.0405 20.1349C16.9541 20.1179 16.8767 20.0705 16.8225 20.0012C16.7682 19.9319 16.7407 19.8453 16.7449 19.7574C16.7492 19.6695 16.7849 19.586 16.8456 19.5223L17.8268 18.5037L15.0724 20.0935C14.998 20.1366 14.9109 20.1522 14.8263 20.1376C14.7416 20.123 14.6648 20.0791 14.6091 20.0136C14.5535 19.9481 14.5227 19.8652 14.5219 19.7793C14.5212 19.6934 14.5507 19.6099 14.6053 19.5435L15.6979 18.214L12.7213 19.9322C12.6426 19.9779 12.5496 19.9926 12.4606 19.9735C12.3716 19.9545 12.2929 19.903 12.2397 19.8291C12.1866 19.7551 12.1628 19.6641 12.1731 19.5737C12.1834 19.4832 12.2269 19.3998 12.2953 19.3397L12.6473 19.0287L12.1156 19.3353C12.0456 19.3758 11.9641 19.3919 11.8839 19.3813C11.8037 19.3707 11.7293 19.3338 11.6723 19.2765C11.6152 19.2192 11.5787 19.1446 11.5684 19.0644C11.5581 18.9842 11.5747 18.9028 11.6155 18.8329L12.1625 17.9001L12.1493 17.9075C12.0655 17.9513 11.968 17.9611 11.8772 17.9347C11.7864 17.9084 11.7092 17.848 11.6619 17.7661C11.6146 17.6842 11.6007 17.5872 11.6232 17.4953C11.6457 17.4035 11.7028 17.3239 11.7827 17.2731L12.9978 16.5721C13.0672 16.5317 13.1482 16.5155 13.2278 16.5261C13.3075 16.5367 13.3813 16.5736 13.4378 16.6307C13.4948 16.6881 13.5313 16.7627 13.5415 16.843C13.5517 16.9232 13.5351 17.0046 13.4943 17.0744L12.9472 18.0072L15.4398 16.5735C15.5184 16.5287 15.6109 16.5146 15.6994 16.5338C15.7878 16.5531 15.866 16.6044 15.9189 16.6779C15.9718 16.7513 15.9957 16.8418 15.9859 16.9318C15.9761 17.0218 15.9333 17.105 15.8659 17.1653L15.5139 17.4763L17.0788 16.5735C17.1531 16.5305 17.2402 16.5149 17.3249 16.5295C17.4096 16.5441 17.4864 16.588 17.542 16.6535C17.5977 16.7189 17.6285 16.8019 17.6292 16.8878C17.6299 16.9737 17.6005 17.0572 17.5459 17.1235L16.4533 18.4531L19.71 16.5735C19.7864 16.5299 19.876 16.5152 19.9624 16.5322C20.0488 16.5491 20.1262 16.5966 20.1804 16.6659C20.2347 16.7352 20.2622 16.8217 20.258 16.9097C20.2538 16.9976 20.218 17.0811 20.1573 17.1448L19.1761 18.1634L21.9305 16.5735C22.0078 16.529 22.0987 16.5141 22.1862 16.5318C22.2737 16.5494 22.3517 16.5983 22.4057 16.6694C22.4597 16.7405 22.4859 16.8288 22.4794 16.9178C22.4729 17.0068 22.4342 17.0904 22.3705 17.1529L21.5008 18.0006L23.9743 16.5735C24.0519 16.5293 24.143 16.5149 24.2305 16.5331C24.3179 16.5512 24.3958 16.6007 24.4493 16.6722C24.5029 16.7437 24.5285 16.8323 24.5214 16.9213C24.5143 17.0104 24.4749 17.0937 24.4107 17.1558L23.5996 17.9302L25.9507 16.5735C26.0259 16.5304 26.1141 16.5153 26.1994 16.531C26.2847 16.5467 26.3617 16.5922 26.4167 16.6593C26.4717 16.7264 26.5011 16.8108 26.4997 16.8976C26.4982 16.9843 26.4661 17.0678 26.409 17.1331L25.3427 18.3416L28.4059 16.5735C28.4796 16.531 28.5659 16.5154 28.6499 16.5296C28.7339 16.5437 28.8104 16.5867 28.8662 16.651C28.9219 16.7154 28.9536 16.7972 28.9556 16.8823C28.9577 16.9675 28.93 17.0507 28.8774 17.1177L27.7818 18.511L31.029 16.6373C31.1032 16.5951 31.1899 16.5801 31.274 16.595C31.3582 16.6098 31.4345 16.6536 31.4898 16.7187C31.5451 16.7839 31.5759 16.8662 31.5769 16.9517C31.5779 17.0371 31.5491 17.1202 31.4954 17.1866L30.4541 18.4604L31.9904 17.5738C32.0656 17.5306 32.1536 17.5155 32.2389 17.5311C32.3242 17.5467 32.4012 17.592 32.4563 17.659C32.5113 17.726 32.5408 17.8104 32.5396 17.8971C32.5383 17.9838 32.5064 18.0672 32.4495 18.1326L32.1517 18.4736C32.216 18.4733 32.2791 18.4901 32.3347 18.5223C32.3902 18.5545 32.4362 18.601 32.4678 18.6569C32.5162 18.741 32.5294 18.8408 32.5044 18.9346C32.4794 19.0283 32.4182 19.1083 32.3343 19.1571L30.7056 20.0935C30.6305 20.1363 30.5427 20.1511 30.4577 20.1354C30.3727 20.1197 30.296 20.0745 30.2411 20.0078C30.1862 19.941 30.1566 19.8571 30.1576 19.7706C30.1586 19.6842 30.1901 19.6009 30.2465 19.5355L30.4438 19.3096L29.0842 20.0935C29.0099 20.1362 28.9231 20.1515 28.8387 20.1368C28.7543 20.1222 28.6777 20.0784 28.6222 20.0132C28.5667 19.9479 28.5358 19.8653 28.5349 19.7797C28.5339 19.694 28.563 19.6107 28.6171 19.5443L29.6584 18.2705L26.4999 20.0935C26.4261 20.1361 26.3398 20.1516 26.2558 20.1375C26.1719 20.1234 26.0954 20.0804 26.0396 20.0161C25.9838 19.9517 25.9522 19.8699 25.9502 19.7848C25.9481 19.6996 25.9758 19.6164 26.0284 19.5494L27.124 18.1561L23.7683 20.0935C23.693 20.1367 23.6049 20.1518 23.5195 20.1361C23.4342 20.1204 23.3572 20.0749 23.3022 20.0078C23.2472 19.9407 23.2178 19.8562 23.2193 19.7695C23.2207 19.6827 23.2528 19.5993 23.3099 19.534L24.3762 18.3255L21.3123 20.0935C21.2569 20.1268 21.1936 20.1446 21.129 20.1449Z" fill="#925C4C"/>
<path d="M24.1025 17.2151C24.0218 17.2151 23.9433 17.1885 23.8793 17.1393C23.8153 17.0902 23.7692 17.0213 23.7483 16.9433C23.7274 16.8654 23.7329 16.7827 23.7637 16.7081C23.7946 16.6336 23.8493 16.5713 23.9192 16.5309L28.93 13.6401C29.0048 13.5973 29.0922 13.5821 29.1771 13.5973C29.2619 13.6125 29.3387 13.6571 29.3939 13.7233C29.4491 13.7894 29.4793 13.8729 29.479 13.9591C29.4788 14.0453 29.4483 14.1286 29.3928 14.1945L28.3067 15.4683L31.46 13.6504C31.5369 13.606 31.6273 13.5911 31.7144 13.6084C31.8015 13.6256 31.8794 13.6739 31.9336 13.7442C31.9878 13.8145 32.0146 13.9021 32.0091 13.9907C32.0036 14.0794 31.9662 14.163 31.9037 14.2261L30.9826 15.1545L32.0635 14.5304C32.1401 14.4862 32.23 14.4711 32.3168 14.488C32.4035 14.5048 32.4813 14.5524 32.5357 14.622C32.5902 14.6917 32.6176 14.7786 32.6131 14.8669C32.6085 14.9551 32.5722 15.0388 32.5109 15.1024L32.2549 15.3678C32.335 15.3696 32.4122 15.3975 32.4749 15.4472C32.5376 15.497 32.5823 15.5659 32.6022 15.6434C32.6221 15.721 32.616 15.8029 32.585 15.8767C32.5539 15.9505 32.4996 16.0121 32.4302 16.052L30.5067 17.1601C30.4302 17.2043 30.3404 17.2194 30.2537 17.2026C30.167 17.1859 30.0893 17.1384 30.0348 17.0689C29.9803 16.9994 29.9527 16.9126 29.9571 16.8244C29.9614 16.7362 29.9975 16.6526 30.0586 16.5888L30.1818 16.4612L28.9667 17.1601C28.8898 17.2019 28.8006 17.2148 28.7151 17.1965C28.6296 17.1783 28.5534 17.1301 28.5003 17.0606C28.4472 16.9911 28.4207 16.905 28.4255 16.8176C28.4303 16.7303 28.4662 16.6476 28.5267 16.5844L29.4485 15.656L26.84 17.1601C26.7653 17.203 26.6778 17.2181 26.593 17.2029C26.5081 17.1877 26.4314 17.1431 26.3762 17.077C26.3209 17.0108 26.2908 16.9273 26.291 16.8411C26.2912 16.755 26.3218 16.6716 26.3773 16.6057L27.4604 15.3305L24.2844 17.1638C24.2293 17.1965 24.1666 17.2142 24.1025 17.2151Z" fill="#F9D990"/>
<path d="M18.9282 21.6005C18.8539 21.6005 18.7813 21.5779 18.7201 21.5358C18.659 21.4936 18.612 21.4339 18.5856 21.3645C18.5591 21.2951 18.5543 21.2193 18.5719 21.1471C18.5895 21.0749 18.6285 21.0098 18.684 20.9603L19.3227 20.389L18.1912 21.0417C18.1105 21.0883 18.0152 21.1024 17.9244 21.0813C17.8337 21.0601 17.7545 21.0052 17.7028 20.9277C17.6511 20.8503 17.6308 20.756 17.646 20.6642C17.6613 20.5723 17.7109 20.4896 17.7849 20.433L22.1365 17.1066L17.2393 19.9336C17.1588 19.9805 17.0635 19.995 16.9727 19.9742C16.8819 19.9534 16.8025 19.8988 16.7505 19.8215C16.6985 19.7442 16.6778 19.65 16.6928 19.5581C16.7077 19.4661 16.7571 19.3833 16.8308 19.3264L19.9013 16.9402L16.4026 18.9598C16.3217 19.0072 16.2258 19.0218 16.1345 19.0007C16.0431 18.9796 15.9634 18.9243 15.9116 18.8462C15.8597 18.7681 15.8398 18.6731 15.8558 18.5807C15.8719 18.4884 15.9227 18.4057 15.9978 18.3496L17.4806 17.2284L15.7668 18.2176C15.6895 18.2622 15.5985 18.2771 15.5111 18.2594C15.4236 18.2418 15.3456 18.1928 15.2916 18.1218C15.2376 18.0507 15.2114 17.9624 15.2179 17.8734C15.2244 17.7844 15.2631 17.7008 15.3268 17.6383L17.2789 15.7316L14.6594 17.2445C14.5852 17.2867 14.4985 17.3017 14.4144 17.2868C14.3302 17.272 14.2539 17.2282 14.1986 17.1631C14.1434 17.098 14.1125 17.0156 14.1115 16.9302C14.1105 16.8448 14.1393 16.7617 14.193 16.6952L15.3532 15.2777L12.279 17.0524C12.202 17.0952 12.1121 17.1088 12.0259 17.0908C11.9396 17.0727 11.8627 17.0242 11.8093 16.9542C11.7559 16.8841 11.7295 16.7971 11.7349 16.7092C11.7404 16.6212 11.7773 16.5382 11.839 16.4752L12.6406 15.6752L11.9402 16.08C11.872 16.1199 11.7928 16.1368 11.7142 16.128C11.6357 16.1192 11.562 16.0853 11.5043 16.0313C11.4466 15.9773 11.4079 15.9061 11.3939 15.8283C11.38 15.7505 11.3915 15.6703 11.4269 15.5996L11.8148 14.8135C11.7466 14.8199 11.6781 14.806 11.6178 14.7735C11.5575 14.741 11.5082 14.6914 11.476 14.6309C11.452 14.5891 11.4364 14.5431 11.4302 14.4953C11.4239 14.4475 11.4272 14.399 11.4397 14.3525C11.4522 14.306 11.4738 14.2624 11.5032 14.2242C11.5326 14.186 11.5692 14.154 11.611 14.13L12.4668 13.6402C12.535 13.6002 12.6142 13.5833 12.6928 13.5921C12.7713 13.6009 12.8449 13.6348 12.9027 13.6888C12.9604 13.7428 12.9991 13.814 13.013 13.8918C13.027 13.9696 13.0154 14.0498 12.9801 14.1205L12.6237 14.8421L14.7064 13.6409C14.7834 13.5981 14.8733 13.5844 14.9595 13.6025C15.0458 13.6205 15.1226 13.669 15.1761 13.7391C15.2295 13.8092 15.2559 13.8961 15.2504 13.9841C15.245 14.072 15.208 14.1551 15.1464 14.218L14.3448 15.0174L16.7267 13.6402C16.801 13.5979 16.8876 13.5829 16.9718 13.5978C17.0559 13.6127 17.1322 13.6564 17.1875 13.7215C17.2428 13.7867 17.2736 13.869 17.2746 13.9545C17.2756 14.0399 17.2468 14.123 17.1931 14.1894L16.033 15.6062L19.44 13.6402C19.5173 13.5956 19.6082 13.5807 19.6957 13.5984C19.7832 13.616 19.8612 13.665 19.9152 13.736C19.9692 13.8071 19.9954 13.8954 19.9889 13.9844C19.9824 14.0734 19.9437 14.157 19.88 14.2195L17.9286 16.1262L22.2333 13.6424C22.314 13.5964 22.4092 13.5828 22.4995 13.6043C22.5899 13.6258 22.6687 13.6808 22.7201 13.7581C22.7715 13.8355 22.7916 13.9295 22.7764 14.0211C22.7612 14.1127 22.7117 14.1952 22.6381 14.2518L21.159 15.3701L24.1524 13.6402C24.2328 13.5954 24.327 13.5824 24.4164 13.6039C24.5058 13.6253 24.5839 13.6795 24.6352 13.7558C24.6866 13.8322 24.7073 13.925 24.6934 14.0159C24.6795 14.1068 24.6319 14.1891 24.5602 14.2466L21.4868 16.6344L26.678 13.6402C26.7587 13.5936 26.854 13.5794 26.9447 13.6006C27.0354 13.6217 27.1147 13.6766 27.1664 13.7541C27.2181 13.8316 27.2384 13.9258 27.2232 14.0177C27.2079 14.1096 27.1583 14.1922 27.0843 14.2488L22.2582 17.9382C22.3275 17.9479 22.3925 17.9772 22.4457 18.0226C22.4989 18.0681 22.5379 18.1278 22.5583 18.1947C22.5786 18.2616 22.5794 18.3329 22.5606 18.4003C22.5417 18.4676 22.504 18.5282 22.4518 18.5748L20.7168 20.125C20.7309 20.1419 20.7434 20.1601 20.7542 20.1793C20.8025 20.2634 20.8156 20.3633 20.7904 20.4571C20.7653 20.5508 20.704 20.6308 20.62 20.6794L19.1115 21.5514C19.0558 21.5837 18.9926 21.6007 18.9282 21.6005Z" fill="#F9D990"/>
<path d="M14.756 14.2781C14.6777 14.2779 14.6015 14.2528 14.5385 14.2062C14.4756 14.1596 14.4292 14.0941 14.4061 14.0193C14.3831 13.9444 14.3846 13.8642 14.4105 13.7903C14.4364 13.7164 14.4852 13.6527 14.5499 13.6085L17.1122 11.8625L13.0788 14.1923C12.9976 14.2385 12.9017 14.2519 12.8109 14.2298C12.72 14.2077 12.6411 14.1518 12.5901 14.0734C12.5392 13.995 12.5201 13.9001 12.5368 13.8081C12.5535 13.7161 12.6047 13.634 12.6799 13.5785L17.0337 10.409L12.0368 13.2939C11.9557 13.3404 11.8599 13.3541 11.769 13.3323C11.6782 13.3105 11.599 13.2549 11.5478 13.1767C11.4966 13.0985 11.4772 13.0037 11.4935 12.9117C11.5098 12.8197 11.5607 12.7374 11.6356 12.6816L15.0002 10.1971L12.0067 11.9241C11.9251 11.9699 11.829 11.9828 11.7382 11.9601C11.6474 11.9374 11.5687 11.8809 11.5182 11.802C11.4678 11.7231 11.4494 11.628 11.4669 11.536C11.4844 11.444 11.5363 11.3622 11.6122 11.3073L12.1864 10.9018C12.1142 10.9227 12.0374 10.9212 11.9661 10.8977C11.8948 10.8741 11.8323 10.8295 11.7867 10.7698C11.7328 10.6975 11.7074 10.6079 11.7154 10.5181C11.7233 10.4283 11.7641 10.3445 11.83 10.2829L13.5665 8.64608C13.4826 8.65651 13.3976 8.6376 13.326 8.59256C13.2544 8.54752 13.2006 8.47912 13.1737 8.39895C13.1468 8.31877 13.1484 8.23175 13.1783 8.15263C13.2082 8.07351 13.2645 8.00716 13.3377 7.96481L15.8398 6.52014C15.918 6.47339 16.0107 6.45738 16.1 6.47522C16.1893 6.49306 16.2687 6.54348 16.3229 6.61667C16.377 6.68985 16.402 6.78057 16.393 6.87117C16.3839 6.96177 16.3415 7.04576 16.274 7.10681L14.624 8.65928L18.6998 6.30674C18.7813 6.26233 18.8766 6.25045 18.9664 6.27349C19.0563 6.29653 19.1341 6.35278 19.1841 6.43091C19.2342 6.50904 19.2527 6.60323 19.2361 6.6945C19.2194 6.78577 19.1688 6.86733 19.0944 6.92274L18.6111 7.26448L20.2736 6.30674C20.3546 6.26132 20.4499 6.24836 20.5401 6.27049C20.6304 6.29262 20.7089 6.34818 20.7597 6.42594C20.8106 6.5037 20.83 6.59787 20.8141 6.68941C20.7982 6.78095 20.7481 6.86304 20.674 6.91908L17.3065 9.40214L22.6745 6.30674C22.7558 6.26052 22.8516 6.24708 22.9425 6.26918C23.0333 6.29128 23.1123 6.34725 23.1632 6.42564C23.2142 6.50403 23.2333 6.59892 23.2166 6.69092C23.1999 6.78291 23.1487 6.86505 23.0734 6.92054L18.7196 10.0893L25.272 6.30674C25.3539 6.26224 25.4497 6.25061 25.5399 6.27422C25.6301 6.29784 25.7079 6.35491 25.7575 6.43385C25.8071 6.51278 25.8247 6.60764 25.8069 6.69914C25.789 6.79064 25.737 6.87191 25.6614 6.92641L23.0947 8.67394L27.0782 6.37494C27.1603 6.32726 27.2578 6.31333 27.35 6.33607C27.4422 6.35882 27.5221 6.41647 27.5726 6.49688C27.6232 6.5773 27.6406 6.6742 27.6211 6.76718C27.6017 6.86015 27.5469 6.94195 27.4683 6.99534L24.9515 8.71134L28.3879 6.73134C28.4693 6.6833 28.5662 6.66856 28.6582 6.6902C28.7502 6.71184 28.8303 6.76818 28.8818 6.84748C28.9333 6.92677 28.9521 7.02289 28.9344 7.11575C28.9167 7.20862 28.8639 7.29107 28.7868 7.34588L25.0322 10.068L29.6302 7.41334C29.7119 7.36871 29.8076 7.35685 29.8977 7.38017C29.9879 7.4035 30.0658 7.46026 30.1157 7.53894C30.1655 7.61762 30.1835 7.71231 30.1661 7.8038C30.1487 7.89529 30.0971 7.97671 30.0218 8.03154L28.4532 9.11468L30.3525 8.01908C30.4326 7.97422 30.5266 7.96103 30.6159 7.98209C30.7052 8.00316 30.7834 8.05696 30.835 8.13287C30.8866 8.20878 30.9078 8.30127 30.8945 8.39208C30.8812 8.48289 30.8344 8.56541 30.7632 8.62334L27.6296 11.1108L31.1768 9.06334C31.2566 9.01669 31.3512 9.00195 31.4415 9.02207C31.5318 9.04219 31.6111 9.09569 31.6636 9.17184C31.7161 9.24799 31.7379 9.34117 31.7246 9.4327C31.7113 9.52424 31.6639 9.60736 31.5918 9.66541L29.5664 11.3169L31.6886 10.0922C31.7658 10.0488 31.856 10.0348 31.9426 10.0527C32.0293 10.0706 32.1065 10.1193 32.1601 10.1897C32.2137 10.2601 32.24 10.3475 32.2343 10.4358C32.2285 10.5241 32.191 10.6073 32.1286 10.6701L30.6092 12.1734L32.0025 11.3667C32.0806 11.32 32.1734 11.304 32.2626 11.3218C32.3519 11.3397 32.4314 11.3901 32.4855 11.4633C32.5397 11.5365 32.5647 11.6272 32.5557 11.7178C32.5466 11.8084 32.5042 11.8924 32.4366 11.9534L32.2298 12.1477C32.2943 12.1528 32.3569 12.1718 32.4132 12.2034C32.4696 12.2351 32.5184 12.2787 32.5562 12.3311C32.6049 12.4152 32.6181 12.5152 32.5931 12.6091C32.5681 12.7031 32.5068 12.7832 32.4227 12.8319L30.0027 14.2253C29.9246 14.2728 29.8315 14.2894 29.7418 14.2718C29.652 14.2543 29.5721 14.2038 29.5176 14.1303C29.4632 14.0569 29.4381 13.9657 29.4474 13.8747C29.4567 13.7838 29.4997 13.6996 29.5678 13.6386L29.6324 13.5785L28.5155 14.2231C28.4384 14.2664 28.3482 14.2805 28.2615 14.2626C28.1749 14.2446 28.0977 14.196 28.0441 14.1256C27.9905 14.0552 27.9641 13.9678 27.9699 13.8795C27.9757 13.7912 28.0132 13.708 28.0755 13.6452L29.5957 12.1397L25.9884 14.2267C25.9087 14.2723 25.8147 14.2863 25.7252 14.2659C25.6356 14.2455 25.557 14.1922 25.5048 14.1166C25.4527 14.0411 25.4308 13.9486 25.4434 13.8577C25.4561 13.7667 25.5025 13.6838 25.5734 13.6254L27.5988 11.9732L23.6953 14.2267C23.6152 14.2724 23.5208 14.2862 23.431 14.2655C23.3412 14.2447 23.2625 14.1908 23.2106 14.1146C23.1587 14.0384 23.1374 13.9454 23.151 13.8542C23.1646 13.763 23.212 13.6803 23.2839 13.6225L26.4167 11.1357L21.0612 14.2267C20.9794 14.2714 20.8838 14.2832 20.7936 14.2599C20.7034 14.2366 20.6255 14.1798 20.5757 14.1011C20.5258 14.0225 20.5078 13.9278 20.5253 13.8363C20.5427 13.7448 20.5943 13.6634 20.6696 13.6085L22.2382 12.5225L19.2865 14.2267C19.2051 14.2748 19.1083 14.2895 19.0162 14.2679C18.9242 14.2463 18.8441 14.1899 18.7926 14.1106C18.7411 14.0313 18.7223 13.9352 18.74 13.8423C18.7577 13.7495 18.8105 13.667 18.8876 13.6122L22.6437 10.8901L16.8606 14.2267C16.7787 14.2723 16.6823 14.2848 16.5915 14.2615C16.5006 14.2382 16.4221 14.181 16.3721 14.1017C16.3222 14.0223 16.3045 13.9268 16.3228 13.8348C16.3411 13.7428 16.394 13.6613 16.4705 13.6071L18.9873 11.8911L14.9393 14.2267C14.8838 14.2597 14.8205 14.2774 14.756 14.2781Z" fill="#D3B571"/>
<path d="M31.4253 19.1973C30.7998 19.8001 24.3926 19.5507 21.7196 19.5507L23.4664 17.5157C24.3237 16.7179 30.4067 17.3097 31.0931 17.251C31.274 17.3279 31.4327 17.449 31.5546 17.6031C31.6764 17.7573 31.7577 17.9397 31.7907 18.1334C31.8238 18.3271 31.8077 18.5261 31.7438 18.712C31.68 18.8979 31.5705 19.0647 31.4253 19.1973ZM31.7832 8.99952C31.1737 8.1147 30.3534 7.39569 29.3963 6.90749C28.4392 6.41928 27.3756 6.17727 26.3015 6.20332C23.4202 6.18352 20.5302 6.15052 17.6482 6.20332C16.4442 6.21498 15.2664 6.55531 14.2417 7.18756C13.2171 7.81981 12.3847 8.71995 11.8343 9.79078C11.2205 11.0235 10.8612 12.9243 11.7962 13.8241C11.5807 13.9925 11.4123 14.2136 11.3071 14.466C11.2019 14.7183 11.1635 14.9936 11.1956 15.2651C11.1956 16.0799 11.1824 16.8843 11.9392 17.1439C11.7448 17.3242 11.5944 17.5467 11.4995 17.7942C11.4047 18.0418 11.3679 18.3078 11.392 18.5718C11.416 18.8358 11.5004 19.0907 11.6385 19.317C11.7766 19.5433 11.9647 19.7349 12.1885 19.8771C11.7653 20.0816 11.4391 20.4439 11.2799 20.8861C11.0427 21.8586 11.1516 22.8833 11.5879 23.7843C13.0201 26.6384 16.9882 25.9153 19.6142 25.9153C22.527 25.9153 25.4516 25.9887 28.3644 25.9153C30.4632 25.8596 32.5349 24.5073 32.771 22.2912C32.8649 21.4112 32.8927 20.3713 32.0648 19.8316C32.0266 19.8067 31.9856 19.7949 31.9467 19.7744C32.2547 19.5794 32.4856 19.2837 32.6001 18.9377C32.7249 18.6009 32.7365 18.2326 32.6333 17.8886C32.5301 17.5445 32.3177 17.2435 32.0281 17.031C32.2781 16.9185 32.4868 16.7309 32.6253 16.4944C32.7638 16.2578 32.8252 15.984 32.8011 15.711C32.8011 14.9403 32.8803 14.0647 32.2063 13.7207C33.2711 12.6068 32.639 10.2946 31.7832 8.99952ZM12.5163 10.7669C12.8855 9.5567 13.6664 8.51381 14.7236 7.81885C16.0011 6.99165 17.3842 6.99678 18.8303 6.99678H23.6336C24.9697 6.88857 26.314 6.94745 27.6354 7.17205C28.9787 7.53575 30.135 8.39326 30.8731 9.57298C31.3754 10.3672 32.5965 13.3951 30.8423 13.533C25.6657 13.533 13.3926 13.5535 13.2584 13.533C11.926 13.3335 12.2369 11.6747 12.5163 10.7669ZM12.9812 17.2415C13.3141 17.1889 13.6548 17.2162 13.9751 17.3211C14.2954 17.4261 14.5861 17.6056 14.8234 17.845C15.3022 18.3649 15.7598 18.9061 16.2167 19.4488C15.7628 19.4488 13.6999 19.4539 13.2878 19.4488C12.2464 19.4371 11.4574 17.5003 12.9798 17.2415H12.9812ZM31.1679 20.2665C31.9174 20.7967 31.8279 22.036 31.6372 22.8141C31.4905 23.4621 31.1359 24.0445 30.6276 24.4724C30.1192 24.9002 29.4849 25.1502 28.8212 25.1842C26.5692 25.2766 15.8486 25.2744 15.0485 25.1175C14.4101 24.992 13.82 24.6891 13.346 24.2436C12.8719 23.798 12.533 23.2278 12.3682 22.5985C11.8438 20.5151 12.6292 20.1785 13.1147 20.1469C14.3335 20.0699 15.5846 20.1616 16.8107 20.1506C16.884 20.2305 16.9522 20.3127 17.0241 20.3919C17.7156 21.1626 18.4299 21.8197 19.6047 21.464C20.2952 21.1648 20.8854 20.6739 21.3053 20.0494C23.5728 20.0494 30.5989 20.1227 30.8284 20.1037C30.9485 20.141 31.0624 20.1958 31.1665 20.2665H31.1679ZM31.1188 14.2957C31.7597 14.369 31.7311 14.8611 31.7311 15.4477C31.7311 15.6868 31.8081 16.3835 31.6526 16.5045C31.5412 16.5903 30.9971 16.5045 30.8599 16.5045H27.7542C26.2648 16.5045 23.9871 16.1019 22.7375 17.1307C22.682 17.1576 22.6322 17.195 22.5908 17.2407C22.1611 17.7409 20.3102 20.0971 19.7125 20.5935C18.8582 21.3034 18.2392 20.2269 17.7508 19.6607L15.9102 17.5165C15.7063 17.2258 15.4403 16.9842 15.1314 16.8091C14.8226 16.6341 14.4786 16.53 14.1245 16.5045C13.73 16.4832 13.3281 16.5397 12.935 16.5045C12.3542 16.4517 12.275 16.1671 12.275 15.6193C12.275 15.458 12.154 14.4108 12.2846 14.2993C12.311 14.2671 31.077 14.2913 31.118 14.2957H31.1188Z" fill="#2A2A38"/>
<path d="M25.8325 0.841856C22.1064 -0.00475234 18.2012 0.483127 14.7979 2.22045C11.3945 3.95778 8.70879 6.83436 7.20881 10.3488C4.12881 17.8633 7.48454 26.5555 12.2505 32.5615C12.9002 33.3799 13.5961 34.1587 14.3126 34.9199C12.5895 35.2159 10.9268 35.7934 9.39121 36.6293C8.52367 37.1426 7.43687 37.9823 7.54101 39.1175C7.63634 40.1537 8.66667 40.8577 9.49681 41.3175C10.9763 42.0676 12.5601 42.591 14.1953 42.8699C18.7581 43.7587 23.441 43.8446 28.0333 43.1237C29.8879 42.8766 31.7043 42.3984 33.4401 41.7003C34.5336 41.3294 35.4925 40.6423 36.1953 39.7261C38.0403 36.7407 31.8026 35.2565 29.5953 34.8201C33.9073 30.2507 37.1537 24.6334 37.8438 18.3333C38.594 10.4764 33.6777 2.69792 25.8325 0.841856ZM33.6741 36.9263C34.4741 37.3663 35.5925 38.1355 35.4033 39.1996C35.2368 40.1397 34.1683 40.7227 33.391 41.0923C32.0006 41.7117 30.5352 42.1468 29.0321 42.3867C25.0545 43.0926 20.9916 43.1782 16.9878 42.6404C15.3386 42.448 13.713 42.0903 12.1353 41.5727C11.017 41.2657 9.98838 40.6957 9.13527 39.9102C6.69841 37.2856 12.8643 35.7764 14.7643 35.3943C15.9818 36.6495 17.2785 37.8253 18.6466 38.9143C19.5266 39.6117 20.5159 40.5761 21.6855 40.6347C23.0444 40.7029 24.0762 39.7496 25.0728 38.9591C26.46 37.8583 27.7778 36.6729 29.0189 35.4097C30.6395 35.6722 32.2098 36.1837 33.6741 36.9263ZM36.7797 18.4595C35.9804 25.7569 31.7197 32.0833 26.3899 36.9255C25.5138 37.7214 24.6057 38.4792 23.6655 39.1989C23.0576 39.6638 22.4636 40.205 21.6371 39.9014C21.1428 39.6663 20.6849 39.3613 20.2775 38.9957C18.2344 37.4448 16.3437 35.7029 14.6309 33.7935C9.87741 28.4834 6.25621 21.197 7.28214 13.8857C7.8047 10.1943 9.69043 6.83227 12.568 4.46179C15.4455 2.09131 19.1064 0.884134 22.8295 1.07799C31.5731 1.64779 37.5842 10.0342 36.7797 18.4595Z" fill="#2A2A38"/>
<path d="M22.5348 9.70208C22.5348 9.40642 22.2953 9.16675 21.9998 9.16675C21.7044 9.16675 21.4648 9.40642 21.4648 9.70208V10.0981C21.4648 10.3937 21.7044 10.6334 21.9998 10.6334C22.2953 10.6334 22.5348 10.3937 22.5348 10.0981V9.70208Z" fill="#2A2A38"/>
<path d="M26.2152 9.30362C26.0061 9.09456 25.6673 9.09445 25.4584 9.30336C25.2494 9.51228 25.2496 9.85112 25.4586 10.0602L25.9476 10.5492C26.1567 10.7582 26.4955 10.7583 26.7044 10.5494C26.9133 10.3405 26.9132 10.0017 26.7042 9.79261L26.2152 9.30362Z" fill="#2A2A38"/>
<path d="M17.5531 9.79337C17.3441 10.0024 17.344 10.3413 17.5529 10.5502C17.7618 10.7591 18.1006 10.759 18.3097 10.5499L18.7987 10.0609C19.0077 9.85188 19.0079 9.51304 18.7989 9.30413C18.59 9.09521 18.2512 9.09533 18.0421 9.30439L17.5531 9.79337Z" fill="#2A2A38"/>
</svg>
