<svg width="44" height="44" viewBox="0 0 44 44" fill="none" xmlns="http://www.w3.org/2000/svg">
<g clip-path="url(#clip0_160_1868)">
<path d="M29.017 37.7498C28.9363 37.7498 28.8579 37.7232 28.7938 37.674C28.7298 37.6249 28.6838 37.556 28.6629 37.4781C28.642 37.4001 28.6474 37.3174 28.6783 37.2429C28.7092 37.1683 28.7638 37.106 28.8337 37.0656L43.0604 28.8523C43.142 28.8052 43.2387 28.7914 43.3303 28.8137C43.4219 28.836 43.5014 28.8927 43.5522 28.9721C43.6031 29.0514 43.6215 29.1474 43.6035 29.2399C43.5855 29.3324 43.5325 29.4145 43.4556 29.469L38.3531 33.0792L43.0611 30.36C43.1427 30.3135 43.2389 30.3 43.3301 30.3224C43.4213 30.3448 43.5004 30.4013 43.5512 30.4802C43.602 30.5592 43.6205 30.6546 43.603 30.7469C43.5855 30.8391 43.5333 30.9211 43.4571 30.976L40.3199 33.209L43.0611 31.6272C43.1425 31.5805 43.2387 31.5668 43.3299 31.5889C43.421 31.6109 43.5003 31.6671 43.5513 31.7458C43.6024 31.8246 43.6212 31.9199 43.6041 32.0121C43.587 32.1044 43.5352 32.1866 43.4593 32.2418L41.7726 33.4598L43.0626 32.7155C43.1421 32.6698 43.2358 32.6555 43.3253 32.6755C43.4148 32.6955 43.4936 32.7483 43.5461 32.8236C43.5985 32.8988 43.6209 32.9909 43.6088 33.0818C43.5967 33.1727 43.5509 33.2558 43.4806 33.3146L41.5446 34.928L42.9944 34.0912C43.0735 34.0455 43.1669 34.031 43.2562 34.0506C43.3456 34.0701 43.4243 34.1224 43.4771 34.197C43.5299 34.2717 43.5529 34.3633 43.5416 34.4541C43.5303 34.5448 43.4855 34.628 43.416 34.6874L42.723 35.28C42.8017 35.2847 42.8767 35.3147 42.937 35.3654C42.9973 35.4162 43.0397 35.485 43.0578 35.5617C43.0759 35.6384 43.0688 35.7189 43.0376 35.7913C43.0063 35.8636 42.9526 35.924 42.8844 35.9634L39.8931 37.6875C39.8139 37.7332 39.7205 37.7477 39.6312 37.7281C39.5419 37.7086 39.4632 37.6564 39.4104 37.5817C39.3576 37.5071 39.3346 37.4154 39.3459 37.3247C39.3572 37.2339 39.402 37.1507 39.4714 37.0913L39.9114 36.7136L38.2167 37.6934C38.1373 37.7381 38.0441 37.7517 37.9552 37.7315C37.8664 37.7113 37.7882 37.6587 37.736 37.5839C37.6838 37.5092 37.6613 37.4177 37.6729 37.3273C37.6845 37.2369 37.7294 37.1541 37.7987 37.095L39.7332 35.4816L35.8986 37.6934C35.8173 37.7401 35.7211 37.7538 35.6299 37.7317C35.5387 37.7097 35.4594 37.6535 35.4084 37.5747C35.3574 37.496 35.3385 37.4007 35.3556 37.3084C35.3727 37.2162 35.4246 37.134 35.5004 37.0788L37.1871 35.863L34.0132 37.6963C33.9317 37.7428 33.8354 37.7563 33.7442 37.7339C33.653 37.7115 33.5739 37.6551 33.5231 37.5761C33.4724 37.4971 33.4538 37.4017 33.4713 37.3094C33.4888 37.2172 33.5411 37.1352 33.6172 37.0803L36.7544 34.8473L31.8162 37.6978C31.7345 37.7448 31.6378 37.7587 31.5463 37.7364C31.4547 37.7141 31.3752 37.6573 31.3243 37.578C31.2734 37.4986 31.2551 37.4027 31.2731 37.3101C31.2911 37.2176 31.344 37.1356 31.4209 37.081L36.5256 33.4716L29.2018 37.6992C29.1458 37.7322 29.082 37.7496 29.017 37.7498Z" fill="#E1EFFF"/>
<path d="M21.288 43.4867C21.2089 43.4866 21.1319 43.461 21.0686 43.4135C21.0052 43.3661 20.9589 43.2995 20.9365 43.2236C20.9142 43.1477 20.917 43.0666 20.9445 42.9924C20.972 42.9182 21.0228 42.8549 21.0893 42.812L30.7906 36.5405L20.3135 42.5905C20.2305 42.6337 20.1341 42.6436 20.0441 42.6181C19.9541 42.5926 19.8773 42.5337 19.8293 42.4534C19.7813 42.3731 19.7659 42.2775 19.7861 42.1861C19.8063 42.0948 19.8606 42.0146 19.938 41.9621L22.4475 40.4067L19.7187 41.9819C19.6356 42.0323 19.5358 42.0477 19.4413 42.0246C19.3468 42.0015 19.2654 41.9418 19.2149 41.8587C19.1644 41.7755 19.1491 41.6757 19.1722 41.5812C19.1953 41.4868 19.255 41.4053 19.3381 41.3549L28.6339 35.4427L18.8468 41.0945C18.7639 41.1382 18.6674 41.1486 18.5771 41.1234C18.4868 41.0981 18.4096 41.0393 18.3614 40.959C18.3131 40.8786 18.2975 40.7828 18.3177 40.6913C18.3378 40.5997 18.3923 40.5194 18.4699 40.4668L25.0068 36.3851L18.1252 40.3575C18.0418 40.4036 17.9438 40.4154 17.8519 40.3905C17.76 40.3656 17.6813 40.3059 17.6326 40.2241C17.584 40.1422 17.569 40.0447 17.591 39.952C17.613 39.8593 17.6702 39.7788 17.7505 39.7276L17.9844 39.5809L17.5898 39.8083C17.507 39.8525 17.4103 39.8633 17.3198 39.8384C17.2292 39.8135 17.1516 39.7548 17.1031 39.6743C17.0546 39.5939 17.0387 39.4979 17.0589 39.4062C17.0791 39.3144 17.1337 39.2339 17.2114 39.1813L27.1195 32.9333L16.7326 38.9349C16.6493 38.9818 16.551 38.9943 16.4585 38.9698C16.3661 38.9453 16.287 38.8856 16.2379 38.8036C16.1888 38.7215 16.1738 38.6235 16.1959 38.5305C16.218 38.4375 16.2756 38.3568 16.3564 38.3057L23.1713 34.0817L16.022 38.2067C15.939 38.2553 15.8402 38.2694 15.747 38.2459C15.6537 38.2224 15.5734 38.1631 15.5234 38.081C15.4734 37.9989 15.4577 37.9003 15.4796 37.8067C15.5015 37.7131 15.5594 37.6318 15.6406 37.5804L29.2807 28.8655L13.995 37.6933C13.912 37.7399 13.814 37.7523 13.722 37.7279C13.6299 37.7035 13.551 37.6443 13.5018 37.5627C13.4526 37.4812 13.4371 37.3837 13.4586 37.2909C13.48 37.1981 13.5367 37.1173 13.6167 37.0656L25.4871 29.6399L11.5377 37.6933C11.4545 37.7391 11.3569 37.7509 11.2652 37.7261C11.1736 37.7014 11.0951 37.6421 11.0463 37.5607C10.9975 37.4793 10.9821 37.3822 11.0035 37.2897C11.0248 37.1972 11.0812 37.1166 11.1607 37.0649L24.6123 28.6814L9.00178 37.6933C8.91862 37.7366 8.82204 37.7464 8.73189 37.7206C8.64175 37.6949 8.56488 37.6356 8.51709 37.555C8.4693 37.4743 8.45422 37.3784 8.47494 37.287C8.49567 37.1956 8.55062 37.1155 8.62852 37.0634L16.7106 32.1369L7.08558 37.6933C7.00218 37.7387 6.90443 37.7499 6.81291 37.7247C6.72139 37.6994 6.64322 37.6397 6.59487 37.558C6.54651 37.4763 6.53173 37.379 6.55364 37.2866C6.57554 37.1942 6.63242 37.1139 6.71232 37.0627L11.7459 34.0208L5.38352 37.6933C5.30047 37.7377 5.20355 37.7484 5.11282 37.7232C5.02209 37.6981 4.94452 37.639 4.89616 37.5582C4.84781 37.4774 4.83238 37.3812 4.85307 37.2893C4.87376 37.1975 4.92899 37.1171 5.00732 37.0649L22.3272 26.3582L3.18425 37.4095C3.10052 37.459 3.00056 37.4732 2.90635 37.449C2.81215 37.4248 2.73141 37.3642 2.68192 37.2805C2.63242 37.1967 2.61821 37.0968 2.64241 37.0026C2.66662 36.9083 2.72725 36.8276 2.81098 36.7781L11.6601 31.4314L2.26465 36.8581C2.18092 36.9076 2.08092 36.922 1.98664 36.8978C1.89237 36.8737 1.81154 36.8131 1.76195 36.7294C1.71235 36.6456 1.69805 36.5456 1.72219 36.4513C1.74632 36.3571 1.80692 36.2763 1.89065 36.2267L15.2373 28.1138L1.52545 36.0287C1.44204 36.074 1.3443 36.0852 1.25277 36.06C1.16125 36.0348 1.08309 35.975 1.03473 35.8933C0.986377 35.8116 0.971597 35.7143 0.993502 35.6219C1.01541 35.5296 1.07229 35.4493 1.15218 35.398L13.3563 28.0038L1.09352 35.0834C1.00969 35.1327 0.909711 35.1467 0.815574 35.1223C0.721437 35.0979 0.640853 35.037 0.591549 34.9532C0.542245 34.8694 0.52826 34.7694 0.552671 34.6753C0.577082 34.5811 0.637889 34.5006 0.721715 34.4513L4.79832 32.0071L0.949049 34.2298C0.865223 34.2792 0.765205 34.2933 0.671 34.2689C0.576794 34.2446 0.496116 34.1838 0.446715 34.1C0.397314 34.0162 0.383237 33.9161 0.407579 33.8219C0.431921 33.7277 0.492689 33.6471 0.576515 33.5977L7.86585 29.2123L0.938782 33.2112C0.855203 33.2577 0.756738 33.2698 0.6644 33.2448C0.572062 33.2197 0.493166 33.1596 0.44455 33.0772C0.395934 32.9948 0.381449 32.8967 0.404186 32.8037C0.426923 32.7108 0.485081 32.6304 0.566249 32.5798L6.18725 29.2021L0.938782 32.2322C0.855533 32.2767 0.758331 32.2874 0.66741 32.262C0.576489 32.2366 0.498853 32.1772 0.450664 32.096C0.402474 32.0148 0.387444 31.9182 0.4087 31.8262C0.429957 31.7343 0.485863 31.654 0.564782 31.6023L16.3534 21.9501L0.938782 30.8469C0.855377 30.8923 0.75763 30.9035 0.666108 30.8783C0.574586 30.853 0.496424 30.7933 0.448067 30.7116C0.399711 30.6299 0.38493 30.5326 0.406835 30.4402C0.42874 30.3478 0.485623 30.2675 0.565515 30.2163L10.3849 24.266L0.938782 29.7191C0.855377 29.7644 0.75763 29.7756 0.666108 29.7504C0.574586 29.7252 0.496424 29.6654 0.448067 29.5837C0.399711 29.502 0.38493 29.4047 0.406835 29.3123C0.42874 29.22 0.485623 29.1397 0.565515 29.0884L8.25305 24.4325L0.938782 28.655C0.855591 28.7001 0.75818 28.7113 0.666922 28.6862C0.575664 28.6612 0.497628 28.6018 0.449134 28.5206C0.40064 28.4393 0.385444 28.3424 0.406725 28.2502C0.428005 28.158 0.484114 28.0776 0.563315 28.0258L14.4314 19.4685L0.938782 27.258C0.855377 27.3033 0.75763 27.3146 0.666108 27.2893C0.574586 27.2641 0.496424 27.2043 0.448067 27.1226C0.399711 27.0409 0.38493 26.9437 0.406835 26.8513C0.42874 26.7589 0.485623 26.6786 0.565515 26.6273L5.30065 23.7541L0.938782 26.2717C0.855936 26.3159 0.759256 26.3267 0.668685 26.3018C0.578114 26.2769 0.500561 26.2182 0.452024 26.1377C0.403487 26.0573 0.387668 25.9613 0.40783 25.8696C0.427992 25.7778 0.482598 25.6973 0.560382 25.6447L14.875 16.6415L0.941715 24.6877C0.858929 24.7325 0.762054 24.7438 0.671166 24.7192C0.580278 24.6946 0.502342 24.636 0.453509 24.5554C0.404675 24.4749 0.388686 24.3787 0.408856 24.2867C0.429025 24.1948 0.483806 24.1141 0.561849 24.0614L14.0706 15.4645L0.938782 23.0465C0.855531 23.0945 0.756762 23.1079 0.663729 23.0838C0.570697 23.0597 0.490838 23 0.441339 22.9177C0.391839 22.8353 0.376656 22.7368 0.399057 22.6433C0.421458 22.5499 0.479652 22.469 0.561115 22.418L9.15432 17.0317L0.938782 21.7741C0.855678 21.8179 0.758934 21.8282 0.668508 21.8027C0.578081 21.7773 0.50087 21.7181 0.452802 21.6374C0.404734 21.5567 0.389476 21.4606 0.410176 21.369C0.430876 21.2773 0.485954 21.1971 0.564049 21.1449L1.59732 20.5106L0.937315 20.8897C0.85441 20.9334 0.757906 20.9438 0.667631 20.9186C0.577355 20.8933 0.500163 20.8345 0.451911 20.7542C0.40366 20.6738 0.388014 20.578 0.408187 20.4865C0.42836 20.395 0.482822 20.3146 0.560382 20.262L4.59372 17.7467L0.938782 19.8572C0.855737 19.9015 0.758813 19.9123 0.668086 19.8871C0.57736 19.862 0.499784 19.8029 0.451429 19.7221C0.403073 19.6413 0.387643 19.545 0.408336 19.4532C0.429028 19.3613 0.484257 19.281 0.562582 19.2287L1.64572 18.557L0.938782 18.964C0.856378 19.0088 0.759922 19.0204 0.669261 18.9963C0.578601 18.9721 0.500634 18.9142 0.451403 18.8343C0.402173 18.7545 0.385425 18.6588 0.404605 18.567C0.423786 18.4751 0.477436 18.3941 0.554515 18.3407L8.10785 13.387L0.938782 17.5267C0.856625 17.5705 0.760865 17.5814 0.670937 17.5573C0.581009 17.5331 0.503652 17.4756 0.454565 17.3964C0.405479 17.3173 0.388342 17.2225 0.406632 17.1312C0.424922 17.0398 0.477269 16.9589 0.553049 16.9048L6.76072 12.7805L0.938782 16.1399C0.856114 16.1861 0.758781 16.1985 0.667165 16.1746C0.575548 16.1506 0.496755 16.0921 0.447283 16.0114C0.397811 15.9306 0.381498 15.8339 0.40176 15.7414C0.422021 15.6489 0.477286 15.5678 0.555982 15.5151L2.92758 13.9751L0.938782 15.1235C0.856813 15.1712 0.75955 15.1853 0.667417 15.1628C0.575284 15.1403 0.495448 15.083 0.444674 15.0029C0.393899 14.9228 0.376135 14.8262 0.395112 14.7332C0.41409 14.6403 0.468332 14.5584 0.546449 14.5046L5.09312 11.3513L0.938782 13.7485C0.857962 13.7948 0.762549 13.8086 0.671917 13.7872C0.581284 13.7657 0.502226 13.7105 0.450796 13.6328C0.399366 13.5552 0.379419 13.4609 0.395005 13.369C0.410591 13.2772 0.460542 13.1947 0.534715 13.1384L4.79392 9.92639L0.938782 12.1513C0.857216 12.1961 0.761666 12.2082 0.671503 12.1852C0.581339 12.1622 0.503307 12.1057 0.453225 12.0273C0.403143 11.9488 0.384758 11.8543 0.401796 11.7628C0.418835 11.6713 0.470022 11.5897 0.544982 11.5346L1.15658 11.1056L0.936582 11.2303C0.856671 11.2755 0.762714 11.289 0.67328 11.2683C0.583846 11.2476 0.505443 11.194 0.453565 11.1183C0.401688 11.0426 0.380111 10.9501 0.3931 10.8592C0.406089 10.7683 0.452698 10.6856 0.523715 10.6275L2.14292 9.32726L0.990849 9.99166C0.914464 10.0358 0.824723 10.0509 0.738089 10.0343C0.651455 10.0176 0.573737 9.97023 0.519191 9.90089C0.464646 9.83155 0.43693 9.74487 0.441128 9.65674C0.445327 9.56862 0.481158 9.48497 0.542049 9.42112L1.70805 8.20452C1.64025 8.2089 1.5726 8.19401 1.51291 8.16157C1.45322 8.12913 1.40392 8.08046 1.37072 8.02119C1.32233 7.93704 1.30928 7.83714 1.33444 7.74339C1.35959 7.64963 1.4209 7.56968 1.50492 7.52106L3.47245 6.38439C3.54883 6.34025 3.63857 6.32512 3.72521 6.3418C3.81184 6.35847 3.88956 6.40582 3.94411 6.47516C3.99865 6.5445 4.02637 6.63118 4.02217 6.7193C4.01797 6.80743 3.98214 6.89108 3.92125 6.95493L2.85425 8.07106L5.91298 6.30666C5.99292 6.26063 6.08727 6.24643 6.17721 6.26687C6.26716 6.28732 6.34609 6.34091 6.39828 6.41697C6.45047 6.49303 6.47207 6.58596 6.45878 6.67724C6.44549 6.76852 6.39829 6.85144 6.32658 6.90946L4.70958 8.20672L8.00445 6.30666C8.08602 6.26186 8.18157 6.24975 8.27173 6.27278C8.36189 6.29582 8.43993 6.35228 8.49001 6.43071C8.54009 6.50914 8.55847 6.60369 8.54144 6.69517C8.5244 6.78666 8.47321 6.86825 8.39825 6.92339L7.78445 7.35386L9.60018 6.30666C9.681 6.26035 9.77642 6.24654 9.86705 6.26803C9.95768 6.28952 10.0367 6.34469 10.0882 6.42235C10.1396 6.50001 10.1595 6.59433 10.144 6.68616C10.1284 6.77799 10.0784 6.86045 10.0043 6.91679L5.74505 10.1281L12.3663 6.30666C12.4481 6.26095 12.5443 6.2483 12.6351 6.27128C12.726 6.29427 12.8046 6.35116 12.8548 6.43027C12.905 6.50938 12.923 6.60471 12.9051 6.69669C12.8872 6.78866 12.8348 6.87031 12.7586 6.92486L8.21638 10.0782L14.7474 6.30666C14.83 6.26121 14.9268 6.24927 15.0179 6.27332C15.109 6.29738 15.1874 6.35558 15.2367 6.43585C15.2861 6.51613 15.3026 6.61231 15.2829 6.70445C15.2632 6.7966 15.2088 6.87762 15.131 6.93073L12.7601 8.46999L16.5082 6.30666C16.5903 6.26282 16.6861 6.25188 16.776 6.27606C16.866 6.30024 16.9433 6.35774 16.9924 6.43687C17.0415 6.51601 17.0586 6.61085 17.0403 6.70216C17.022 6.79347 16.9697 6.8744 16.8939 6.92852L10.6877 11.0513L18.9076 6.30666C18.9901 6.26053 19.0872 6.24802 19.1787 6.27174C19.2702 6.29547 19.3489 6.35359 19.3986 6.43399C19.4483 6.51439 19.465 6.61085 19.4452 6.70326C19.4255 6.79568 19.3708 6.8769 19.2927 6.92999L11.7415 11.88L21.3995 6.30666C21.4826 6.2623 21.5795 6.25159 21.6702 6.27674C21.7609 6.30189 21.8385 6.36098 21.8869 6.44176C21.9352 6.52254 21.9507 6.61883 21.93 6.71067C21.9093 6.80252 21.854 6.88288 21.7757 6.93512L20.6911 7.60832L22.9461 6.30666C23.0291 6.2617 23.1262 6.25048 23.2173 6.27532C23.3083 6.30017 23.3863 6.35916 23.4349 6.44003C23.4836 6.52091 23.4992 6.61742 23.4785 6.7095C23.4578 6.80158 23.4024 6.88213 23.3238 6.93439L19.2905 9.45119L24.7347 6.30666C24.8179 6.26155 24.9153 6.25035 25.0066 6.2754C25.0978 6.30046 25.1759 6.35983 25.2244 6.44109C25.2729 6.52236 25.2881 6.61923 25.2668 6.71144C25.2455 6.80365 25.1894 6.88406 25.1102 6.93586L24.0674 7.57606L26.2674 6.30666C26.3505 6.26011 26.4484 6.24771 26.5405 6.27208C26.6325 6.29645 26.7115 6.35568 26.7606 6.43724C26.8098 6.5188 26.8253 6.61628 26.8039 6.70907C26.7824 6.80186 26.7257 6.88266 26.6458 6.93439L18.0585 12.32L28.4718 6.30666C28.5547 6.26034 28.6523 6.24796 28.7441 6.27214C28.8359 6.29632 28.9147 6.35516 28.964 6.43629C29.0133 6.51742 29.0292 6.61451 29.0084 6.70714C28.9876 6.79976 28.9317 6.8807 28.8524 6.93293L15.3334 15.5305L31.3135 6.30666C31.3964 6.26106 31.4937 6.24928 31.5851 6.2738C31.6765 6.29832 31.7549 6.35724 31.8039 6.43822C31.8529 6.51921 31.8686 6.61599 31.8479 6.70833C31.8271 6.80066 31.7715 6.8814 31.6926 6.93366L17.3801 15.9339L34.0569 6.30666C34.1404 6.25906 34.2393 6.24617 34.3322 6.27077C34.4252 6.29538 34.5047 6.3555 34.5538 6.4382C34.6028 6.5209 34.6174 6.61955 34.5944 6.71291C34.5714 6.80627 34.5127 6.88686 34.4309 6.93732L29.7075 9.80172L35.7648 6.30666C35.848 6.26155 35.9454 6.25035 36.0366 6.2754C36.1279 6.30046 36.2059 6.35983 36.2544 6.44109C36.3029 6.52236 36.3181 6.61923 36.2968 6.71144C36.2756 6.80365 36.2195 6.88406 36.1403 6.93586L22.2671 15.4946L38.1848 6.30666C38.2682 6.2613 38.3659 6.25006 38.4575 6.27531C38.549 6.30055 38.6271 6.36032 38.6755 6.44202C38.7239 6.52372 38.7386 6.62099 38.7167 6.71337C38.6948 6.80575 38.6379 6.88603 38.5581 6.93732L30.8735 11.5911L39.9521 6.34846C39.9936 6.32395 40.0395 6.30785 40.0871 6.30107C40.1348 6.29429 40.1834 6.29697 40.23 6.30896C40.2767 6.32094 40.3205 6.342 40.359 6.37092C40.3975 6.39984 40.4299 6.43607 40.4545 6.47753C40.479 6.51898 40.4951 6.56486 40.5018 6.61254C40.5086 6.66023 40.5059 6.70878 40.494 6.75542C40.482 6.80207 40.4609 6.8459 40.432 6.88441C40.4031 6.92291 40.3668 6.95535 40.3254 6.97986L30.4987 12.9338L41.1819 6.76719C41.2653 6.72111 41.3633 6.70927 41.4552 6.73417C41.5471 6.75907 41.6258 6.81877 41.6745 6.90062C41.7231 6.98247 41.7381 7.08006 41.7161 7.17273C41.6941 7.26539 41.6369 7.34587 41.5567 7.39712L25.7651 17.0529L42.1778 7.57752C42.2612 7.53281 42.3588 7.52212 42.4499 7.54769C42.5411 7.57326 42.6188 7.6331 42.6669 7.71468C42.7149 7.79627 42.7295 7.89328 42.7077 7.98541C42.6858 8.07753 42.6292 8.15763 42.5496 8.20893L36.9601 11.5691L42.6567 8.28079C42.7402 8.23423 42.8387 8.22219 42.931 8.24722C43.0234 8.27226 43.1023 8.33239 43.1509 8.41479C43.1995 8.49719 43.214 8.59532 43.1912 8.68825C43.1685 8.78118 43.1104 8.86155 43.0292 8.91219L35.7355 13.3012L42.9698 9.12119C43.0536 9.07189 43.1536 9.0579 43.2477 9.08231C43.2943 9.0944 43.3381 9.11555 43.3766 9.14456C43.415 9.17356 43.4473 9.20985 43.4718 9.25136C43.4962 9.29286 43.5122 9.33877 43.5188 9.38646C43.5255 9.43415 43.5227 9.48269 43.5106 9.5293C43.4985 9.57591 43.4774 9.61969 43.4484 9.65812C43.4194 9.69656 43.3831 9.72891 43.3416 9.75332L39.2775 12.1902L43.0644 10.0041C43.1478 9.95877 43.2455 9.94753 43.3371 9.97277C43.4286 9.99802 43.5067 10.0578 43.5551 10.1395C43.6035 10.2212 43.6182 10.3185 43.5963 10.4108C43.5744 10.5032 43.5175 10.5835 43.4377 10.6348L31.2328 18.0305L43.0615 11.2009C43.1452 11.1514 43.2451 11.1372 43.3393 11.1614C43.4336 11.1856 43.5143 11.2463 43.5638 11.33C43.6133 11.4137 43.6275 11.5137 43.6033 11.6079C43.5791 11.7021 43.5184 11.7828 43.4347 11.8323L30.0807 19.9467L43.0607 12.452C43.1445 12.4025 43.2444 12.3883 43.3386 12.4125C43.4328 12.4367 43.5136 12.4973 43.5631 12.5811C43.6125 12.6648 43.6268 12.7647 43.6026 12.859C43.5784 12.9532 43.5177 13.0339 43.434 13.0834L34.5966 18.4265L43.0615 13.5395C43.1444 13.4963 43.2408 13.4865 43.3308 13.512C43.4208 13.5374 43.4976 13.5964 43.5456 13.6767C43.5936 13.757 43.609 13.8526 43.5888 13.9439C43.5686 14.0353 43.5143 14.1154 43.4369 14.168L26.1068 24.882L43.0615 15.0942C43.1449 15.0488 43.2426 15.0376 43.3341 15.0628C43.4256 15.0881 43.5038 15.1478 43.5522 15.2296C43.6005 15.3113 43.6153 15.4085 43.5934 15.5009C43.5715 15.5933 43.5146 15.6736 43.4347 15.7249L38.4092 18.7623L43.0615 16.0769C43.1446 16.0336 43.2412 16.0238 43.3313 16.0495C43.4215 16.0753 43.4984 16.1346 43.5461 16.2152C43.5939 16.2959 43.609 16.3918 43.5883 16.4832C43.5676 16.5746 43.5126 16.6546 43.4347 16.7068L35.3527 21.6333L43.0615 17.1835C43.1446 17.1377 43.2422 17.1259 43.3339 17.1506C43.4255 17.1754 43.504 17.2346 43.5528 17.316C43.6016 17.3974 43.617 17.4946 43.5956 17.5871C43.5743 17.6795 43.5179 17.7601 43.4384 17.8119L29.9935 26.1932L43.0615 18.6472C43.1444 18.6022 43.2416 18.591 43.3326 18.6159C43.4237 18.6407 43.5016 18.6997 43.5503 18.7806C43.5989 18.8614 43.6145 18.958 43.5938 19.05C43.5731 19.1421 43.5177 19.2227 43.4391 19.2749L31.5687 26.7007L43.0615 20.0655C43.1443 20.0191 43.2419 20.0068 43.3337 20.0309C43.4255 20.0551 43.5044 20.114 43.5537 20.1951C43.603 20.2762 43.6189 20.3733 43.5981 20.4659C43.5773 20.5586 43.5213 20.6395 43.4421 20.6917L29.8013 29.4067L43.0615 21.7507C43.1448 21.7037 43.2431 21.6912 43.3355 21.7157C43.4279 21.7402 43.5071 21.7999 43.5561 21.882C43.6052 21.964 43.6203 22.062 43.5981 22.155C43.576 22.248 43.5184 22.3287 43.4377 22.3799L36.6272 26.6017L43.0615 22.8873C43.1443 22.843 43.241 22.8323 43.3316 22.8572C43.4221 22.8821 43.4997 22.9408 43.5482 23.0212C43.5967 23.1017 43.6126 23.1977 43.5924 23.2894C43.5722 23.3811 43.5176 23.4617 43.4399 23.5143L33.534 29.7609L43.0615 24.2609C43.1447 24.2164 43.2419 24.2057 43.3328 24.2311C43.4237 24.2564 43.5014 24.3159 43.5496 24.397C43.5978 24.4782 43.6128 24.5748 43.5915 24.6668C43.5703 24.7588 43.5144 24.839 43.4355 24.8908L43.0996 25.0961C43.1843 25.0604 43.2794 25.0578 43.366 25.0889C43.4526 25.12 43.5243 25.1825 43.5669 25.264C43.6096 25.3455 43.62 25.4401 43.5962 25.5289C43.5724 25.6178 43.5161 25.6944 43.4384 25.7437L36.9051 29.8225L43.0615 26.268C43.1445 26.2205 43.2428 26.2074 43.3353 26.2314C43.4279 26.2554 43.5074 26.3146 43.557 26.3963C43.6065 26.4781 43.6222 26.576 43.6006 26.6692C43.579 26.7623 43.5218 26.8434 43.4413 26.895L34.1463 32.8071L43.0615 27.6606C43.1444 27.6174 43.2408 27.6075 43.3308 27.633C43.4208 27.6585 43.4976 27.7174 43.5456 27.7977C43.5936 27.878 43.609 27.9736 43.5888 28.065C43.5686 28.1563 43.5143 28.2365 43.4369 28.2891L40.9143 29.8503L43.0615 28.611C43.144 28.5662 43.2407 28.5548 43.3315 28.5791C43.4222 28.6035 43.5002 28.6618 43.5492 28.742C43.5982 28.8221 43.6146 28.9181 43.5949 29.01C43.5753 29.1019 43.5211 29.1827 43.4435 29.2358L25.6741 40.722C25.6895 40.7974 25.6808 40.8757 25.6492 40.9458C25.6176 41.016 25.5648 41.0744 25.4981 41.1129L21.4714 43.4375C21.4156 43.4697 21.3524 43.4866 21.288 43.4867Z" fill="#E1EFFF"/>
<path d="M17.0689 26.7593C16.995 26.7593 16.9229 26.7369 16.8619 26.6951C16.801 26.6534 16.754 26.5941 16.7273 26.5253C16.7006 26.4564 16.6953 26.381 16.7122 26.3091C16.729 26.2371 16.7672 26.1719 16.8218 26.1221L17.7546 25.2729L16.3385 26.0898C16.2592 26.1351 16.1658 26.1492 16.0766 26.1293C15.9875 26.1094 15.9089 26.0569 15.8565 25.9821C15.804 25.9073 15.7813 25.8156 15.7929 25.725C15.8044 25.6344 15.8494 25.5513 15.919 25.4921L17.0865 24.5102L16.3378 24.9421C16.2586 24.9902 16.1643 25.0065 16.0736 24.9879C15.9829 24.9693 15.9026 24.917 15.8489 24.8416C15.7951 24.7662 15.7719 24.6733 15.7838 24.5815C15.7957 24.4897 15.8419 24.4058 15.9132 24.3467L16.164 24.1311C16.0828 24.1319 16.0034 24.1075 15.9366 24.0614C15.8787 24.0202 15.834 23.9631 15.808 23.8969C15.7819 23.8308 15.7757 23.7585 15.79 23.6889L16.0246 22.5786C15.943 22.5495 15.8745 22.4919 15.8318 22.4165C15.7833 22.3325 15.7702 22.2326 15.7952 22.1389C15.8202 22.0452 15.8813 21.9652 15.9652 21.9164L16.3319 21.703C16.3932 21.6677 16.4635 21.6508 16.5342 21.6545C16.6049 21.6582 16.673 21.6823 16.7303 21.7239C16.7876 21.7654 16.8316 21.8227 16.8571 21.8887C16.8826 21.9548 16.8884 22.0268 16.8738 22.0961L16.6751 23.0355L19.0071 21.6891C19.0862 21.6435 19.1794 21.6291 19.2686 21.6486C19.3577 21.6682 19.4364 21.7202 19.4892 21.7947C19.542 21.8691 19.5651 21.9606 19.5541 22.0511C19.5431 22.1417 19.4986 22.225 19.4295 22.2845L19.3562 22.3483L20.319 21.7925C20.3984 21.7472 20.4917 21.7331 20.5809 21.753C20.6701 21.7729 20.7486 21.8254 20.8011 21.9002C20.8536 21.975 20.8762 22.0667 20.8647 22.1573C20.8531 22.2479 20.8081 22.331 20.7385 22.3901L19.5798 23.3721L20.3286 22.9401C20.4066 22.8966 20.4979 22.8831 20.5852 22.9022C20.6725 22.9212 20.7498 22.9715 20.8027 23.0435C20.8556 23.1156 20.8803 23.2044 20.8723 23.2934C20.8642 23.3824 20.824 23.4654 20.759 23.5268L19.8262 24.376L20.3286 24.0871C20.4012 24.0455 20.4858 24.03 20.5685 24.0432C20.6511 24.0563 20.7268 24.0974 20.7829 24.1595C20.839 24.2215 20.8721 24.301 20.8769 24.3845C20.8816 24.4681 20.8576 24.5507 20.8089 24.6187L20.311 25.3081C20.3907 25.3102 20.4676 25.3383 20.5299 25.3881C20.5922 25.4379 20.6366 25.5066 20.6564 25.5839C20.6761 25.6612 20.6701 25.7428 20.6393 25.8164C20.6084 25.8899 20.5544 25.9514 20.4855 25.9915L19.2718 26.6919C19.199 26.7336 19.114 26.7491 19.0312 26.7358C18.9483 26.7224 18.8725 26.6811 18.8164 26.6185C18.7602 26.5562 18.727 26.4765 18.7225 26.3927C18.7179 26.3089 18.7423 26.226 18.7915 26.158L19.2117 25.5757L17.253 26.7065C17.1975 26.7405 17.1339 26.7588 17.0689 26.7593Z" fill="#ECECEC"/>
<path d="M14.6044 32.6114C14.5353 32.6115 14.4676 32.5922 14.409 32.5555C14.3504 32.5188 14.3033 32.4663 14.2733 32.4041C14.2432 32.3419 14.2314 32.2724 14.2391 32.2037C14.2468 32.135 14.2738 32.0699 14.317 32.0159L15.3554 30.7113L12.95 32.0995C12.8726 32.1447 12.7814 32.1601 12.6934 32.1426C12.6055 32.1251 12.527 32.076 12.4729 32.0045C12.4187 31.9331 12.3925 31.8443 12.3994 31.7549C12.4062 31.6655 12.4456 31.5818 12.51 31.5194L14.4798 29.6025L12.5298 30.7267C12.4517 30.7759 12.3579 30.7938 12.2671 30.7769C12.1763 30.7599 12.0953 30.7094 12.0402 30.6353C11.9851 30.5612 11.96 30.469 11.9699 30.3772C11.9797 30.2854 12.0239 30.2007 12.0935 30.14L14.3624 27.9811L12.4052 29.1134C12.3264 29.1583 12.2338 29.1725 12.1452 29.1532C12.0567 29.1339 11.9784 29.0824 11.9255 29.0087C11.8726 28.9351 11.8489 28.8445 11.859 28.7543C11.869 28.6642 11.9121 28.581 11.9798 28.5208L13.8051 26.92L12.3032 27.7934C12.2245 27.839 12.1316 27.8537 12.0425 27.8347C11.9535 27.8156 11.8748 27.7641 11.8216 27.6902C11.7685 27.6163 11.7447 27.5253 11.755 27.4348C11.7653 27.3443 11.8088 27.2609 11.8772 27.2008L13.8513 25.4599L12.1976 26.4132C12.1174 26.4612 12.0219 26.4766 11.9306 26.4565C11.8393 26.4364 11.7592 26.3821 11.7065 26.3049C11.6539 26.2276 11.6328 26.1332 11.6475 26.0409C11.6621 25.9486 11.7115 25.8653 11.7855 25.8082L12.755 25.0382L12.1192 25.4049C12.0443 25.4477 11.9568 25.4628 11.872 25.4475C11.7871 25.4322 11.7103 25.3875 11.6552 25.3212C11.6 25.2549 11.57 25.1713 11.5704 25.0851C11.5707 24.9989 11.6015 24.9156 11.6572 24.8498L12.5782 23.76L12.0187 24.0834C11.9531 24.1215 11.8774 24.1383 11.8018 24.1315C11.7263 24.1247 11.6548 24.0947 11.597 24.0455C11.5393 23.9964 11.4982 23.9306 11.4794 23.8571C11.4606 23.7836 11.4651 23.7062 11.4922 23.6353L11.6256 23.2878C11.5635 23.2605 11.5102 23.2166 11.4716 23.1609C11.433 23.1051 11.4105 23.0398 11.4068 22.9721C11.4031 22.9044 11.4182 22.837 11.4505 22.7774C11.4828 22.7177 11.531 22.6682 11.5897 22.6343L12.0664 22.3586C12.1319 22.3206 12.2077 22.3038 12.2832 22.3106C12.3587 22.3173 12.4303 22.3474 12.488 22.3965C12.5458 22.4456 12.5869 22.5115 12.6057 22.5849C12.6244 22.6584 12.62 22.7359 12.5929 22.8067L12.5438 22.9328L14.0456 22.0733C14.1205 22.0301 14.2082 22.0146 14.2933 22.0297C14.3785 22.0449 14.4555 22.0896 14.5109 22.156C14.5662 22.2224 14.5963 22.3062 14.5959 22.3927C14.5954 22.4791 14.5644 22.5627 14.5084 22.6285L13.5866 23.7087L16.6614 21.934C16.7415 21.8883 16.8359 21.8745 16.9257 21.8953C17.0156 21.9161 17.0943 21.97 17.1462 22.0462C17.198 22.1224 17.2193 22.2154 17.2057 22.3066C17.1921 22.3978 17.1447 22.4805 17.0728 22.5383L16.1041 23.309L16.6614 22.9878C16.7401 22.943 16.8325 22.9288 16.921 22.9481C17.0095 22.9674 17.0877 23.0187 17.1406 23.0921C17.1935 23.1656 17.2173 23.2561 17.2075 23.3461C17.1977 23.4361 17.155 23.5192 17.0875 23.5796L15.1141 25.3198L16.6614 24.4274C16.7402 24.3824 16.8328 24.3682 16.9214 24.3875C17.0099 24.4068 17.0882 24.4583 17.1411 24.532C17.194 24.6056 17.2177 24.6962 17.2076 24.7864C17.1976 24.8765 17.1545 24.9597 17.0868 25.0199L15.26 26.62L16.6614 25.8134C16.7391 25.769 16.8303 25.7547 16.9179 25.7729C17.0054 25.7911 17.0833 25.8407 17.1368 25.9124C17.1904 25.984 17.2159 26.0728 17.2085 26.1619C17.2012 26.251 17.1615 26.3344 17.097 26.3964L14.8303 28.5546L16.6636 27.4971C16.741 27.4518 16.8323 27.4365 16.9202 27.454C17.0082 27.4715 17.0866 27.5206 17.1408 27.592C17.195 27.6635 17.2211 27.7523 17.2143 27.8417C17.2074 27.931 17.1681 28.0148 17.1036 28.0772L15.1302 29.9934L16.6614 29.1134C16.7353 29.0709 16.8218 29.0555 16.9058 29.0699C16.9898 29.0842 17.0662 29.1274 17.1219 29.192C17.1775 29.2566 17.2089 29.3385 17.2107 29.4237C17.2124 29.509 17.1844 29.5921 17.1315 29.659L16.0931 30.965L16.649 30.6438C16.6907 30.6173 16.7374 30.5995 16.7862 30.5915C16.835 30.5834 16.8849 30.5854 16.9329 30.5971C16.9809 30.6089 17.0261 30.6302 17.0657 30.6599C17.1052 30.6896 17.1384 30.7269 17.1631 30.7698C17.1879 30.8126 17.2037 30.86 17.2097 30.909C17.2156 30.9581 17.2116 31.0079 17.1978 31.0554C17.184 31.1029 17.1608 31.1471 17.1295 31.1854C17.0982 31.2237 17.0594 31.2552 17.0156 31.2782L14.7878 32.56C14.7324 32.5933 14.669 32.611 14.6044 32.6114Z" fill="#ECECEC"/>
<path d="M15.4455 23.078C15.3686 23.078 15.2936 23.0538 15.2312 23.0088C15.1687 22.9638 15.122 22.9003 15.0977 22.8273C15.0734 22.7543 15.0726 22.6755 15.0956 22.602C15.1185 22.5286 15.164 22.4642 15.2255 22.418L18.175 20.1403L13.1737 23.0267C13.0926 23.0731 12.9968 23.0869 12.9059 23.0651C12.8151 23.0433 12.7359 22.9876 12.6847 22.9094C12.6335 22.8313 12.6141 22.7365 12.6304 22.6445C12.6467 22.5524 12.6976 22.4701 12.7725 22.4143L17.2019 19.1517L10.5975 22.9651C10.5151 23.0088 10.4192 23.0196 10.3292 22.9951C10.2393 22.9707 10.162 22.9129 10.1131 22.8334C10.0642 22.754 10.0475 22.659 10.0662 22.5676C10.0849 22.4763 10.1378 22.3955 10.2139 22.3417L11.5867 21.4412L9.62141 22.5757C9.53875 22.6199 9.44229 22.6308 9.35184 22.6061C9.2614 22.5815 9.18384 22.5231 9.13511 22.443C9.08638 22.3629 9.07018 22.2672 9.08983 22.1755C9.10949 22.0839 9.16352 22.0032 9.24081 21.9501L9.34054 21.8856L9.02667 22.0667C8.9437 22.1154 8.84494 22.1294 8.75168 22.1059C8.65842 22.0824 8.57812 22.0232 8.52811 21.9411C8.47809 21.8589 8.46235 21.7604 8.48428 21.6668C8.5062 21.5731 8.56405 21.4919 8.64534 21.4405L9.25987 21.0459L8.59034 21.4331C8.50799 21.4809 8.4103 21.4947 8.31793 21.4717C8.22557 21.4487 8.14576 21.3907 8.09538 21.31C8.045 21.2292 8.028 21.132 8.04797 21.039C8.06795 20.9459 8.12333 20.8642 8.20241 20.8113L13.3086 17.3932L8.28674 20.2957C8.20495 20.3414 8.10876 20.3541 8.01792 20.3311C7.92709 20.3081 7.8485 20.2512 7.7983 20.1721C7.74809 20.093 7.73007 19.9977 7.74795 19.9057C7.76582 19.8137 7.81823 19.7321 7.89441 19.6775L13.6144 15.7029L8.27574 18.7829C8.19364 18.8273 8.09771 18.8387 8.00749 18.8148C7.91727 18.7909 7.83955 18.7335 7.79018 18.6543C7.74081 18.5751 7.72349 18.4801 7.74177 18.3885C7.76005 18.297 7.81253 18.2159 7.88854 18.1617L9.93014 16.7933L8.27207 17.7467C8.19052 17.7932 8.09423 17.8067 8.00305 17.7843C7.91186 17.7619 7.83273 17.7054 7.78196 17.6265C7.73119 17.5475 7.71265 17.452 7.73016 17.3598C7.74767 17.2676 7.79989 17.1855 7.87607 17.1307L10.6378 15.1631L8.27207 16.5308C8.19029 16.5786 8.09319 16.5928 8.00112 16.5706C7.90905 16.5484 7.82915 16.4914 7.77815 16.4116C7.72716 16.3318 7.70902 16.2354 7.72755 16.1425C7.74608 16.0496 7.79982 15.9675 7.87754 15.9133L8.59547 15.4088L8.27207 15.5951C8.19396 15.6411 8.10155 15.6566 8.0127 15.6385C7.92385 15.6204 7.84487 15.57 7.79099 15.4971C7.73711 15.4241 7.71217 15.3338 7.72097 15.2436C7.72978 15.1533 7.77171 15.0695 7.83867 15.0084L10.0489 12.9551L8.28894 13.9715C8.21294 14.015 8.12385 14.03 8.03779 14.0135C7.95174 13.9971 7.87442 13.9504 7.81982 13.8819C7.76523 13.8134 7.73696 13.7276 7.74015 13.64C7.74334 13.5525 7.77777 13.469 7.83721 13.4046L8.72674 12.4403C8.64905 12.4335 8.57553 12.4022 8.51687 12.3508C8.4582 12.2994 8.41745 12.2307 8.40052 12.1546C8.3836 12.0784 8.39138 11.9989 8.42275 11.9275C8.45411 11.8561 8.50743 11.7966 8.57494 11.7575L10.3181 10.7514C10.3941 10.7078 10.4832 10.6929 10.5692 10.7093C10.6553 10.7258 10.7326 10.7725 10.7872 10.841C10.8418 10.9095 10.8701 10.9953 10.8669 11.0829C10.8637 11.1704 10.8292 11.2539 10.7698 11.3183L10.0299 12.1154L12.4792 10.7015C12.5573 10.6555 12.6497 10.64 12.7386 10.6581C12.8274 10.6762 12.9064 10.7266 12.9603 10.7996C13.0142 10.8725 13.0391 10.9628 13.0303 11.053C13.0215 11.1433 12.9796 11.2271 12.9126 11.2882L10.7067 13.3467L15.2908 10.7001C15.3726 10.6523 15.4697 10.638 15.5618 10.6602C15.6538 10.6825 15.7337 10.7394 15.7847 10.8193C15.8357 10.8991 15.8539 10.9955 15.8353 11.0884C15.8168 11.1813 15.7631 11.2634 15.6853 11.3175L14.9637 11.8243L16.9173 10.6971C16.9989 10.6506 17.0952 10.6372 17.1864 10.6595C17.2776 10.6819 17.3567 10.7384 17.4075 10.8174C17.4582 10.8963 17.4768 10.9918 17.4593 11.084C17.4418 11.1763 17.3895 11.2583 17.3133 11.3131L14.5531 13.2733L19.0345 10.6861C19.1168 10.64 19.2137 10.6274 19.305 10.6508C19.3964 10.6743 19.4752 10.7321 19.525 10.8122C19.5749 10.8923 19.592 10.9885 19.5727 11.0808C19.5535 11.1731 19.4994 11.2545 19.4217 11.308L17.3801 12.6801L20.8348 10.6854C20.9166 10.6397 21.0128 10.627 21.1036 10.65C21.1945 10.673 21.2731 10.7299 21.3233 10.809C21.3735 10.8881 21.3915 10.9835 21.3736 11.0754C21.3557 11.1674 21.3033 11.2491 21.2271 11.3036L15.5071 15.2797L22.531 11.2251C22.6131 11.1807 22.709 11.1693 22.7993 11.1932C22.8895 11.2171 22.9672 11.2745 23.0166 11.3537C23.066 11.4329 23.0833 11.528 23.065 11.6195C23.0467 11.711 22.9942 11.7921 22.9182 11.8463L17.812 15.2636L22.5318 12.54C22.6144 12.4958 22.7109 12.4849 22.8013 12.5095C22.8918 12.5342 22.9693 12.5926 23.0181 12.6727C23.0668 12.7528 23.083 12.8485 23.0633 12.9402C23.0437 13.0318 22.9896 13.1125 22.9124 13.1655L22.3022 13.5564L22.5332 13.4244C22.6159 13.3802 22.7123 13.3692 22.8028 13.3939C22.8932 13.4186 22.9708 13.477 23.0195 13.5571C23.0682 13.6372 23.0844 13.7329 23.0648 13.8246C23.0451 13.9162 22.9911 13.9969 22.9138 14.0499L22.6161 14.2413C22.7008 14.216 22.7918 14.2222 22.8723 14.2586C22.9528 14.2951 23.0175 14.3594 23.0543 14.4397C23.0912 14.5201 23.0978 14.611 23.0729 14.6958C23.048 14.7807 22.9934 14.8536 22.919 14.9013L21.5527 15.7945L22.5362 15.2269C22.6172 15.1805 22.713 15.1668 22.8039 15.1885C22.8948 15.2103 22.9739 15.266 23.0251 15.3442C23.0763 15.4224 23.0958 15.5171 23.0794 15.6092C23.0631 15.7012 23.0123 15.7835 22.9373 15.8393L18.5065 19.1033L22.5398 16.775C22.6203 16.7291 22.7151 16.7153 22.8053 16.7365C22.8955 16.7576 22.9743 16.8121 23.026 16.8891C23.0776 16.966 23.0982 17.0596 23.0837 17.151C23.0691 17.2425 23.0205 17.3251 22.9476 17.3822L19.9966 19.6621L22.5428 18.1918C22.622 18.1466 22.7152 18.1326 22.8042 18.1525C22.8932 18.1724 22.9716 18.2247 23.0241 18.2993C23.0766 18.3739 23.0994 18.4654 23.0881 18.5558C23.0768 18.6463 23.0322 18.7294 22.963 18.7887L21.1098 20.3603L22.5457 19.5316C22.625 19.487 22.718 19.4735 22.8068 19.4937C22.8955 19.5138 22.9735 19.5663 23.0257 19.6408C23.0779 19.7153 23.1006 19.8066 23.0892 19.8969C23.0779 19.9871 23.0334 20.07 22.9644 20.1293L22.6711 20.3779C22.7284 20.3677 22.7872 20.3714 22.8428 20.3887C22.8983 20.4061 22.9488 20.4366 22.9901 20.4776C23.0477 20.5337 23.0853 20.6071 23.0971 20.6866C23.1089 20.7661 23.0942 20.8472 23.0554 20.9176L22.6007 21.7485C22.6876 21.7108 22.7856 21.7083 22.8743 21.7413C22.9631 21.7743 23.0356 21.8404 23.0767 21.9257C23.1178 22.0109 23.1244 22.1088 23.095 22.1988C23.0656 22.2888 23.0025 22.3639 22.919 22.4085L21.838 23.0318C21.7687 23.0719 21.6882 23.0883 21.6088 23.0784C21.5293 23.0684 21.4553 23.0328 21.398 22.9768C21.3404 22.9207 21.3028 22.8473 21.291 22.7678C21.2793 22.6883 21.2939 22.6072 21.3327 22.5368L21.783 21.7125L19.5009 23.0325C19.4216 23.0771 19.3285 23.0907 19.2398 23.0705C19.1511 23.0503 19.073 22.9979 19.0208 22.9233C18.9686 22.8488 18.946 22.7576 18.9573 22.6673C18.9687 22.577 19.0131 22.4942 19.0821 22.4349L19.2794 22.2684L17.9521 23.0267C17.8728 23.0718 17.7796 23.0858 17.6906 23.0659C17.6016 23.0461 17.5232 22.9937 17.4707 22.9192C17.4182 22.8446 17.3954 22.7531 17.4067 22.6626C17.418 22.5721 17.4626 22.4891 17.5319 22.4297L19.3843 20.8597L15.6289 23.0267C15.5735 23.0599 15.5101 23.0776 15.4455 23.078Z" fill="#F2CF7E"/>
<path d="M31.8947 31.1476C31.8176 31.1471 31.7426 31.1228 31.6799 31.0779C31.6222 31.0369 31.5777 30.9799 31.5516 30.9141C31.5256 30.8483 31.5192 30.7763 31.5332 30.7069L31.7393 29.7066L30.7522 30.2757C30.6779 30.3179 30.5911 30.3328 30.507 30.3178C30.4228 30.3029 30.3466 30.259 30.2913 30.1937C30.2361 30.1285 30.2054 30.046 30.2045 29.9606C30.2036 29.8751 30.2326 29.792 30.2865 29.7257L30.695 29.2277L29.9925 29.6333C29.9182 29.6759 29.8313 29.6913 29.7469 29.6766C29.6626 29.6619 29.586 29.6181 29.5305 29.5529C29.475 29.4876 29.4441 29.405 29.4432 29.3194C29.4422 29.2337 29.4713 29.1505 29.5253 29.084L30.7104 27.6327L28.8771 28.6909C28.798 28.7358 28.7051 28.7496 28.6164 28.7299C28.5277 28.7101 28.4495 28.6581 28.397 28.5839C28.3444 28.5097 28.3213 28.4187 28.3321 28.3284C28.3429 28.2382 28.3868 28.1552 28.4554 28.0955L29.0032 27.6261L28.1797 28.1013C28.101 28.1455 28.0089 28.1592 27.9208 28.1397C27.8328 28.1202 27.755 28.0689 27.7023 27.9956C27.6497 27.9224 27.6259 27.8323 27.6355 27.7427C27.6451 27.653 27.6874 27.57 27.7543 27.5095L29.2415 26.2013L27.2799 27.3365C27.2011 27.3814 27.1085 27.3956 27.0199 27.3763C26.9313 27.357 26.8531 27.3055 26.8002 27.2319C26.7473 27.1582 26.7236 27.0676 26.7336 26.9775C26.7437 26.8874 26.7867 26.8042 26.8545 26.7439L29.2283 24.6613L26.1901 26.4154C26.1093 26.4628 26.0133 26.4775 25.922 26.4563C25.8307 26.4352 25.7509 26.3799 25.6991 26.3018C25.6473 26.2237 25.6274 26.1287 25.6434 26.0364C25.6594 25.944 25.7102 25.8613 25.7853 25.8053L27.3253 24.64L25.3996 25.751C25.3191 25.7969 25.2243 25.8107 25.1341 25.7895C25.0439 25.7684 24.9651 25.7139 24.9134 25.637C24.8618 25.5601 24.8412 25.4665 24.8557 25.375C24.8703 25.2835 24.9189 25.2009 24.9919 25.1438L27.7411 23.0171L24.4272 24.9282C24.3465 24.9742 24.2513 24.9878 24.161 24.9663C24.0706 24.9448 23.9918 24.8898 23.9404 24.8124C23.889 24.7351 23.8689 24.6411 23.8841 24.5495C23.8993 24.4578 23.9487 24.3754 24.0224 24.3188L27.3693 21.78L23.4093 24.0665C23.3283 24.1126 23.2329 24.1261 23.1423 24.1043C23.0517 24.0825 22.9728 24.027 22.9217 23.9491C22.8705 23.8713 22.8509 23.7769 22.8668 23.6851C22.8828 23.5933 22.933 23.511 23.0075 23.4549L26.8831 20.5825L22.3665 23.1887C22.2854 23.2352 22.1897 23.2489 22.0988 23.2271C22.0079 23.2053 21.9288 23.1497 21.8776 23.0715C21.8263 22.9933 21.8069 22.8985 21.8232 22.8065C21.8396 22.7145 21.8904 22.6322 21.9654 22.5764L26.7746 19.0285L22.2008 21.6685C22.1195 21.716 22.023 21.7303 21.9315 21.7086C21.8399 21.6869 21.7601 21.6308 21.7088 21.5519C21.6574 21.473 21.6383 21.3774 21.6555 21.2849C21.6727 21.1923 21.7249 21.1099 21.8011 21.0547L26.4835 17.6396L22.2001 20.1124C22.1178 20.1593 22.0207 20.1725 21.9289 20.1494C21.8371 20.1263 21.7579 20.0686 21.7077 19.9883C21.6575 19.9081 21.6402 19.8116 21.6596 19.719C21.6789 19.6263 21.7333 19.5447 21.8114 19.4913L23.5399 18.3231L22.2015 19.0953C22.1202 19.1427 22.0238 19.1571 21.9322 19.1353C21.8406 19.1136 21.7609 19.0575 21.7095 18.9786C21.6581 18.8998 21.6391 18.8041 21.6563 18.7116C21.6735 18.619 21.7256 18.5366 21.8019 18.4815L26.4534 15.0927L22.2001 17.5479C22.1178 17.5967 22.0197 17.6114 21.9267 17.5888C21.8338 17.5663 21.7533 17.5083 21.7025 17.4272C21.6517 17.3462 21.6346 17.2485 21.6548 17.155C21.675 17.0615 21.7309 16.9796 21.8107 16.9268L23.7019 15.6435L22.1993 16.511C22.1178 16.5575 22.0215 16.571 21.9303 16.5486C21.8391 16.5263 21.76 16.4698 21.7092 16.3908C21.6584 16.3118 21.6399 16.2164 21.6574 16.1241C21.6749 16.0319 21.7271 15.9499 21.8033 15.895L25.7978 13.0482L22.1979 15.1257C22.1164 15.173 22.0198 15.1871 21.9282 15.165C21.8367 15.143 21.7571 15.0866 21.7059 15.0075C21.6548 14.9284 21.6361 14.8326 21.6537 14.7401C21.6713 14.6476 21.7238 14.5653 21.8004 14.5105L26.0889 11.4253L22.1971 13.6723C22.116 13.7187 22.0203 13.7325 21.9294 13.7107C21.8385 13.6889 21.7594 13.6332 21.7082 13.555C21.6569 13.4769 21.6375 13.3821 21.6538 13.2901C21.6702 13.198 21.721 13.1157 21.796 13.0599L26.8472 9.31995L22.1979 12.0054C22.1168 12.0519 22.021 12.0656 21.9301 12.0438C21.8392 12.022 21.7601 11.9663 21.7089 11.8882C21.6577 11.81 21.6382 11.7152 21.6546 11.6232C21.6709 11.5312 21.7217 11.4489 21.7967 11.3931L26.8215 7.67728L25.8682 8.22801C25.7881 8.27369 25.6937 8.28751 25.6039 8.26672C25.5141 8.24594 25.4354 8.19207 25.3835 8.11585C25.3316 8.03963 25.3103 7.94666 25.3239 7.85546C25.3375 7.76426 25.3849 7.68152 25.4568 7.62375L30.3951 3.69528C30.3797 3.61982 30.3886 3.54146 30.4203 3.47131C30.452 3.40115 30.505 3.34276 30.5718 3.30441L31.7451 2.62608C31.8252 2.57951 31.92 2.565 32.0104 2.58548C32.1008 2.60597 32.1801 2.65992 32.2323 2.73648C32.2845 2.81305 32.3058 2.90655 32.2919 2.99817C32.278 3.0898 32.2299 3.17275 32.1573 3.23035L29.7732 5.12675L32.0627 3.80675C32.1437 3.7603 32.2395 3.74656 32.3304 3.76835C32.4213 3.79014 32.5004 3.84581 32.5516 3.92399C32.6028 4.00216 32.6223 4.09694 32.6059 4.18896C32.5896 4.28098 32.5388 4.36329 32.4638 4.41908L27.4397 8.13268L32.0634 5.46335C32.1445 5.41569 32.2409 5.40106 32.3325 5.42246C32.4241 5.44386 32.504 5.49967 32.5556 5.57833C32.6073 5.65699 32.6267 5.75249 32.6098 5.84507C32.593 5.93764 32.5413 6.02021 32.4653 6.07568L27.4155 9.81568L32.0649 7.13168C32.1463 7.08459 32.2427 7.07059 32.3341 7.09256C32.4256 7.11454 32.5051 7.17081 32.5562 7.24975C32.6074 7.32881 32.6262 7.42456 32.6088 7.51713C32.5913 7.6097 32.5388 7.692 32.4623 7.74695L28.1687 10.835L32.0663 8.58588C32.1479 8.53936 32.2442 8.52589 32.3353 8.54826C32.4265 8.57063 32.5057 8.62712 32.5564 8.70609C32.6072 8.78507 32.6257 8.88051 32.6082 8.97275C32.5907 9.06499 32.5385 9.147 32.4623 9.20188L28.473 12.045L32.0663 9.97041C32.1484 9.92424 32.2451 9.91144 32.3364 9.93465C32.4277 9.95786 32.5065 10.0153 32.5566 10.0951C32.6067 10.1749 32.6241 10.2708 32.6054 10.3631C32.5866 10.4554 32.533 10.537 32.4557 10.5908L30.5608 11.8763L32.0671 11.0073C32.1484 10.9599 32.2448 10.9456 32.3364 10.9673C32.428 10.989 32.5077 11.0451 32.5591 11.124C32.6105 11.2029 32.6295 11.2985 32.6123 11.391C32.5951 11.4836 32.543 11.566 32.4667 11.6211L27.8159 15.0099L32.0693 12.5547C32.1515 12.5059 32.2496 12.4913 32.3426 12.5138C32.4355 12.5363 32.516 12.5943 32.5668 12.6754C32.6176 12.7564 32.6348 12.8541 32.6145 12.9476C32.5943 13.0411 32.5384 13.123 32.4587 13.1758L30.7324 14.344L32.0693 13.5667C32.1506 13.5192 32.247 13.5049 32.3386 13.5266C32.4302 13.5483 32.5099 13.6044 32.5613 13.6833C32.6126 13.7622 32.6317 13.8578 32.6145 13.9504C32.5973 14.0429 32.5452 14.1253 32.4689 14.1805L27.7859 17.6L32.0707 15.1265C32.1518 15.08 32.2476 15.0663 32.3385 15.0881C32.4293 15.1099 32.5085 15.1655 32.5597 15.2437C32.6109 15.3219 32.6303 15.4167 32.614 15.5087C32.5977 15.6007 32.5468 15.683 32.4719 15.7388L27.6641 19.2867L32.0722 16.7413C32.1532 16.6952 32.2487 16.6817 32.3392 16.7036C32.4298 16.7254 32.5087 16.7808 32.5598 16.8587C32.611 16.9365 32.6306 17.031 32.6147 17.1227C32.5987 17.2145 32.5485 17.2968 32.4741 17.3529L28.5999 20.2246L32.0744 18.2189C32.1551 18.173 32.2503 18.1594 32.3406 18.1809C32.431 18.2024 32.5098 18.2574 32.5612 18.3347C32.6126 18.4121 32.6327 18.5061 32.6175 18.5977C32.6023 18.6893 32.5528 18.7717 32.4792 18.8283L29.1315 21.3671L32.0759 19.6665C32.1563 19.6206 32.2512 19.6069 32.3413 19.628C32.4315 19.6492 32.5104 19.7037 32.562 19.7806C32.6136 19.8575 32.6343 19.9511 32.6197 20.0426C32.6052 20.1341 32.5565 20.2167 32.4836 20.2737L29.7343 22.4004L32.081 21.0474C32.1617 21.0015 32.2569 20.9879 32.3472 21.0094C32.4376 21.0308 32.5164 21.0858 32.5678 21.1632C32.6192 21.2406 32.6393 21.3345 32.6241 21.4262C32.6089 21.5178 32.5594 21.6002 32.4858 21.6568L30.9458 22.8221L32.0825 22.1665C32.1612 22.1215 32.2538 22.1073 32.3424 22.1266C32.431 22.146 32.5093 22.1974 32.5621 22.2711C32.615 22.3447 32.6387 22.4354 32.6287 22.5255C32.6186 22.6156 32.5756 22.6988 32.5078 22.759L30.134 24.8424L32.0839 23.7167C32.1626 23.6726 32.2547 23.6589 32.3428 23.6784C32.4308 23.6979 32.5086 23.7492 32.5612 23.8224C32.6139 23.8957 32.6377 23.9857 32.6281 24.0754C32.6185 24.1651 32.5762 24.2481 32.5093 24.3085L31.0199 25.619L32.0825 25.0059C32.1615 24.9611 32.2544 24.9472 32.3431 24.967C32.4318 24.9868 32.51 25.0388 32.5626 25.113C32.6151 25.1872 32.6382 25.2782 32.6274 25.3685C32.6166 25.4587 32.5727 25.5417 32.5041 25.6014L31.9578 26.0693L32.0832 25.9959C32.1575 25.953 32.2445 25.9375 32.329 25.9521C32.4136 25.9667 32.4903 26.0105 32.5459 26.0759C32.6015 26.1412 32.6325 26.2239 32.6334 26.3096C32.6344 26.3954 32.6052 26.4787 32.5511 26.5452L31.3609 27.9987L32.081 27.5829C32.1553 27.5402 32.2422 27.525 32.3266 27.5398C32.4111 27.5546 32.4876 27.5985 32.543 27.6638C32.5985 27.7292 32.6292 27.8119 32.63 27.8976C32.6308 27.9832 32.6016 28.0665 32.5474 28.1329L32.1316 28.6389C32.193 28.6148 32.2598 28.6078 32.3249 28.6186C32.39 28.6293 32.4509 28.6574 32.5014 28.6999C32.5518 28.7424 32.5899 28.7977 32.6115 28.86C32.6332 28.9223 32.6376 28.9893 32.6244 29.0539L32.3846 30.2192C32.4514 30.2418 32.5103 30.2833 32.5542 30.3385C32.598 30.3938 32.625 30.4605 32.6319 30.5307C32.6388 30.6009 32.6253 30.6716 32.593 30.7344C32.5607 30.7971 32.511 30.8492 32.4499 30.8843L32.0781 31.0985C32.0222 31.1304 31.959 31.1473 31.8947 31.1476Z" fill="#ECECEC"/>
<path d="M33.9799 33.3278C33.9106 33.3278 33.8428 33.3081 33.7843 33.2711C33.7257 33.2341 33.6788 33.1813 33.6491 33.1188C33.6193 33.0562 33.6078 32.9865 33.616 32.9178C33.6242 32.849 33.6517 32.7839 33.6954 32.7301L34.3744 31.8934L32.6533 32.8871C32.574 32.9324 32.4806 32.9465 32.3914 32.9266C32.3023 32.9066 32.2237 32.8541 32.1713 32.7794C32.1188 32.7046 32.0961 32.6129 32.1077 32.5223C32.1192 32.4316 32.1642 32.3486 32.2338 32.2894L32.533 32.0364L32.0879 32.2931C32.009 32.3383 31.9161 32.3526 31.8272 32.3332C31.7384 32.3138 31.6599 32.262 31.6071 32.188C31.5542 32.1139 31.5308 32.0229 31.5413 31.9325C31.5519 31.8422 31.5956 31.759 31.664 31.6991L32.7802 30.7267L31.7535 31.3214C31.674 31.3679 31.5798 31.3828 31.4898 31.3631C31.3998 31.3434 31.3205 31.2905 31.2678 31.215C31.215 31.1395 31.1926 31.0468 31.205 30.9555C31.2174 30.8642 31.2637 30.781 31.3348 30.7223L32.4348 29.8027L31.7388 30.2031C31.6613 30.2467 31.5706 30.2606 31.4836 30.2423C31.3965 30.224 31.3191 30.1747 31.2657 30.1036C31.2124 30.0324 31.1867 29.9443 31.1934 29.8556C31.2002 29.767 31.239 29.6838 31.3025 29.6215L33.457 27.5594L31.7388 28.5531C31.6593 28.5988 31.5656 28.613 31.4761 28.593C31.3866 28.573 31.3078 28.5202 31.2553 28.445C31.2029 28.3698 31.1805 28.2776 31.1926 28.1867C31.2047 28.0958 31.2505 28.0128 31.3208 27.9539L32.3842 27.0681L31.7388 27.4406C31.6607 27.486 31.5686 27.5009 31.4802 27.4826C31.3917 27.4642 31.3132 27.4139 31.2596 27.3412C31.206 27.2685 31.1811 27.1786 31.1897 27.0886C31.1983 26.9987 31.2397 26.9152 31.3062 26.8539L33.2576 25.0492L31.7388 25.9292C31.6612 25.9734 31.5701 25.9878 31.4827 25.9697C31.3952 25.9515 31.3174 25.902 31.2638 25.8305C31.2102 25.7591 31.1846 25.6705 31.1917 25.5814C31.1989 25.4924 31.2382 25.409 31.3025 25.3469L33.4622 23.2782L31.7388 24.2733C31.6594 24.3189 31.5658 24.333 31.4765 24.3131C31.3872 24.2931 31.3086 24.2404 31.2561 24.1654C31.2036 24.0904 31.1811 23.9985 31.1929 23.9078C31.2048 23.817 31.2501 23.734 31.3201 23.6749L32.4795 22.7011L31.7388 23.1279C31.6613 23.1746 31.5692 23.1909 31.4802 23.1738C31.3913 23.1566 31.3119 23.1072 31.2573 23.035C31.2027 22.9628 31.1767 22.8729 31.1843 22.7827C31.192 22.6925 31.2328 22.6083 31.2988 22.5463L33.4937 20.4307L31.7337 21.4456C31.6551 21.4903 31.5628 21.5044 31.4745 21.4852C31.3861 21.466 31.308 21.4149 31.2551 21.3416C31.2022 21.2683 31.1782 21.178 31.1878 21.0881C31.1973 20.9982 31.2397 20.9151 31.3069 20.8545L32.9642 19.3835L31.7388 20.0933C31.6584 20.1399 31.5634 20.1542 31.4729 20.1334C31.3823 20.1125 31.3031 20.0581 31.2511 19.9811C31.1992 19.9041 31.1784 19.8103 31.1929 19.7185C31.2075 19.6268 31.2564 19.544 31.3296 19.4869L31.6677 19.2221C31.5923 19.2456 31.5114 19.2443 31.4367 19.2186C31.3621 19.1929 31.2976 19.144 31.2526 19.0791C31.2003 19.0028 31.1788 18.9095 31.1924 18.818C31.206 18.7264 31.2537 18.6434 31.326 18.5856L31.8246 18.1889L31.7374 18.2387C31.657 18.2835 31.5628 18.2965 31.4734 18.275C31.384 18.2536 31.3058 18.1994 31.2545 18.123C31.2032 18.0467 31.1825 17.9539 31.1964 17.863C31.2103 17.7721 31.2578 17.6898 31.3296 17.6323L31.6068 17.4167C31.5411 17.4252 31.4743 17.4162 31.4132 17.3904C31.3521 17.3646 31.299 17.3231 31.2592 17.27C31.2059 17.1974 31.1811 17.1078 31.1896 17.0181C31.1981 16.9284 31.2393 16.845 31.3054 16.7838L33.2312 15.0084L31.7388 15.8686C31.6607 15.9161 31.5676 15.9327 31.4779 15.9152C31.3881 15.8976 31.3082 15.8471 31.2537 15.7737C31.1993 15.7002 31.1742 15.609 31.1835 15.5181C31.1928 15.4271 31.2358 15.3429 31.304 15.2819L33.3837 13.3166L31.7388 14.2692C31.6597 14.3135 31.567 14.3269 31.4785 14.3068C31.3901 14.2867 31.3123 14.2346 31.26 14.1605C31.2078 14.0864 31.1849 13.9955 31.1957 13.9055C31.2065 13.8155 31.2503 13.7326 31.3186 13.673L32.58 12.6023L31.7388 13.0871C31.6597 13.1326 31.5665 13.147 31.4774 13.1275C31.3882 13.108 31.3095 13.0559 31.2567 12.9815C31.2039 12.9071 31.1808 12.8156 31.1918 12.725C31.2029 12.6344 31.2473 12.5512 31.3164 12.4916L32.7024 11.2999L31.7388 11.8558C31.6607 11.9026 31.568 11.9186 31.4787 11.9007C31.3894 11.8829 31.31 11.8325 31.2558 11.7593C31.2016 11.6861 31.1766 11.5954 31.1857 11.5048C31.1947 11.4142 31.2371 11.3302 31.3047 11.2691L33.358 9.3412L31.7447 10.2747C31.6659 10.3204 31.573 10.3351 31.484 10.3161C31.395 10.297 31.3162 10.2455 31.2631 10.1716C31.2099 10.0977 31.1862 10.0066 31.1965 9.91618C31.2067 9.82573 31.2503 9.74232 31.3186 9.6822L32.9268 8.25587L31.7388 8.94667C31.6608 8.98905 31.5701 9.00169 31.4835 8.98224C31.3968 8.96279 31.3202 8.91257 31.2678 8.84091C31.2154 8.76925 31.1908 8.68101 31.1985 8.59257C31.2062 8.50412 31.2458 8.42149 31.3098 8.36L33.0852 6.7584L31.7388 7.53573C31.6591 7.58188 31.565 7.59636 31.4751 7.57629C31.3853 7.55622 31.3062 7.50307 31.2538 7.4274C31.2013 7.35173 31.1792 7.25909 31.1919 7.16788C31.2046 7.07668 31.2511 6.99359 31.3223 6.93513L32.2705 6.15413L31.7388 6.45333C31.6613 6.50003 31.5692 6.51638 31.4802 6.49923C31.3913 6.48208 31.3119 6.43265 31.2573 6.36044C31.2027 6.28824 31.1767 6.19837 31.1843 6.10816C31.192 6.01794 31.2328 5.93375 31.2988 5.8718L33.3221 3.9248L31.7388 4.84C31.6619 4.88435 31.5715 4.89928 31.4844 4.88202C31.3973 4.86477 31.3195 4.8165 31.2653 4.74617C31.2111 4.67585 31.1842 4.58825 31.1897 4.49964C31.1952 4.41103 31.2327 4.32742 31.2952 4.26433L32.753 2.78667L31.7388 3.37333C31.6641 3.41665 31.5764 3.43216 31.4913 3.41714C31.4062 3.40212 31.3291 3.35753 31.2737 3.29123C31.2183 3.22493 31.1881 3.14119 31.1884 3.05478C31.1887 2.96837 31.2195 2.88484 31.2754 2.81893L31.964 2.0042C31.8853 1.99963 31.8103 1.96987 31.7499 1.91933C31.6895 1.86878 31.647 1.80014 31.6287 1.72356C31.6103 1.64698 31.6171 1.56653 31.648 1.49411C31.679 1.42169 31.7324 1.36116 31.8004 1.32147L33.3038 0.454665C33.3785 0.41135 33.4662 0.395835 33.5513 0.410857C33.6364 0.425878 33.7135 0.470471 33.7689 0.536768C33.8243 0.603064 33.8545 0.686805 33.8542 0.773216C33.8539 0.859627 33.8231 0.943155 33.7672 1.00906L33.1923 1.6896L34.7396 0.796398C34.8165 0.75209 34.9068 0.737138 34.9938 0.754312C35.0808 0.771486 35.1587 0.819622 35.2129 0.8898C35.2671 0.959979 35.2941 1.04744 35.2888 1.13598C35.2835 1.22452 35.2463 1.30814 35.184 1.37133L33.7269 2.8468L35.5602 1.78713C35.6377 1.74119 35.7294 1.72537 35.8178 1.7427C35.9062 1.76004 35.9851 1.8093 36.0395 1.8811C36.0939 1.95291 36.12 2.04222 36.1127 2.13201C36.1055 2.2218 36.0654 2.30578 36.0002 2.36793L33.9777 4.31567L35.7282 3.30513C35.8077 3.26 35.9013 3.24624 35.9905 3.26655C36.0797 3.28687 36.1581 3.33979 36.2103 3.41493C36.2624 3.49007 36.2846 3.582 36.2725 3.67268C36.2604 3.76335 36.2148 3.84621 36.1447 3.905L35.2002 4.68673L35.7318 4.3802C35.8098 4.33782 35.9006 4.32518 35.9872 4.34463C36.0738 4.36408 36.1505 4.41429 36.2029 4.48596C36.2553 4.55762 36.2799 4.64586 36.2722 4.7343C36.2644 4.82274 36.2249 4.90538 36.1608 4.96687L34.3818 6.57067L35.7282 5.79333C35.8069 5.74767 35.8999 5.73295 35.9889 5.75201C36.0779 5.77108 36.1566 5.82257 36.2098 5.89649C36.2629 5.9704 36.2867 6.06143 36.2764 6.15189C36.2661 6.24234 36.2226 6.32574 36.1542 6.38587L34.5402 7.8144L35.7311 7.12727C35.8092 7.08051 35.902 7.0645 35.9912 7.08234C36.0805 7.10018 36.16 7.1506 36.2141 7.22379C36.2683 7.29698 36.2933 7.3877 36.2842 7.47829C36.2752 7.56889 36.2328 7.65289 36.1652 7.71393L34.1119 9.64187L35.7252 8.70833C35.8043 8.66278 35.8975 8.64836 35.9867 8.66788C36.0759 8.68741 36.1545 8.73948 36.2073 8.81391C36.2601 8.88835 36.2833 8.97981 36.2722 9.0704C36.2612 9.161 36.2168 9.24422 36.1476 9.3038L34.7616 10.4955L35.7252 9.9396C35.8044 9.89531 35.8971 9.88191 35.9855 9.90199C36.074 9.92207 36.1518 9.9742 36.204 10.0483C36.2563 10.1224 36.2792 10.2133 36.2684 10.3033C36.2576 10.3933 36.2138 10.4762 36.1454 10.5358L34.8841 11.6065L35.7252 11.1217C35.8034 11.0742 35.8964 11.0576 35.9862 11.0752C36.0759 11.0927 36.1559 11.1432 36.2103 11.2167C36.2648 11.2901 36.2898 11.3813 36.2805 11.4723C36.2712 11.5632 36.2283 11.6475 36.1601 11.7084L34.0804 13.6737L35.7252 12.7241C35.8033 12.6794 35.8951 12.6649 35.9832 12.6835C36.0712 12.7021 36.1494 12.7524 36.2027 12.8249C36.2561 12.8973 36.2809 12.9869 36.2725 13.0765C36.2641 13.1661 36.2231 13.2494 36.1572 13.3107L34.2314 15.0854L35.7252 14.2237C35.8056 14.179 35.8998 14.166 35.9892 14.1874C36.0786 14.2089 36.1567 14.2631 36.2081 14.3394C36.2594 14.4157 36.2801 14.5086 36.2662 14.5995C36.2523 14.6904 36.2048 14.7727 36.133 14.8302L35.8558 15.0458C35.9237 15.037 35.9928 15.047 36.0555 15.0747C36.1182 15.1023 36.1721 15.1466 36.2114 15.2027C36.2635 15.279 36.2849 15.3721 36.2713 15.4635C36.2577 15.5549 36.2102 15.6377 36.1381 15.6955L35.6394 16.093L35.7267 16.0424C35.807 15.9971 35.9014 15.9836 35.9911 16.0047C36.0808 16.0259 36.1593 16.08 36.2109 16.1564C36.2625 16.2328 36.2834 16.3258 36.2695 16.4169C36.2556 16.5081 36.2079 16.5906 36.1359 16.6481L35.7978 16.9136C35.8779 16.8878 35.9645 16.8904 36.0429 16.9208C36.1214 16.9513 36.187 17.0078 36.2287 17.0809C36.2704 17.154 36.2857 17.2392 36.272 17.3223C36.2583 17.4053 36.2165 17.4811 36.1535 17.5369L34.4962 19.008L35.7267 18.2981C35.8043 18.2514 35.8964 18.2351 35.9853 18.2522C36.0742 18.2694 36.1536 18.3188 36.2082 18.391C36.2629 18.4632 36.2888 18.5531 36.2812 18.6433C36.2735 18.7335 36.2327 18.8177 36.1667 18.8797L33.9667 20.9961L35.7267 19.9811C35.8061 19.9356 35.8997 19.9215 35.989 19.9414C36.0783 19.9614 36.157 20.014 36.2094 20.089C36.2619 20.164 36.2845 20.2559 36.2726 20.3467C36.2608 20.4375 36.2154 20.5205 36.1454 20.5795L34.9882 21.5519L35.7282 21.12C35.8058 21.0758 35.8969 21.0614 35.9843 21.0795C36.0718 21.0977 36.1496 21.1472 36.2032 21.2187C36.2568 21.2902 36.2824 21.3787 36.2753 21.4678C36.2681 21.5568 36.2288 21.6402 36.1645 21.7023L34.0048 23.7703L35.7282 22.7759C35.8063 22.7305 35.8984 22.7156 35.9868 22.7339C36.0752 22.7523 36.1538 22.8026 36.2074 22.8753C36.261 22.948 36.2859 23.0379 36.2773 23.1278C36.2687 23.2177 36.2272 23.3013 36.1608 23.3625L34.2094 25.1673L35.7282 24.2873C35.8076 24.2425 35.9008 24.2289 35.9896 24.2491C36.0785 24.2694 36.1567 24.322 36.2089 24.3967C36.2611 24.4714 36.2836 24.5629 36.272 24.6533C36.2604 24.7437 36.2155 24.8265 36.1462 24.8857L35.0828 25.7715L35.7282 25.3997C35.8058 25.3555 35.8969 25.3411 35.9843 25.3593C36.0718 25.3774 36.1496 25.4269 36.2032 25.4984C36.2568 25.5699 36.2824 25.6585 36.2753 25.7475C36.2681 25.8366 36.2288 25.9199 36.1645 25.982L34.01 28.0434L35.7282 27.0519C35.8076 27.0064 35.9012 26.9923 35.9905 27.0122C36.0798 27.0322 36.1584 27.0849 36.2109 27.1598C36.2634 27.2348 36.2859 27.3267 36.2741 27.4175C36.2622 27.5083 36.2169 27.5913 36.1469 27.6503L35.0469 28.5707L35.7289 28.1776C35.8078 28.1324 35.9007 28.1181 35.9896 28.1375C36.0784 28.1569 36.1569 28.2087 36.2097 28.2827C36.2626 28.3568 36.286 28.4478 36.2755 28.5381C36.2649 28.6285 36.2212 28.7117 36.1528 28.7716L35.033 29.7433L35.7289 29.3421C35.8081 29.2977 35.901 29.2842 35.9896 29.3044C36.0781 29.3245 36.1561 29.3768 36.2083 29.4511C36.2605 29.5254 36.2833 29.6165 36.2722 29.7066C36.2612 29.7968 36.217 29.8796 36.1484 29.9391L35.8066 30.2287C35.8748 30.2075 35.9477 30.207 36.0162 30.227C36.0847 30.2471 36.1457 30.287 36.1916 30.3417C36.2471 30.407 36.278 30.4898 36.2788 30.5755C36.2796 30.6613 36.2503 30.7446 36.196 30.811L35.4546 31.724C35.5236 31.7193 35.5925 31.7338 35.6537 31.7661C35.7148 31.7983 35.7658 31.847 35.8008 31.9066C35.8492 31.9907 35.8624 32.0905 35.8374 32.1842C35.8123 32.278 35.7512 32.358 35.6673 32.4067L34.164 33.275C34.1085 33.309 34.0449 33.3272 33.9799 33.3278Z" fill="#F2CF7E"/>
<path d="M43.7975 11.1327C44.1825 6.54792 40.1639 5.89599 36.473 6.34625C36.2999 4.30319 37.2283 1.41532 34.7321 0.473721C34.3229 0.33504 33.8874 0.291793 33.4589 0.347289C33.0304 0.402785 32.6203 0.555553 32.26 0.793906C31.8996 1.03226 31.5985 1.34988 31.3798 1.72247C31.1611 2.09507 31.0304 2.51276 30.9979 2.94359L26.9646 6.35359H9.53327C6.03161 6.32279 0.255137 5.60119 0.202337 10.5937C0.199404 18.1603 0.199404 25.7268 0.202337 33.2933C0.148003 33.936 0.243352 34.5826 0.480903 35.1823C0.718453 35.7819 1.09174 36.3184 1.57147 36.7495C2.72794 37.7029 4.10147 37.6442 5.49627 37.6442C8.63274 37.6354 11.7721 37.6523 14.902 37.6567C22.0733 45.4777 21.6281 45.3259 28.8933 37.6449C33.1011 37.1169 39.5691 39.0383 42.8413 36.1328C43.7381 35.1135 43.7997 33.9225 43.7997 32.6597L43.7975 11.1327ZM32.2395 2.09512C33.0953 0.228787 35.3253 1.41312 35.3928 3.06899C35.3972 8.53085 35.3972 13.9932 35.3928 19.4561V27.8894C35.3928 29.3561 35.9201 32.4764 33.7751 32.5923C31.7115 32.5923 32.0723 29.9523 32.0723 28.6147V21.7543C32.2233 15.2181 31.776 8.58659 32.2395 2.09512ZM30.9928 3.83459C30.9591 12.4623 31.072 21.0584 30.9459 29.6883L22.5323 22.5698V10.9927L30.9928 3.83459ZM19.5682 25.9769C19.5579 25.982 19.4883 26.0304 19.4897 26.0297C19.4714 26.0429 19.3973 26.0685 19.3944 26.0729L19.3438 26.0869C18.9038 26.1008 17.9945 26.0913 17.3975 26.0942V23.0472H20.0016C19.8916 23.9976 20.3411 25.2457 19.5682 25.9769ZM16.3357 30.8733C16.3543 31.0572 16.3264 31.2427 16.2544 31.4129C16.1824 31.5831 16.0687 31.7324 15.9238 31.8471C15.7789 31.9617 15.6075 32.038 15.4253 32.0689C15.2431 32.0998 15.0561 32.0844 14.8815 32.0239C13.9743 32.1772 12.9557 31.8039 12.8927 30.7619C12.6514 28.1952 12.5201 25.6175 12.2994 23.0487H16.3364C16.3364 24.2154 16.3467 25.4005 16.3591 26.5621C16.3701 27.9987 16.3731 29.4367 16.3357 30.8733ZM11.2023 22.4209C7.07074 21.8783 8.98474 16.3563 8.62247 13.4897C8.80581 11.6131 10.6245 11.1063 12.2378 11.3153H21.4675V22.4195L11.2023 22.4209ZM42.7357 33.8741C42.7582 34.7202 42.4441 35.5406 41.8624 36.1554C41.2808 36.7703 40.479 37.1292 39.6329 37.1536C36.1863 37.1587 32.744 37.1499 29.2995 37.1536C26.6683 37.7491 25.3065 40.9933 23.1696 42.5458C21.8738 43.6231 20.9513 42.4468 20.1138 41.5925C18.5437 40.2475 17.3007 38.1993 15.5554 37.1558C11.3915 36.7657 6.82214 37.9581 2.8482 36.586C-0.0733958 34.4263 1.746 27.742 1.2642 24.3151C1.28987 0.622589 -1.99106 8.04465 26.3853 6.84639L21.8474 10.6861C18.2255 11.2222 9.63814 9.13145 7.85687 12.6478C7.21741 14.3469 7.65814 16.2287 7.53421 18.0063C7.09421 20.5121 8.29174 23.3215 11.2155 23.0472C11.8022 25.4034 10.8379 31.1139 12.7929 32.3605C18.1052 33.2867 17.4305 30.8447 17.3975 26.7139C20.2656 27.0109 21.4426 25.9395 21.0642 23.0472H21.6443L30.9994 30.9628C31.1901 34.3611 36.4547 33.9929 36.473 30.7164C36.4759 22.7602 36.4759 14.8035 36.473 6.84639C42.1453 6.23332 43.2138 8.77359 42.7349 13.9392C42.7232 20.5832 42.7533 27.2294 42.7357 33.8727V33.8741Z" fill="black"/>
</g>
<defs>
<clipPath id="clip0_160_1868">
<rect width="44" height="44" fill="white"/>
</clipPath>
</defs>
</svg>
