<svg width="44" height="44" viewBox="0 0 44 44" fill="none" xmlns="http://www.w3.org/2000/svg">
<g clip-path="url(#clip0_160_2020)">
<path d="M21.9941 35.5447C21.9144 35.5446 21.8369 35.5186 21.7733 35.4705C21.7097 35.4224 21.6635 35.355 21.6417 35.2783C21.6199 35.2016 21.6237 35.1199 21.6525 35.0456C21.6813 34.9713 21.7335 34.9083 21.8013 34.8663L22.9973 34.1249L20.7453 35.4251C20.6625 35.4706 20.5655 35.4825 20.4742 35.4582C20.383 35.4339 20.3046 35.3753 20.2555 35.2947C20.2064 35.2141 20.1902 35.1176 20.2104 35.0254C20.2306 34.9332 20.2856 34.8523 20.3639 34.7996L29.3839 28.9894L18.7506 35.1267C18.6679 35.1722 18.5708 35.184 18.4796 35.1597C18.3883 35.1354 18.31 35.0769 18.2608 34.9963C18.2117 34.9156 18.1955 34.8192 18.2157 34.7269C18.2359 34.6347 18.2909 34.5538 18.3693 34.5011L28.16 28.2077L16.9811 34.661C16.8981 34.7118 16.7984 34.7275 16.7039 34.7047C16.6093 34.682 16.5277 34.6226 16.4769 34.5396C16.4261 34.4567 16.4104 34.357 16.4332 34.2624C16.4559 34.1679 16.5153 34.0862 16.5983 34.0355L27.8916 26.7161L15.2299 34.0267C15.1464 34.0768 15.0465 34.0916 14.9521 34.0681C14.8577 34.0445 14.7765 33.9843 14.7264 33.9009C14.6764 33.8175 14.6615 33.7176 14.6851 33.6231C14.7086 33.5287 14.7688 33.4476 14.8522 33.3975L20.4079 29.9369L14.1533 33.5456C14.0705 33.5928 13.9726 33.6058 13.8804 33.582C13.7881 33.5582 13.7087 33.4994 13.659 33.4181C13.6094 33.3368 13.5933 33.2393 13.6143 33.1463C13.6352 33.0534 13.6915 32.9722 13.7713 32.9201L24.86 25.7862L12.7072 32.8027C12.6239 32.8497 12.5256 32.8622 12.4332 32.8377C12.3408 32.8132 12.2616 32.7535 12.2125 32.6714C12.1635 32.5894 12.1484 32.4914 12.1705 32.3984C12.1927 32.3054 12.2502 32.2247 12.331 32.1735L15.18 30.4187L11.88 32.3253C11.797 32.3697 11.7 32.3804 11.6093 32.3553C11.5186 32.3301 11.441 32.271 11.3927 32.1902C11.3443 32.1095 11.3289 32.0132 11.3496 31.9213C11.3703 31.8295 11.4255 31.7491 11.5038 31.6969L17.116 28.2047L10.9604 31.7533C10.8773 31.7991 10.7796 31.8109 10.688 31.7862C10.5964 31.7614 10.5179 31.7022 10.4691 31.6208C10.4203 31.5394 10.4049 31.4422 10.4262 31.3497C10.4476 31.2573 10.5039 31.1767 10.5835 31.1249L16.7882 27.2543L10.0533 31.141C9.96984 31.1911 9.86992 31.206 9.77551 31.1824C9.6811 31.1588 9.59992 31.0987 9.54984 31.0152C9.49976 30.9318 9.48488 30.8319 9.50846 30.7375C9.53205 30.6431 9.59217 30.5619 9.67561 30.5118L15.3179 26.9999L9.20408 30.5294C9.1211 30.578 9.02234 30.5921 8.92908 30.5686C8.83582 30.5451 8.75553 30.4859 8.70551 30.4038C8.65549 30.3216 8.63975 30.2231 8.66168 30.1295C8.68361 30.0358 8.74145 29.9545 8.82274 29.9031L19.3314 23.1645L8.08061 29.6641C7.99834 29.7056 7.90345 29.7146 7.81483 29.6893C7.72621 29.664 7.65037 29.6063 7.60238 29.5276C7.5544 29.449 7.5378 29.3551 7.55589 29.2647C7.57399 29.1744 7.62544 29.0941 7.70001 29.04L13.4435 25.454L7.28348 29.0107C7.20072 29.0588 7.10242 29.0727 7.00959 29.0493C6.91675 29.0259 6.83675 28.9671 6.78666 28.8855C6.73658 28.8039 6.72039 28.706 6.74156 28.6126C6.76273 28.5193 6.81957 28.4379 6.89994 28.3859L18.2666 20.9792L6.12921 27.9847C6.04662 28.0296 5.94996 28.041 5.8592 28.0166C5.76844 27.9922 5.69051 27.9339 5.64148 27.8538C5.59245 27.7736 5.57608 27.6777 5.59574 27.5858C5.61541 27.4939 5.6696 27.413 5.74714 27.3599L15.5467 21.0342L5.13334 27.0446C5.05073 27.0916 4.95312 27.1046 4.86107 27.081C4.76902 27.0574 4.68973 26.999 4.6399 26.9181C4.59008 26.8372 4.57362 26.7401 4.59398 26.6473C4.61435 26.5544 4.66995 26.4732 4.74908 26.4205L15.1551 19.591L4.08174 25.9842C3.99855 26.0293 3.90114 26.0405 3.80988 26.0155C3.71863 25.9904 3.64059 25.931 3.5921 25.8498C3.5436 25.7685 3.52841 25.6716 3.54969 25.5794C3.57097 25.4872 3.62708 25.4068 3.70628 25.355L4.27974 24.9993L3.55081 25.4203C3.46773 25.4668 3.3698 25.4792 3.27774 25.4549C3.18568 25.4305 3.10672 25.3713 3.05756 25.2897C3.00839 25.2081 2.99289 25.1106 3.01432 25.0179C3.03576 24.9251 3.09245 24.8443 3.17241 24.7925L6.02801 23.0047L2.96341 24.7735C2.88119 24.8184 2.78491 24.8301 2.69433 24.8062C2.60374 24.7824 2.52572 24.7247 2.47628 24.6452C2.42683 24.5656 2.40971 24.4702 2.42843 24.3784C2.44715 24.2866 2.50029 24.2054 2.57694 24.1516L10.9135 18.6017L2.05334 23.7175C1.97112 23.7643 1.87397 23.7776 1.7822 23.7545C1.69044 23.7313 1.61116 23.6736 1.56096 23.5934C1.51076 23.5132 1.49353 23.4167 1.51286 23.324C1.53219 23.2314 1.58659 23.1498 1.66468 23.0963L8.58001 18.4067L1.20634 22.6651C1.12486 22.7124 1.02832 22.7265 0.936732 22.7044C0.845149 22.6824 0.765551 22.626 0.71444 22.5469C0.663328 22.4678 0.644625 22.372 0.662208 22.2795C0.67979 22.187 0.73231 22.1047 0.808878 22.0499L5.14214 18.931L5.01528 19.0043C4.97354 19.0309 4.92688 19.0487 4.87808 19.0567C4.82928 19.0647 4.77937 19.0628 4.73134 19.051C4.6833 19.0393 4.63815 19.0179 4.59858 18.9882C4.55902 18.9586 4.52587 18.9212 4.50112 18.8784C4.47637 18.8356 4.46054 18.7882 4.45458 18.7391C4.44862 18.69 4.45264 18.6402 4.46642 18.5927C4.4802 18.5452 4.50344 18.501 4.53475 18.4628C4.56606 18.4245 4.60479 18.3929 4.64861 18.37L11.1019 14.6432C11.1834 14.596 11.28 14.5819 11.3716 14.6039C11.4631 14.6259 11.5427 14.6823 11.5938 14.7614C11.645 14.8406 11.6637 14.9363 11.6461 15.0288C11.6285 15.1214 11.576 15.2036 11.4994 15.2585L7.16834 18.3751L17.0177 12.6867C17.0998 12.6417 17.1959 12.6298 17.2864 12.6534C17.377 12.6769 17.4551 12.7342 17.5047 12.8135C17.5544 12.8928 17.5719 12.9881 17.5536 13.0798C17.5353 13.1716 17.4827 13.2529 17.4064 13.3071L10.4874 18.0004L20.5099 12.2137C20.5923 12.1668 20.6897 12.1537 20.7815 12.177C20.8734 12.2004 20.9527 12.2584 21.0027 12.339C21.0527 12.4196 21.0696 12.5164 21.0497 12.6091C21.0299 12.7018 20.9749 12.7832 20.8963 12.8363L12.5554 18.3891L23.2371 12.2232C23.3201 12.1782 23.4173 12.167 23.5083 12.1919C23.5994 12.2167 23.6773 12.2757 23.726 12.3566C23.7746 12.4374 23.7902 12.534 23.7695 12.626C23.7488 12.7181 23.6934 12.7987 23.6148 12.8509L20.7739 14.6307L24.7009 12.364C24.7841 12.3189 24.8815 12.3077 24.9727 12.3327C25.064 12.3578 25.142 12.4172 25.1905 12.4984C25.239 12.5797 25.2542 12.6766 25.2329 12.7688C25.2116 12.861 25.1555 12.9414 25.0763 12.9932L24.5043 13.3474L25.8933 12.5459C25.9759 12.4989 26.0735 12.4858 26.1655 12.5094C26.2576 12.533 26.3369 12.5915 26.3867 12.6724C26.4365 12.7533 26.453 12.8504 26.4326 12.9432C26.4123 13.036 26.3567 13.1173 26.2775 13.1699L15.8642 20.0024L27.9752 13.0108C28.0582 12.96 28.1579 12.9443 28.2524 12.9671C28.347 12.9898 28.4286 13.0492 28.4794 13.1322C28.5301 13.2151 28.5459 13.3148 28.5231 13.4094C28.5003 13.5039 28.441 13.5856 28.358 13.6363L18.5621 19.9613L29.7 13.5322C29.7828 13.4841 29.8811 13.4702 29.9739 13.4936C30.0667 13.517 30.1467 13.5758 30.1968 13.6573C30.2469 13.7389 30.2631 13.8369 30.2419 13.9302C30.2208 14.0236 30.1639 14.105 30.0835 14.157L18.7169 21.5637L31.4769 14.1959C31.5601 14.1479 31.6589 14.1345 31.7519 14.1585C31.845 14.1826 31.9248 14.2423 31.9743 14.3246C32.0238 14.407 32.039 14.5055 32.0166 14.599C31.9942 14.6924 31.936 14.7734 31.8545 14.8243L26.1155 18.4067L32.5849 14.6718C32.6676 14.6276 32.7641 14.6166 32.8545 14.6413C32.945 14.666 33.0225 14.7244 33.0712 14.8045C33.12 14.8846 33.1362 14.9803 33.1165 15.0719C33.0969 15.1636 33.0428 15.2443 32.9655 15.2973L22.4583 22.0345L34.0267 15.356C34.1101 15.3059 34.21 15.291 34.3044 15.3146C34.3988 15.3382 34.48 15.3983 34.5301 15.4818C34.5802 15.5652 34.5951 15.6651 34.5715 15.7595C34.5479 15.8539 34.4878 15.9351 34.4043 15.9852L28.7635 19.4971L35.024 15.8825C35.1071 15.8367 35.2048 15.825 35.2964 15.8497C35.3881 15.8744 35.4665 15.9337 35.5153 16.0151C35.5642 16.0965 35.5795 16.1937 35.5582 16.2861C35.5368 16.3786 35.4805 16.4592 35.4009 16.511L29.1867 20.3867L36.0103 16.4472C36.0935 16.4014 36.1911 16.3896 36.2828 16.4144C36.3744 16.4391 36.4529 16.4984 36.5017 16.5798C36.5505 16.6612 36.5658 16.7583 36.5445 16.8508C36.5232 16.9433 36.4668 17.0239 36.3873 17.0757L30.7758 20.5671L36.9358 17.0089C36.9772 16.9842 37.023 16.9679 37.0707 16.9609C37.1183 16.9539 37.1669 16.9564 37.2136 16.9682C37.2603 16.98 37.3043 17.0008 37.3429 17.0296C37.3816 17.0583 37.4142 17.0944 37.4389 17.1358C37.4636 17.1772 37.4799 17.223 37.4869 17.2707C37.4939 17.3183 37.4914 17.3669 37.4796 17.4136C37.4678 17.4603 37.447 17.5043 37.4182 17.5429C37.3895 17.5816 37.3534 17.6142 37.312 17.6389L34.452 19.3989L37.7205 17.5127C37.8033 17.4656 37.9012 17.4525 37.9935 17.4764C38.0857 17.5002 38.1651 17.5589 38.2148 17.6403C38.2644 17.7216 38.2805 17.8191 38.2596 17.912C38.2386 18.005 38.1823 18.0861 38.1025 18.1383L27.0219 25.2685L38.9789 18.3656C39.0621 18.3176 39.1609 18.3042 39.2539 18.3283C39.347 18.3524 39.4268 18.412 39.4763 18.4944C39.5258 18.5768 39.541 18.6753 39.5186 18.7687C39.4962 18.8622 39.438 18.9431 39.3565 18.9941L33.8067 22.4517L39.82 18.9787C39.9027 18.9325 40 18.9201 40.0916 18.944C40.1832 18.968 40.262 19.0265 40.3115 19.1072C40.361 19.188 40.3773 19.2847 40.357 19.3772C40.3368 19.4697 40.2815 19.5508 40.2028 19.6035L28.9095 26.9251L41.0329 19.9254C41.1157 19.8799 41.2128 19.8681 41.304 19.8924C41.3952 19.9167 41.4736 19.9752 41.5227 20.0558C41.5719 20.1364 41.588 20.2329 41.5678 20.3251C41.5476 20.4174 41.4926 20.4982 41.4143 20.5509L31.625 26.8488L42.0933 20.8083C42.1761 20.7628 42.2732 20.751 42.3644 20.7753C42.4556 20.7996 42.534 20.8581 42.5831 20.9388C42.6323 21.0194 42.6484 21.1158 42.6282 21.2081C42.608 21.3003 42.553 21.3812 42.4747 21.4339L33.4591 27.2382L43.0371 21.7067C43.1203 21.6609 43.2179 21.6491 43.3096 21.6738C43.4012 21.6986 43.4797 21.7579 43.5285 21.8393C43.5773 21.9206 43.5926 22.0178 43.5713 22.1103C43.55 22.2028 43.4936 22.2834 43.4141 22.3351L41.8 23.3383C41.8837 23.3175 41.972 23.3268 42.0495 23.3646C42.127 23.4025 42.1887 23.4664 42.2237 23.5452C42.2587 23.624 42.2649 23.7126 42.241 23.7955C42.2172 23.8784 42.1649 23.9502 42.0933 23.9983L34.3757 29.1911L38.3709 26.884C38.4531 26.8363 38.5506 26.8224 38.6428 26.8451C38.735 26.8679 38.8148 26.9255 38.8654 27.0059C38.916 27.0864 38.9333 27.1833 38.9139 27.2762C38.8944 27.3692 38.8396 27.451 38.7611 27.5044L34.9404 30.1151C34.9804 30.1451 35.0139 30.1831 35.0387 30.2265C35.0871 30.3106 35.1003 30.4104 35.0753 30.5042C35.0502 30.5979 34.9891 30.6779 34.9052 30.7267L29.3546 33.9321C29.2724 33.9798 29.175 33.9937 29.0828 33.971C28.9905 33.9482 28.9107 33.8906 28.8602 33.8101C28.8096 33.7297 28.7922 33.6328 28.8117 33.5398C28.8311 33.4469 28.8859 33.3651 28.9645 33.3117L30.3791 32.3444L25.5288 35.145C25.4465 35.1927 25.3488 35.2066 25.2564 35.1836C25.164 35.1606 25.0842 35.1026 25.0338 35.0218C24.9835 34.9411 24.9665 34.8439 24.9864 34.7508C25.0064 34.6578 25.0618 34.5761 25.1409 34.5231L32.8533 29.3333L22.1775 35.4933C22.122 35.5263 22.0587 35.544 21.9941 35.5447Z" fill="#E1EFFF"/>
<path d="M21.9804 31.8721C21.9034 31.8721 21.8284 31.8479 21.766 31.8029C21.7035 31.7579 21.6568 31.6944 21.6325 31.6214C21.6082 31.5484 21.6074 31.4696 21.6304 31.3961C21.6533 31.3227 21.6988 31.2583 21.7604 31.2121L25.9814 28.0529L19.916 31.5539C19.8338 31.5988 19.7375 31.6105 19.6469 31.5866C19.5564 31.5628 19.4783 31.5051 19.4289 31.4256C19.3795 31.346 19.3623 31.2506 19.3811 31.1588C19.3998 31.067 19.4529 30.9858 19.5296 30.932L21.5646 29.5783L18.7691 31.1916C18.6864 31.2378 18.5891 31.2502 18.4975 31.2262C18.4059 31.2023 18.3271 31.1438 18.2776 31.0631C18.2281 30.9823 18.2118 30.8856 18.2321 30.7931C18.2523 30.7006 18.3076 30.6195 18.3863 30.5668L18.8072 30.2962L17.9089 30.8139C17.8259 30.8626 17.7272 30.8766 17.6339 30.8531C17.5406 30.8296 17.4603 30.7704 17.4103 30.6883C17.3603 30.6061 17.3446 30.5076 17.3665 30.414C17.3884 30.3203 17.4463 30.2391 17.5276 30.1877L17.7021 30.0762L17.1594 30.3886C17.0773 30.4341 16.9808 30.4463 16.8899 30.4228C16.7989 30.3993 16.7205 30.3417 16.6708 30.2621C16.621 30.1824 16.6037 30.0867 16.6225 29.9947C16.6412 29.9027 16.6946 29.8213 16.7715 29.7675L22.3896 25.9827L16.0939 29.6171C16.0118 29.6633 15.9151 29.6761 15.8238 29.6529C15.7325 29.6297 15.6537 29.5722 15.6036 29.4925C15.5535 29.4127 15.5361 29.3167 15.5549 29.2244C15.5736 29.1321 15.6272 29.0506 15.7045 28.9967L22.603 24.3034L15.087 28.6433C15.0045 28.6911 14.9065 28.7049 14.814 28.6817C14.7214 28.6585 14.6415 28.6001 14.5913 28.519C14.5411 28.4379 14.5245 28.3403 14.545 28.2472C14.5656 28.154 14.6216 28.0725 14.7013 28.0199L20.4521 24.211L14.3654 27.7251C14.3243 27.7501 14.2786 27.7668 14.231 27.7741C14.1834 27.7814 14.1348 27.7793 14.088 27.7679C14.0412 27.7564 13.9972 27.7359 13.9583 27.7074C13.9195 27.6789 13.8866 27.6431 13.8616 27.6019C13.8366 27.5608 13.82 27.5151 13.8127 27.4675C13.8053 27.4199 13.8074 27.3713 13.8189 27.3245C13.8303 27.2777 13.8509 27.2337 13.8793 27.1948C13.9078 27.156 13.9437 27.1231 13.9848 27.0981L15.604 26.0715L13.9291 27.038C13.8463 27.0829 13.7494 27.0942 13.6585 27.0695C13.5677 27.0449 13.4897 26.9863 13.4409 26.9058C13.3921 26.8253 13.3761 26.7291 13.3962 26.6371C13.4164 26.5451 13.4712 26.4644 13.5492 26.4117L15.1068 25.4181L13.5522 26.3149C13.4698 26.3627 13.3721 26.3765 13.2798 26.3535C13.1874 26.3305 13.1076 26.2725 13.0572 26.1918C13.0068 26.111 12.9898 26.0138 13.0098 25.9208C13.0298 25.8277 13.0851 25.746 13.1642 25.6931L19.8207 21.2197L13.0909 25.1064C13.008 25.1527 12.9104 25.1651 12.8186 25.1409C12.7268 25.1167 12.648 25.0579 12.5987 24.9768C12.5493 24.8956 12.5334 24.7985 12.5543 24.7059C12.5751 24.6133 12.631 24.5324 12.7103 24.4801L13.8272 23.7695L12.8834 24.3137C12.8009 24.3579 12.7046 24.369 12.6143 24.3446C12.5239 24.3201 12.4463 24.2621 12.3974 24.1823C12.3485 24.1025 12.3319 24.0071 12.3511 23.9155C12.3703 23.8238 12.4237 23.743 12.5006 23.6896L15.9135 21.4639L12.7257 23.3031C12.6437 23.3481 12.5475 23.36 12.457 23.3364C12.3665 23.3128 12.2884 23.2555 12.2387 23.1763C12.189 23.097 12.1716 23.0017 12.1898 22.91C12.2081 22.8182 12.2608 22.7369 12.337 22.6827L17.6075 19.1231L12.6868 21.967C12.6049 22.0147 12.5076 22.0288 12.4155 22.0063C12.3233 21.9838 12.2435 21.9265 12.1927 21.8464C12.1419 21.7663 12.1242 21.6696 12.1432 21.5767C12.1621 21.4838 12.2164 21.4018 12.2945 21.3481L17.5437 17.7085L12.868 20.4079C12.7858 20.4555 12.6883 20.4693 12.5961 20.4465C12.5039 20.4236 12.4242 20.3659 12.3737 20.2855C12.3232 20.2049 12.306 20.1078 12.3257 20.0148C12.3454 19.9217 12.4005 19.84 12.4793 19.7868L15.142 17.9813L13.2412 19.0813C13.1595 19.1277 13.0631 19.1409 12.9719 19.1183C12.8807 19.0956 12.8017 19.0388 12.7511 18.9596C12.7006 18.8803 12.6824 18.7847 12.7004 18.6925C12.7183 18.6003 12.7709 18.5184 12.8474 18.4639L15.0086 16.9495L13.9555 17.5575C13.8757 17.6032 13.7815 17.6173 13.6918 17.5969C13.602 17.5765 13.5232 17.5231 13.4711 17.4472C13.4189 17.3714 13.3971 17.2787 13.4101 17.1876C13.4231 17.0965 13.4699 17.0136 13.5412 16.9554L15.6788 15.2196C15.6245 15.2116 15.5726 15.1914 15.5273 15.1604C15.4819 15.1294 15.4442 15.0884 15.417 15.0407C15.3683 14.9565 15.3551 14.8565 15.3801 14.7626C15.4051 14.6687 15.4664 14.5885 15.5505 14.5398L18.9202 12.5921C18.9999 12.5473 19.0935 12.5339 19.1825 12.5546C19.2716 12.5752 19.3498 12.6284 19.4016 12.7037C19.4535 12.779 19.4754 12.871 19.463 12.9616C19.4505 13.0522 19.4047 13.1348 19.3345 13.1934L17.5914 14.6087L21.899 12.122C21.9807 12.0742 22.0778 12.0599 22.1699 12.0822C22.262 12.1044 22.3419 12.1614 22.3929 12.2412C22.4439 12.321 22.462 12.4174 22.4435 12.5103C22.425 12.6032 22.3712 12.6853 22.2935 12.7395L20.1309 14.2545L23.5402 12.2848C23.6224 12.2379 23.7195 12.2247 23.8113 12.2478C23.9031 12.2709 23.9823 12.3286 24.0325 12.4089C24.0827 12.4891 24.1 12.5856 24.0807 12.6782C24.0613 12.7709 24.0069 12.8525 23.9288 12.9059L21.2668 14.7099L24.8499 12.6412C24.9319 12.5935 25.0291 12.5794 25.1213 12.6019C25.2134 12.6244 25.2932 12.6817 25.344 12.7618C25.3948 12.8419 25.4125 12.9386 25.3936 13.0315C25.3746 13.1244 25.3203 13.2063 25.2422 13.2601L19.9938 16.8989L26.263 13.2792C26.3453 13.2304 26.4434 13.2158 26.5364 13.2383C26.6293 13.2609 26.7098 13.3188 26.7606 13.3999C26.8114 13.4809 26.8285 13.5786 26.8083 13.6721C26.7881 13.7656 26.7322 13.8475 26.6524 13.9003L21.3798 17.4614L27.3931 13.9883C27.4759 13.9402 27.5742 13.9263 27.667 13.9497C27.7598 13.9731 27.8398 14.0319 27.8899 14.1135C27.94 14.1951 27.9562 14.293 27.935 14.3864C27.9138 14.4797 27.857 14.5611 27.7766 14.6131L24.3615 16.8366L28.1851 14.6293C28.2682 14.5788 28.368 14.5634 28.4625 14.5865C28.557 14.6096 28.6384 14.6693 28.6889 14.7525C28.7394 14.8356 28.7547 14.9354 28.7316 15.0299C28.7085 15.1244 28.6488 15.2058 28.5657 15.2563L27.4481 15.9669L28.7681 15.2049C28.8506 15.1534 28.9501 15.1367 29.0449 15.1586C29.1396 15.1804 29.2218 15.2391 29.2734 15.3215C29.3249 15.404 29.3416 15.5035 29.3197 15.5983C29.2978 15.6931 29.2392 15.7752 29.1568 15.8268L22.5003 20.3001L29.5902 16.2067C29.673 16.1618 29.7698 16.1505 29.8607 16.1751C29.9516 16.1997 30.0295 16.2584 30.0784 16.3389C30.1272 16.4194 30.1432 16.5156 30.123 16.6076C30.1029 16.6995 30.0481 16.7802 29.97 16.8329L28.408 17.8266L30.0294 16.8901C30.0706 16.8651 30.1163 16.8485 30.1639 16.8412C30.2115 16.8338 30.2601 16.8359 30.3068 16.8474C30.3536 16.8588 30.3977 16.8794 30.4365 16.9078C30.4754 16.9363 30.5082 16.9722 30.5332 17.0133C30.5582 17.0545 30.5749 17.1002 30.5822 17.1478C30.5895 17.1954 30.5874 17.244 30.576 17.2907C30.5645 17.3375 30.544 17.3816 30.5155 17.4204C30.487 17.4593 30.4512 17.4921 30.41 17.5171L28.7967 18.5438L30.41 17.6125C30.4924 17.567 30.589 17.5549 30.68 17.5787C30.771 17.6025 30.8494 17.6604 30.8989 17.7403C30.9485 17.8203 30.9654 17.9162 30.9462 18.0083C30.927 18.1004 30.8731 18.1816 30.7958 18.2351L25.0464 22.044L30.8398 18.6971C30.9219 18.6494 31.0194 18.6354 31.1116 18.6582C31.2038 18.6809 31.2836 18.7386 31.3342 18.819C31.3848 18.8994 31.4022 18.9963 31.3827 19.0893C31.3632 19.1823 31.3085 19.2641 31.2299 19.3175L24.3248 24.0108L31.1815 20.0508C31.2637 20.0039 31.3609 19.9907 31.4526 20.0138C31.5444 20.0369 31.6237 20.0946 31.6739 20.1749C31.7241 20.2551 31.7413 20.3516 31.722 20.4443C31.7027 20.5369 31.6483 20.6185 31.5702 20.6719L25.9602 24.4596L31.3194 21.3664C31.402 21.3221 31.4985 21.3112 31.5889 21.3359C31.6794 21.3606 31.7569 21.419 31.8057 21.4991C31.8544 21.5792 31.8706 21.6749 31.8509 21.7665C31.8313 21.8582 31.7773 21.9389 31.7 21.9919L31.3773 22.1987C31.4631 22.168 31.5572 22.1703 31.6413 22.2051C31.7255 22.24 31.7937 22.3049 31.8326 22.3873C31.8715 22.4697 31.8783 22.5636 31.8518 22.6507C31.8252 22.7379 31.7672 22.812 31.689 22.8587L31.2387 23.1521C31.3227 23.1128 31.4184 23.1069 31.5066 23.1353C31.5948 23.1638 31.6689 23.2247 31.7141 23.3056C31.7592 23.3865 31.7721 23.4816 31.75 23.5716C31.7279 23.6616 31.6726 23.7399 31.5951 23.7908L29.5616 25.1431L30.9461 24.3437C31.027 24.297 31.1227 24.283 31.2136 24.3045C31.3046 24.3259 31.3839 24.3813 31.4354 24.4593C31.4868 24.5372 31.5066 24.6319 31.4906 24.724C31.4747 24.816 31.4242 24.8985 31.3494 24.9546L27.1335 28.1079L30.0668 26.4147C30.1471 26.3684 30.2419 26.3543 30.3322 26.3751C30.4225 26.3959 30.5015 26.4502 30.5535 26.5269C30.6054 26.6036 30.6264 26.6972 30.6121 26.7887C30.5979 26.8803 30.5495 26.963 30.4768 27.0204L28.576 28.512C28.6546 28.5169 28.7295 28.547 28.7897 28.5978C28.8499 28.6486 28.8921 28.7174 28.9101 28.7941C28.9281 28.8708 28.921 28.9512 28.8897 29.0235C28.8585 29.0958 28.8048 29.1561 28.7366 29.1955L24.825 31.4541C24.7446 31.5017 24.649 31.5168 24.5578 31.4963C24.4667 31.4759 24.3867 31.4213 24.3344 31.3439C24.2821 31.2665 24.2613 31.172 24.2763 31.0798C24.2913 30.9876 24.3409 30.9045 24.415 30.8477L25.9763 29.6215L22.163 31.8215C22.1076 31.8541 22.0446 31.8716 21.9804 31.8721Z" fill="#F2CF7E"/>
<path d="M42.9732 22.0594C42.9159 22.0615 42.8589 22.0501 42.8068 22.0261C42.7547 22.0022 42.709 21.9664 42.6732 21.9215L42.3396 21.4603C42.277 21.4764 42.2114 21.4764 42.1489 21.4603C42.1025 21.4474 42.0592 21.4254 42.0214 21.3955C41.9836 21.3657 41.9522 21.3286 41.9289 21.2865L41.4801 20.4952L41.3334 20.5788C41.2832 20.6079 41.2267 20.6246 41.1687 20.6276C41.1107 20.6305 41.0528 20.6197 40.9998 20.5959C40.9468 20.5721 40.9002 20.5361 40.8639 20.4908C40.8275 20.4455 40.8025 20.3922 40.7908 20.3353L40.683 19.8044L40.4476 19.9393C40.3908 19.9722 40.3263 19.9892 40.2607 19.9886C40.1951 19.988 40.1309 19.9698 40.0747 19.936C40.0185 19.9021 39.9725 19.8538 39.9413 19.7961C39.9102 19.7384 39.8951 19.6734 39.8976 19.6079L39.9144 19.1994L39.6167 19.371C39.5522 19.4085 39.4778 19.4254 39.4035 19.4195C39.3291 19.4136 39.2584 19.3851 39.2006 19.338C39.1428 19.2908 39.1008 19.2271 39.0802 19.1555C39.0595 19.0838 39.0612 19.0075 39.085 18.9369L39.129 18.8056L38.9266 18.9222C38.8597 18.9608 38.7822 18.9772 38.7054 18.9691C38.6285 18.961 38.5562 18.9289 38.4987 18.8772C38.4412 18.8256 38.4015 18.7571 38.3852 18.6816C38.369 18.606 38.377 18.5272 38.4082 18.4565L38.4566 18.3465L38.2204 18.4822C38.1612 18.517 38.0932 18.5343 38.0246 18.5319C37.9559 18.5296 37.8893 18.5078 37.8325 18.469C37.7754 18.4306 37.7302 18.3768 37.7022 18.3139C37.6742 18.251 37.6644 18.1815 37.6741 18.1133L37.8002 17.2223L36.9276 17.7261C36.8661 17.7617 36.7955 17.7787 36.7246 17.7749C36.6536 17.7712 36.5853 17.7469 36.5279 17.705C36.4705 17.6631 36.4264 17.6055 36.4012 17.5391C36.3759 17.4726 36.3705 17.4003 36.3856 17.3309L36.6181 16.2609L35.4448 16.9371C35.3795 16.9749 35.3043 16.9916 35.2292 16.9851C35.1541 16.9785 35.0828 16.949 35.0251 16.9005C34.9674 16.852 34.926 16.7869 34.9066 16.7141C34.8872 16.6412 34.8908 16.5642 34.9168 16.4934L35.3157 15.4L33.9106 16.2067C33.8351 16.2502 33.7464 16.2655 33.6607 16.2496C33.5749 16.2337 33.4976 16.1877 33.4427 16.12C33.3877 16.0522 33.3587 15.9671 33.3609 15.8799C33.3631 15.7927 33.3963 15.7091 33.4545 15.6442L33.544 15.5445L33.046 15.8319C32.9734 15.8739 32.8886 15.8897 32.8057 15.8767C32.7229 15.8637 32.647 15.8227 32.5907 15.7605C32.5344 15.6983 32.5011 15.6187 32.4965 15.5349C32.4918 15.4512 32.516 15.3683 32.565 15.3003L33.1142 14.5361L31.7532 15.3267C31.6757 15.3726 31.584 15.3884 31.4956 15.3711C31.4072 15.3538 31.3283 15.3045 31.2739 15.2327C31.2195 15.1609 31.1934 15.0716 31.2007 14.9818C31.2079 14.892 31.248 14.808 31.3132 14.7459L31.3491 14.7107L30.8409 15.004C30.7645 15.0481 30.6748 15.0633 30.5881 15.0466C30.5015 15.0299 30.4238 14.9826 30.3692 14.9132C30.3147 14.8439 30.287 14.7572 30.2912 14.6691C30.2954 14.581 30.3312 14.4973 30.3921 14.4335L30.8497 13.9546L29.6764 14.6329C29.5999 14.6771 29.5101 14.6922 29.4234 14.6754C29.3367 14.6587 29.259 14.6112 29.2045 14.5417C29.15 14.4722 29.1224 14.3854 29.1268 14.2972C29.1311 14.209 29.1672 14.1254 29.2283 14.0617L29.8766 13.3877L28.3446 14.2677C28.2678 14.3095 28.1786 14.3224 28.0931 14.3042C28.0075 14.2859 27.9313 14.2377 27.8782 14.1682C27.8251 14.0987 27.7986 14.0126 27.8035 13.9253C27.8083 13.838 27.8442 13.7552 27.9046 13.6921L28.6974 12.8935L26.864 13.9495C26.7888 13.9922 26.7009 14.0069 26.6158 13.991C26.5308 13.9751 26.4541 13.9296 26.3993 13.8627C26.3445 13.7957 26.3152 13.7115 26.3165 13.625C26.3178 13.5385 26.3497 13.4552 26.4064 13.3899L27.6824 11.9475L24.7542 13.64C24.6762 13.6841 24.5846 13.6981 24.497 13.6792C24.4093 13.6604 24.3316 13.6101 24.2785 13.5379C24.2254 13.4656 24.2006 13.3764 24.2088 13.2871C24.217 13.1979 24.2576 13.1147 24.323 13.0533L25.4846 11.9878L22.8446 13.5124C22.7645 13.5575 22.6703 13.5708 22.5808 13.5497C22.4912 13.5286 22.4129 13.4746 22.3613 13.3985C22.3097 13.3224 22.2886 13.2296 22.3022 13.1386C22.3158 13.0477 22.3631 12.9651 22.4347 12.9074L22.948 12.5019L21.1836 13.5205C21.1041 13.5679 21.0096 13.5835 20.919 13.5641C20.8284 13.5447 20.7486 13.4917 20.6955 13.4158C20.6423 13.34 20.6199 13.2468 20.6327 13.1551C20.6454 13.0634 20.6924 12.9798 20.7642 12.9213L22.247 11.6813L18.6434 13.761C18.5639 13.8067 18.4701 13.821 18.3806 13.801C18.2911 13.781 18.2124 13.7281 18.1599 13.6529C18.1074 13.5777 18.085 13.4856 18.0972 13.3947C18.1093 13.3038 18.155 13.2207 18.2254 13.1619L20.3667 11.3718L14.753 14.6124C14.6711 14.6586 14.5746 14.6716 14.4833 14.6487C14.3921 14.6258 14.3132 14.5687 14.2629 14.4892C14.2126 14.4097 14.1948 14.3139 14.2131 14.2216C14.2315 14.1294 14.2846 14.0477 14.3614 13.9935L14.8161 13.6789L10.3486 16.258C10.2648 16.3018 10.1673 16.3116 10.0765 16.2852C9.98569 16.2589 9.90856 16.1985 9.86123 16.1166C9.8139 16.0347 9.80004 15.9377 9.82254 15.8459C9.84504 15.754 9.90216 15.6744 9.98197 15.6237L22.2858 8.51766C22.3678 8.47141 22.4643 8.45841 22.5555 8.48135C22.6468 8.50428 22.7257 8.5614 22.776 8.6409C22.8263 8.72039 22.8441 8.81617 22.8258 8.90843C22.8074 9.0007 22.7543 9.08238 22.6774 9.13659L22.2206 9.45266L23.6696 8.61593C23.7491 8.57041 23.8426 8.55625 23.9319 8.57621C24.0213 8.59618 24.0999 8.64883 24.1524 8.72383C24.2049 8.79882 24.2274 8.89073 24.2155 8.9815C24.2037 9.07226 24.1583 9.15531 24.0884 9.21433L21.9463 11.0051L25.5286 8.93713C25.6081 8.89081 25.702 8.87603 25.7918 8.89572C25.8816 8.91541 25.9608 8.96812 26.0136 9.04342C26.0664 9.11871 26.0889 9.21109 26.0768 9.30224C26.0647 9.39338 26.0187 9.47665 25.9481 9.53553L24.466 10.7756L26.9784 9.32579C27.0586 9.27985 27.1532 9.26588 27.2433 9.28669C27.3333 9.3075 27.4122 9.36154 27.4641 9.43801C27.516 9.51448 27.5371 9.60773 27.5232 9.69911C27.5093 9.79048 27.4614 9.87323 27.3891 9.93079L26.8758 10.3371L28.0132 9.67706C28.0912 9.63296 28.1828 9.619 28.2704 9.63782C28.3581 9.65663 28.4358 9.70692 28.4889 9.77917C28.542 9.85142 28.5668 9.94062 28.5586 10.0299C28.5504 10.1192 28.5098 10.2024 28.4444 10.2637L27.2798 11.3322L29.265 10.1867C29.3402 10.144 29.4282 10.1293 29.5132 10.1452C29.5983 10.1611 29.675 10.2065 29.7297 10.2735C29.7845 10.3405 29.8138 10.4247 29.8125 10.5112C29.8112 10.5977 29.7793 10.681 29.7226 10.7463L28.4532 12.1887L30.7118 10.8849C30.7887 10.8431 30.8779 10.8302 30.9634 10.8484C31.0489 10.8667 31.1251 10.9149 31.1782 10.9844C31.2313 11.0538 31.2579 11.14 31.253 11.2273C31.2482 11.3146 31.2123 11.3973 31.1518 11.4605L30.3598 12.2591L31.7532 11.4561C31.8296 11.4125 31.9192 11.3978 32.0056 11.4148C32.092 11.4317 32.1694 11.4792 32.2236 11.5485C32.2779 11.6178 32.3054 11.7043 32.3012 11.7923C32.2969 11.8802 32.2612 11.9636 32.2005 12.0274L31.5522 12.7021L32.7109 12.034C32.7873 11.9904 32.8768 11.9757 32.9631 11.9925C33.0494 12.0094 33.1268 12.0567 33.1811 12.1259C33.2355 12.1951 33.2631 12.2815 33.259 12.3693C33.255 12.4572 33.2195 12.5407 33.159 12.6045L32.7014 13.0827L33.5586 12.5884C33.6361 12.5424 33.7278 12.5266 33.8162 12.544C33.9046 12.5613 33.9835 12.6106 34.0379 12.6824C34.0923 12.7542 34.1184 12.8435 34.1111 12.9333C34.1039 13.0231 34.0638 13.107 33.9986 13.1692L33.9634 13.2037L34.2296 13.0504C34.3023 13.0084 34.3871 12.9926 34.47 13.0056C34.5528 13.0186 34.6287 13.0596 34.685 13.1218C34.7413 13.184 34.7745 13.2637 34.7792 13.3474C34.7839 13.4312 34.7597 13.514 34.7107 13.5821L34.1607 14.3462L35.1874 13.7595C35.2629 13.7164 35.3512 13.7015 35.4366 13.7175C35.5221 13.7335 35.5991 13.7793 35.6539 13.8468C35.7087 13.9143 35.7377 13.999 35.7358 14.0859C35.7339 14.1728 35.7012 14.2562 35.6435 14.3213L35.554 14.421L35.8327 14.2604C35.8979 14.2229 35.9731 14.2063 36.0481 14.213C36.123 14.2196 36.1941 14.2492 36.2517 14.2976C36.3092 14.3461 36.3505 14.4111 36.3699 14.4838C36.3893 14.5565 36.3858 14.6334 36.36 14.7041L35.9588 15.8041L36.9745 15.2174C37.036 15.182 37.1064 15.1653 37.1773 15.1691C37.2481 15.173 37.3163 15.1973 37.3736 15.2391C37.4308 15.281 37.4748 15.3385 37.5 15.4048C37.5252 15.4711 37.5307 15.5433 37.5157 15.6127L37.2752 16.676L38.0818 16.2103C38.1412 16.1762 38.2089 16.1593 38.2774 16.1616C38.3458 16.164 38.4122 16.1855 38.4691 16.2236C38.526 16.2618 38.571 16.3151 38.5991 16.3776C38.6272 16.44 38.6373 16.5091 38.6282 16.577L38.4998 17.4702L39.0579 17.1483C39.1249 17.1097 39.2023 17.0933 39.2792 17.1014C39.356 17.1094 39.4284 17.1416 39.4859 17.1932C39.5434 17.2449 39.5831 17.3134 39.5993 17.3889C39.6156 17.4645 39.6075 17.5432 39.5764 17.6139L39.5272 17.7247L39.5932 17.6865C39.6577 17.6492 39.7319 17.6323 39.8062 17.6382C39.8804 17.6441 39.9511 17.6725 40.0088 17.7195C40.0665 17.7666 40.1086 17.8301 40.1293 17.9016C40.15 17.9732 40.1485 18.0493 40.1249 18.1199L40.0802 18.2527L40.1168 18.2307C40.1737 18.1978 40.2383 18.1808 40.3039 18.1814C40.3696 18.182 40.4338 18.2002 40.49 18.2342C40.5462 18.2681 40.5923 18.3165 40.6234 18.3743C40.6545 18.4322 40.6695 18.4973 40.6668 18.5629L40.6507 18.9721L40.7504 18.9149C40.8007 18.8858 40.8572 18.8691 40.9152 18.8661C40.9732 18.8631 41.0311 18.874 41.0841 18.8977C41.1371 18.9215 41.1836 18.9575 41.22 19.0029C41.2563 19.0482 41.2814 19.1014 41.2931 19.1583L41.4016 19.6885L41.4251 19.6746C41.467 19.6504 41.5134 19.6348 41.5614 19.6286C41.6094 19.6224 41.6581 19.6258 41.7048 19.6385C41.7515 19.6513 41.7953 19.6731 41.8335 19.7029C41.8717 19.7326 41.9036 19.7696 41.9274 19.8117L42.3887 20.625C42.4554 20.6145 42.5237 20.6227 42.5861 20.6486C42.6485 20.6744 42.7025 20.717 42.7422 20.7717L43.1983 21.4038C43.2393 21.4314 43.2734 21.4681 43.298 21.5109C43.3237 21.5504 43.3412 21.5946 43.3493 21.641C43.3575 21.6874 43.3562 21.735 43.3455 21.7809C43.3348 21.8268 43.315 21.87 43.2871 21.9081C43.2593 21.9461 43.2241 21.9781 43.1836 22.0022C43.1195 22.0389 43.0471 22.0586 42.9732 22.0594Z" fill="#F9F5E6"/>
<path d="M1.60957 21.2828C1.5308 21.2824 1.45424 21.2567 1.39123 21.2094C1.32822 21.1622 1.28211 21.0958 1.25974 21.0203C1.23736 20.9448 1.2399 20.8641 1.26698 20.7901C1.29406 20.7161 1.34425 20.6528 1.4101 20.6096L8.15677 16.2243L4.2481 18.48C4.16673 18.5267 4.07054 18.5404 3.97935 18.5184C3.88816 18.4963 3.8089 18.4401 3.75788 18.3614C3.70686 18.2826 3.68796 18.1873 3.70508 18.0951C3.7222 18.0028 3.77403 17.9207 3.8499 17.8655L9.28097 13.9407C9.2023 13.9359 9.12726 13.9059 9.06697 13.8552C9.00668 13.8044 8.96434 13.7356 8.94624 13.6589C8.92813 13.5822 8.93522 13.5017 8.96645 13.4294C8.99768 13.357 9.0514 13.2966 9.11963 13.2572L14.6446 10.0672C14.7259 10.0205 14.8221 10.0068 14.9133 10.0288C15.0045 10.0509 15.0838 10.1071 15.1348 10.1858C15.1858 10.2646 15.2047 10.3599 15.1876 10.4521C15.1705 10.5444 15.1186 10.6265 15.0428 10.6817L10.092 14.2597L19.8417 8.63133C19.9242 8.58707 20.0204 8.57602 20.1108 8.60044C20.2011 8.62486 20.2787 8.68291 20.3277 8.76269C20.3766 8.84247 20.3932 8.93794 20.374 9.02954C20.3548 9.12115 20.3013 9.20195 20.2245 9.2554L3.60717 20.0559C3.59572 20.104 3.57451 20.1491 3.54486 20.1886C3.51521 20.2281 3.47776 20.2611 3.43483 20.2855L1.7929 21.2337C1.73728 21.2662 1.67397 21.2831 1.60957 21.2828Z" fill="#F9F5E6"/>
<path d="M21.4194 26.7014C21.343 26.7014 21.2686 26.6776 21.2064 26.6333C21.1442 26.589 21.0974 26.5264 21.0726 26.4542C21.0477 26.382 21.046 26.3038 21.0677 26.2306C21.0893 26.1574 21.1333 26.0928 21.1935 26.0458L21.9826 25.4305L20.4294 26.3267C20.3496 26.3722 20.2557 26.3862 20.1661 26.3658C20.0766 26.3454 19.9979 26.2921 19.9457 26.2166C19.8936 26.141 19.8717 26.0486 19.8844 25.9576C19.897 25.8666 19.9434 25.7838 20.0143 25.7253L22.5333 23.672L19.2531 25.5655C19.1721 25.6115 19.0766 25.625 18.986 25.6032C18.8955 25.5814 18.8166 25.5259 18.7654 25.4481C18.7143 25.3702 18.6947 25.2758 18.7106 25.184C18.7265 25.0922 18.7768 25.0099 18.8512 24.9539L20.3868 23.8135L18.6114 24.8402C18.5307 24.8861 18.4356 24.8997 18.3452 24.8783C18.2548 24.8568 18.176 24.8018 18.1246 24.7244C18.0732 24.6471 18.0531 24.5531 18.0683 24.4614C18.0836 24.3698 18.133 24.2874 18.2066 24.2308L20.0796 22.8067L18.1208 23.9404C18.0417 23.9847 17.949 23.9981 17.8605 23.978C17.7721 23.9579 17.6943 23.9058 17.642 23.8317C17.5898 23.7576 17.5669 23.6667 17.5777 23.5767C17.5885 23.4867 17.6323 23.4038 17.7006 23.3442L20.634 20.8545L17.8121 22.4833C17.7326 22.5275 17.6396 22.5406 17.551 22.5201C17.4624 22.4996 17.3846 22.4469 17.3327 22.3722C17.2808 22.2975 17.2585 22.2062 17.2701 22.1161C17.2817 22.0259 17.3264 21.9432 17.3956 21.8841L19.3902 20.2319L17.9969 21.0386C17.9188 21.0854 17.826 21.1014 17.7368 21.0835C17.6475 21.0657 17.568 21.0153 17.5139 20.9421C17.4597 20.8689 17.4347 20.7782 17.4437 20.6876C17.4528 20.597 17.4952 20.513 17.5628 20.4519L18.7427 19.3446C18.6717 19.3272 18.6075 19.289 18.5584 19.2348C18.5093 19.1806 18.4775 19.113 18.4671 19.0407C18.4567 18.9683 18.4681 18.8945 18.5 18.8287C18.5319 18.7629 18.5827 18.7081 18.6459 18.6714L20.799 17.4247C20.8771 17.378 20.9698 17.362 21.0591 17.3798C21.1484 17.3977 21.2278 17.4481 21.282 17.5213C21.3361 17.5945 21.3611 17.6852 21.3521 17.7758C21.3431 17.8664 21.3006 17.9504 21.2331 18.0114L20.378 18.8181L22.798 17.4247C22.8775 17.3805 22.9705 17.3674 23.0591 17.3879C23.1477 17.4084 23.2255 17.4612 23.2774 17.5358C23.3293 17.6105 23.3516 17.7018 23.34 17.792C23.3284 17.8821 23.2837 17.9648 23.2146 18.0239L21.2214 19.6746L23.788 18.1918C23.8672 18.1468 23.9602 18.1329 24.0491 18.1527C24.1379 18.1726 24.2162 18.2247 24.2687 18.2991C24.3212 18.3735 24.3442 18.4647 24.3332 18.5551C24.3221 18.6455 24.2778 18.7285 24.209 18.788L21.2756 21.2769L24.8257 19.2236C24.9064 19.1777 25.0015 19.1641 25.0919 19.1856C25.1823 19.207 25.2611 19.262 25.3125 19.3394C25.3639 19.4168 25.384 19.5107 25.3688 19.6024C25.3536 19.694 25.3041 19.7764 25.2305 19.833L23.3539 21.252L25.5766 19.9694C25.6576 19.9234 25.7531 19.9099 25.8437 19.9317C25.9342 19.9535 26.0131 20.009 26.0643 20.0868C26.1154 20.1647 26.135 20.2591 26.1191 20.3509C26.1032 20.4427 26.0529 20.5249 25.9785 20.581L24.4465 21.7162L26.0958 20.7629C26.1757 20.7162 26.2702 20.7015 26.3605 20.7216C26.4508 20.7417 26.5301 20.7952 26.5826 20.8714C26.6351 20.9475 26.6569 21.0407 26.6436 21.1322C26.6303 21.2238 26.5829 21.3069 26.5109 21.3649L23.9933 23.4183L26.1669 22.1643C26.2473 22.1187 26.3419 22.1051 26.4319 22.1262C26.5218 22.1473 26.6005 22.2017 26.6521 22.2783C26.7037 22.3549 26.7245 22.4482 26.7103 22.5396C26.6961 22.6309 26.6479 22.7134 26.5754 22.7707L25.7863 23.3867L25.8655 23.3413C25.9493 23.2974 26.0468 23.2877 26.1377 23.314C26.2285 23.3404 26.3056 23.4008 26.353 23.4827C26.4003 23.5645 26.4141 23.6615 26.3916 23.7534C26.3691 23.8453 26.312 23.9249 26.2322 23.9756L21.6027 26.6486C21.5474 26.6824 21.4841 26.7006 21.4194 26.7014Z" fill="#F9F5E6"/>
<path d="M41.5067 9.87799C41.4402 9.87804 41.375 9.86004 41.318 9.82591C41.261 9.79178 41.2143 9.74281 41.183 9.68421C41.1517 9.62562 41.1369 9.55962 41.1401 9.49326C41.1434 9.4269 41.1646 9.36268 41.2016 9.30745L42.0699 8.00065L39.8266 9.29645C39.7499 9.34016 39.66 9.35474 39.5735 9.33753C39.4869 9.32031 39.4095 9.27245 39.3554 9.20273C39.3012 9.13301 39.2741 9.04612 39.2789 8.95799C39.2837 8.86986 39.3201 8.78642 39.3815 8.72299L41.1099 6.95639L39.7965 7.71539C39.7195 7.75819 39.6296 7.77183 39.5434 7.7538C39.4571 7.73577 39.3802 7.68727 39.3268 7.61719C39.2734 7.54712 39.247 7.46014 39.2524 7.37219C39.2579 7.28424 39.2948 7.20119 39.3565 7.13825L41.0278 5.46259L39.7914 6.17685C39.7127 6.22181 39.62 6.236 39.5315 6.21668C39.4429 6.19736 39.3646 6.14591 39.3117 6.07225C39.2588 5.99859 39.2351 5.90796 39.2452 5.81785C39.2552 5.72774 39.2983 5.64454 39.3661 5.58432L40.2461 4.81139L39.7892 5.07465C39.7106 5.12003 39.618 5.13466 39.5292 5.1157C39.4405 5.09675 39.3619 5.04555 39.3087 4.97202C39.2555 4.89849 39.2315 4.80785 39.2413 4.71763C39.2511 4.62741 39.294 4.54402 39.3617 4.48359L40.2043 3.73339L38.5345 4.69332C38.4571 4.73856 38.3658 4.75388 38.2778 4.73639C38.1899 4.71889 38.1115 4.66979 38.0573 4.59836C38.0031 4.52694 37.977 4.43814 37.9838 4.34875C37.9907 4.25937 38.03 4.17559 38.0945 4.11325L39.6858 2.56665L36.0015 4.69332C35.9236 4.73465 35.8333 4.74648 35.7473 4.72664C35.6614 4.7068 35.5854 4.65662 35.5334 4.58531C35.4815 4.514 35.457 4.42634 35.4644 4.33842C35.4719 4.2505 35.5108 4.16821 35.574 4.10665L36.9747 2.85632L34.6977 4.16825C34.6229 4.21111 34.5354 4.22627 34.4506 4.21107C34.3658 4.19586 34.289 4.15127 34.2338 4.08511C34.1786 4.01895 34.1484 3.93545 34.1486 3.84927C34.1488 3.7631 34.1794 3.67975 34.2349 3.61385L35.4933 2.12665L34.6713 2.60112C34.6012 2.6416 34.5198 2.65778 34.4396 2.64716C34.3594 2.63653 34.285 2.59969 34.2279 2.54237C34.1709 2.48505 34.1343 2.41047 34.1241 2.33024C34.1138 2.25001 34.1303 2.16864 34.1711 2.09879L34.4586 1.60525C34.3853 1.59112 34.3181 1.55497 34.2659 1.50162C34.2137 1.44828 34.179 1.38027 34.1665 1.3067C34.154 1.23313 34.1643 1.1575 34.1959 1.08989C34.2275 1.02229 34.279 0.965949 34.3435 0.928386L35.1956 0.439986C35.2653 0.400317 35.346 0.384576 35.4255 0.395171C35.5049 0.405767 35.5787 0.442116 35.6356 0.498652C35.6919 0.555668 35.728 0.629558 35.7383 0.709018C35.7486 0.788479 35.7326 0.869136 35.6928 0.938652L35.4948 1.27745L36.9556 0.439986C37.0303 0.397125 37.1178 0.381967 37.2026 0.397171C37.2875 0.412376 37.3642 0.456972 37.4194 0.523132C37.4747 0.589292 37.5048 0.672788 37.5046 0.758964C37.5044 0.845141 37.4739 0.928491 37.4183 0.994386L36.1592 2.47792L39.6924 0.439986C39.7709 0.395398 39.863 0.381327 39.9513 0.400469C40.0395 0.41961 40.1175 0.470618 40.1705 0.543726C40.2234 0.616834 40.2475 0.706903 40.2382 0.796686C40.2289 0.886469 40.1868 0.969657 40.1199 1.03032L38.72 2.27919L41.8689 0.461252C41.9463 0.41601 42.0376 0.40069 42.1255 0.418186C42.2135 0.435683 42.2919 0.484785 42.3461 0.55621C42.4003 0.627634 42.4264 0.716433 42.4196 0.805818C42.4127 0.895204 42.3734 0.978984 42.3089 1.04132L40.7176 2.58865L42.9389 1.30679C43.0174 1.26208 43.1097 1.24798 43.1981 1.26718C43.2864 1.28638 43.3645 1.33754 43.4175 1.41082C43.4704 1.48411 43.4944 1.57437 43.4848 1.66426C43.4752 1.75414 43.4328 1.83733 43.3657 1.89785L42.5223 2.64879L43.0628 2.33785C43.1419 2.2907 43.2359 2.27505 43.326 2.29401C43.4161 2.31297 43.4958 2.36516 43.5492 2.44019C43.6026 2.51522 43.6259 2.60761 43.6143 2.69898C43.6027 2.79034 43.5571 2.874 43.4867 2.93332L42.6067 3.70332L43.0584 3.44225C43.1353 3.39998 43.2249 3.38671 43.3107 3.40486C43.3966 3.423 43.4732 3.47135 43.5264 3.54112C43.5797 3.61089 43.6061 3.69746 43.601 3.78509C43.5959 3.87271 43.5595 3.95559 43.4984 4.01865L41.833 5.69432L43.0613 4.98665C43.138 4.94295 43.2279 4.92836 43.3144 4.94558C43.401 4.9628 43.4784 5.01066 43.5326 5.08037C43.5867 5.15009 43.6138 5.23699 43.609 5.32512C43.6042 5.41324 43.5678 5.49668 43.5065 5.56012L41.7795 7.32305L43.0613 6.58385C43.1326 6.5416 43.2162 6.52511 43.2981 6.53712C43.3801 6.54913 43.4555 6.58893 43.5116 6.64985C43.5684 6.71018 43.6031 6.78797 43.61 6.87053C43.6169 6.9531 43.5957 7.03557 43.5497 7.10452L42.68 8.41205L43.0613 8.19205C43.1451 8.14822 43.2426 8.13845 43.3334 8.1648C43.4243 8.19115 43.5014 8.25158 43.5487 8.33345C43.5961 8.41533 43.6099 8.51233 43.5874 8.60419C43.5649 8.69604 43.5078 8.77565 43.428 8.82639L41.6922 9.82665C41.636 9.85998 41.572 9.87771 41.5067 9.87799Z" fill="#ECECEC"/>
<path d="M4.74849 4.76666C4.66777 4.76665 4.58932 4.74002 4.52528 4.69088C4.46125 4.64175 4.41522 4.57286 4.39433 4.49489C4.37344 4.41693 4.37886 4.33425 4.40974 4.25968C4.44063 4.18511 4.49526 4.12282 4.56515 4.08246L9.33182 1.33246C9.41114 1.28713 9.50453 1.27305 9.5937 1.29298C9.68286 1.3129 9.76137 1.36539 9.81386 1.44018C9.86634 1.51496 9.88902 1.60664 9.87745 1.69727C9.86587 1.78789 9.82088 1.87094 9.75128 1.93013L9.49095 2.15013C9.54167 2.14583 9.59272 2.15259 9.64058 2.16994C9.68843 2.18728 9.73196 2.2148 9.76815 2.25059C9.82573 2.30526 9.86401 2.37714 9.87723 2.45543C9.89046 2.53371 9.87791 2.61418 9.84148 2.68473L9.43228 3.47233C9.50653 3.45975 9.58284 3.47007 9.65108 3.5019C9.71933 3.53373 9.77627 3.58556 9.81435 3.65053C9.86274 3.73467 9.87579 3.83458 9.85063 3.92833C9.82547 4.02208 9.76417 4.10204 9.68015 4.15066L8.72682 4.69332C8.65843 4.73366 8.57869 4.75041 8.49986 4.741C8.42102 4.7316 8.34746 4.69655 8.29048 4.64126C8.23291 4.58659 8.19463 4.51471 8.1814 4.43642C8.16818 4.35814 8.18072 4.27767 8.21715 4.20712L8.60655 3.45619L6.44395 4.70799C6.36463 4.75332 6.27124 4.7674 6.18207 4.74748C6.09291 4.72755 6.0144 4.67506 5.96191 4.60027C5.90943 4.52549 5.88675 4.43381 5.89832 4.34318C5.9099 4.25256 5.95489 4.16952 6.02449 4.11033L6.12202 4.02819L4.93182 4.71532C4.87638 4.74848 4.81308 4.7662 4.74849 4.76666Z" fill="#ECECEC"/>
<path d="M2.49791 9.87801C2.43043 9.87803 2.36425 9.85942 2.30666 9.82424C2.24908 9.78905 2.20232 9.73866 2.17153 9.67861C2.14075 9.61856 2.12713 9.55117 2.13219 9.48388C2.13724 9.41658 2.16077 9.35199 2.20018 9.29721L3.08385 8.06668L0.962315 9.29134C0.883057 9.33725 0.789486 9.35184 0.700016 9.33222C0.610547 9.31261 0.531657 9.26022 0.478872 9.18537C0.426087 9.11051 0.40323 9.01861 0.414799 8.92775C0.426367 8.83689 0.471523 8.75365 0.541381 8.69441L1.04885 8.26321L0.938848 8.32628C0.860536 8.3684 0.769586 8.38062 0.682931 8.36068C0.596275 8.34074 0.519819 8.28999 0.467796 8.21787C0.415773 8.14576 0.391729 8.0572 0.400139 7.96868C0.40855 7.88015 0.448842 7.7977 0.513514 7.73668L1.33998 7.01214L0.938848 7.24314C0.857232 7.28899 0.761169 7.30189 0.670349 7.27919C0.57953 7.25649 0.500831 7.19992 0.450384 7.12106C0.399938 7.0422 0.381563 6.94703 0.399028 6.85506C0.416492 6.76309 0.468472 6.68129 0.544314 6.62641L2.49352 5.24921L0.938848 6.14681C0.859122 6.19158 0.765544 6.20495 0.676472 6.18429C0.587399 6.16363 0.509259 6.11044 0.457379 6.03514C0.405499 5.95985 0.383624 5.86789 0.396044 5.7773C0.408465 5.68671 0.454284 5.60403 0.524514 5.54548L3.19458 3.37334L0.938848 4.67574C0.86011 4.7207 0.767507 4.73489 0.678921 4.71557C0.590334 4.69625 0.512047 4.6448 0.459175 4.57114C0.406303 4.49748 0.382596 4.40685 0.392631 4.31674C0.402667 4.22663 0.445733 4.14343 0.513514 4.08321L1.84965 2.90328L0.938848 3.42908C0.868361 3.47055 0.786032 3.48727 0.70495 3.47658C0.623868 3.46588 0.548689 3.42839 0.491368 3.37005C0.434046 3.31172 0.397871 3.2359 0.388596 3.15464C0.379322 3.07339 0.397479 2.99136 0.440181 2.92161L1.12658 1.78641C1.04133 1.82904 0.942827 1.8368 0.851954 1.80803C0.761081 1.77927 0.684979 1.71626 0.639778 1.63234C0.594577 1.54842 0.583831 1.4502 0.609816 1.3585C0.635802 1.26679 0.696477 1.18881 0.778981 1.14108L1.99631 0.440011C2.06671 0.399798 2.14845 0.384049 2.22874 0.395226C2.30904 0.406403 2.38337 0.443876 2.4401 0.501785C2.49684 0.559694 2.53278 0.634774 2.54231 0.715282C2.55185 0.795791 2.53443 0.877188 2.49278 0.946744L1.80711 2.08121L4.65392 0.440011C4.73257 0.395185 4.82502 0.381041 4.91348 0.400302C5.00194 0.419563 5.08015 0.470868 5.13304 0.544338C5.18594 0.617809 5.20978 0.70825 5.19998 0.798249C5.19019 0.888248 5.14744 0.971441 5.07998 1.03181L3.74018 2.21028L6.81285 0.440011C6.89257 0.39524 6.98615 0.381872 7.07523 0.402531C7.1643 0.423189 7.24244 0.476383 7.29432 0.551677C7.3462 0.626971 7.36807 0.718933 7.35565 0.809522C7.34323 0.900112 7.29741 0.982792 7.22718 1.04134L4.55638 3.21201L9.07225 0.605011C9.15387 0.55916 9.24993 0.546262 9.34075 0.568961C9.43157 0.59166 9.51027 0.648237 9.56071 0.727095C9.61116 0.805953 9.62953 0.90112 9.61207 0.99309C9.59461 1.08506 9.54263 1.16687 9.46678 1.22174L4.66858 4.61048L4.67592 4.62074C4.72897 4.69466 4.75264 4.78566 4.74234 4.87605C4.73204 4.96645 4.6885 5.04979 4.62018 5.10988L3.79371 5.83441L4.19485 5.60341C4.27397 5.55912 4.36671 5.54572 4.45513 5.5658C4.54356 5.58588 4.62141 5.63801 4.67365 5.71213C4.72589 5.78625 4.74881 5.8771 4.73799 5.96713C4.72717 6.05716 4.68337 6.13998 4.61505 6.19961L4.10685 6.63228L4.19485 6.58168C4.2674 6.54002 4.35202 6.52442 4.43465 6.53748C4.51729 6.55053 4.59297 6.59146 4.64915 6.65345C4.70532 6.71545 4.73861 6.79479 4.74347 6.87831C4.74834 6.96183 4.7245 7.04451 4.67592 7.11261L3.79152 8.34094L4.19485 8.10921C4.27865 8.06537 4.37614 8.05561 4.46697 8.08196C4.5578 8.10831 4.63493 8.16873 4.68226 8.25061C4.72958 8.33249 4.74345 8.42949 4.72095 8.52134C4.69845 8.6132 4.64133 8.69281 4.56151 8.74354L2.68125 9.82668C2.62586 9.85996 2.56253 9.87769 2.49791 9.87801Z" fill="#ECECEC"/>
<path d="M5.66366 43.6114C5.58849 43.6114 5.51511 43.5884 5.45348 43.5453C5.39184 43.5023 5.34492 43.4414 5.31907 43.3708C5.29322 43.3002 5.28969 43.2234 5.30896 43.1507C5.32822 43.078 5.36936 43.0131 5.42679 42.9646L6.05893 42.4314L4.10019 43.56C4.02208 43.6061 3.92967 43.6215 3.84082 43.6034C3.75197 43.5853 3.67298 43.5349 3.61911 43.462C3.56523 43.3891 3.54029 43.2988 3.54909 43.2085C3.5579 43.1183 3.59983 43.0345 3.66679 42.9733L5.15839 41.602L1.90679 43.4808C1.83034 43.5245 1.74075 43.5391 1.65437 43.5222C1.56799 43.5052 1.4906 43.4577 1.43633 43.3884C1.38206 43.3191 1.35453 43.2326 1.35878 43.1447C1.36302 43.0568 1.39876 42.9733 1.45946 42.9095L3.06766 41.2419L0.981324 42.4475C0.904205 42.4909 0.814005 42.5049 0.72736 42.487C0.640714 42.4691 0.563469 42.4205 0.509869 42.3501C0.456269 42.2797 0.429931 42.1923 0.435712 42.104C0.441493 42.0157 0.479003 41.9325 0.541324 41.8697L2.11506 40.3113L0.941724 40.9904C0.864961 41.0347 0.774761 41.0497 0.68781 41.0326C0.600858 41.0155 0.523038 40.9675 0.468745 40.8974C0.414452 40.8274 0.387359 40.7401 0.392478 40.6516C0.397597 40.5631 0.434582 40.4795 0.496591 40.4162L2.25659 38.6232L0.938791 39.38C0.859751 39.4278 0.765574 39.4441 0.67509 39.4254C0.584607 39.4068 0.504486 39.3547 0.450747 39.2796C0.397009 39.2044 0.373614 39.1118 0.385241 39.0201C0.396867 38.9285 0.442658 38.8446 0.513458 38.7853L1.20719 38.1861L0.936591 38.3423C0.85814 38.3841 0.767204 38.3959 0.68069 38.3756C0.594177 38.3553 0.517973 38.3043 0.466248 38.2321C0.414523 38.1598 0.390796 38.0712 0.39948 37.9828C0.408164 37.8944 0.448666 37.8121 0.513458 37.7513L1.38319 36.9769L0.943191 37.2321C0.866351 37.2764 0.776055 37.2913 0.689035 37.2742C0.602014 37.257 0.524169 37.2089 0.469924 37.1387C0.415679 37.0685 0.388712 36.981 0.39402 36.8925C0.399327 36.804 0.43655 36.7203 0.498791 36.6571L0.996724 36.1504L0.943191 36.1805C0.872236 36.2205 0.789968 36.2358 0.709373 36.2239C0.628778 36.2119 0.554447 36.1735 0.498113 36.1147C0.44178 36.0558 0.406652 35.9799 0.398276 35.8988C0.3899 35.8178 0.408753 35.7363 0.451858 35.6671L0.671858 35.3276C0.606902 35.3033 0.550172 35.2611 0.508253 35.2058C0.466334 35.1506 0.440944 35.0846 0.435032 35.0155C0.42912 34.9464 0.442928 34.877 0.474852 34.8154C0.506776 34.7539 0.555508 34.7026 0.615391 34.6676L1.46679 34.1763C1.53775 34.1362 1.62001 34.121 1.70061 34.1329C1.7812 34.1448 1.85554 34.1832 1.91187 34.2421C1.9682 34.3009 2.00333 34.3769 2.01171 34.4579C2.02008 34.539 2.00123 34.6205 1.95812 34.6896L1.89579 34.7857L2.95253 34.1733C3.02929 34.1291 3.11949 34.1141 3.20644 34.1312C3.29339 34.1483 3.37121 34.1963 3.4255 34.2663C3.4798 34.3364 3.50689 34.4237 3.50177 34.5121C3.49665 34.6006 3.45967 34.6842 3.39766 34.7475L2.89973 35.2543L4.11193 34.5547C4.19051 34.5093 4.28314 34.4947 4.37188 34.5136C4.46063 34.5326 4.53919 34.5838 4.59238 34.6573C4.64556 34.7308 4.66959 34.8215 4.65982 34.9117C4.65004 35.0019 4.60716 35.0853 4.53946 35.1457L3.66679 35.9194L4.19553 35.6143C4.27463 35.568 4.36821 35.553 4.45783 35.5723C4.54745 35.5915 4.62661 35.6436 4.67971 35.7184C4.73281 35.7931 4.75599 35.885 4.74469 35.9759C4.73339 36.0669 4.68842 36.1503 4.61866 36.2098L3.92566 36.8075L4.20066 36.6491C4.27735 36.6048 4.36745 36.5898 4.45434 36.6068C4.54122 36.6239 4.61902 36.6717 4.67336 36.7416C4.7277 36.8115 4.75492 36.8987 4.74999 36.9871C4.74505 37.0755 4.70831 37.1591 4.64653 37.2225L2.89239 39.0133L4.21239 38.2521C4.28951 38.2088 4.37971 38.1948 4.46636 38.2127C4.553 38.2306 4.63025 38.2792 4.68385 38.3496C4.73745 38.42 4.76379 38.5074 4.758 38.5957C4.75222 38.684 4.71471 38.7672 4.65239 38.83L3.08013 40.3905L4.95893 39.3067C5.03536 39.2636 5.12473 39.2493 5.2108 39.2664C5.29687 39.2836 5.37393 39.331 5.42798 39.4002C5.48203 39.4693 5.50949 39.5556 5.50537 39.6432C5.50125 39.7309 5.46582 39.8142 5.40553 39.8779L3.79806 41.5433L7.67593 39.3067C7.754 39.2626 7.84552 39.2486 7.93319 39.2674C8.02086 39.2863 8.0986 39.3365 8.1517 39.4088C8.2048 39.481 8.22959 39.5702 8.22138 39.6595C8.21316 39.7488 8.17252 39.832 8.10713 39.8933L6.61479 41.2639L9.26653 39.7335C9.34574 39.689 9.43863 39.6756 9.5272 39.6957C9.61577 39.7158 9.69371 39.7681 9.74594 39.8424C9.79816 39.9168 9.82094 40.0078 9.80986 40.098C9.79879 40.1881 9.75465 40.2709 9.68599 40.3304L9.05533 40.8628L9.32813 40.7059C9.40384 40.6623 9.49261 40.6472 9.57848 40.6633C9.66434 40.6793 9.74164 40.7255 9.79647 40.7935C9.85129 40.8615 9.88004 40.9469 9.87753 41.0342C9.87503 41.1215 9.84143 41.2051 9.78279 41.2698L9.34279 41.7494C9.42798 41.7063 9.52662 41.6982 9.61774 41.7266C9.70886 41.7551 9.78527 41.818 9.83073 41.902C9.87619 41.9859 9.88712 42.0843 9.86119 42.1762C9.83525 42.2681 9.77451 42.3462 9.69186 42.394L7.67153 43.56C7.59582 43.6036 7.50704 43.6187 7.42118 43.6026C7.33532 43.5866 7.25801 43.5404 7.20319 43.4724C7.14836 43.4044 7.11961 43.319 7.12212 43.2317C7.12463 43.1444 7.15822 43.0608 7.21686 42.9961L7.65246 42.5179L5.84699 43.56C5.79157 43.5932 5.72826 43.6109 5.66366 43.6114Z" fill="#ECECEC"/>
<path d="M37.0903 43.6113C37.0149 43.6113 36.9413 43.5881 36.8796 43.5447C36.8178 43.5013 36.771 43.44 36.7454 43.369C36.7198 43.298 36.7168 43.2209 36.7366 43.1481C36.7565 43.0754 36.7983 43.0105 36.8564 42.9623L39.6907 40.6076L34.9065 43.3715C34.8262 43.4195 34.7307 43.435 34.6394 43.4148C34.5481 43.3947 34.468 43.3405 34.4154 43.2632C34.3628 43.186 34.3416 43.0915 34.3563 42.9992C34.371 42.9069 34.4204 42.8237 34.4943 42.7665L34.982 42.3786L34.674 42.5561C34.5961 42.5974 34.5058 42.6092 34.4198 42.5894C34.3338 42.5696 34.2579 42.5194 34.2059 42.4481C34.154 42.3768 34.1295 42.2891 34.1369 42.2012C34.1444 42.1133 34.1833 42.031 34.2465 41.9694L34.5787 41.6724C34.5101 41.6893 34.4381 41.6859 34.3714 41.6629C34.3046 41.6398 34.246 41.5979 34.2024 41.5423C34.1589 41.4867 34.1324 41.4197 34.126 41.3494C34.1196 41.2791 34.1337 41.2084 34.1665 41.1459L34.5149 40.4859C34.4356 40.4825 34.3596 40.4536 34.2982 40.4034C34.2368 40.3532 34.1933 40.2844 34.1743 40.2074C34.1553 40.1304 34.1618 40.0493 34.1928 39.9762C34.2238 39.9032 34.2776 39.8422 34.3462 39.8024L35.1998 39.3067C35.2689 39.2663 35.3492 39.2495 35.4287 39.2591C35.5081 39.2686 35.5823 39.3039 35.6398 39.3595C35.6971 39.4147 35.7349 39.487 35.7475 39.5656C35.76 39.6442 35.7467 39.7247 35.7095 39.7951L35.4103 40.3627L37.2531 39.2935C37.3317 39.2481 37.4244 39.2335 37.5131 39.2524C37.6018 39.2714 37.6804 39.3226 37.7336 39.3961C37.7868 39.4696 37.8108 39.5603 37.801 39.6505C37.7913 39.7407 37.7484 39.8241 37.6807 39.8845L37.3998 40.1346L38.8709 39.2854C38.9511 39.2385 39.0461 39.2238 39.1367 39.2443C39.2274 39.2648 39.3068 39.319 39.3591 39.3958C39.4113 39.4726 39.4325 39.5664 39.4182 39.6582C39.4039 39.7501 39.3554 39.833 39.2823 39.8904L38.7939 40.2791L43.0611 37.8151C43.1407 37.7691 43.2347 37.7548 43.3243 37.7748C43.414 37.7949 43.4929 37.8478 43.5454 37.9233C43.5979 37.9987 43.6201 38.0911 43.6077 38.1822C43.5953 38.2732 43.5491 38.3563 43.4784 38.4149L40.6433 40.7733L43.0633 39.38C43.1404 39.3372 43.2302 39.3236 43.3165 39.3416C43.4027 39.3596 43.4796 39.4081 43.533 39.4782C43.5865 39.5483 43.6129 39.6352 43.6074 39.7232C43.602 39.8112 43.565 39.8942 43.5033 39.9571L41.9245 41.5309L43.0619 40.8709C43.1368 40.8276 43.2246 40.8122 43.3097 40.8274C43.3949 40.8427 43.4719 40.8875 43.5272 40.954C43.5825 41.0206 43.6125 41.1045 43.6119 41.191C43.6113 41.2775 43.5801 41.361 43.5239 41.4267L43.1051 41.9151C43.1898 41.9015 43.2766 41.9179 43.3504 41.9617C43.4243 42.0054 43.4804 42.0736 43.5091 42.1545C43.5378 42.2353 43.5372 42.3237 43.5075 42.4042C43.4778 42.4847 43.4208 42.5522 43.3464 42.5949L41.6671 43.56C41.5922 43.6028 41.5047 43.6179 41.4198 43.6026C41.335 43.5873 41.2582 43.5426 41.2031 43.4763C41.1479 43.4101 41.1179 43.3265 41.1183 43.2402C41.1186 43.154 41.1494 43.0707 41.2051 43.0049L41.5754 42.5715L39.8623 43.56C39.7853 43.6028 39.6954 43.6165 39.6092 43.5984C39.5229 43.5804 39.4461 43.5319 39.3926 43.4618C39.3392 43.3917 39.3128 43.3048 39.3183 43.2168C39.3237 43.1289 39.3607 43.0458 39.4223 42.9829L41.0012 41.4099L37.2737 43.56C37.2182 43.5932 37.1549 43.6109 37.0903 43.6113Z" fill="#ECECEC"/>
<path d="M39.6222 39.7547C39.5466 39.7548 39.4729 39.7315 39.4111 39.688C39.3493 39.6445 39.3024 39.583 39.2769 39.5119C39.2514 39.4408 39.2485 39.3636 39.2685 39.2907C39.2886 39.2179 39.3307 39.153 39.389 39.105L39.6918 38.8557C39.6153 38.8705 39.5361 38.8606 39.4656 38.8273C39.3951 38.794 39.337 38.7392 39.2998 38.6707C39.2626 38.6022 39.2482 38.5236 39.2587 38.4464C39.2692 38.3691 39.3041 38.2972 39.3582 38.2411L41.083 36.4467L39.8055 37.1837C39.7275 37.2266 39.6365 37.2397 39.5495 37.2204C39.4626 37.2012 39.3856 37.1509 39.333 37.0791C39.2803 37.0072 39.2556 36.9187 39.2635 36.83C39.2714 36.7413 39.3113 36.6585 39.3758 36.597L39.6273 36.3689C39.53 36.3594 39.4377 36.3214 39.3618 36.2597C39.3059 36.2024 39.2702 36.1284 39.2603 36.0489C39.2504 35.9695 39.2667 35.889 39.3068 35.8197L39.5855 35.3445C39.5132 35.329 39.4472 35.292 39.3962 35.2383C39.3453 35.1846 39.3118 35.1168 39.3002 35.0437C39.2885 34.9706 39.2992 34.8958 39.3309 34.8289C39.3626 34.762 39.4138 34.7063 39.4777 34.6691L40.3291 34.1777C40.3993 34.1371 40.481 34.1209 40.5614 34.1316C40.6419 34.1424 40.7164 34.1795 40.7735 34.2371C40.8295 34.2944 40.8651 34.3684 40.8751 34.4479C40.885 34.5273 40.8686 34.6079 40.8285 34.6771L40.6452 34.9881L42.0568 34.1733C42.1349 34.1304 42.2259 34.1173 42.3128 34.1366C42.3998 34.1558 42.4768 34.2061 42.5294 34.2779C42.582 34.3498 42.6067 34.4383 42.5988 34.527C42.5909 34.6157 42.551 34.6986 42.4866 34.76L42.3978 34.8407L42.9566 34.518C43.0332 34.4738 43.1231 34.4588 43.2099 34.4756C43.2966 34.4924 43.3744 34.5401 43.4288 34.6097C43.4833 34.6793 43.5107 34.7662 43.5062 34.8545C43.5016 34.9427 43.4653 35.0264 43.404 35.09L41.6799 36.8867L43.0615 36.0888C43.1411 36.0437 43.2347 36.0299 43.3238 36.0502C43.413 36.0705 43.4914 36.1235 43.5436 36.1986C43.5958 36.2737 43.618 36.3657 43.6058 36.4564C43.5937 36.547 43.5481 36.6299 43.478 36.6887L43.1744 36.9387C43.2493 36.9248 43.3267 36.9343 43.396 36.9659C43.4653 36.9976 43.5231 37.0498 43.5616 37.1155C43.6103 37.1996 43.6236 37.2996 43.5986 37.3935C43.5736 37.4875 43.5123 37.5676 43.4282 37.6163L39.8055 39.7078C39.7496 39.7392 39.6863 39.7554 39.6222 39.7547Z" fill="#ECECEC"/>
<path d="M24.4463 22.3278C24.3749 22.3277 24.305 22.3067 24.2453 22.2674C24.1856 22.2281 24.1387 22.1722 24.1103 22.1066C24.0819 22.041 24.0734 21.9686 24.0856 21.8982C24.0979 21.8277 24.1305 21.7625 24.1794 21.7103L24.4075 21.4669L23.3925 22.0535C23.3175 22.0963 23.2297 22.1112 23.1448 22.0956C23.0599 22.08 22.9831 22.0349 22.9282 21.9683C22.8732 21.9017 22.8435 21.8178 22.8444 21.7314C22.8452 21.645 22.8765 21.5617 22.9327 21.4962L24.2615 19.9687L22.4121 21.0371C22.333 21.0841 22.2392 21.0996 22.1493 21.0807C22.0593 21.0618 21.9798 21.0098 21.9264 20.9349C21.873 20.8601 21.8496 20.768 21.8609 20.6768C21.8722 20.5855 21.9174 20.5019 21.9875 20.4424L22.2559 20.2114L22.2133 20.2349C22.1386 20.2778 22.0512 20.293 21.9664 20.2779C21.8816 20.2628 21.8049 20.2183 21.7496 20.1522C21.6943 20.0862 21.664 20.0028 21.6641 19.9167C21.6641 19.8305 21.6945 19.7472 21.7499 19.6812L22.4311 18.8745C22.3524 18.8701 22.2773 18.8404 22.2168 18.79C22.1563 18.7395 22.1137 18.6708 22.0952 18.5942C22.0768 18.5176 22.0835 18.4371 22.1145 18.3646C22.1454 18.2921 22.1988 18.2315 22.2669 18.1918L23.7702 17.3235C23.8449 17.2806 23.9323 17.2654 24.0171 17.2805C24.1019 17.2956 24.1787 17.3401 24.2339 17.4062C24.2892 17.4722 24.3195 17.5556 24.3194 17.6417C24.3194 17.7279 24.289 17.8112 24.2337 17.8772L23.6653 18.5511L25.2053 17.6631C25.2843 17.6169 25.3777 17.602 25.4672 17.6212C25.5567 17.6404 25.6357 17.6924 25.6888 17.7669C25.7419 17.8414 25.7653 17.9331 25.7542 18.0239C25.7432 18.1147 25.6986 18.1982 25.6292 18.2578L25.3637 18.4873L25.7986 18.2365C25.8737 18.1933 25.9617 18.1782 26.047 18.1937C26.1322 18.2092 26.2092 18.2544 26.2643 18.3213C26.3194 18.3881 26.3491 18.4724 26.348 18.559C26.3469 18.6457 26.3152 18.7291 26.2584 18.7946L24.9259 20.3207L26.1873 19.5932C26.2633 19.5501 26.3523 19.5356 26.4381 19.5523C26.5239 19.5691 26.6009 19.6159 26.6552 19.6844C26.7095 19.7529 26.7376 19.8385 26.7344 19.9259C26.7311 20.0132 26.6968 20.0965 26.6375 20.1608L26.0831 20.7519C26.1477 20.7769 26.2039 20.8197 26.2451 20.8753C26.2864 20.9309 26.311 20.9971 26.3163 21.0661C26.3215 21.1352 26.307 21.2043 26.2746 21.2655C26.2422 21.3267 26.1931 21.3774 26.133 21.4119L24.6297 22.2801C24.5739 22.3122 24.5106 22.3286 24.4463 22.3278Z" fill="#F9F5E6"/>
<path d="M0.513142 21.7162C0.486572 21.7546 0.464432 21.796 0.447142 21.8394C0.416966 21.8712 0.393614 21.9088 0.378524 21.9499C0.363434 21.9911 0.356925 22.0349 0.359398 22.0787C0.361871 22.1224 0.373274 22.1652 0.392904 22.2044C0.412534 22.2436 0.439977 22.2783 0.473542 22.3065C13.4073 39.9447 30.7059 39.8493 43.5349 22.1907C43.5836 22.1517 43.6213 22.1006 43.6444 22.0426C43.6674 21.9846 43.6749 21.9216 43.6661 21.8598C43.6574 21.798 43.6327 21.7396 43.5946 21.6902C43.5564 21.6408 43.506 21.6023 43.4483 21.5783C30.5739 4.07659 13.2731 4.24085 0.513142 21.7162ZM29.5803 33.0176C18.7269 37.9309 7.68148 30.5749 1.20908 22.0227C5.42283 18.2663 10.4988 15.6083 15.9865 14.2846C9.28968 19.9313 12.0829 31.8846 21.9265 31.8846C31.5214 31.8897 34.828 20.1615 28.3109 14.4078C33.6669 15.7904 38.6141 18.4349 42.7392 22.1203C39.3154 26.7792 34.7957 30.5221 29.5803 33.0176ZM26.3536 13.9883C33.8578 18.6758 31.7605 31.2019 22.0717 31.1791C12.6703 31.1579 9.83014 18.7858 17.5125 13.9744C20.437 13.4505 23.4316 13.4553 26.3543 13.9883H26.3536ZM26.5157 9.88532C31.7957 11.352 36.6635 14.9725 40.4373 19.1605C29.0523 10.6905 14.5675 10.8981 3.30714 19.4744C9.11294 13.0651 17.5081 7.38979 26.5164 9.88532H26.5157Z" fill="black"/>
<path d="M18.7 25.5244C22.3102 28.8398 27.7934 25.0235 26.5958 20.5172C26.6634 20.3107 26.7089 20.0975 26.7315 19.8814C26.7666 19.7682 26.7666 19.647 26.7315 19.5338C26.71 19.1385 26.5937 18.7542 26.3924 18.4133C26.1911 18.0724 25.9107 17.7849 25.575 17.5752C25.2392 17.3654 24.858 17.2395 24.4633 17.2081C24.0687 17.1767 23.6723 17.2407 23.3076 17.3947C18.7682 16.401 14.9461 22.0836 18.7 25.5244ZM26.048 19.8814C26.0365 20.1238 25.978 20.3617 25.8757 20.5817C25.16 22.1357 22.3594 21.7162 22.3557 19.7186C22.3418 17.358 25.9278 17.6484 26.048 19.8814ZM21.648 19.8814C21.6472 20.3788 21.7947 20.8652 22.0717 21.2783C22.3487 21.6915 22.7427 22.0126 23.2031 22.2007C23.6636 22.3888 24.1698 22.4353 24.6568 22.3342C25.1438 22.2331 25.5897 21.9891 25.9373 21.6333C26.246 25.2391 21.7881 27.6342 19.0902 24.6884C18.5474 24.0956 18.1967 23.3525 18.0841 22.5568C17.9716 21.761 18.1024 20.9498 18.4594 20.2297C18.8164 19.5096 19.3829 18.9144 20.0845 18.5223C20.786 18.1302 21.5898 17.9595 22.3902 18.0327C21.9191 18.5336 21.6541 19.1938 21.648 19.8814Z" fill="black"/>
<path d="M43.6017 2.15968C43.3084 -0.497188 39.6931 0.299945 37.8201 0.299945C36.9973 0.299945 35.5614 0.0146787 34.7841 0.414345C33.8726 0.882946 34.1241 2.26748 34.1314 3.09395C33.9114 5.85201 37.5649 4.61121 39.2648 4.83708C39.3154 6.24288 39.1636 7.69708 39.3234 9.07941C39.6996 10.1794 40.7285 9.96675 41.761 9.96675C42.7518 9.96675 43.455 9.83548 43.6017 8.72521C43.6934 6.56408 43.6333 4.32668 43.6017 2.15968ZM42.9314 8.75968C42.5831 9.33975 40.1836 9.36835 39.935 8.66068C39.7759 2.48015 41.1736 4.23428 35.2329 3.96735C34.5729 3.65788 34.8017 2.77055 34.8017 2.18975C34.8017 1.04355 35.3524 1.16748 36.3014 1.16748H40.1396C43.6369 0.671012 43.0187 3.17315 42.9314 5.72001C42.9314 6.39688 43.2768 8.18768 42.9314 8.76188V8.75968Z" fill="black"/>
<path d="M8.81443 0.293319C6.6731 0.138585 4.39976 0.293319 2.24889 0.293319C-0.380107 0.599852 0.40456 4.31125 0.40456 6.14899C0.301893 8.48685 -0.154974 10.3928 3.00643 9.97332C5.71976 10.12 4.53103 6.54205 4.73636 4.83999C6.10696 4.83265 7.4871 4.85392 8.8533 4.83192C10.4131 4.40732 10.4454 0.622585 8.81443 0.293319ZM8.7653 3.95999H4.43863C4.33705 3.96941 4.2428 4.01691 4.17479 4.09294C4.10678 4.16898 4.07004 4.26792 4.07196 4.36992V7.41839C4.07196 8.86012 3.93776 9.09332 2.44176 9.09332C1.10489 9.09332 1.06236 8.79999 1.06236 7.59732V3.73999C1.06236 2.64585 0.758027 1.53999 2.30903 1.17332C3.30162 1.06808 4.30257 1.06808 5.29516 1.17332C6.38325 1.05671 7.48068 1.05671 8.56876 1.17332C9.27716 1.34419 9.20823 1.59352 9.20823 2.21392C9.20456 2.72579 9.4253 3.76199 8.7653 3.95999Z" fill="black"/>
<path d="M1.06397 43.3077C1.94397 43.9127 3.52724 43.6311 4.51944 43.6311C5.88105 43.7107 7.24615 43.7107 8.60777 43.6311C9.7921 43.4889 9.94317 42.7284 9.94317 41.6937C9.94317 40.5981 10.1866 39.4753 8.84977 39.2355C7.48763 39.1661 6.12263 39.1744 4.76144 39.2605C4.4681 37.9595 4.89857 36.2538 4.77244 34.9756C4.3845 33.8023 2.79244 34.0039 1.74744 34.1022C1.55164 34.0955 1.35666 34.1305 1.17541 34.2048C0.994164 34.2792 0.830794 34.3913 0.696131 34.5335C0.561469 34.6758 0.458589 34.8451 0.394313 35.0302C0.330037 35.2153 0.305832 35.4119 0.323303 35.607C0.213303 37.1719 0.323303 38.7838 0.323303 40.3524C0.323303 41.3534 0.105503 42.6499 1.06397 43.3077ZM1.14317 35.332C1.34044 34.7453 1.5135 34.8311 2.1053 34.8311C2.65677 34.8311 3.7773 34.6067 3.98997 35.3445V39.6653C3.98749 39.7031 3.99269 39.7411 4.00528 39.7769C4.01786 39.8126 4.03756 39.8455 4.06319 39.8735C4.08882 39.9014 4.11985 39.9239 4.1544 39.9395C4.18895 39.9552 4.22632 39.9637 4.26424 39.9645C5.7023 40.0275 7.21224 39.8618 8.62904 39.9645C9.30224 40.2651 9.1233 41.0777 9.1233 41.6614C9.1233 42.9469 8.87104 42.9022 7.70577 42.9022H3.84844C0.60857 43.3664 1.0075 41.0571 1.14317 38.6056C1.14317 37.686 0.849103 36.2039 1.14317 35.332Z" fill="black"/>
<path d="M38.5528 43.6641C43.868 44.1606 43.9414 42.7027 43.6458 37.9023C43.743 36.943 43.7408 35.9762 43.6392 35.0174C43.3547 33.7751 41.9335 34.0281 40.9259 34.0692C38.514 34.166 39.0926 37.2585 39.2033 39.2025H35.39C33.6124 39.3595 33.3484 43.351 35.101 43.6641C36.2494 43.7667 37.4045 43.7667 38.5528 43.6641ZM34.8458 41.6717C34.8458 41.2735 34.6464 40.1647 35.1612 39.9975H39.482C39.6094 39.9904 39.7301 39.9375 39.8215 39.8483C39.9129 39.7592 39.9689 39.64 39.9792 39.5127V36.465C39.9792 35.0526 40.0085 34.8641 41.4781 34.8641C42.8362 34.8641 42.8876 35.3357 42.8876 36.5163V40.3744C42.8876 41.4011 43.1853 42.5011 41.7744 42.8677C40.7824 42.9799 39.7809 42.9799 38.789 42.8677C37.5768 42.7849 34.6053 43.7067 34.8458 41.6717Z" fill="black"/>
</g>
<defs>
<clipPath id="clip0_160_2020">
<rect width="44" height="44" fill="white"/>
</clipPath>
</defs>
</svg>
