<svg width="44" height="44" viewBox="0 0 44 44" fill="none" xmlns="http://www.w3.org/2000/svg">
<g clip-path="url(#clip0_157_1530)">
<path d="M16.0321 19.4545C15.8688 19.4545 15.726 19.3449 15.6837 19.1872C15.6415 19.0295 15.7104 18.8631 15.8517 18.7815L22.1726 15.1324C22.3299 15.0417 22.5301 15.0821 22.64 15.2267C22.7498 15.3713 22.735 15.575 22.6054 15.7022L20.9182 17.3497L22.1733 16.6284C22.326 16.5407 22.5198 16.5761 22.6315 16.7122C22.7433 16.8483 22.7405 17.0452 22.6248 17.178L22.1733 17.6938C22.3028 17.619 22.465 17.6319 22.581 17.7262C22.697 17.8205 22.7429 17.9766 22.6962 18.1186L22.544 18.5824C22.652 18.6491 22.7169 18.7675 22.7152 18.8943C22.7134 19.0211 22.6451 19.1377 22.5354 19.2013L22.1747 19.4091C22.0453 19.4838 21.8831 19.4709 21.767 19.3766C21.651 19.2823 21.6052 19.1262 21.6518 18.9842L21.7153 18.7909L20.6427 19.4098C20.4894 19.4945 20.2973 19.4568 20.1874 19.3204C20.0775 19.184 20.0815 18.9883 20.1969 18.8565L20.6492 18.3401L18.8019 19.4033C18.6446 19.494 18.4443 19.4536 18.3345 19.309C18.2247 19.1644 18.2395 18.9606 18.3691 18.8334L20.0526 17.1874L16.2124 19.4033C16.1578 19.4359 16.0956 19.4536 16.0321 19.4545Z" fill="#F2CF7E"/>
<path d="M13.7771 22.7213C13.6405 22.7213 13.5156 22.6442 13.4545 22.522C13.3934 22.3998 13.4066 22.2536 13.4886 22.1443L13.7771 21.7555L13.2599 22.0541C13.0949 22.1486 12.8849 22.0989 12.7799 21.9403C12.6749 21.7818 12.711 21.569 12.8625 21.454L17.4183 18.0213L12.152 21.0623C11.9857 21.1563 11.7749 21.1043 11.6714 20.9438C11.5679 20.7832 11.6075 20.5698 11.7617 20.4571L16.1105 17.3468L11.176 20.1967C11.0086 20.2899 10.7976 20.2358 10.6955 20.0737C10.5935 19.9116 10.636 19.698 10.7923 19.5872L14.4111 17.1081L10.265 19.5014C10.0982 19.5976 9.88514 19.5457 9.78121 19.3836C9.67728 19.2214 9.71911 19.0062 9.87622 18.8948L15.7701 14.7227L7.6618 19.4033C7.49407 19.4976 7.28184 19.4437 7.17954 19.2807C7.07724 19.1177 7.12092 18.9031 7.27878 18.7931L13.9221 14.2849L5.05498 19.4033C4.88557 19.498 4.6716 19.4417 4.5708 19.2758C4.47001 19.1099 4.51854 18.8941 4.68062 18.7873L8.47399 16.3659L3.21275 19.4033C3.04475 19.4938 2.83535 19.4377 2.735 19.2755C2.63464 19.1132 2.67806 18.9008 2.83406 18.7909L12.2407 12.571L1.53281 18.7541C1.36315 18.8447 1.15224 18.7863 1.05345 18.6212C0.95466 18.4562 1.00276 18.2427 1.16278 18.136L2.0096 17.6116L1.11085 18.1302C0.941552 18.2286 0.724629 18.174 0.622176 18.0071C0.519724 17.8402 0.569185 17.622 0.7336 17.5156L11.2417 10.6466L0.923305 16.6025C0.753427 16.6976 0.538666 16.6408 0.438136 16.474C0.337607 16.3072 0.387614 16.0908 0.551109 15.985L6.53799 12.2097L0.923305 15.4484C0.754081 15.5388 0.54367 15.4809 0.444527 15.3166C0.345384 15.1523 0.392224 14.9392 0.551109 14.8316L5.97321 11.4112L0.924027 14.3267C0.754803 14.4172 0.544392 14.3593 0.445249 14.195C0.346106 14.0307 0.392945 13.8176 0.55183 13.71L5.04921 10.8731L0.921141 13.2534C0.752929 13.3463 0.541447 13.2909 0.440252 13.1276C0.339057 12.9643 0.383685 12.7503 0.541732 12.641L8.82672 7.141L0.922584 11.7019C0.75276 11.7989 0.536527 11.7429 0.435174 11.5756C0.33382 11.4083 0.384293 11.1907 0.548945 11.0851L2.72586 9.69805L0.922584 10.7396C0.754542 10.8354 0.540872 10.7816 0.438275 10.6176C0.335678 10.4536 0.380685 10.2379 0.540289 10.1287L6.00206 6.42763L0.922584 9.36048C0.755341 9.45646 0.542185 9.40391 0.438723 9.24119C0.335262 9.07846 0.378098 8.86315 0.535961 8.75241L4.98934 5.65077L0.922584 7.99576C0.755635 8.09048 0.54375 8.03784 0.440537 7.876C0.337325 7.71417 0.378951 7.49985 0.53524 7.38841L3.18894 5.52887L0.922584 6.83733C0.754619 6.93481 0.539626 6.88179 0.436245 6.71739C0.332865 6.55299 0.378221 6.33625 0.538846 6.2271L0.802125 6.04749C0.661871 6.06984 0.521335 6.00913 0.441469 5.89169C0.336368 5.73346 0.372017 5.52083 0.522977 5.40553L2.1214 4.18362L0.922584 4.87536C0.760061 4.96663 0.554766 4.91902 0.449008 4.76553C0.34325 4.61204 0.371876 4.40325 0.515043 4.28389L1.2717 3.66644L0.922584 3.86769C0.773398 3.95264 0.585007 3.92066 0.472217 3.79123C0.359426 3.6618 0.353504 3.47081 0.458059 3.33464L1.2414 2.3248C1.10282 2.33261 0.971075 2.26396 0.898059 2.14592C0.798472 1.97342 0.857569 1.75286 1.03006 1.65326L2.42435 0.848279C2.57358 0.762484 2.76264 0.794105 2.87583 0.923789C2.98902 1.05347 2.99478 1.24507 2.8896 1.38133L2.16396 2.31759L4.80468 0.793459C4.96731 0.700574 5.17398 0.747626 5.28037 0.901759C5.38676 1.05589 5.35746 1.26581 5.21294 1.38493L4.45485 2.00238L6.55026 0.793459C6.71452 0.701014 6.92227 0.750653 7.027 0.907371C7.13173 1.06409 7.09812 1.27502 6.94986 1.39143L5.3536 2.61766L8.5115 0.793459C8.67893 0.700349 8.88993 0.754381 8.992 0.916499C9.09406 1.07862 9.05157 1.29224 8.89524 1.40297H8.88947L9.95413 0.793459C10.1206 0.702014 10.3295 0.75538 10.4317 0.915477C10.5339 1.07557 10.4945 1.28752 10.3415 1.40008L7.68127 3.26107L11.9601 0.793459C12.1269 0.701121 12.3367 0.754499 12.439 0.915301C12.5414 1.0761 12.501 1.2888 12.3467 1.4008L7.89334 4.50244L14.3231 0.793459C14.4908 0.699135 14.7031 0.753101 14.8054 0.916084C14.9077 1.07907 14.864 1.29365 14.7061 1.40369L9.24291 5.1033L16.7128 0.793459C16.8819 0.7018 17.0933 0.759023 17.193 0.923505C17.2928 1.08799 17.2459 1.30182 17.0865 1.40946L14.9103 2.79366L18.379 0.793459C18.5469 0.701788 18.7572 0.757161 18.8582 0.919641C18.9592 1.08212 18.9157 1.29517 18.7592 1.40513L10.4771 6.90802L20.8005 0.94782C20.971 0.844841 21.1927 0.89958 21.2957 1.07008C21.3986 1.24058 21.3439 1.46228 21.1734 1.56526L16.6796 4.40002L21.6185 1.54867C21.7877 1.45823 21.9981 1.51612 22.0972 1.6804C22.1964 1.84468 22.1495 2.05782 21.9907 2.16539L16.5743 5.57936L22.0563 2.41569C22.2258 2.32249 22.4386 2.37958 22.5387 2.5451C22.6388 2.71061 22.5905 2.92561 22.4292 3.03241L16.4423 6.81064L22.1587 3.5092C22.328 3.41075 22.5449 3.46539 22.6474 3.63229C22.7498 3.7992 22.7004 4.01736 22.536 4.12376L12.0257 10.9943L22.1587 5.14441C22.3281 5.05619 22.5369 5.11535 22.6349 5.27932C22.7329 5.44329 22.686 5.65521 22.528 5.76258L21.6625 6.29851L22.1587 6.00999C22.3273 5.91572 22.5401 5.97093 22.6416 6.13523C22.7431 6.29953 22.6972 6.5146 22.5374 6.6231L13.1344 12.8451L22.1587 7.6351C22.3278 7.54344 22.5392 7.60067 22.6389 7.76515C22.7387 7.92963 22.6918 8.14346 22.5324 8.2511L18.7462 10.6675L22.1587 8.69832C22.3264 8.60399 22.5387 8.65796 22.641 8.82094C22.7433 8.98392 22.6996 9.19851 22.5417 9.30855L15.8898 13.8225L22.1652 10.2023C22.3316 10.1096 22.5414 10.1623 22.6442 10.3226C22.7471 10.4829 22.7076 10.6955 22.554 10.8082L16.6623 14.9795L22.1681 11.8C22.3357 11.7041 22.5491 11.7573 22.6521 11.9207C22.7551 12.084 22.7112 12.2995 22.5526 12.4095L18.9366 14.8865L22.1703 13.0197C22.3366 12.9257 22.5473 12.9777 22.6508 13.1382C22.7543 13.2988 22.7147 13.5122 22.5605 13.6249L18.2081 16.7381L22.1753 14.4486C22.3403 14.3541 22.5503 14.4039 22.6553 14.5624C22.7603 14.7209 22.7242 14.9337 22.5727 15.0487L15.4527 20.4131C15.5096 20.5339 15.4952 20.6763 15.4152 20.7832L15.0812 21.2282C15.2512 21.207 15.4127 21.3082 15.4676 21.4705C15.5225 21.6328 15.4557 21.8113 15.3077 21.8976L13.9603 22.6766C13.9043 22.7075 13.841 22.7229 13.7771 22.7213Z" fill="#ECECEC"/>
<path d="M26.5897 43.2578C26.4303 43.2577 26.2899 43.153 26.2443 43.0003C26.1988 42.8476 26.2588 42.6831 26.392 42.5956L28.1506 41.4415L25.0857 43.2066C24.9193 43.2992 24.7096 43.2466 24.6067 43.0863C24.5038 42.926 24.5434 42.7133 24.6969 42.6007L30.7105 38.3384L22.2784 43.2066C22.1103 43.3008 21.8977 43.2462 21.7959 43.0826C21.694 42.919 21.7388 42.7042 21.8975 42.5949L26.3927 39.5928L20.1318 43.2066C19.9636 43.3008 19.7511 43.2462 19.6492 43.0826C19.5474 42.919 19.5921 42.7042 19.7509 42.5949L24.5722 39.3728L18.41 42.9325C18.2423 43.0283 18.029 42.9751 17.926 42.8118C17.8229 42.6485 17.8668 42.433 18.0255 42.323L23.6207 38.4798L18.2347 41.5887C18.0673 41.6818 17.8563 41.6277 17.7542 41.4656C17.6521 41.3035 17.6946 41.0899 17.851 40.9792L21.3551 38.5801L18.3523 40.3112C18.1875 40.405 17.9783 40.3552 17.8735 40.1973C17.7686 40.0395 17.8038 39.8273 17.9541 39.7118L21.8759 36.7328L18.8673 38.469C18.7062 38.5631 18.5 38.5188 18.3917 38.3669C18.2835 38.215 18.3089 38.0056 18.4504 37.884L20.4325 36.1651C20.302 36.1628 20.1814 36.0951 20.1116 35.9848C20.0119 35.8125 20.0706 35.592 20.2428 35.4921L23.1591 33.8079C23.3203 33.7121 23.5279 33.7558 23.6368 33.9084C23.7457 34.061 23.7196 34.2715 23.5767 34.3929L21.7662 35.9624L26.4627 33.2525C26.6276 33.1566 26.8386 33.2056 26.9443 33.3644C27.05 33.5232 27.0137 33.7368 26.8616 33.8519L22.9413 36.8302L29.1409 33.2525C29.3086 33.1566 29.5219 33.2099 29.625 33.3732C29.728 33.5365 29.6841 33.752 29.5254 33.862L26.0177 36.2625L31.2327 33.2525C31.3999 33.1604 31.6098 33.2145 31.7117 33.3758C31.8136 33.5371 31.7722 33.7499 31.6172 33.8613L26.0263 37.703L33.735 33.2525C33.9031 33.1582 34.1156 33.2128 34.2175 33.3764C34.3194 33.5401 34.2746 33.7549 34.1158 33.8641L29.2902 37.0891L35.5996 33.4465C35.7683 33.3462 35.9863 33.3994 36.09 33.5661C36.1937 33.7328 36.145 33.9518 35.9804 34.0589L31.4881 37.0588L37.066 33.8389C37.2328 33.7427 37.4459 33.7946 37.5498 33.9567C37.6537 34.1189 37.6119 34.3341 37.4548 34.4455L31.4426 38.7063L38.606 34.5703C38.7745 34.476 38.9874 34.5313 39.0889 34.6956C39.1904 34.8599 39.1444 35.0749 38.9847 35.1834L37.2196 36.3426L39.3713 35.1005C39.5393 35.0047 39.753 35.0585 39.8556 35.2225C39.9582 35.3865 39.9132 35.6022 39.7536 35.7114L36.9542 37.6106L40.1489 35.7662C40.3136 35.6725 40.5228 35.7222 40.6277 35.8801C40.7326 36.038 40.6973 36.2502 40.547 36.3657L36.1413 39.706L41.0822 36.854C41.2463 36.759 41.4559 36.8072 41.5619 36.9644C41.668 37.1215 41.6342 37.3339 41.4847 37.4505L38.2331 39.9852L41.7307 37.9655C41.8952 37.8724 42.1037 37.9221 42.2085 38.0794C42.3133 38.2367 42.2788 38.4483 42.1296 38.5642L40.5528 39.7674L42.0676 38.8939C42.2312 38.8001 42.4394 38.8482 42.5453 39.0042C42.6511 39.1602 42.619 39.3715 42.4715 39.4889L41.6918 40.1049L42.245 39.7854C42.4042 39.6901 42.6097 39.7312 42.7201 39.8803C42.8305 40.0295 42.8097 40.238 42.672 40.3624L41.9745 41.0152L42.3582 40.7945C42.5098 40.7064 42.7027 40.7401 42.8155 40.8742C42.9283 41.0084 42.9283 41.2042 42.8156 41.3384L42.5371 41.6702C42.6999 41.6707 42.8421 41.7802 42.8842 41.9374C42.9264 42.0946 42.8581 42.2605 42.7175 42.3424L41.2186 43.208C41.067 43.2961 40.8741 43.2625 40.7613 43.1283C40.6485 42.9942 40.6485 42.7983 40.7613 42.6641L40.9502 42.4391L39.6165 43.2066C39.4573 43.3019 39.2518 43.2608 39.1414 43.1116C39.0311 42.9625 39.0519 42.7539 39.1895 42.6295L39.8885 41.9803L37.7592 43.2066C37.5956 43.3003 37.3874 43.2522 37.2815 43.0962C37.1756 42.9402 37.2077 42.7289 37.3552 42.6115L38.1328 41.9977L36.0352 43.2066C35.8707 43.2997 35.6623 43.2499 35.5575 43.0927C35.4527 42.9354 35.4871 42.7238 35.6363 42.6079L37.2146 41.4033L34.0927 43.2066C33.9287 43.3016 33.7191 43.2533 33.613 43.0962C33.507 42.939 33.5407 42.7266 33.6902 42.61L36.9419 40.0761L31.5213 43.2066C31.3567 43.2984 31.1491 43.248 31.0449 43.0909C30.9408 42.9338 30.9751 42.723 31.1238 42.6072L35.5289 39.2668L28.7017 43.2066C28.5341 43.2984 28.3241 43.2437 28.2227 43.0818C28.1212 42.9199 28.1636 42.707 28.3194 42.5963L31.1217 40.695L26.77 43.2066C26.7154 43.2392 26.6532 43.2569 26.5897 43.2578Z" fill="#E1EFFF"/>
<path d="M20.7282 30.9955C20.5679 30.9954 20.4268 30.8895 20.382 30.7355C20.3373 30.5815 20.3996 30.4164 20.5349 30.3304L28.4874 25.256L19.3693 30.5216C19.1994 30.6255 18.9774 30.5721 18.8734 30.4022C18.7694 30.2323 18.8229 30.0103 18.9928 29.9063L29.8738 22.8728L18.4338 29.4771C18.2643 29.5718 18.0504 29.5155 17.9496 29.3496C17.8488 29.1837 17.8973 28.9679 18.0594 28.8611L27.1624 23.0784L18.2347 28.2321C18.0642 28.3351 17.8425 28.2804 17.7395 28.1099C17.6365 27.9394 17.6913 27.7177 17.8618 27.6147L26.229 22.3181L18.2376 26.9345C18.0682 27.0309 17.8529 26.9753 17.7514 26.809C17.6498 26.6428 17.6987 26.4259 17.8618 26.3192L28.5134 19.4292L18.2347 25.3591C18.065 25.4498 17.8541 25.3913 17.7553 25.2263C17.6565 25.0612 17.7046 24.8477 17.8646 24.741L20.1519 23.3243L18.2347 24.4308C18.0663 24.5212 17.8566 24.4645 17.7567 24.3016C17.6568 24.1387 17.7013 23.9261 17.8581 23.817L27.774 17.3677L18.2347 22.8749C18.0643 22.9732 17.8467 22.9168 17.7454 22.7483C17.6441 22.5797 17.6965 22.3611 17.8632 22.2568L22.0966 19.5987L18.2347 21.8283C18.0658 21.9262 17.8498 21.872 17.7471 21.7061C17.6444 21.5402 17.6923 21.3226 17.8553 21.2152L27.5576 14.7955L18.2347 20.1758C18.0658 20.2718 17.8512 20.2168 17.7493 20.0514C17.6475 19.8859 17.6949 19.6695 17.8567 19.562L25.7969 14.3426L18.2347 18.7079C18.0653 18.8043 17.85 18.7488 17.7485 18.5825C17.6469 18.4162 17.6958 18.1993 17.8589 18.0927L22.8842 14.8467L18.3458 17.4673C18.1769 17.5652 17.9609 17.511 17.8582 17.3451C17.7555 17.1791 17.8034 16.9616 17.9663 16.8542L23.6366 13.1156L18.5571 16.0477C18.3892 16.1499 18.1705 16.0988 18.0652 15.933C17.9598 15.7671 18.0067 15.5474 18.1705 15.4389L24.6457 10.9481L19.1471 14.1218C18.9801 14.2152 18.7692 14.1618 18.6667 14.0002C18.5642 13.8387 18.6057 13.6252 18.7612 13.5138L22.6902 10.7807L20.0675 12.2955C19.9051 12.3879 19.699 12.341 19.5926 12.1873C19.4862 12.0337 19.5149 11.8242 19.6585 11.7047L22.5647 9.31573C22.4174 9.33664 22.2719 9.2673 22.1954 9.13973C22.0957 8.96743 22.1544 8.74692 22.3267 8.64708L25.8835 6.59422C26.0459 6.50179 26.252 6.54873 26.3584 6.70239C26.4648 6.85604 26.4361 7.06549 26.2924 7.18498L23.4966 9.48236L29.7519 5.8758C29.9184 5.78552 30.1265 5.83955 30.2281 5.99947C30.3297 6.15939 30.2903 6.37068 30.1378 6.48314L26.2102 9.21547L31.8148 5.97967C31.9827 5.87753 32.2014 5.92856 32.3067 6.09442C32.4121 6.26029 32.3652 6.47995 32.2014 6.58845L25.7248 11.0808L33.7963 6.41967C33.9648 6.3254 34.1777 6.38061 34.2792 6.54491C34.3806 6.70921 34.3347 6.92428 34.1749 7.03278L28.509 10.7692L35.1256 6.94622C35.2946 6.85182 35.508 6.90762 35.6091 7.07265C35.7102 7.23769 35.663 7.45312 35.5022 7.56078L30.466 10.811L36.2098 7.50163C36.3791 7.40025 36.5984 7.45375 36.702 7.62169C36.8056 7.78963 36.755 8.00966 36.5885 8.11547L28.654 13.3298L37.4165 8.27055C37.5853 8.17267 37.8014 8.22683 37.9041 8.39278C38.0068 8.55872 37.9589 8.77625 37.7959 8.88367L28.09 15.3055L38.5692 9.25586C38.7387 9.16401 38.9506 9.2218 39.05 9.38705C39.1494 9.5523 39.1012 9.76653 38.9406 9.87331L34.7058 12.5328L39.1938 9.94183C39.3628 9.84742 39.5762 9.90322 39.6773 10.0683C39.7784 10.2333 39.7312 10.4487 39.5704 10.5564L29.6545 17.0049L40.0637 10.9957C40.2346 10.8933 40.4562 10.9488 40.5586 11.1197C40.6609 11.2906 40.6054 11.5122 40.4345 11.6146L38.1501 13.029L40.4987 11.673C40.6676 11.5786 40.881 11.6344 40.9821 11.7994C41.0832 11.9644 41.0361 12.1799 40.8752 12.2875L30.2229 19.1768L41.1471 12.8696C41.3166 12.7764 41.5295 12.8335 41.6295 12.999C41.7296 13.1646 41.6813 13.3796 41.5201 13.4864L33.1601 18.7815L41.5807 13.9213C41.7498 13.8296 41.9611 13.8869 42.0609 14.0514C42.1606 14.2158 42.1137 14.4297 41.9543 14.5373L32.847 20.3222L41.9355 15.0732C42.1049 14.9768 42.3202 15.0324 42.4217 15.1987C42.5233 15.365 42.4744 15.5819 42.3113 15.6885L31.4325 22.7213L42.1967 16.5079C42.3661 16.4132 42.58 16.4696 42.6808 16.6354C42.7816 16.8013 42.7331 17.0172 42.571 17.1239L34.6229 22.1969L42.3243 17.7507C42.4936 17.6523 42.7105 17.7069 42.813 17.8738C42.9154 18.0407 42.866 18.2589 42.7016 18.3653L34.4786 23.7311L42.3553 19.1869C42.5248 19.0937 42.7377 19.1508 42.8377 19.3163C42.9378 19.4818 42.8895 19.6968 42.7283 19.8036L40.1582 21.4294L42.3553 20.1614C42.5239 20.0671 42.7368 20.1223 42.8382 20.2866C42.9397 20.4509 42.8938 20.666 42.734 20.7745L37.4028 24.2938L42.3553 21.4345C42.5222 21.3383 42.7352 21.3902 42.8391 21.5523C42.9431 21.7145 42.9012 21.9297 42.7441 22.0411L36.5307 26.4411L42.3561 23.082C42.5246 22.9877 42.7375 23.0429 42.839 23.2072C42.9404 23.3715 42.8945 23.5866 42.7347 23.6951L41.8648 24.2721L42.3561 23.9887C42.5208 23.8949 42.73 23.9446 42.8349 24.1025C42.9398 24.2604 42.9045 24.4726 42.7542 24.5881L38.9587 27.4733L42.3561 25.5121C42.5206 25.419 42.729 25.4687 42.8338 25.626C42.9386 25.7833 42.9042 25.9948 42.7549 26.1108L40.8593 27.5541L42.3561 26.6885C42.5206 26.5954 42.729 26.6451 42.8338 26.8024C42.9386 26.9597 42.9042 27.1712 42.7549 27.2872L42.4167 27.5454C42.5744 27.4897 42.7498 27.5498 42.8402 27.6906C42.9307 27.8314 42.9124 28.0159 42.7961 28.1362L41.9197 29.0479L42.0848 28.9534C42.2561 28.8638 42.4675 28.9252 42.5643 29.0925C42.661 29.2599 42.6086 29.4737 42.4455 29.5774L40.0782 30.9443C39.9227 31.033 39.7257 30.9943 39.6154 30.8534C39.5051 30.7125 39.5148 30.512 39.6382 30.3824L40.5138 29.4713L37.9618 30.9443C37.7972 31.0394 37.587 30.9903 37.4815 30.8322C37.3759 30.674 37.4112 30.4611 37.5622 30.3456L37.8623 30.1169L36.4262 30.9443C36.2619 31.0367 36.0541 30.9871 35.9494 30.8303C35.8447 30.6736 35.8783 30.4627 36.0266 30.3463L37.9258 28.8914L34.3697 30.9443C34.205 31.038 33.9958 30.9883 33.8909 30.8304C33.786 30.6725 33.8212 30.4603 33.9715 30.3448L37.7642 27.4639L31.7376 30.9443C31.5696 31.0347 31.3602 30.9787 31.2599 30.8164C31.1595 30.6541 31.2029 30.4417 31.3589 30.3319L32.2281 29.7548L30.1695 30.9443C30.0031 31.0369 29.7933 30.9842 29.6905 30.8239C29.5876 30.6636 29.6271 30.451 29.7807 30.3384L35.9919 25.9384L27.3189 30.9443C27.1509 31.0347 26.9415 30.9787 26.8411 30.8164C26.7408 30.6541 26.7842 30.4417 26.9402 30.3319L32.2779 26.8097L25.1131 30.9443C24.9436 31.0375 24.7308 30.9804 24.6307 30.8149C24.5306 30.6493 24.5789 30.4343 24.7402 30.3275L27.3153 28.6981L23.4245 30.9443C23.2556 31.0403 23.041 30.9853 22.9392 30.8198C22.8373 30.6544 22.8848 30.438 23.0465 30.3304L31.2695 24.9631L20.9086 30.9443C20.854 30.9769 20.7918 30.9946 20.7282 30.9955Z" fill="#F2CF7E"/>
<path d="M30.728 37.4187C30.5778 37.4189 30.4432 37.3258 30.3902 37.1852C30.3373 37.0446 30.377 36.8859 30.49 36.7869L30.7612 36.5488L29.4874 37.2824C29.3225 37.3783 29.1115 37.3293 29.0058 37.1705C28.9001 37.0117 28.9364 36.7981 29.0885 36.683L29.1729 36.6188L28.6636 36.9124C28.5028 37.0061 28.297 36.9619 28.1887 36.8105C28.0805 36.659 28.1053 36.45 28.246 36.3281L30.8499 34.056L27.5658 35.9523C27.4037 36.0455 27.1972 35.9994 27.0903 35.846C26.9833 35.6927 27.0112 35.483 27.1547 35.363L30.4114 32.6509L27.0118 34.6128C26.8481 34.7053 26.6408 34.6565 26.5356 34.5007C26.4303 34.3449 26.4624 34.1344 26.6093 34.017L28.264 32.7187L26.8935 33.5121C26.7402 33.6007 26.5452 33.5648 26.4334 33.4274C26.3216 33.29 26.3262 33.0917 26.4442 32.9596L27.9315 31.2927L26.8935 31.8913C26.7703 31.9624 26.6168 31.9543 26.5017 31.8708C26.3865 31.7873 26.3312 31.6439 26.3605 31.5047L26.5906 30.4155C26.4599 30.3672 26.3688 30.248 26.3564 30.1092C26.3441 29.9704 26.4128 29.837 26.5329 29.7664L26.8935 29.5572C27.0168 29.4862 27.1703 29.4942 27.2854 29.5777C27.4005 29.6612 27.4558 29.8046 27.4266 29.9438L27.2318 30.8642L29.5112 29.5492C29.6644 29.4616 29.8584 29.4977 29.9699 29.6346C30.0813 29.7714 30.0774 29.9688 29.9606 30.101L28.4739 31.768L32.3322 29.5406C32.4961 29.4462 32.7049 29.4944 32.8109 29.651C32.9169 29.8076 32.8839 30.0194 32.7355 30.1364L31.0764 31.4348L33.6984 29.92C33.8605 29.8268 34.067 29.8729 34.174 30.0263C34.281 30.1797 34.253 30.3893 34.1096 30.5093L30.8528 33.2214L33.6984 31.5783C33.8593 31.4846 34.0651 31.5287 34.1733 31.6802C34.2816 31.8317 34.2568 32.0407 34.116 32.1626L31.5121 34.4354L33.7006 33.1724C33.8649 33.0811 34.0718 33.1314 34.1759 33.288C34.2801 33.4445 34.2464 33.6548 34.0987 33.7711L33.7381 34.0488C33.8561 34.0486 33.9673 34.1046 34.0374 34.1995C34.1454 34.3503 34.1213 34.5584 33.9819 34.6807L33.3103 35.27C33.4516 35.3071 33.5565 35.4257 33.5761 35.5704C33.5957 35.7151 33.5261 35.8574 33.3998 35.9307L30.9069 37.3733C30.8522 37.4037 30.7906 37.4194 30.728 37.4187Z" fill="#E4AE80"/>
<path d="M30.5309 31.6829C30.3756 31.6829 30.2378 31.5836 30.1887 31.4363C30.1396 31.289 30.1903 31.1269 30.3145 31.0337L30.7314 30.7207L29.3681 31.5076C29.2023 31.6034 28.9905 31.5529 28.8858 31.3926C28.781 31.2322 28.8199 31.018 28.9743 30.9046L30.7963 29.5659L28.2126 31.0575C28.0449 31.1519 27.8326 31.0979 27.7303 30.9349C27.628 30.7719 27.6717 30.5573 27.8296 30.4473L28.3619 30.0866L27.4855 30.5916C27.3178 30.6859 27.1055 30.6319 27.0032 30.4689C26.901 30.306 26.9446 30.0914 27.1025 29.9813L29.5246 28.3476L26.7187 29.9669C26.5511 30.0627 26.3377 30.0095 26.2347 29.8462C26.1317 29.6829 26.1756 29.4674 26.3343 29.3574L31.0437 26.1115L25.9138 29.0739C25.7458 29.1714 25.5308 29.1184 25.4274 28.954C25.324 28.7896 25.3694 28.5728 25.53 28.4637L31.1512 24.6292L25.2711 28.0237C25.1027 28.1213 24.8872 28.0677 24.7842 27.9025C24.6812 27.7374 24.7278 27.5203 24.8895 27.412L30.6838 23.5169L24.7445 26.9461C24.5738 27.0494 24.3516 26.9949 24.2483 26.8242C24.1449 26.6535 24.1995 26.4313 24.3702 26.3279L25.2357 25.7783L24.4863 26.211C24.3175 26.3089 24.1014 26.2548 23.9987 26.0888C23.896 25.9229 23.9439 25.7053 24.1069 25.5979L27.8981 23.082L24.2237 25.2026C24.0576 25.2945 23.8487 25.2418 23.746 25.0822C23.6433 24.9226 23.6818 24.7107 23.8342 24.5975L29.7641 20.3706L23.9309 23.7377C23.7632 23.832 23.5509 23.778 23.4486 23.615C23.3463 23.4521 23.39 23.2375 23.5479 23.1274L26.7649 20.9397L22.6534 23.3121C22.4867 23.4044 22.2769 23.3511 22.1745 23.1902C22.0721 23.0294 22.1126 22.8168 22.2668 22.7047L26.7902 19.5541L22.1016 22.2619C21.9336 22.3576 21.7199 22.3038 21.6173 22.1398C21.5147 21.9759 21.5597 21.7602 21.7193 21.6509L24.2749 19.9299L21.9949 21.2463C21.8267 21.3391 21.6152 21.2838 21.514 21.1205C21.4128 20.9571 21.4574 20.7431 21.6155 20.6339L22.7739 19.8628L21.7504 20.4535C21.5845 20.5446 21.3765 20.4919 21.2738 20.333C21.1712 20.174 21.2089 19.9628 21.3601 19.8491L25.4038 16.9508L21.3096 19.3139C21.1717 19.395 20.9969 19.3755 20.8802 19.2662C20.7634 19.1568 20.7327 18.9835 20.8047 18.8407L21.3623 17.7255L21.3349 17.7414C21.2232 17.8069 21.0851 17.8075 20.9728 17.743C20.8606 17.6785 20.7915 17.5589 20.7918 17.4295C20.7921 17.3001 20.8617 17.1807 20.9742 17.1167L22.0418 16.5015C22.1797 16.4204 22.3545 16.4398 22.4712 16.5492C22.588 16.6586 22.6187 16.8318 22.5467 16.9746L21.9891 18.0891L31.3662 12.6742C31.5325 12.5802 31.7432 12.6322 31.8467 12.7927C31.9502 12.9533 31.9106 13.1667 31.7564 13.2794L27.717 16.1798L32.2974 13.5354C32.4653 13.4438 32.6755 13.4991 32.7765 13.6616C32.8775 13.8241 32.834 14.0371 32.6775 14.1471L31.5212 14.9167L32.9639 14.0807C33.1322 13.9832 33.3477 14.0368 33.4507 14.2019C33.5537 14.367 33.5071 14.5841 33.3454 14.6924L30.7877 16.4149L33.7934 14.6802C33.9601 14.5878 34.17 14.6412 34.2723 14.802C34.3747 14.9628 34.3342 15.1755 34.18 15.2875L29.6617 18.4367L34.9128 15.4072C35.0808 15.3098 35.2958 15.3628 35.3992 15.5272C35.5026 15.6916 35.4572 15.9083 35.2966 16.0175L32.0745 18.2074L35.9263 15.9843C36.0929 15.8893 36.3047 15.9412 36.4084 16.1025C36.5121 16.2638 36.4714 16.4781 36.3158 16.5902L30.3866 20.8164L37.7014 16.5902C37.8697 16.4909 38.0866 16.5456 38.1876 16.7128C38.2903 16.8783 38.243 17.0955 38.0808 17.2033L34.2896 19.7142L39.1433 16.9119C39.3132 16.8148 39.5294 16.8709 39.6307 17.0381C39.7321 17.2054 39.6816 17.423 39.517 17.5286L38.6464 18.0826L39.4247 17.6339C39.5936 17.5284 39.8161 17.5797 39.9216 17.7486C40.0272 17.9175 39.9759 18.14 39.8069 18.2456L34.0112 22.1407L39.1051 19.2006C39.2731 19.1031 39.4881 19.1562 39.5914 19.3206C39.6948 19.485 39.6495 19.7017 39.4888 19.8108L33.8698 23.6432L38.5584 20.9368C38.726 20.841 38.9394 20.8942 39.0424 21.0575C39.1454 21.2208 39.1015 21.4363 38.9428 21.5463L34.2341 24.7915L38.0419 22.5929C38.2102 22.4932 38.4274 22.5459 38.5313 22.7117C38.6352 22.8774 38.588 23.0958 38.4249 23.2039L35.9991 24.8413L36.3901 24.6162C36.5578 24.5219 36.77 24.5759 36.8723 24.7388C36.9746 24.9018 36.931 25.1164 36.7731 25.2265L36.1701 25.6376C36.3388 25.5791 36.5249 25.6528 36.6078 25.8109C36.6906 25.9691 36.6453 26.1641 36.5012 26.2695L34.6784 27.6082L35.5029 27.1329C35.6679 27.0384 35.8779 27.0881 35.9829 27.2467C36.0879 27.4052 36.0517 27.618 35.9003 27.733L34.8393 28.5315C34.9359 28.554 35.0187 28.6156 35.0679 28.7017C35.1676 28.874 35.1089 29.0945 34.9367 29.1944L30.7105 31.6339C30.656 31.6659 30.594 31.6828 30.5309 31.6829Z" fill="#F0BF93"/>
<path d="M29.4842 12.8956C29.321 12.8956 29.1781 12.786 29.1359 12.6283C29.0936 12.4706 29.1625 12.3042 29.3039 12.2226L30.295 11.6513C30.4673 11.5534 30.6864 11.6129 30.7856 11.7845C30.8847 11.9562 30.8266 12.1757 30.6556 12.276L29.6667 12.8473C29.6112 12.8793 29.5483 12.896 29.4842 12.8956Z" fill="#F0BF93"/>
<path d="M10.9517 14.3101C10.8001 14.3105 10.6645 14.2161 10.6122 14.0738C10.5599 13.9315 10.6022 13.7717 10.718 13.6739L11.0621 13.3854L10.19 13.8903C10.0269 13.983 9.81991 13.935 9.7141 13.7801C9.60829 13.6251 9.63896 13.4149 9.78464 13.2967L9.86254 13.2339L9.60504 13.3825C9.44618 13.471 9.24626 13.4275 9.13867 13.2808C9.03109 13.1342 9.0495 12.9304 9.18163 12.8055L9.55094 12.4693L9.15566 12.698C9.0275 12.7717 8.86732 12.7598 8.75152 12.6678C8.63573 12.5759 8.58778 12.4226 8.63054 12.2811L8.94431 11.2525L8.92123 11.2662C8.74854 11.3658 8.52781 11.3065 8.42821 11.1338C8.32862 10.9611 8.38788 10.7404 8.56058 10.6408L9.37422 10.1719C9.50254 10.0975 9.66336 10.1092 9.77954 10.2015C9.89572 10.2937 9.94353 10.4477 9.90005 10.5896L9.58556 11.6131L12.0856 10.1705C12.2445 10.082 12.4444 10.1256 12.552 10.2722C12.6596 10.4188 12.6412 10.6226 12.509 10.7476L12.1397 11.083L13.6603 10.2051C13.8238 10.1101 14.0329 10.1575 14.1395 10.3137C14.246 10.47 14.2138 10.682 14.0656 10.7995L13.9863 10.863L14.1911 10.7454C14.3526 10.6534 14.5576 10.6991 14.6646 10.8511C14.7716 11.0031 14.7456 11.2116 14.6045 11.3325L14.1897 11.6831C14.3435 11.6492 14.5014 11.719 14.5799 11.8555C14.679 12.0278 14.62 12.2478 14.4479 12.3474L11.1299 14.2618C11.0757 14.2931 11.0143 14.3097 10.9517 14.3101Z" fill="white"/>
<path d="M43.0804 27.5967C43.4288 22.4754 43.8797 15.4649 40.7975 11.1161C36.7459 5.39903 28.564 4.26368 22.9155 8.21358C23.0287 6.32735 23.4204 3.82945 22.7135 2.26276C21.8869 0.437124 19.8405 0.729976 18.2002 0.729976H8.21586C6.49192 0.729976 4.50182 0.44578 2.79809 0.755944C0.498545 1.1743 0.194152 2.76696 0.194152 4.81116V14.4457C0.194152 16.1812 -0.202569 18.3992 1.73415 19.2785C3.97022 20.2883 6.97881 18.9178 9.29854 19.4704C11.1177 19.9032 12.4723 23.2529 14.4199 23.0769C15.2061 23.0048 15.4066 22.572 15.6749 21.9553C16.4879 20.0741 15.0777 19.5115 17.5705 19.474C17.4818 21.2051 17.51 22.9759 17.51 24.7468C17.51 26.7152 16.9026 29.7483 19.1639 30.7401C21.0559 31.5704 24.0508 31.0287 26.1484 30.9738C26.1267 31.7103 26.1008 32.4554 26.1267 33.189C22.8808 33.5028 19.6746 34.8408 18.2017 37.9785C17.5301 39.4089 16.6379 42.5156 18.5018 43.2895C19.3803 43.6538 20.9023 43.3249 21.8277 43.3249H39.1724C40.038 43.3249 41.7691 43.6567 42.569 43.0363C43.7556 42.1196 42.9701 39.2906 42.5128 38.2151C41.1271 34.9591 37.7817 33.4342 34.4435 33.1717C34.4831 32.4504 34.4701 31.7117 34.4485 30.9796C37.7968 31.1152 42.7876 31.9152 43.0804 27.5967ZM14.6204 20.6461C14.4718 21.4194 14.9154 22.0959 14.1198 22.0433C13.7086 22.0152 12.6721 20.755 12.3612 20.4788C11.8495 19.8955 11.2597 19.3858 10.6084 18.964C8.3832 17.9607 5.42222 19.5021 3.16235 18.7613C0.0275287 17.7335 1.24871 12.0091 1.24871 9.69444C1.24871 7.79017 0.17107 2.45247 2.73605 1.43398C3.3975 1.17214 4.70451 1.43398 5.40491 1.43398H10.6322C13.3552 1.43398 16.7446 0.897321 19.4149 1.43398C22.8051 2.11562 21.8465 6.45286 21.8349 9.05175C18.7982 11.6982 17.8821 15.1021 17.6153 18.7556C15.8567 18.7231 15.0034 18.656 14.6204 20.6461ZM38.8218 19.5526C38.3169 20.742 38.3357 23.0596 36.844 23.2962C36.7214 23.3157 36.2294 23.4159 36.2179 23.6049C36.0625 25.8631 35.1815 28.0107 33.7063 29.7274C33.5245 29.788 33.3795 29.8775 33.3795 29.9878V30.0405C32.1314 31.2119 30.2888 31.4896 28.7509 30.738C28.188 30.4974 27.6677 30.1673 27.2101 29.7606C27.2101 29.7433 27.2101 29.7253 27.2101 29.7079C27.2101 29.674 27.1589 29.6567 27.0875 29.6481C25.3816 28.067 24.5377 25.5316 24.3718 23.3251C24.3538 23.2929 24.3192 23.2736 24.2823 23.2753C22.3492 22.9695 22.2107 21.2232 21.9316 19.6788C21.6633 18.1958 21.5414 17.9008 22.8693 17.1276C24.2239 16.3399 25.7163 15.8739 27.0529 14.9521C27.6502 14.5402 29.5133 12.2832 30.2267 12.2746C30.3378 12.2746 32.4584 14.4082 32.6575 14.5626C33.4289 15.1561 34.2436 15.6912 35.0948 16.1632C35.7665 16.5356 36.4613 16.8647 37.1751 17.1485C38.5383 17.6945 39.5828 17.217 38.8218 19.5526ZM27.1863 30.7185C28.6958 31.6284 30.5425 31.7849 32.1836 31.1419C32.6022 30.9809 33.003 30.7769 33.3795 30.5331V33.0483C33.3795 35.3017 31.8525 38.1422 28.968 36.4854C26.9627 35.3342 27.1056 32.8356 27.1863 30.7185ZM41.9119 40.2672C42.1629 41.7784 42.2004 42.1816 40.9894 42.5148C38.2679 43.2628 34.2249 42.5148 31.4118 42.5148H20.9621C20.6015 42.5148 19.1697 42.7493 18.8703 42.5148C18.0971 41.9118 18.7261 39.6714 18.9252 39.0446C19.9574 35.7987 22.9746 34.2839 26.1816 33.9832C26.1852 34.0149 26.1816 34.0481 26.1881 34.0798C26.3304 35.0982 26.8778 36.016 27.706 36.6254C28.5343 37.2348 29.5734 37.4842 30.588 37.3171C32.4462 37.1726 33.9848 35.8164 34.3612 33.9911C38.0046 34.3705 41.2707 36.3952 41.9119 40.2672ZM34.4355 30.3629C34.4312 30.1465 34.4247 29.9366 34.4247 29.7267C34.5329 29.6272 34.6411 29.5319 34.7486 29.4266C36.3167 27.8275 36.2179 26.0076 37.201 24.2577C37.8134 23.1707 38.0154 23.8639 38.6646 22.9218C39.4119 21.8399 39.3275 20.5754 39.8468 19.355C40.7737 16.5087 39.137 17.0028 37.359 16.4776C35.3516 15.884 33.5173 14.0973 31.9823 12.7672C31.0143 11.9298 31.2026 11.7927 30.2555 11.7653C29.4116 11.7408 27.8795 13.6919 27.8074 13.754C26.2824 15.0561 24.5003 16.0224 22.5772 16.5902C20.5474 17.2675 20.2978 17.4356 20.8886 19.9623C21.0525 21.0715 21.3934 22.1472 21.8984 23.1483C22.5719 23.989 23.1616 24.8935 23.6591 25.8489C24.0293 26.9512 24.5538 27.9955 25.2172 28.9506C25.503 29.3225 25.8235 29.6664 26.1743 29.9777C26.1743 29.982 26.1693 29.9856 26.1693 29.99C26.1693 30.1205 26.1642 30.254 26.1621 30.386C24.4771 30.5072 22.0506 30.9176 20.7941 30.3542C17.7574 28.9953 18.558 25.5099 18.558 22.8872C18.558 21.6249 18.4981 20.3222 18.5162 19.0296C18.5426 18.9788 18.5426 18.9182 18.5162 18.8674C18.5245 18.0222 18.5917 17.1786 18.7174 16.3428C19.1622 13.5937 20.5717 11.093 22.6933 9.28906C22.7374 9.26156 22.7768 9.22723 22.8101 9.18735C25.1264 7.23734 28.1192 6.28122 31.137 6.52716C36.4931 7.03748 40.8606 11.0393 41.8362 16.3305C42.256 18.594 42.0331 21.0702 42.0331 23.3618C42.0331 25.3606 42.9037 29.4252 40.2002 30.3521C38.653 30.883 36.1926 30.4199 34.4355 30.3629Z" fill="black"/>
<path d="M11.6543 10.2354C10.7699 10.2354 9.04023 9.94689 8.37157 10.7302C7.81833 11.3794 8.28429 12.4801 8.72141 13.0658C9.31137 13.8411 10.2307 14.295 11.2049 14.2921C11.2114 14.2921 11.2236 14.2921 11.2316 14.2877C11.2604 14.2894 11.2893 14.2894 11.3181 14.2877C12.9331 14.2012 15.2262 13.0197 14.9485 11.0418C14.7747 9.79686 12.4982 10.2354 11.6543 10.2354ZM11.8072 13.8348C10.1648 13.7958 9.42252 12.4679 9.178 11.0404C9.09433 10.5499 8.98974 10.7519 9.45138 10.6797C9.85075 10.6523 10.2515 10.6523 10.6509 10.6797C11.4809 10.6159 12.3145 10.6159 13.1445 10.6797C13.534 10.7425 13.824 10.8961 13.904 11.3174C14.1211 12.4787 12.8596 13.7468 11.8072 13.8348Z" fill="black"/>
<path d="M9.89944 7.43385V6.71254C9.89944 6.44205 8.85498 6.62166 8.85498 6.99241V7.71372C8.85498 7.98421 9.89944 7.80461 9.89944 7.43385Z" fill="black"/>
<path d="M14.2351 7.53557V6.81425C14.2351 6.26101 13.1748 6.41104 13.1748 6.89071V7.61203C13.1748 8.16527 14.2351 8.01524 14.2351 7.53557Z" fill="black"/>
</g>
<defs>
<clipPath id="clip0_157_1530">
<rect width="44" height="44" fill="white"/>
</clipPath>
</defs>
</svg>
