<svg width="44" height="44" viewBox="0 0 44 44" fill="none" xmlns="http://www.w3.org/2000/svg">
<g clip-path="url(#clip0_160_2085)">
<path d="M20.6586 43.5211C20.5789 43.5212 20.5012 43.4953 20.4375 43.4473C20.3738 43.3993 20.3275 43.3318 20.3056 43.2551C20.2837 43.1784 20.2874 43.0966 20.3162 43.0222C20.345 42.9478 20.3972 42.8848 20.465 42.8428L22.1986 41.7655L19.412 43.3789C19.3292 43.426 19.2313 43.439 19.139 43.4152C19.0467 43.3914 18.9673 43.3326 18.9177 43.2513C18.868 43.17 18.8519 43.0725 18.8729 42.9796C18.8938 42.8866 18.9502 42.8055 19.0299 42.7533L29.2276 36.19L17.4532 42.9895C17.3705 43.035 17.2734 43.0468 17.1822 43.0225C17.091 42.9982 17.0126 42.9396 16.9635 42.859C16.9143 42.7784 16.8982 42.6819 16.9184 42.5897C16.9386 42.4975 16.9936 42.4166 17.0719 42.3639L29.1345 34.6361L15.5693 42.4673C15.4865 42.5116 15.3898 42.5224 15.2992 42.4975C15.2086 42.4726 15.1311 42.4138 15.0826 42.3334C15.034 42.253 15.0182 42.157 15.0384 42.0652C15.0585 41.9735 15.1131 41.893 15.1909 41.8403L26.6786 34.6067L14.0066 41.9239C13.9236 41.9689 13.8265 41.9801 13.7354 41.9553C13.6444 41.9304 13.5664 41.8714 13.5177 41.7905C13.4691 41.7097 13.4535 41.6132 13.4742 41.5211C13.4949 41.429 13.5503 41.3484 13.6289 41.2962L25.7817 33.6798L12.655 41.2595C12.5717 41.3064 12.4734 41.319 12.381 41.2945C12.2886 41.2699 12.2094 41.2103 12.1604 41.1282C12.1113 41.0462 12.0962 40.9482 12.1184 40.8552C12.1405 40.7622 12.1981 40.6815 12.2788 40.6303L22.4208 34.3589L11.4824 40.6721C11.3992 40.7201 11.3004 40.7335 11.2074 40.7094C11.1144 40.6854 11.0345 40.6257 10.985 40.5433C10.9355 40.461 10.9203 40.3625 10.9427 40.269C10.9651 40.1756 11.0233 40.0946 11.1048 40.0437L24.7866 31.5084L10.2937 39.8735C10.2107 39.9185 10.1136 39.9297 10.0225 39.9049C9.9315 39.88 9.85353 39.821 9.80488 39.7401C9.75622 39.6593 9.74062 39.5628 9.76133 39.4707C9.78204 39.3786 9.83745 39.298 9.91604 39.2458L24.9039 29.8841L9.07418 39.0229C8.99083 39.0689 8.89282 39.0808 8.80089 39.0559C8.70896 39.031 8.63033 38.9713 8.58164 38.8894C8.53295 38.8076 8.51802 38.71 8.54 38.6173C8.56199 38.5247 8.61917 38.4442 8.69944 38.3929L17.4532 33.044L8.28658 38.3335C8.2035 38.3801 8.10557 38.3925 8.01351 38.3681C7.92145 38.3437 7.84249 38.2845 7.79332 38.2029C7.74416 38.1214 7.72865 38.0239 7.75009 37.9311C7.77153 37.8383 7.82822 37.7575 7.90818 37.7058L25.0022 26.9991L7.13891 37.3142C7.05561 37.3611 6.95728 37.3737 6.86487 37.3491C6.77247 37.3246 6.6933 37.2649 6.64423 37.1829C6.59517 37.1008 6.5801 37.0029 6.60223 36.9098C6.62436 36.8168 6.68195 36.7362 6.76271 36.685L21.4609 27.5917L6.30658 36.3418C6.22295 36.3915 6.123 36.4059 6.02873 36.3819C5.93445 36.3579 5.85357 36.2975 5.80388 36.2138C5.75418 36.1302 5.73975 36.0302 5.76375 35.936C5.78775 35.8417 5.84821 35.7608 5.93184 35.7111L16.4009 29.315L5.61724 35.5395C5.53389 35.5856 5.43588 35.5974 5.34396 35.5725C5.25203 35.5476 5.1734 35.4879 5.12471 35.4061C5.07602 35.3242 5.06108 35.2267 5.08307 35.134C5.10506 35.0413 5.16224 34.9608 5.24251 34.9096L15.3838 28.721L4.96018 34.7387C4.8766 34.7853 4.77813 34.7973 4.6858 34.7723C4.59346 34.7473 4.51456 34.6871 4.46595 34.6047C4.41733 34.5223 4.40284 34.4242 4.42558 34.3313C4.44832 34.2383 4.50648 34.158 4.58764 34.1073L6.87198 32.7316L4.54658 34.0736C4.46317 34.1189 4.36543 34.1302 4.2739 34.1049C4.18238 34.0797 4.10422 34.0199 4.05586 33.9382C4.00751 33.8565 3.99273 33.7593 4.01463 33.6669C4.03654 33.5745 4.09342 33.4942 4.17331 33.4429L9.64544 30.1327L4.09118 33.3395C4.00783 33.3856 3.90982 33.3974 3.81789 33.3725C3.72596 33.3476 3.64733 33.2879 3.59864 33.2061C3.54995 33.1242 3.53502 33.0267 3.557 32.934C3.57899 32.8413 3.63617 32.7608 3.71644 32.7096L15.3031 25.619L3.51991 32.4221C3.43678 32.4679 3.33913 32.4797 3.2475 32.455C3.15586 32.4302 3.07739 32.3709 3.02857 32.2895C2.97976 32.2081 2.9644 32.111 2.98574 32.0185C3.00707 31.926 3.06344 31.8454 3.14298 31.7937L20.7833 20.7937L2.90244 31.1175C2.81891 31.1651 2.72002 31.178 2.62708 31.1534C2.53413 31.1288 2.45457 31.0687 2.40553 30.986C2.35649 30.9033 2.34189 30.8046 2.36488 30.7113C2.38787 30.6179 2.44661 30.5373 2.52845 30.4869L12.3551 24.4933L2.50644 30.1803C2.42342 30.2278 2.32514 30.2409 2.23257 30.2169C2.14 30.193 2.06046 30.1338 2.01091 30.052C1.96136 29.9702 1.94572 29.8723 1.96733 29.7791C1.98894 29.686 2.04608 29.6049 2.12658 29.5533L18.9727 19.0593L1.97991 28.8691C1.89633 28.9157 1.79787 28.9277 1.70553 28.9027C1.61319 28.8777 1.5343 28.8175 1.48568 28.7351C1.43706 28.6527 1.42258 28.5546 1.44532 28.4617C1.46805 28.3687 1.52621 28.2884 1.60738 28.2377L1.83911 28.0984L1.79658 28.1233C1.75507 28.1478 1.70915 28.1638 1.66145 28.1705C1.61374 28.1773 1.56518 28.1745 1.51853 28.1625C1.47188 28.1504 1.42807 28.1293 1.38959 28.1003C1.3511 28.0713 1.31871 28.035 1.29425 27.9935C1.26978 27.952 1.25374 27.9061 1.24702 27.8584C1.24031 27.8107 1.24306 27.7621 1.25511 27.7155C1.27945 27.6213 1.34022 27.5406 1.42405 27.4912L1.69098 27.3313L1.61251 27.3761C1.52911 27.4214 1.43136 27.4326 1.33984 27.4074C1.24832 27.3822 1.17015 27.3224 1.1218 27.2407C1.07344 27.159 1.05866 27.0617 1.08056 26.9693C1.10247 26.877 1.15935 26.7967 1.23925 26.7454L4.00611 25.0741L1.41525 26.5701C1.3319 26.6162 1.23389 26.628 1.14196 26.6031C1.05003 26.5782 0.971402 26.5185 0.92271 26.4367C0.874018 26.3548 0.859085 26.2573 0.881071 26.1646C0.903058 26.0719 0.960239 25.9914 1.04051 25.9402L11.2463 19.6856L1.19451 25.4885C1.11098 25.5361 1.01209 25.5489 0.919142 25.5243C0.826198 25.4997 0.746636 25.4396 0.697594 25.3569C0.648552 25.2742 0.633954 25.1756 0.656945 25.0822C0.679936 24.9888 0.738676 24.9083 0.820512 24.8578L7.27751 20.9271L1.11751 24.486C1.03388 24.5358 0.933895 24.5503 0.839552 24.5264C0.745209 24.5024 0.664235 24.442 0.614445 24.3584C0.564655 24.2748 0.550127 24.1748 0.574057 24.0804C0.597987 23.9861 0.658414 23.9051 0.742045 23.8553L9.36751 18.5717L1.02658 23.386C0.943044 23.4358 0.843152 23.4503 0.748878 23.4265C0.654603 23.4026 0.573669 23.3423 0.523879 23.2588C0.474089 23.1752 0.459522 23.0753 0.483383 22.9811C0.507244 22.8868 0.567578 22.8058 0.651112 22.7561L9.93878 17.0434L0.944445 22.2347C0.86091 22.2823 0.76202 22.2951 0.669076 22.2705C0.576131 22.2459 0.496569 22.1858 0.447527 22.1031C0.398485 22.0204 0.383888 21.9218 0.406879 21.8284C0.429869 21.735 0.488609 21.6545 0.570445 21.604L2.52331 20.4197L1.00751 21.2945C0.924321 21.3396 0.82691 21.3508 0.735652 21.3258C0.644394 21.3007 0.566358 21.2414 0.517864 21.1601C0.46937 21.0788 0.454174 20.982 0.475454 20.8897C0.496735 20.7975 0.552843 20.7171 0.632045 20.6653L7.36991 16.5286L1.08378 20.1571C1.00079 20.2021 0.903668 20.2133 0.812617 20.1885C0.721566 20.1636 0.643601 20.1046 0.594945 20.0237C0.54629 19.9429 0.530693 19.8464 0.551399 19.7543C0.572105 19.6622 0.62752 19.5816 0.706112 19.5294L10.9126 13.1619L1.27738 18.7249C1.19465 18.7704 1.09756 18.7823 1.00633 18.758C0.915093 18.7337 0.836747 18.6751 0.787603 18.5945C0.738459 18.5139 0.722306 18.4174 0.742506 18.3252C0.762706 18.233 0.817703 18.1521 0.896045 18.0994L14.066 9.65285L1.66825 16.8102C1.58495 16.8571 1.48662 16.8696 1.39421 16.8451C1.3018 16.8206 1.22263 16.7609 1.17357 16.6789C1.12451 16.5968 1.10943 16.4989 1.13157 16.4058C1.1537 16.3128 1.21128 16.2322 1.29205 16.181L6.56031 12.9067L2.11118 15.4733C2.02807 15.5171 1.93133 15.5273 1.8409 15.5019C1.75048 15.4765 1.67327 15.4173 1.6252 15.3366C1.57713 15.2559 1.56187 15.1598 1.58257 15.0681C1.60327 14.9765 1.65835 14.8963 1.73645 14.8441L2.40451 14.4342C2.32716 14.4561 2.2448 14.4522 2.16981 14.4233C2.09482 14.3943 2.03127 14.3418 1.98871 14.2736C1.93861 14.1922 1.92229 14.0944 1.94325 14.0011C1.96421 13.9078 2.02079 13.8264 2.10091 13.7742L11.2199 7.82465L3.49058 12.2885C3.40787 12.338 3.30898 12.3529 3.21531 12.3301C3.12165 12.3073 3.04075 12.2484 2.99013 12.1664C2.93952 12.0843 2.92325 11.9857 2.94485 11.8917C2.96646 11.7977 3.0242 11.7161 3.10558 11.6644L9.45991 7.47999L4.80031 10.1713C4.71803 10.2156 4.62194 10.2269 4.53166 10.2027C4.44139 10.1785 4.36375 10.1208 4.3146 10.0413C4.26545 9.96185 4.2485 9.8666 4.26722 9.77505C4.28594 9.68349 4.33891 9.60253 4.41531 9.54872L7.41171 7.56359L6.42171 8.13485C6.34027 8.18088 6.24432 8.19404 6.15349 8.17163C6.06267 8.14923 5.98384 8.09296 5.93315 8.01434C5.88246 7.93572 5.86373 7.8407 5.8808 7.74873C5.89787 7.65675 5.94945 7.57478 6.02498 7.51959L8.92898 5.44279C8.87994 5.41083 8.83901 5.3679 8.80944 5.31739C8.76082 5.23317 8.74765 5.13309 8.77281 5.03916C8.79798 4.94523 8.85943 4.86514 8.94364 4.81652L13.4199 2.23079C13.5013 2.18476 13.5973 2.1716 13.6881 2.19401C13.7789 2.21641 13.8578 2.27268 13.9085 2.3513C13.9592 2.42992 13.9779 2.52494 13.9608 2.61691C13.9438 2.70889 13.8922 2.79086 13.8166 2.84605L12.57 3.73559L17.3799 0.959185C17.4622 0.914875 17.5583 0.903653 17.6486 0.927812C17.7388 0.95197 17.8165 1.00969 17.8656 1.08917C17.9148 1.16865 17.9317 1.2639 17.913 1.35546C17.8943 1.44702 17.8413 1.52797 17.7649 1.58179L14.7751 3.56179L19.929 0.590318C20.0114 0.544189 20.1085 0.531681 20.2 0.555404C20.2915 0.579127 20.3703 0.63725 20.4199 0.717648C20.4696 0.798046 20.4863 0.894511 20.4665 0.986924C20.4468 1.07934 20.3921 1.16056 20.314 1.21365L13.9545 5.40025L22.4736 0.481785C22.5565 0.430828 22.6562 0.414872 22.7508 0.437426C22.8454 0.45998 22.9272 0.519198 22.9782 0.602052C23.0291 0.684905 23.0451 0.784608 23.0225 0.879227C23 0.973845 22.9408 1.05563 22.8579 1.10659L13.7301 7.06345L24.8262 0.659985C24.9095 0.613903 25.0075 0.60206 25.0995 0.626964C25.1914 0.651867 25.27 0.711561 25.3187 0.793414C25.3674 0.875266 25.3823 0.972853 25.3603 1.06552C25.3384 1.15819 25.2812 1.23866 25.2009 1.28992L24.8841 1.48499L25.9247 0.879985C26.008 0.833058 26.1063 0.820522 26.1987 0.845049C26.2911 0.869575 26.3703 0.929224 26.4194 1.01128C26.4684 1.09334 26.4835 1.19131 26.4614 1.28432C26.4393 1.37733 26.3817 1.45802 26.3009 1.50919L21.0209 4.78939L27.3056 1.16159C27.3883 1.11609 27.4854 1.10425 27.5766 1.12855C27.6679 1.15284 27.7462 1.2114 27.7953 1.29201C27.8445 1.37263 27.8606 1.46909 27.8404 1.56132C27.8202 1.65355 27.7652 1.73443 27.6869 1.78712L14.5199 10.2344L29.155 1.78419C29.2379 1.74046 29.3344 1.73014 29.4247 1.75535C29.515 1.78057 29.5922 1.83939 29.6404 1.91975C29.6887 2.00011 29.7043 2.09589 29.6842 2.18742C29.664 2.27896 29.6095 2.35929 29.532 2.41192L19.3291 8.77725L30.511 2.32392C30.5942 2.27881 30.6916 2.26761 30.7828 2.29267C30.8741 2.31772 30.9521 2.37709 31.0006 2.45835C31.0491 2.53962 31.0643 2.63649 31.043 2.7287C31.0217 2.82091 30.9656 2.90132 30.8864 2.95312L24.1515 7.08912L31.5237 2.83579C31.6074 2.78619 31.7074 2.77189 31.8017 2.79602C31.896 2.82016 31.9768 2.88076 32.0264 2.96449C32.076 3.04821 32.0903 3.14822 32.0662 3.24249C32.042 3.33676 31.9814 3.41759 31.8977 3.46719L29.9309 4.65299L32.3619 3.25012C32.4451 3.20501 32.5425 3.19381 32.6338 3.21887C32.725 3.24392 32.8031 3.30329 32.8516 3.38456C32.9 3.46582 32.9152 3.56269 32.894 3.6549C32.8727 3.74711 32.8166 3.82752 32.7374 3.87932L23.457 9.58759L33.3424 3.88079C33.4257 3.8347 33.5237 3.82286 33.6157 3.84776C33.7076 3.87267 33.7862 3.93236 33.8349 4.01421C33.8836 4.09607 33.8985 4.19365 33.8765 4.28632C33.8546 4.37899 33.7974 4.45947 33.7171 4.51072L25.0902 9.79585L34.2612 4.50192C34.345 4.45242 34.4449 4.43821 34.5391 4.46242C34.6333 4.48662 34.7141 4.54726 34.7636 4.63099C34.8131 4.71471 34.8273 4.81468 34.8031 4.90888C34.7789 5.00309 34.7182 5.08382 34.6345 5.13332L28.1746 9.06472L35.0569 5.09152C35.1405 5.04183 35.2405 5.02739 35.3348 5.05139C35.429 5.07539 35.5099 5.13585 35.5596 5.21949C35.6093 5.30312 35.6237 5.40306 35.5997 5.49734C35.5757 5.59161 35.5153 5.67249 35.4316 5.72219L25.2266 11.9775L35.887 5.82192C35.9706 5.77536 36.0691 5.76331 36.1614 5.78835C36.2538 5.81338 36.3327 5.87352 36.3813 5.95592C36.4299 6.03831 36.4444 6.13645 36.4216 6.22938C36.3989 6.32231 36.3407 6.40267 36.2596 6.45332L33.4854 8.12825L36.5199 6.37999C36.6037 6.33058 36.7037 6.31651 36.798 6.34085C36.8922 6.36519 36.9728 6.42596 37.0222 6.50979C37.0716 6.59361 37.0857 6.69363 37.0614 6.78784C37.037 6.88204 36.9763 6.96272 36.8924 7.01212L36.6226 7.17345L37.0626 6.92119C37.1461 6.87463 37.2446 6.86258 37.337 6.88762C37.4293 6.91265 37.5082 6.97278 37.5568 7.05518C37.6054 7.13758 37.6199 7.23572 37.5972 7.32865C37.5744 7.42158 37.5163 7.50194 37.4351 7.55259L37.2261 7.67799L37.5517 7.49025C37.635 7.44225 37.7337 7.42885 37.8268 7.45293C37.9198 7.47702 37.9996 7.53666 38.0491 7.61903C38.0986 7.7014 38.1138 7.79991 38.0914 7.89337C38.069 7.98682 38.0108 8.06774 37.9294 8.11872L21.0781 18.612L38.4757 8.56532C38.5591 8.51924 38.6571 8.50739 38.749 8.5323C38.8409 8.5572 38.9195 8.6169 38.9682 8.69875C39.0169 8.7806 39.0319 8.87819 39.0099 8.97085C38.9879 9.06352 38.9307 9.144 38.8504 9.19525L29.0311 15.1822L39.1064 9.36539C39.1896 9.31738 39.2884 9.30398 39.3814 9.32806C39.4745 9.35215 39.5543 9.41179 39.6038 9.49417C39.6533 9.57654 39.6685 9.67505 39.6461 9.7685C39.6237 9.86195 39.5655 9.94287 39.484 9.99385L21.8459 20.9939L39.8661 10.5915C39.9075 10.5669 39.9534 10.5507 40.001 10.5438C40.0487 10.5369 40.0973 10.5395 40.144 10.5514C40.1906 10.5633 40.2345 10.5842 40.2731 10.6131C40.3117 10.6419 40.3442 10.6781 40.3688 10.7195C40.3934 10.7609 40.4096 10.8067 40.4165 10.8544C40.4234 10.9021 40.4208 10.9507 40.4089 10.9973C40.397 11.044 40.3761 11.0879 40.3472 11.1265C40.3184 11.1651 40.2822 11.1976 40.2408 11.2222L28.6417 18.3187L40.4359 11.5133C40.5195 11.4668 40.6179 11.4547 40.7103 11.4797C40.8026 11.5048 40.8815 11.5649 40.9301 11.6473C40.9788 11.7297 40.9932 11.8279 40.9705 11.9208C40.9478 12.0137 40.8896 12.0941 40.8084 12.1447L35.3334 15.4565L40.8392 12.2775C40.9231 12.2281 41.0231 12.214 41.1173 12.2383C41.2115 12.2627 41.2922 12.3234 41.3416 12.4073C41.391 12.4911 41.405 12.5911 41.3807 12.6853C41.3564 12.7795 41.2956 12.8602 41.2118 12.9096L38.9318 14.2824L41.1465 13.0042C41.2299 12.9581 41.3279 12.9463 41.4198 12.9712C41.5117 12.9961 41.5903 13.0558 41.639 13.1376C41.6877 13.2195 41.7027 13.3171 41.6807 13.4097C41.6587 13.5024 41.6015 13.5829 41.5212 13.6341L31.3704 19.8242L41.5476 13.9487C41.6313 13.899 41.7312 13.8846 41.8255 13.9086C41.8722 13.9205 41.916 13.9414 41.9546 13.9703C41.9932 13.9991 42.0257 14.0353 42.0503 14.0767C42.0749 14.1181 42.0911 14.1639 42.098 14.2116C42.1049 14.2593 42.1023 14.3079 42.0905 14.3545C42.0786 14.4012 42.0576 14.4451 42.0288 14.4837C41.9999 14.5223 41.9638 14.5548 41.9224 14.5794L31.4687 20.9667L41.9554 14.9123C42.0384 14.868 42.1353 14.8573 42.2261 14.8824C42.3168 14.9076 42.3944 14.9666 42.4427 15.0474C42.4911 15.1282 42.5065 15.2245 42.4858 15.3163C42.4651 15.4082 42.4099 15.4885 42.3316 15.5408L27.6348 24.6341L42.2766 16.1803C42.3599 16.1301 42.4598 16.1151 42.5542 16.1385C42.6486 16.162 42.7298 16.2219 42.78 16.3053C42.8302 16.3886 42.8452 16.4885 42.8218 16.5829C42.7983 16.6773 42.7383 16.7585 42.655 16.8087L25.5573 27.5154L42.644 17.6528C42.7276 17.6031 42.8275 17.5887 42.9218 17.6127C43.0161 17.6367 43.097 17.6971 43.1467 17.7808C43.1964 17.8644 43.2108 17.9643 43.1868 18.0586C43.1628 18.1529 43.1023 18.2338 43.0187 18.2835L34.2598 23.6346L42.82 18.6934C42.9031 18.6476 43.0008 18.6358 43.0924 18.6606C43.184 18.6853 43.2625 18.7446 43.3113 18.826C43.3601 18.9074 43.3755 19.0045 43.3541 19.097C43.3328 19.1895 43.2764 19.2701 43.1969 19.3219L28.2142 28.6807L42.9402 20.1791C43.0231 20.1354 43.1196 20.1251 43.2099 20.1503C43.3002 20.1755 43.3774 20.2343 43.4256 20.3147C43.4739 20.395 43.4895 20.4908 43.4694 20.5824C43.4492 20.6739 43.3947 20.7542 43.3172 20.8069L29.6368 29.3443L43.0568 21.5974C43.1401 21.5505 43.2385 21.5379 43.3309 21.5625C43.4233 21.587 43.5025 21.6466 43.5515 21.7287C43.6006 21.8107 43.6156 21.9087 43.5935 22.0017C43.5714 22.0947 43.5138 22.1754 43.433 22.2266L33.2771 28.5054L42.9791 22.9042C43.0624 22.854 43.1623 22.839 43.2567 22.8624C43.3035 22.8741 43.3475 22.8948 43.3862 22.9234C43.425 22.952 43.4577 22.988 43.4825 23.0292C43.5074 23.0705 43.5239 23.1162 43.531 23.1639C43.5382 23.2115 43.5359 23.2601 43.5243 23.3068C43.5127 23.3536 43.492 23.3976 43.4634 23.4363C43.4347 23.4751 43.3988 23.5078 43.3575 23.5327L31.2113 31.1432L42.8779 24.4075C42.961 24.361 43.0589 24.3486 43.151 24.3729C43.243 24.3973 43.322 24.4565 43.3712 24.5381C43.4203 24.6197 43.4358 24.7171 43.4144 24.8099C43.393 24.9027 43.3363 24.9835 43.2563 25.0353L31.7635 32.2718L42.567 26.0385C42.6496 25.9942 42.7461 25.9833 42.8365 26.008C42.927 26.0326 43.0045 26.091 43.0533 26.1711C43.102 26.2512 43.1182 26.3469 43.0985 26.4386C43.0789 26.5303 43.0249 26.6109 42.9476 26.664L30.8835 34.3867L42.1035 27.9114C42.1863 27.8643 42.2842 27.8512 42.3765 27.875C42.4688 27.8988 42.5481 27.9576 42.5978 28.0389C42.6475 28.1202 42.6635 28.2177 42.6426 28.3107C42.6216 28.4036 42.5653 28.4848 42.4856 28.5369L32.2783 35.0995L41.445 29.8093C41.5283 29.7623 41.6266 29.7498 41.719 29.7743C41.8114 29.7988 41.8906 29.8585 41.9396 29.9406C41.9887 30.0226 42.0038 30.1206 41.9817 30.2136C41.9595 30.3066 41.9019 30.3873 41.8212 30.4385L40.1 31.5084L40.8231 31.0904C40.9055 31.0427 41.0031 31.0288 41.0955 31.0518C41.1879 31.0748 41.2677 31.1328 41.3181 31.2136C41.3684 31.2943 41.3854 31.3915 41.3655 31.4846C41.3455 31.5776 41.2901 31.6593 41.211 31.7123L32.6618 37.4631L39.3542 33.5991C39.4368 33.5513 39.5347 33.5375 39.6273 33.5607C39.7199 33.5839 39.7997 33.6422 39.8499 33.7234C39.9002 33.8045 39.9168 33.902 39.8962 33.9952C39.8757 34.0884 39.8196 34.1699 39.74 34.2225L36.2266 36.5523L37.746 35.6723C37.8274 35.6256 37.9236 35.6118 38.0148 35.6339C38.106 35.656 38.1852 35.7121 38.2363 35.7909C38.2873 35.8696 38.3062 35.9649 38.2891 36.0572C38.2719 36.1494 38.2201 36.2316 38.1442 36.2868L35.0386 38.5374C35.1026 38.5698 35.1553 38.621 35.1896 38.6841C35.2383 38.7682 35.2516 38.8682 35.2266 38.9621C35.2016 39.056 35.1403 39.1362 35.0562 39.1849L30.5828 41.7692C30.5015 41.8159 30.4053 41.8296 30.3141 41.8076C30.2229 41.7855 30.1436 41.7293 30.0926 41.6506C30.0416 41.5718 30.0227 41.4765 30.0398 41.3843C30.0569 41.292 30.1088 41.2098 30.1846 41.1547L31.9835 39.8515L26.3368 43.1119C26.2543 43.1598 26.1563 43.1736 26.0638 43.1504C25.9712 43.1272 25.8913 43.0688 25.8411 42.9877C25.7909 42.9065 25.7743 42.809 25.7948 42.7158C25.8154 42.6226 25.8714 42.5411 25.9511 42.4886L29.466 40.1588L23.7929 43.4339C23.7106 43.4816 23.6129 43.4954 23.5205 43.4724C23.4281 43.4494 23.3483 43.3914 23.2979 43.3107C23.2476 43.2299 23.2306 43.1327 23.2505 43.0397C23.2705 42.9466 23.3259 42.865 23.405 42.812L31.9512 37.0612L20.842 43.4713C20.7863 43.5037 20.7231 43.5209 20.6586 43.5211Z" fill="#ECECEC"/>
<path d="M22.4312 40.6435C22.352 40.6437 22.2749 40.6181 22.2115 40.5708C22.148 40.5234 22.1015 40.4568 22.0791 40.3808C22.0566 40.3049 22.0594 40.2237 22.0869 40.1495C22.1144 40.0752 22.1652 40.0118 22.2318 39.9689L25.6608 37.7586L20.8736 40.5225C20.8324 40.5474 20.7866 40.5639 20.739 40.571C20.6913 40.5782 20.6428 40.5759 20.596 40.5643C20.5493 40.5527 20.5053 40.532 20.4665 40.5034C20.4278 40.4747 20.3951 40.4388 20.3702 40.3975C20.3454 40.3562 20.3289 40.3105 20.3217 40.2629C20.3146 40.2152 20.3168 40.1666 20.3285 40.1199C20.3401 40.0732 20.3608 40.0291 20.3894 39.9904C20.418 39.9517 20.454 39.9189 20.4952 39.8941L21.7734 39.0933L19.4906 40.4133C19.4075 40.4598 19.3096 40.4722 19.2175 40.4479C19.1254 40.4235 19.0465 40.3643 18.9973 40.2827C18.9482 40.2011 18.9326 40.1037 18.9541 40.0109C18.9755 39.9181 19.0322 39.8373 19.1122 39.7855L22.6483 37.5643L18.1904 40.1375C18.1074 40.1832 18.0101 40.1949 17.9187 40.1704C17.8273 40.1459 17.7489 40.087 17.6999 40.006C17.651 39.925 17.6352 39.8282 17.6559 39.7359C17.6767 39.6435 17.7323 39.5628 17.8112 39.5105L23.7747 35.7485L16.7758 39.7892C16.6925 39.8361 16.5941 39.8487 16.5017 39.8242C16.4093 39.7996 16.3302 39.74 16.2811 39.6579C16.232 39.5759 16.217 39.4779 16.2391 39.3849C16.2612 39.2919 16.3188 39.2112 16.3996 39.16L19.3468 37.3369L15.7425 39.4174C15.6597 39.4623 15.5628 39.4736 15.472 39.449C15.3811 39.4243 15.3031 39.3657 15.2543 39.2852C15.2055 39.2047 15.1895 39.1085 15.2096 39.0165C15.2298 38.9245 15.2846 38.8438 15.3626 38.7911L25.2487 32.5131L14.3301 38.8197C14.2468 38.87 14.1469 38.8851 14.0524 38.8618C13.9579 38.8384 13.8766 38.7784 13.8263 38.6951C13.776 38.6117 13.7609 38.5118 13.7843 38.4174C13.8077 38.3229 13.8676 38.2416 13.951 38.1913L23.4953 32.1933L13.1267 38.1788C13.0434 38.229 12.9435 38.244 12.8491 38.2206C12.7547 38.1971 12.6734 38.1371 12.6233 38.0538C12.5731 37.9704 12.5581 37.8706 12.5815 37.7762C12.605 37.6818 12.665 37.6005 12.7483 37.5503L23.2958 30.9276L11.9746 37.4631C11.8915 37.5089 11.7939 37.5206 11.7022 37.4959C11.6106 37.4712 11.5321 37.4119 11.4833 37.3305C11.4345 37.2491 11.4191 37.152 11.4405 37.0595C11.4618 36.967 11.5182 36.8864 11.5977 36.8346L20.1968 31.5011L11.0301 36.7935C10.9467 36.8436 10.8468 36.8585 10.7523 36.8349C10.6579 36.8113 10.5768 36.7512 10.5267 36.6678C10.4766 36.5843 10.4617 36.4844 10.4853 36.39C10.5089 36.2956 10.569 36.2144 10.6524 36.1643L21.0614 29.6831L10.1105 36.0067C10.0693 36.0316 10.0236 36.0482 9.97593 36.0555C9.92831 36.0627 9.87972 36.0606 9.83294 36.0491C9.78615 36.0375 9.7421 36.0169 9.70328 35.9884C9.66446 35.9599 9.63165 35.924 9.6067 35.8827C9.58176 35.8415 9.56518 35.7958 9.55791 35.7482C9.55064 35.7006 9.55282 35.652 9.56433 35.6052C9.57584 35.5584 9.59645 35.5143 9.62498 35.4755C9.65352 35.4367 9.68942 35.4039 9.73064 35.3789L24.2624 26.1727L9.0039 34.98C8.92061 35.0269 8.82227 35.0395 8.72987 35.0149C8.63746 34.9904 8.55829 34.9308 8.50923 34.8487C8.46016 34.7667 8.44509 34.6687 8.46722 34.5757C8.48936 34.4827 8.54694 34.402 8.6277 34.3508L18.1698 28.4548L8.2955 34.1572C8.21234 34.2005 8.11576 34.2103 8.02561 34.1845C7.93547 34.1588 7.8586 34.0995 7.81081 34.0189C7.76302 33.9382 7.74794 33.8423 7.76866 33.7509C7.78939 33.6595 7.84434 33.5794 7.92224 33.5273L11.0888 31.6015L7.7543 33.5265C7.67096 33.5767 7.5711 33.5917 7.47669 33.5683C7.38228 33.5448 7.30105 33.4849 7.25087 33.4015C7.20069 33.3182 7.18567 33.2183 7.20912 33.1239C7.23257 33.0295 7.29256 32.9483 7.3759 32.8981L21.12 24.2814L6.98577 32.4419C6.90258 32.4871 6.80517 32.4983 6.71391 32.4732C6.62265 32.4481 6.54462 32.3888 6.49612 32.3075C6.44763 32.2262 6.43243 32.1294 6.45371 32.0372C6.47499 31.945 6.5311 31.8645 6.6103 31.8127L14.586 26.9133L6.4651 31.6067C6.38147 31.6569 6.28133 31.6718 6.18671 31.6481C6.0921 31.6245 6.01075 31.5642 5.96057 31.4805C5.91039 31.3969 5.89549 31.2968 5.91914 31.2022C5.9428 31.1075 6.00307 31.0262 6.0867 30.976L19.492 22.5903L5.81757 30.4847C5.73404 30.5323 5.63514 30.5452 5.5422 30.5206C5.44926 30.496 5.36969 30.4358 5.32065 30.3531C5.27161 30.2704 5.25701 30.1718 5.28 30.0784C5.30299 29.9851 5.36173 29.9045 5.44357 29.854L8.63064 27.9173L5.50004 29.7271C5.4169 29.7729 5.31925 29.7847 5.22762 29.76C5.13599 29.7352 5.05751 29.676 5.0087 29.5946C4.95988 29.5132 4.94453 29.416 4.96586 29.3235C4.9872 29.2311 5.04356 29.1505 5.1231 29.0987L15.4 22.7333L5.06004 28.7027C4.9765 28.7503 4.87761 28.7632 4.78467 28.7386C4.69172 28.714 4.61216 28.6538 4.56312 28.5711C4.51408 28.4884 4.49948 28.3898 4.52247 28.2964C4.54546 28.2031 4.6042 28.1225 4.68604 28.072L7.92957 26.0993L4.7667 27.9305C4.68341 27.9774 4.58507 27.9899 4.49267 27.9654C4.40026 27.9409 4.32109 27.8812 4.27203 27.7992C4.22296 27.7171 4.20789 27.6191 4.23002 27.5261C4.25216 27.4331 4.30974 27.3524 4.3905 27.3013L13.1905 21.8746L4.5071 26.8855C4.42375 26.9316 4.32574 26.9434 4.23382 26.9185C4.14189 26.8936 4.06326 26.8339 4.01457 26.7521C3.96588 26.6702 3.95094 26.5726 3.97293 26.4799C3.99492 26.3873 4.0521 26.3068 4.13237 26.2555L9.68664 22.8551L4.2827 25.9747C4.19968 26.0221 4.1014 26.0353 4.00883 26.0113C3.91626 25.9873 3.83672 25.9281 3.78717 25.8463C3.73762 25.7645 3.72198 25.6666 3.74359 25.5735C3.7652 25.4803 3.82234 25.3993 3.90284 25.3477L18.2336 16.2375L4.0429 24.4295C3.96046 24.4698 3.86592 24.4777 3.77795 24.4516C3.68999 24.4256 3.61498 24.3675 3.56773 24.2889C3.52049 24.2102 3.50445 24.1167 3.52277 24.0268C3.54109 23.9369 3.59245 23.8572 3.6667 23.8033L16.9987 15.3201L3.91677 22.8719C3.83367 22.9157 3.73692 22.926 3.6465 22.9005C3.55607 22.8751 3.47886 22.8159 3.43079 22.7352C3.38272 22.6545 3.36746 22.5584 3.38816 22.4668C3.40886 22.3751 3.46394 22.295 3.54204 22.2427L7.3275 19.9188L3.9065 21.8937C3.824 21.9335 3.72957 21.941 3.6418 21.9147C3.55404 21.8885 3.47929 21.8303 3.43229 21.7516C3.38529 21.673 3.36943 21.5796 3.38784 21.4898C3.40625 21.4001 3.4576 21.3205 3.53177 21.2667L4.3267 20.7775L3.97837 20.9777C3.89538 21.0227 3.79826 21.0339 3.70721 21.0091C3.61616 20.9842 3.53819 20.9252 3.48954 20.8444C3.44088 20.7635 3.42528 20.667 3.44599 20.5749C3.4667 20.4828 3.52211 20.4023 3.6007 20.35L10.3804 16.1201L4.0737 19.7597C3.9906 19.8035 3.89386 19.8137 3.80343 19.7883C3.713 19.7628 3.63579 19.7036 3.58772 19.6229C3.53966 19.5422 3.5244 19.4461 3.5451 19.3545C3.5658 19.2629 3.62088 19.1827 3.69897 19.1305L4.32304 18.7469L4.2453 18.7917C4.16201 18.8386 4.06367 18.8511 3.97127 18.8266C3.87886 18.8021 3.79969 18.7424 3.75063 18.6604C3.70156 18.5783 3.68649 18.4803 3.70862 18.3873C3.73076 18.2943 3.78834 18.2136 3.8691 18.1625L5.29104 17.2825L4.5049 17.7357C4.42244 17.7799 4.32617 17.791 4.23582 17.7666C4.14547 17.7421 4.06788 17.6841 4.01895 17.6043C3.97001 17.5245 3.95343 17.4291 3.97261 17.3375C3.99179 17.2459 4.04527 17.1651 4.1221 17.1116L13.049 11.3183L5.06004 15.9353C4.97794 15.9797 4.88201 15.9911 4.79178 15.9673C4.70156 15.9434 4.62385 15.886 4.57448 15.8068C4.5251 15.7276 4.50779 15.6325 4.52607 15.541C4.54434 15.4495 4.59683 15.3684 4.67284 15.3142L13.3636 9.48054L6.0449 13.7053C5.96322 13.7505 5.86737 13.7629 5.77689 13.7398C5.6864 13.7168 5.60811 13.6602 5.55797 13.5814C5.50784 13.5026 5.48963 13.4077 5.50707 13.316C5.52452 13.2243 5.57629 13.1427 5.65184 13.0878L12.2914 8.44507L7.82837 11.0213C7.74765 11.0672 7.6525 11.0808 7.56215 11.0593C7.47179 11.0378 7.39295 10.9829 7.34156 10.9055C7.29017 10.8281 7.27006 10.7341 7.28528 10.6425C7.3005 10.5509 7.34992 10.4685 7.42357 10.4119L10.7236 7.90828C10.6524 7.891 10.588 7.85279 10.5387 7.79857C10.4894 7.74435 10.4575 7.6766 10.4471 7.60407C10.4366 7.53154 10.4482 7.45756 10.4802 7.39165C10.5123 7.32575 10.5633 7.27096 10.6268 7.23434L14.784 4.84001C14.8648 4.79406 14.9599 4.78046 15.0503 4.80195C15.1406 4.82344 15.2195 4.87842 15.2708 4.95579C15.3222 5.03315 15.3424 5.12714 15.3271 5.21876C15.3119 5.31038 15.2625 5.39282 15.1888 5.44941L12.5349 7.45801L19.2537 3.57867C19.3356 3.53004 19.4332 3.51519 19.5259 3.53726C19.6186 3.55934 19.699 3.61661 19.7502 3.69695C19.8013 3.77729 19.8192 3.87439 19.8001 3.9677C19.7809 4.06101 19.7262 4.1432 19.6475 4.19687L13.0057 8.84034L22.3975 3.41807C22.4798 3.37195 22.5767 3.35931 22.668 3.38278C22.7594 3.40625 22.8382 3.46403 22.8881 3.54411C22.9379 3.62418 22.955 3.72039 22.9357 3.81274C22.9165 3.90508 22.8624 3.98646 22.7847 4.03994L14.0918 9.87507L24.8938 3.64174C24.9763 3.59629 25.0732 3.58435 25.1643 3.60841C25.2554 3.63246 25.3337 3.69066 25.383 3.77094C25.4324 3.85121 25.4489 3.94739 25.4292 4.03954C25.4095 4.13168 25.3551 4.2127 25.2773 4.26581L16.3534 10.0562L26.6934 4.08321C26.7769 4.03332 26.8768 4.01866 26.9712 4.04245C27.0655 4.06624 27.1465 4.12654 27.1964 4.21007C27.2463 4.29361 27.261 4.39354 27.2372 4.48788C27.2134 4.58223 27.1531 4.66325 27.0696 4.71314L25.6513 5.58874L27.7574 4.37361C27.8405 4.32981 27.9373 4.31958 28.0277 4.34503C28.1181 4.37047 28.1953 4.42965 28.2434 4.51036C28.2915 4.59107 28.3067 4.68715 28.286 4.77878C28.2653 4.87041 28.2103 4.9506 28.1322 5.00281L27.4964 5.39294L28.6257 4.74174C28.7087 4.69679 28.8058 4.68556 28.8969 4.71041C28.9879 4.73525 29.0659 4.79425 29.1145 4.87512C29.1632 4.95599 29.1788 5.05251 29.1581 5.14459C29.1374 5.23667 29.082 5.31722 29.0034 5.36947L22.22 9.60081L29.7866 5.23307C29.8282 5.20847 29.8742 5.1923 29.9221 5.18549C29.9699 5.17868 30.0186 5.18136 30.0655 5.19337C30.1123 5.20539 30.1563 5.22652 30.1949 5.25554C30.2336 5.28456 30.2661 5.3209 30.2907 5.36251C30.3153 5.40411 30.3315 5.45015 30.3383 5.498C30.3451 5.54586 30.3425 5.59458 30.3304 5.6414C30.3184 5.68821 30.2973 5.7322 30.2683 5.77086C30.2393 5.80951 30.2029 5.84207 30.1613 5.86667L29.3796 6.34407L30.5874 5.64667C30.6709 5.59688 30.7708 5.58232 30.8651 5.60618C30.9593 5.63004 31.0403 5.69037 31.0901 5.77391C31.1399 5.85744 31.1544 5.95733 31.1306 6.05161C31.1067 6.14588 31.0464 6.22682 30.9628 6.27661L27.1678 8.60201L31.4087 6.15414C31.4916 6.10782 31.5892 6.09545 31.681 6.11962C31.7728 6.1438 31.8516 6.20265 31.9009 6.28377C31.9503 6.3649 31.9662 6.462 31.9453 6.55462C31.9245 6.64725 31.8686 6.72818 31.7893 6.78041L18.4551 15.2629L32.7448 7.01287C32.8277 6.96655 32.9253 6.95418 33.0171 6.97836C33.1089 7.00254 33.1878 7.06138 33.2371 7.14251C33.2864 7.22364 33.3023 7.32073 33.2815 7.41335C33.2607 7.50598 33.2047 7.58692 33.1254 7.63914L18.7939 16.7501L33.9174 8.01901C34.0008 7.97293 34.0988 7.96108 34.1907 7.98599C34.2827 8.01089 34.3613 8.07058 34.41 8.15244C34.4587 8.23429 34.4736 8.33188 34.4516 8.42454C34.4296 8.51721 34.3724 8.59769 34.2922 8.64894L28.7291 12.0545L34.6427 8.64087C34.6841 8.61617 34.7299 8.59986 34.7776 8.59287C34.8252 8.58587 34.8738 8.58834 34.9205 8.60012C34.9672 8.6119 35.0112 8.63277 35.0498 8.66153C35.0885 8.69029 35.1211 8.72638 35.1458 8.76774C35.1705 8.8091 35.1868 8.85493 35.1938 8.90259C35.2008 8.95026 35.1983 8.99884 35.1865 9.04555C35.1747 9.09226 35.1539 9.1362 35.1251 9.17485C35.0964 9.2135 35.0603 9.24611 35.0189 9.27081L26.227 14.6975L35.3467 9.42701C35.4302 9.37941 35.5291 9.36652 35.6221 9.39112C35.715 9.41573 35.7946 9.47585 35.8436 9.55855C35.8927 9.64125 35.9073 9.7399 35.8843 9.83326C35.8613 9.92662 35.8025 10.0072 35.7207 10.0577L32.4904 12.0267L35.8908 10.0635C35.9739 10.0192 36.0708 10.0085 36.1615 10.0336C36.2523 10.0588 36.3298 10.1179 36.3782 10.1986C36.4265 10.2794 36.442 10.3757 36.4213 10.4676C36.4006 10.5594 36.3454 10.6398 36.267 10.692L25.9798 17.0573L36.6132 10.9179C36.6966 10.8725 36.7943 10.8613 36.8858 10.8865C36.9774 10.9118 37.0555 10.9715 37.1039 11.0532C37.1522 11.1349 37.167 11.2322 37.1451 11.3246C37.1232 11.417 37.0663 11.4973 36.9864 11.5485L33.7957 13.4875L37.0451 11.6116C37.1284 11.5636 37.2271 11.5502 37.3202 11.5743C37.4132 11.5984 37.493 11.658 37.5425 11.7404C37.592 11.8228 37.6072 11.9213 37.5848 12.0147C37.5624 12.1082 37.5042 12.1891 37.4228 12.2401L24.0196 20.6228L37.7286 12.7079C37.8121 12.6582 37.912 12.6436 38.0063 12.6674C38.1005 12.6913 38.1815 12.7516 38.2313 12.8352C38.2811 12.9187 38.2956 13.0186 38.2718 13.1129C38.2479 13.2072 38.1876 13.2881 38.104 13.3379L30.14 18.2277L38.2067 13.5703C38.2897 13.5254 38.3868 13.5142 38.4779 13.539C38.5689 13.5639 38.6469 13.6228 38.6955 13.7037C38.7442 13.7846 38.7598 13.8811 38.7391 13.9732C38.7184 14.0653 38.663 14.1458 38.5844 14.1981L24.8351 22.8184L38.7266 14.7987C38.8098 14.7554 38.9064 14.7456 38.9965 14.7714C39.0867 14.7971 39.1635 14.8564 39.2113 14.937C39.2591 15.0177 39.2742 15.1136 39.2535 15.205C39.2328 15.2964 39.1778 15.3764 39.0999 15.4286L35.9334 17.3529L39.0449 15.5569C39.1282 15.51 39.2265 15.4975 39.3189 15.522C39.4113 15.5465 39.4905 15.6062 39.5396 15.6882C39.5886 15.7703 39.6037 15.8683 39.5816 15.9613C39.5594 16.0543 39.5019 16.135 39.4211 16.1861L29.876 22.0851L39.3676 16.6063C39.4505 16.5607 39.5478 16.549 39.6393 16.5735C39.7307 16.598 39.809 16.6569 39.858 16.7379C39.907 16.8189 39.9227 16.9157 39.902 17.008C39.8813 17.1003 39.8256 17.1811 39.7467 17.2333L25.2135 26.4389L39.7262 18.0605C39.8094 18.0125 39.9082 17.9991 40.0012 18.0232C40.0943 18.0473 40.1741 18.107 40.2236 18.1893C40.2731 18.2717 40.2883 18.3702 40.2659 18.4637C40.2435 18.5571 40.1853 18.638 40.1038 18.689L29.7044 25.1643L39.9315 19.2603C40.0146 19.2145 40.1123 19.2027 40.2039 19.2274C40.2956 19.2522 40.374 19.3115 40.4228 19.3929C40.4717 19.4742 40.487 19.5714 40.4657 19.6639C40.4443 19.7564 40.388 19.837 40.3084 19.8887L31.7006 25.2267L40.0261 20.4204C40.1092 20.3739 40.2071 20.3615 40.2992 20.3858C40.3912 20.4102 40.4702 20.4694 40.5194 20.551C40.5685 20.6325 40.584 20.73 40.5626 20.8228C40.5412 20.9156 40.4845 20.9964 40.4045 21.0481L29.8548 27.6738L40.1214 21.7463C40.2048 21.6961 40.3046 21.6811 40.399 21.7045C40.4935 21.728 40.5747 21.788 40.6249 21.8713C40.675 21.9546 40.6901 22.0545 40.6666 22.1489C40.6432 22.2433 40.5832 22.3246 40.4998 22.3747L30.9665 28.3639L40.0085 23.144C40.0912 23.1003 40.1875 23.0899 40.2777 23.1148C40.3678 23.1398 40.445 23.1983 40.4935 23.2783C40.5419 23.3583 40.5579 23.4539 40.5383 23.5453C40.5186 23.6368 40.4647 23.7173 40.3876 23.7703L30.4994 30.0476L39.886 24.6268C39.969 24.5836 40.0653 24.5737 40.1553 24.5992C40.2453 24.6247 40.3222 24.6837 40.3702 24.764C40.4181 24.8443 40.4336 24.9399 40.4134 25.0312C40.3932 25.1225 40.3389 25.2027 40.2615 25.2553L37.3267 27.0739L39.6154 25.7539C39.6985 25.7074 39.7964 25.695 39.8885 25.7194C39.9806 25.7437 40.0595 25.803 40.1087 25.8845C40.1579 25.9661 40.1734 26.0636 40.1519 26.1564C40.1305 26.2491 40.0738 26.3299 39.9938 26.3817L34.0267 30.1459L39.281 27.1128C39.3641 27.0663 39.462 27.0539 39.5541 27.0782C39.6462 27.1026 39.7251 27.1618 39.7743 27.2434C39.8235 27.325 39.839 27.4224 39.8175 27.5152C39.7961 27.608 39.7394 27.6888 39.6594 27.7405L36.127 29.9596L38.7882 28.424C38.8712 28.3791 38.9683 28.3678 39.0594 28.3927C39.1504 28.4175 39.2284 28.4765 39.2771 28.5574C39.3257 28.6383 39.3413 28.7348 39.3206 28.8269C39.2999 28.9189 39.2445 28.9995 39.1659 29.0517L37.8789 29.8584L38.28 29.6267C38.3629 29.5795 38.4608 29.5665 38.553 29.5903C38.6453 29.6141 38.7247 29.6729 38.7743 29.7542C38.824 29.8355 38.8401 29.933 38.8191 30.0259C38.7982 30.1189 38.7419 30.2001 38.6621 30.2522L35.233 32.4625L37.3802 31.2231C37.4627 31.1763 37.56 31.1631 37.6519 31.1865C37.7438 31.2099 37.8231 31.2679 37.8731 31.3485C37.9231 31.429 37.9399 31.5258 37.9201 31.6185C37.9003 31.7113 37.8453 31.7927 37.7667 31.8457L34.433 34.0677L36.0265 33.1467C36.1074 33.1 36.2031 33.0859 36.2941 33.1074C36.385 33.1289 36.4643 33.1842 36.5158 33.2622C36.5672 33.3402 36.587 33.4349 36.5711 33.5269C36.5551 33.619 36.5046 33.7015 36.4298 33.7575L33.3044 36.1042C33.3883 36.1335 33.459 36.1917 33.5038 36.2685C33.5525 36.3527 33.5656 36.4528 33.5405 36.5467C33.5153 36.6406 33.4539 36.7207 33.3696 36.7693L29.2175 39.16C29.1366 39.2067 29.0409 39.2208 28.95 39.1993C28.859 39.1778 28.7797 39.1224 28.7282 39.0445C28.6768 38.9665 28.657 38.8718 28.673 38.7798C28.6889 38.6877 28.7394 38.6052 28.8142 38.5491L31.1 36.8353L24.918 40.4067C24.8356 40.4536 24.7382 40.4667 24.6463 40.4433C24.5544 40.4199 24.4752 40.3619 24.4252 40.2813C24.3751 40.2008 24.3583 40.104 24.3781 40.0113C24.398 39.9186 24.4529 39.8371 24.5315 39.7841L27.8667 37.5613L22.6124 40.5937C22.5575 40.6261 22.495 40.6433 22.4312 40.6435Z" fill="#E1EFFF"/>
<path d="M21.3114 40.6215C21.233 40.622 21.1566 40.5974 21.0932 40.5513C21.0299 40.5053 20.983 40.4401 20.9593 40.3654C20.9357 40.2907 20.9367 40.2104 20.962 40.1363C20.9873 40.0621 21.0358 39.9981 21.1002 39.9534L25.8133 36.6579L19.3402 40.3979C19.2582 40.4441 19.1617 40.4571 19.0705 40.4342C18.9792 40.4112 18.9003 40.3541 18.85 40.2746C18.7997 40.1951 18.7819 40.0993 18.8002 40.0071C18.8186 39.9148 18.8717 39.8331 18.9486 39.7789L25.0976 35.5359L17.4482 39.9505C17.3653 39.9968 17.2677 40.0092 17.1759 39.985C17.0841 39.9609 17.0052 39.902 16.9559 39.8209C16.9066 39.7398 16.8907 39.6427 16.9115 39.55C16.9323 39.4574 16.9883 39.3765 17.0676 39.3243L18.9691 38.1062L16.2851 39.6557C16.2028 39.7045 16.1047 39.7191 16.0118 39.6966C15.9188 39.674 15.8383 39.6161 15.7875 39.535C15.7367 39.454 15.7196 39.3563 15.7398 39.2628C15.76 39.1693 15.8159 39.0874 15.8957 39.0346L23.3464 33.9966L14.718 38.9781C14.6356 39.023 14.5391 39.0345 14.4484 39.0104C14.3578 38.9863 14.2798 38.9283 14.2306 38.8485C14.1813 38.7686 14.1646 38.6729 14.1838 38.5811C14.203 38.4892 14.2566 38.4083 14.3337 38.3548L20.4042 34.3809L13.45 38.3951C13.367 38.4401 13.2699 38.4513 13.1789 38.4265C13.0878 38.4016 13.0098 38.3426 12.9612 38.2617C12.9125 38.1809 12.8969 38.0844 12.9176 37.9923C12.9384 37.9002 12.9938 37.8196 13.0724 37.7674L14.1086 37.1169L12.7072 37.9236C12.6246 37.9714 12.5266 37.9852 12.4341 37.962C12.3415 37.9388 12.2617 37.8805 12.2114 37.7993C12.1612 37.7182 12.1446 37.6207 12.1652 37.5275C12.1857 37.4343 12.2418 37.3528 12.3214 37.3003L19.995 32.2212L11.4715 37.1448C11.3893 37.1897 11.293 37.2014 11.2024 37.1775C11.1118 37.1537 11.0338 37.0961 10.9844 37.0165C10.9349 36.9369 10.9178 36.8415 10.9365 36.7497C10.9552 36.6579 11.0084 36.5768 11.085 36.5229L19.4384 30.9496L11.2053 35.7038C11.1225 35.7509 11.0246 35.764 10.9323 35.7402C10.84 35.7164 10.7607 35.6576 10.711 35.5763C10.6613 35.4949 10.6453 35.3975 10.6662 35.3045C10.6872 35.2116 10.7435 35.1304 10.8232 35.0783L15.2533 32.2241L11.2053 34.5598C11.1228 34.6088 11.0244 34.6235 10.9312 34.6008C10.8379 34.578 10.7573 34.5197 10.7067 34.4382C10.656 34.3567 10.6393 34.2586 10.6601 34.1649C10.6809 34.0713 10.7377 33.9895 10.8181 33.9372L16.9282 29.8635L11.2082 33.1679C11.1261 33.2141 11.0294 33.2269 10.9381 33.2037C10.8469 33.1805 10.768 33.123 10.7179 33.0433C10.6679 32.9635 10.6504 32.8675 10.6692 32.7752C10.688 32.6829 10.7416 32.6014 10.8188 32.5475L16.28 28.831L11.2933 31.7093C11.2118 31.7566 11.1153 31.7706 11.0237 31.7486C10.9321 31.7266 10.8525 31.6702 10.8014 31.5911C10.7503 31.512 10.7316 31.4162 10.7492 31.3237C10.7667 31.2311 10.8193 31.1489 10.8958 31.0941L15.9133 27.4868L11.649 29.9486C11.5682 29.9945 11.4731 30.0081 11.3827 29.9866C11.2924 29.9652 11.2135 29.9102 11.1622 29.8328C11.1108 29.7554 11.0906 29.6615 11.1059 29.5698C11.1211 29.4782 11.1705 29.3958 11.2442 29.3392L14.6439 26.7615L12.54 27.9781C12.4599 28.023 12.3659 28.0362 12.2766 28.0151C12.1873 27.994 12.1091 27.9402 12.0575 27.8643C12.0059 27.7884 11.9847 27.6959 11.998 27.6051C12.0112 27.5143 12.0581 27.4318 12.1293 27.3739L13.8504 26.0084C13.796 25.9764 13.751 25.9306 13.7199 25.8757C13.6715 25.7915 13.6585 25.6916 13.6836 25.5979C13.7088 25.5041 13.7701 25.4242 13.8541 25.3755L16.7992 23.6749C16.8792 23.6301 16.9732 23.6169 17.0625 23.6379C17.1519 23.659 17.23 23.7128 17.2816 23.7887C17.3332 23.8646 17.3545 23.9571 17.3412 24.0479C17.3279 24.1387 17.281 24.2213 17.2098 24.2792L16.4875 24.8527L19.3541 23.1983C19.4348 23.1517 19.5302 23.1376 19.6209 23.1589C19.7116 23.1801 19.7909 23.2351 19.8425 23.3127C19.8941 23.3903 19.9142 23.4848 19.8987 23.5767C19.8832 23.6687 19.8332 23.7513 19.7589 23.8077L16.3533 26.3861L21.9266 23.1733C22.0081 23.1261 22.1046 23.112 22.1962 23.134C22.2878 23.156 22.3674 23.2125 22.4185 23.2916C22.4696 23.3707 22.4883 23.4664 22.4708 23.559C22.4532 23.6515 22.4007 23.7337 22.3241 23.7886L17.3066 27.3915L24.5263 23.2225C24.6084 23.1748 24.7059 23.1608 24.7981 23.1836C24.8904 23.2063 24.9702 23.264 25.0207 23.3444C25.0713 23.4248 25.0887 23.5217 25.0692 23.6147C25.0498 23.7077 24.995 23.7895 24.9164 23.8429L19.4538 27.5579L26.4095 23.54C26.4917 23.4951 26.588 23.4834 26.6786 23.5072C26.7692 23.5311 26.8472 23.5887 26.8966 23.6683C26.9461 23.7478 26.9632 23.8433 26.9445 23.9351C26.9257 24.0269 26.8726 24.108 26.796 24.1619L20.68 28.2414L27.8666 24.0944C27.9494 24.0473 28.0473 24.0342 28.1396 24.058C28.2319 24.0818 28.3113 24.1406 28.3609 24.2219C28.4106 24.3033 28.4267 24.4007 28.4057 24.4937C28.3848 24.5866 28.3284 24.6678 28.2487 24.7199L23.8172 27.5733L28.8867 24.6466C28.9691 24.5997 29.0665 24.5866 29.1584 24.61C29.2502 24.6333 29.3295 24.6914 29.3795 24.7719C29.4295 24.8525 29.4464 24.9493 29.4265 25.042C29.4067 25.1347 29.3517 25.2161 29.2732 25.2692L20.922 30.8425L30.0314 25.5831C30.1138 25.5362 30.2112 25.5231 30.3031 25.5464C30.395 25.5698 30.4742 25.6278 30.5242 25.7084C30.5742 25.789 30.5911 25.8857 30.5713 25.9785C30.5514 26.0712 30.4965 26.1526 30.4179 26.2057L22.7392 31.2877L30.9085 26.5709C30.9918 26.5207 31.0917 26.5057 31.1861 26.5291C31.2805 26.5526 31.3617 26.6126 31.4119 26.6959C31.4621 26.7792 31.4771 26.8791 31.4537 26.9735C31.4302 27.0679 31.3702 27.1491 31.2869 27.1993L30.2602 27.8454L31.3837 27.1971C31.4662 27.1517 31.5631 27.1397 31.6542 27.1638C31.7453 27.1878 31.8236 27.2461 31.873 27.3263C31.9223 27.4066 31.9388 27.5028 31.9191 27.5949C31.8995 27.6871 31.845 27.7681 31.7672 27.8212L25.696 31.7951L31.9293 28.1981C32.0115 28.1513 32.1087 28.138 32.2004 28.1611C32.2922 28.1843 32.3715 28.242 32.4217 28.3222C32.4719 28.4024 32.4891 28.4989 32.4698 28.5916C32.4504 28.6842 32.396 28.7658 32.3179 28.8193L24.8651 33.8551L32.4059 29.5013C32.4889 29.4526 32.5877 29.4386 32.6809 29.4621C32.7742 29.4856 32.8545 29.5448 32.9045 29.6269C32.9545 29.7091 32.9703 29.8076 32.9483 29.9012C32.9264 29.9949 32.8686 30.0761 32.7873 30.1275L30.8894 31.3434L32.6333 30.3373C32.7152 30.291 32.8117 30.278 32.903 30.3009C32.9942 30.3239 33.0731 30.381 33.1234 30.4605C33.1737 30.54 33.1915 30.6358 33.1732 30.728C33.1549 30.8203 33.1018 30.902 33.0249 30.9562L26.8708 35.2L32.7785 31.79C32.8602 31.7448 32.956 31.7324 33.0465 31.7554C33.137 31.7784 33.2153 31.8351 33.2654 31.9139C33.3155 31.9926 33.3338 32.0875 33.3163 32.1793C33.2989 32.271 33.2471 32.3526 33.1716 32.4075L28.4592 35.7031L32.7975 33.198C32.8781 33.1518 32.9732 33.1378 33.0636 33.159C33.1541 33.1801 33.2331 33.2348 33.2848 33.312C33.3364 33.3892 33.3569 33.4831 33.342 33.5748C33.3271 33.6665 33.278 33.7491 33.2045 33.8059L28.982 37.0715L32.8012 34.8663C32.8827 34.8191 32.9792 34.805 33.0708 34.827C33.1624 34.849 33.242 34.9054 33.2931 34.9846C33.3442 35.0637 33.3629 35.1594 33.3454 35.252C33.3278 35.3445 33.2753 35.4267 33.1987 35.4816L32.8943 35.7016C32.972 35.6814 33.0542 35.6872 33.1283 35.7182C33.2023 35.7492 33.2642 35.8037 33.3043 35.8732C33.3529 35.9574 33.3661 36.0575 33.3409 36.1514C33.3157 36.2453 33.2543 36.3254 33.1701 36.3741L27.0196 39.9241C26.9377 39.9771 26.8382 39.9954 26.7428 39.975C26.6474 39.9546 26.5641 39.8971 26.5111 39.8152C26.4581 39.7333 26.4398 39.6338 26.4602 39.5384C26.4806 39.443 26.5381 39.3596 26.62 39.3067L26.8143 39.1666L24.64 40.4264C24.5595 40.4724 24.4646 40.4861 24.3745 40.465C24.2843 40.4438 24.2054 40.3893 24.1538 40.3124C24.1022 40.2355 24.0815 40.1419 24.0961 40.0504C24.1106 39.9589 24.1593 39.8763 24.2322 39.8193L28.4533 36.5537L21.494 40.5717C21.4386 40.6042 21.3756 40.6214 21.3114 40.6215Z" fill="#F2CF7E"/>
<path d="M22.3446 25.96C22.2734 25.9599 22.2039 25.9392 22.1443 25.9002C22.0848 25.8613 22.0378 25.8059 22.0092 25.7408C21.9806 25.6756 21.9716 25.6036 21.9832 25.5334C21.9948 25.4632 22.0266 25.3979 22.0747 25.3455L22.2595 25.1438L21.2043 25.7525C21.1252 25.7973 21.0323 25.8112 20.9436 25.7914C20.8549 25.7716 20.7767 25.7196 20.7242 25.6454C20.6716 25.5712 20.6485 25.4802 20.6593 25.3899C20.6701 25.2997 20.7141 25.2167 20.7826 25.157L20.9373 25.0235L20.5311 25.2582C20.4543 25.3027 20.364 25.3179 20.2769 25.3009C20.1897 25.2839 20.1117 25.2359 20.0573 25.1658C20.0029 25.0955 19.9758 25.0078 19.9812 24.919C19.9866 24.8302 20.0241 24.7465 20.0867 24.6833L22.0095 22.7333L20.0199 23.8795C19.9414 23.9242 19.8491 23.9383 19.7607 23.9191C19.6724 23.8999 19.5943 23.8488 19.5413 23.7755C19.4884 23.7022 19.4644 23.612 19.474 23.5221C19.4836 23.4322 19.526 23.349 19.5931 23.2885L19.8989 23.0157C19.8383 23.0297 19.7751 23.0281 19.7152 23.011C19.6554 22.9939 19.6009 22.9618 19.5569 22.9177C19.5128 22.8737 19.4808 22.8192 19.4636 22.7594C19.4465 22.6995 19.4449 22.6363 19.4589 22.5757L19.6885 21.5329C19.6236 21.5084 19.567 21.4661 19.5252 21.4107C19.4835 21.3554 19.4582 21.2893 19.4525 21.2203C19.4467 21.1512 19.4607 21.0819 19.4927 21.0204C19.5247 20.9589 19.5735 20.9077 19.6335 20.8729L20.0001 20.6595C20.0617 20.624 20.1322 20.6072 20.2031 20.6111C20.274 20.615 20.3423 20.6394 20.3996 20.6813C20.457 20.7233 20.5009 20.7809 20.526 20.8474C20.5512 20.9138 20.5565 20.9861 20.5413 21.0555L20.3507 21.9215L22.5602 20.6463C22.6388 20.6009 22.7314 20.5863 22.8202 20.6052C22.9089 20.6242 22.9875 20.6754 23.0406 20.7489C23.0938 20.8224 23.1179 20.9131 23.1081 21.0033C23.0983 21.0935 23.0554 21.1769 22.9877 21.2373L22.745 21.4537L23.9865 20.7372C24.0634 20.6934 24.1534 20.6789 24.2401 20.6963C24.3268 20.7137 24.4043 20.7618 24.4583 20.8318C24.5123 20.9018 24.5392 20.989 24.5341 21.0772C24.5289 21.1655 24.492 21.2489 24.4302 21.3121L22.5133 23.2635L23.9931 22.4099C24.0722 22.3651 24.1651 22.3512 24.2538 22.371C24.3425 22.3908 24.4207 22.4428 24.4732 22.517C24.5258 22.5912 24.5489 22.6822 24.5381 22.7725C24.5273 22.8627 24.4833 22.9457 24.4148 23.0054L24.1171 23.2613C24.1905 23.2554 24.264 23.2717 24.328 23.3082C24.392 23.3446 24.4435 23.3995 24.4759 23.4657C24.5083 23.5318 24.52 23.6062 24.5095 23.6791C24.4989 23.752 24.4667 23.8201 24.417 23.8744L23.9088 24.4273C23.9719 24.4536 24.0263 24.4969 24.0661 24.5525C24.1058 24.608 24.1293 24.6736 24.1338 24.7417C24.1383 24.8099 24.1237 24.8779 24.0915 24.9382C24.0594 24.9985 24.0111 25.0486 23.9521 25.0829L22.5279 25.9072C22.4726 25.9409 22.4093 25.9591 22.3446 25.96Z" fill="#E4AE80"/>
<path d="M21.5372 22.2596C21.4612 22.2596 21.3872 22.236 21.3252 22.1921C21.2632 22.1483 21.2164 22.0862 21.1912 22.0146C21.166 21.9429 21.1637 21.8652 21.1845 21.7922C21.2054 21.7192 21.2484 21.6544 21.3076 21.6069L22.2258 20.8692L20.6381 21.7851C20.5583 21.8301 20.4645 21.8436 20.3753 21.8229C20.286 21.8022 20.2078 21.7488 20.1559 21.6733C20.104 21.5978 20.0823 21.5056 20.095 21.4148C20.1077 21.3241 20.1539 21.2414 20.2245 21.183L22.9268 19.0028L19.6921 20.8699C19.6111 20.916 19.5156 20.9294 19.4251 20.9076C19.3345 20.8858 19.2556 20.8304 19.2045 20.7525C19.1533 20.6747 19.1337 20.5802 19.1496 20.4885C19.1656 20.3967 19.2158 20.3144 19.2902 20.2583L22.3666 17.9813L19.0959 19.8667C19.0145 19.9127 18.9185 19.9259 18.8277 19.9035C18.7369 19.8811 18.658 19.8248 18.6074 19.7462C18.5567 19.6676 18.5379 19.5726 18.555 19.4806C18.5721 19.3886 18.6236 19.3066 18.6992 19.2514L21.4301 17.2986L18.4366 19.0263C18.3545 19.0789 18.2548 19.0967 18.1595 19.0758C18.0642 19.0549 17.9811 18.997 17.9284 18.9148C17.8758 18.8327 17.858 18.733 17.8789 18.6377C17.8998 18.5424 17.9577 18.4593 18.0399 18.4067L20.3609 16.7691L17.8294 18.2299C17.7485 18.275 17.6535 18.2878 17.5635 18.2656C17.4735 18.2435 17.3953 18.1881 17.3445 18.1107C17.2936 18.0332 17.274 17.9393 17.2896 17.848C17.3052 17.7567 17.3547 17.6746 17.4283 17.6183L21.433 14.6469L17.3997 16.9745C17.3177 17.0179 17.2222 17.0286 17.1326 17.0044C17.043 16.9802 16.9659 16.9229 16.9169 16.8441C16.8678 16.7653 16.8505 16.6708 16.8684 16.5797C16.8863 16.4886 16.938 16.4077 17.0132 16.3533L17.143 16.2668C17.0597 16.302 16.9664 16.3051 16.8809 16.2757C16.7954 16.2462 16.7238 16.1862 16.6799 16.1071C16.636 16.0281 16.6228 15.9356 16.6429 15.8475C16.663 15.7593 16.715 15.6817 16.7888 15.6295L19.8938 13.3965L16.5835 15.3076C16.5029 15.3532 16.408 15.3666 16.3179 15.3451C16.2278 15.3236 16.1492 15.2689 16.0978 15.1918C16.0464 15.1147 16.0262 15.021 16.041 14.9296C16.0559 14.8382 16.1048 14.7557 16.178 14.6989L20.3235 11.5346L16.3386 13.835C16.2571 13.8811 16.1612 13.8942 16.0704 13.8718C15.9795 13.8494 15.9007 13.7932 15.85 13.7145C15.7993 13.6359 15.7806 13.5409 15.7977 13.4489C15.8147 13.3569 15.8663 13.275 15.9418 13.2198L17.795 11.8946L17.3594 12.1455C17.2794 12.1915 17.1851 12.2057 17.0951 12.1852C17.0052 12.1648 16.9263 12.1112 16.8741 12.0351C16.8219 11.9591 16.8003 11.8661 16.8136 11.7749C16.8269 11.6836 16.8741 11.6007 16.9458 11.5427L18.7212 10.12L17.6322 10.7485C17.554 10.7968 17.4606 10.814 17.3704 10.7967C17.2801 10.7795 17.1997 10.729 17.1449 10.6552C17.0901 10.5814 17.0651 10.4898 17.0746 10.3984C17.0842 10.3071 17.1277 10.2226 17.1966 10.1618L18.2724 9.14465C18.2014 9.12714 18.1373 9.08883 18.0883 9.03463C18.0393 8.98043 18.0076 8.91281 17.9972 8.84046C17.9869 8.76811 17.9984 8.69432 18.0303 8.62857C18.0623 8.56282 18.1131 8.50811 18.1763 8.47145L20.289 7.25192C20.3672 7.20359 20.4606 7.18635 20.5508 7.20362C20.6411 7.22089 20.7216 7.2714 20.7763 7.34517C20.8311 7.41893 20.8562 7.51057 20.8466 7.60194C20.837 7.69332 20.7935 7.77777 20.7246 7.83858L19.9678 8.55358L22.4612 7.11552C22.5412 7.06828 22.6362 7.05321 22.727 7.07335C22.8177 7.0935 22.8974 7.14735 22.95 7.22403C23.0025 7.3007 23.024 7.39448 23.01 7.48637C22.9961 7.57827 22.9477 7.66144 22.8748 7.71905L21.1023 9.14612L23.9579 7.49758C24.0394 7.45156 24.1353 7.4384 24.2261 7.4608C24.317 7.48321 24.3958 7.53948 24.4465 7.6181C24.4972 7.69671 24.5159 7.79174 24.4988 7.88371C24.4818 7.97569 24.4302 8.05766 24.3546 8.11285L22.4978 9.44018L24.9032 8.05272C24.9838 8.00613 25.0792 7.99198 25.1699 8.01314C25.2606 8.0343 25.3399 8.08919 25.3916 8.16666C25.4433 8.24413 25.4636 8.33837 25.4483 8.43025C25.4331 8.52214 25.3834 8.60477 25.3095 8.66138L21.1654 11.8235L25.88 9.10138C25.9615 9.05414 26.058 9.04006 26.1496 9.06208C26.2412 9.08409 26.3208 9.14051 26.3719 9.21963C26.423 9.29874 26.4417 9.3945 26.4241 9.48703C26.4065 9.57957 26.354 9.66179 26.2775 9.71665L23.1733 11.9467L26.3603 10.1061C26.4012 10.0806 26.4467 10.0634 26.4942 10.0555C26.5417 10.0476 26.5903 10.0492 26.6373 10.0601C26.6842 10.071 26.7285 10.091 26.7677 10.119C26.8068 10.147 26.8401 10.1825 26.8656 10.2234C26.8911 10.2643 26.9082 10.3098 26.9161 10.3573C26.924 10.4048 26.9225 10.4534 26.9116 10.5003C26.9007 10.5472 26.8806 10.5915 26.8526 10.6307C26.8246 10.6699 26.7891 10.7032 26.7483 10.7287L26.6309 10.8064C26.7133 10.7706 26.8059 10.7663 26.8912 10.7943C26.9765 10.8222 27.0486 10.8805 27.0938 10.9581C27.139 11.0357 27.1542 11.1271 27.1364 11.2151C27.1187 11.3031 27.0693 11.3816 26.9976 11.4356L22.9899 14.4085L26.9866 12.1C27.0682 12.0541 27.1643 12.0412 27.2551 12.0639C27.3459 12.0866 27.4246 12.1432 27.4751 12.2221C27.5255 12.3009 27.5439 12.3961 27.5264 12.4881C27.5089 12.58 27.457 12.6618 27.3811 12.7167L25.0601 14.3542L27.596 12.8876C27.6774 12.8416 27.7734 12.8284 27.8642 12.8508C27.955 12.8732 28.0339 12.9295 28.0845 13.0081C28.1352 13.0867 28.154 13.1817 28.1369 13.2737C28.1198 13.3657 28.0683 13.4477 27.9927 13.5029L25.2611 15.4557L27.552 14.1357C27.633 14.0897 27.7285 14.0762 27.819 14.098C27.9096 14.1198 27.9885 14.1753 28.0396 14.2531C28.0908 14.331 28.1104 14.4254 28.0945 14.5172C28.0785 14.609 28.0283 14.6913 27.9539 14.7473L24.8812 17.0251L26.6412 16.0086C26.721 15.9637 26.8148 15.9502 26.904 15.9709C26.9933 15.9916 27.0715 16.045 27.1234 16.1205C27.1753 16.196 27.197 16.2882 27.1843 16.3789C27.1716 16.4697 27.1254 16.5523 27.0548 16.6107L24.3539 18.7931L25.9944 17.8464C26.0743 17.8004 26.1687 17.7862 26.2586 17.8066C26.3486 17.827 26.4275 17.8806 26.4797 17.9567C26.5319 18.0328 26.5535 18.1257 26.5402 18.217C26.5269 18.3082 26.4797 18.3912 26.408 18.4492L24.9091 19.6533C24.9996 19.6793 25.0764 19.7395 25.1232 19.8212C25.1718 19.9055 25.185 20.0055 25.1598 20.0995C25.1346 20.1934 25.0732 20.2735 24.989 20.3221L21.7205 22.209C21.6649 22.2417 21.6017 22.2591 21.5372 22.2596Z" fill="#F0BF93"/>
<path d="M3.23403 33.0909C5.70308 37.1551 9.4293 40.3039 13.8483 42.0606C18.2674 43.8172 23.1385 44.0859 27.7239 42.8259C32.3094 41.566 36.3593 38.8461 39.2603 35.0781C42.1614 31.3101 43.7555 26.6994 43.8013 21.9443C43.5835 12.7959 38.016 4.54667 29.2234 1.55467C25.0896 0.176805 20.6423 0.0430049 16.4332 1.16988C12.2242 2.29675 8.43858 4.63469 5.54623 7.89361C2.57154 11.3229 0.748246 15.5993 0.333412 20.12C-0.0814224 24.6407 0.933133 29.1776 3.23403 33.0909ZM22.836 1.10441C34.0436 1.65734 42.4696 11.0469 42.7321 22.0528C42.4556 33.6659 33.1027 43.4544 21.164 42.8956C10.1501 42.3793 1.2819 32.9267 1.26797 21.9472C1.25403 10.34 11.1203 0.527273 22.836 1.10441Z" fill="black"/>
<path d="M3.30963 24.6246C3.6393 27.018 4.44205 29.3219 5.67112 31.402C6.90018 33.482 8.53097 35.2966 10.4684 36.74V36.8009C10.4684 36.8669 10.5572 36.8984 10.6789 36.905C13.9166 39.277 17.8009 40.6045 21.8131 40.7103C21.8307 40.7103 21.849 40.7037 21.8666 40.703C21.894 40.7078 21.9217 40.711 21.9495 40.7125C25.8518 40.6233 29.6312 39.3298 32.7698 37.0092C33.0866 37.0605 33.5354 36.8882 33.5354 36.6088C33.5354 36.5398 33.5354 36.4694 33.5354 36.3998C41.902 29.5409 44.061 16.082 34.3289 7.78728C21.4934 -3.15333 1.02163 7.80781 3.30963 24.6246ZM11.531 32.1611C11.6924 27.7391 14.7174 24.0812 19.2728 23.7424C19.2765 23.7864 19.2728 23.8312 19.2802 23.8752C19.4268 25.3704 20.7556 26.0436 22.1402 25.9036C22.7257 25.8897 23.2904 25.6837 23.7473 25.3173C24.2042 24.9509 24.528 24.4444 24.6687 23.8759C26.5553 24.0432 28.3331 24.8314 29.7238 26.1171C31.1145 27.4028 32.0395 29.1135 32.354 30.9812C32.5428 32.7815 32.5808 34.5945 32.4677 36.4012C29.4561 38.6062 25.8455 39.844 22.1145 39.9506C18.3006 39.8389 14.6101 38.5741 11.5296 36.3228C11.5252 34.9375 11.4812 33.5449 11.531 32.1611ZM26.505 12.6045L26.5145 12.6111C26.5298 12.6223 26.5457 12.6326 26.5622 12.6419C28.3134 13.3452 25.2422 19.1312 24.4238 19.7604C21.2653 22.1804 19.4862 20.0061 18.2124 17.8537C17.6991 16.9906 16.1459 13.0915 17.372 12.5987C17.4487 12.5689 17.5165 12.5201 17.5691 12.4568C17.6217 12.3936 17.6574 12.318 17.6727 12.2371C17.6824 11.0896 18.1476 9.993 18.9659 9.18847C19.7842 8.38394 20.8885 7.93742 22.036 7.94714C23.1835 7.95687 24.2802 8.42204 25.0847 9.24032C25.8892 10.0586 26.3358 11.163 26.326 12.3105C26.326 12.3229 26.3341 12.3303 26.3356 12.342C26.3319 12.3981 26.3465 12.454 26.377 12.5012C26.4075 12.5485 26.4523 12.5847 26.505 12.6045ZM23.6868 21.9025C23.7344 23.5503 23.7212 26.0583 21.5711 25.2978C20.1998 24.8124 20.232 23.1213 20.2966 21.7433C20.7804 22.1071 21.3625 22.3168 21.9671 22.3451C22.5718 22.3735 23.171 22.2193 23.6868 21.9025ZM21.882 4.07221C26.4614 4.12177 30.8515 5.9061 34.1669 9.0653C37.4824 12.2245 39.4764 16.5235 39.7468 21.0951C39.8995 23.8179 39.4197 26.5392 38.3449 29.0456C37.27 31.552 35.6294 33.7755 33.5516 35.5418C33.6029 33.2428 33.732 30.8162 32.8417 28.6946C32.1471 27.1035 31.0204 25.739 29.5895 24.7558C28.1586 23.7726 26.4808 23.2102 24.7464 23.1323C24.7758 22.4217 24.742 21.7008 24.7354 20.9917C24.8337 20.8795 24.932 20.76 25.0288 20.6316C26.0904 19.2119 26.97 17.6648 27.6468 16.0263C28.2481 14.6256 29.0357 12.837 27.382 12.0091C27.3222 11.0102 26.9896 10.0469 26.4204 9.22397C25.8511 8.40102 25.0671 7.74996 24.1536 7.34163C23.24 6.93329 22.232 6.78334 21.2392 6.90807C20.2464 7.03281 19.3068 7.42746 18.5226 8.04908C17.0655 9.15348 16.8477 10.8885 16.2141 12.2987C15.4111 14.0844 15.8885 15.1888 16.6651 17.0016C17.2883 18.483 18.1897 19.8313 19.3205 20.9734C19.2891 21.0101 19.271 21.0563 19.2692 21.1046C19.2692 21.8255 19.2237 22.5661 19.2464 23.2943C17.6882 23.4045 16.18 23.8915 14.8515 24.7134C13.523 25.5352 12.414 26.6674 11.6198 28.0126C10.3306 30.3014 10.3988 32.9076 10.4464 35.4626C6.9851 32.5242 4.78637 28.3672 4.3055 23.8524C3.1967 13.5183 11.4247 4.07734 21.882 4.07221Z" fill="black"/>
<path d="M21.5974 31.3903C21.4292 31.1073 21.1859 30.8762 20.8946 30.7227C20.6033 30.5692 20.2752 30.4993 19.9466 30.5206C19.6158 30.5226 19.2891 30.5943 18.9878 30.7308C18.6864 30.8674 18.4172 31.0659 18.1976 31.3133C17.8744 31.7723 17.7335 32.3351 17.8024 32.8922C17.7322 33.4497 17.788 34.0158 17.9659 34.5488C18.123 34.8398 18.358 35.0814 18.6446 35.2464C18.9313 35.4114 19.2582 35.4933 19.5888 35.4831C19.6114 35.481 19.634 35.4775 19.6562 35.4728C19.6804 35.4728 19.6951 35.4765 19.7222 35.4728C20.0787 35.4616 20.4278 35.3682 20.7422 35.1999C21.0566 35.0316 21.328 34.793 21.535 34.5026C21.7751 34.0191 21.8665 33.4753 21.7976 32.9399C21.8645 32.4147 21.7955 31.8812 21.5974 31.3903ZM19.9466 34.9067C19.0872 34.859 18.8716 33.9533 18.865 33.2589C18.8591 32.6187 18.6985 31.6074 19.349 31.2422C20.8596 30.3952 21.4294 34.6515 19.9466 34.9067Z" fill="black"/>
<path d="M24.3951 31.8267V34.9632C24.2699 34.9602 24.1454 34.9819 24.0286 35.0271C23.9118 35.0723 23.8051 35.14 23.7145 35.2264C23.5855 35.423 23.8267 35.4464 23.9778 35.4464H25.4445C25.5741 35.451 25.7034 35.4299 25.8248 35.3843C25.9463 35.3388 26.0575 35.2697 26.1521 35.181C26.2812 34.9844 26.0399 34.961 25.8889 34.961H25.4716V30.7604C25.4716 30.2331 24.7243 30.4047 24.4882 30.6409L23.7549 31.3742C23.3728 31.7533 23.9741 31.9455 24.3951 31.8267Z" fill="black"/>
</g>
<defs>
<clipPath id="clip0_160_2085">
<rect width="44" height="44" fill="white"/>
</clipPath>
</defs>
</svg>
