<svg width="44" height="44" viewBox="0 0 44 44" fill="none" xmlns="http://www.w3.org/2000/svg">
<g clip-path="url(#clip0_160_1926)">
<path d="M41.0278 43.4786C40.9565 43.4786 40.8869 43.4577 40.8273 43.4187C40.7677 43.3797 40.7208 43.3242 40.6922 43.2589C40.6637 43.1937 40.6547 43.1215 40.6665 43.0513C40.6783 42.981 40.7103 42.9157 40.7586 42.8634L41.3453 42.2298L39.754 43.1486C39.6741 43.1944 39.58 43.2085 39.4902 43.1881C39.4005 43.1676 39.3217 43.1142 39.2695 43.0384C39.2174 42.9626 39.1956 42.8699 39.2086 42.7788C39.2216 42.6877 39.2683 42.6048 39.3396 42.5466L39.413 42.485L38.6063 42.9521C38.5276 42.9971 38.4349 43.0112 38.3464 42.9919C38.2578 42.9726 38.1795 42.9212 38.1266 42.8475C38.0737 42.7738 38.05 42.6832 38.0601 42.5931C38.0701 42.503 38.1132 42.4198 38.181 42.3596L40.2233 40.5644L36.6006 42.6558C36.5195 42.7023 36.4238 42.716 36.3329 42.6942C36.242 42.6724 36.1629 42.6168 36.1117 42.5386C36.0604 42.4604 36.041 42.3656 36.0573 42.2736C36.0737 42.1816 36.1245 42.0993 36.1995 42.0435L37.8004 40.8614L35.0276 42.46C34.9472 42.5059 34.8523 42.5197 34.7621 42.4986C34.672 42.4774 34.5931 42.4229 34.5415 42.346C34.4898 42.2691 34.4692 42.1755 34.4838 42.084C34.4983 41.9925 34.5469 41.9099 34.6199 41.8528L38.6804 38.72L32.6289 42.2136C32.5473 42.2595 32.4512 42.2724 32.3604 42.2497C32.2696 42.227 32.1909 42.1704 32.1404 42.0915C32.09 42.0127 32.0716 41.9175 32.0891 41.8255C32.1065 41.7336 32.1585 41.6518 32.2344 41.5969L36.4342 38.6335L30.5242 42.0457C30.4424 42.0927 30.3456 42.1063 30.2539 42.0837C30.1623 42.0611 30.0829 42.004 30.0323 41.9244C29.9817 41.8448 29.9637 41.7487 29.9821 41.6561C30.0005 41.5636 30.0539 41.4817 30.1312 41.4275L36.0433 37.2988L28.0712 41.9012C27.9889 41.9474 27.8921 41.96 27.8007 41.9365C27.7093 41.913 27.6305 41.8553 27.5807 41.7752C27.5308 41.6951 27.5137 41.5989 27.533 41.5066C27.5522 41.4142 27.6063 41.3328 27.684 41.2794L33.9834 37.0532L25.74 41.8147C25.6572 41.8642 25.5584 41.8792 25.4647 41.8563C25.371 41.8335 25.2901 41.7747 25.2395 41.6926C25.1889 41.6106 25.1726 41.5119 25.1942 41.4179C25.2158 41.324 25.2736 41.2423 25.355 41.1906L32.1398 36.7466L23.4373 41.77C23.3544 41.8156 23.257 41.8273 23.1656 41.8028C23.0742 41.7783 22.9958 41.7194 22.9468 41.6384C22.8979 41.5574 22.8821 41.4606 22.9029 41.3683C22.9236 41.276 22.9793 41.1952 23.0582 41.143L26.9793 38.6724L21.6194 41.7663C21.5363 41.8128 21.4384 41.8252 21.3463 41.8009C21.2542 41.7765 21.1753 41.7173 21.1261 41.6357C21.0769 41.5542 21.0614 41.4567 21.0829 41.3639C21.1043 41.2711 21.161 41.1903 21.241 41.1386L26.232 38.0043L19.6775 41.7883C19.5946 41.8326 19.498 41.8434 19.4074 41.8184C19.3168 41.7935 19.2393 41.7348 19.1907 41.6544C19.1422 41.5739 19.1264 41.478 19.1465 41.3862C19.1667 41.2945 19.2213 41.214 19.2991 41.1613L25.9035 37.007L17.5142 41.847C17.4314 41.8918 17.3345 41.9031 17.2436 41.8785C17.1527 41.8539 17.0748 41.7953 17.026 41.7147C16.9771 41.6342 16.9611 41.538 16.9813 41.4461C17.0015 41.3541 17.0563 41.2734 17.1343 41.2207L26.1345 35.5007L14.9226 41.9753C14.8397 42.0216 14.7421 42.034 14.6503 42.0098C14.5585 41.9856 14.4796 41.9268 14.4303 41.8457C14.381 41.7645 14.3651 41.6674 14.3859 41.5748C14.4067 41.4822 14.4627 41.4012 14.542 41.349L24.4808 35.0226L12.078 42.1821C11.9948 42.2272 11.8974 42.2384 11.8061 42.2133C11.7148 42.1883 11.6368 42.1289 11.5883 42.0477C11.5398 41.9664 11.5246 41.8695 11.5459 41.7773C11.5672 41.6851 11.6233 41.6047 11.7025 41.5529L14.8558 39.6147L10.0686 42.3779C9.9859 42.4234 9.88881 42.4352 9.79758 42.4109C9.70634 42.3866 9.628 42.3281 9.57885 42.2475C9.52971 42.1669 9.51356 42.0704 9.53376 41.9782C9.55396 41.8859 9.60895 41.8051 9.6873 41.7524L21.8181 33.979L6.47163 42.8414C6.38838 42.8894 6.28961 42.9028 6.19658 42.8787C6.10354 42.8546 6.02369 42.795 5.97419 42.7126C5.92469 42.6302 5.9095 42.5317 5.9319 42.4382C5.95431 42.3448 6.0125 42.2639 6.09396 42.2129L15.2606 36.4929L3.2897 43.4031C3.20667 43.4505 3.1084 43.4637 3.01583 43.4397C2.92325 43.4157 2.84371 43.3565 2.79416 43.2747C2.74461 43.193 2.72897 43.095 2.75058 43.0019C2.77219 42.9087 2.82933 42.8277 2.90983 42.7761L16.5968 34.0612L1.20483 42.9477C1.12164 42.9928 1.02423 43.004 0.93297 42.9789C0.841712 42.9539 0.763676 42.8945 0.715182 42.8133C0.666688 42.732 0.651492 42.6351 0.672773 42.5429C0.694053 42.4507 0.750162 42.3703 0.829364 42.3185L6.28023 38.9708L0.93863 42.0508C0.897413 42.0758 0.851686 42.0924 0.804061 42.0996C0.756436 42.1069 0.707845 42.1047 0.661063 42.0932C0.614281 42.0817 0.570223 42.0611 0.531406 42.0325C0.492589 42.004 0.459773 41.9681 0.43483 41.9269C0.409888 41.8857 0.393308 41.84 0.386038 41.7923C0.378767 41.7447 0.380948 41.6961 0.392457 41.6493C0.403965 41.6025 0.424575 41.5585 0.45311 41.5197C0.481645 41.4809 0.517546 41.448 0.558764 41.4231L11.7428 34.342L0.93863 40.5834C0.855193 40.6334 0.755317 40.6482 0.660974 40.6245C0.56663 40.6009 0.485548 40.5407 0.435564 40.4573C0.385579 40.3739 0.370787 40.274 0.394442 40.1796C0.418096 40.0853 0.47826 40.0042 0.561697 39.9542L5.89743 36.6396L0.93863 39.4996C0.855585 39.5439 0.758661 39.5546 0.667934 39.5295C0.577208 39.5043 0.499632 39.4452 0.451277 39.3645C0.402921 39.2837 0.387492 39.1874 0.408184 39.0955C0.428877 39.0037 0.484105 38.9233 0.56243 38.8711L2.83576 37.4638L0.93863 38.5624C0.856021 38.6093 0.758405 38.6224 0.666356 38.5988C0.574308 38.5752 0.495016 38.5168 0.445192 38.4359C0.395368 38.3549 0.378903 38.2578 0.399269 38.165C0.419634 38.0722 0.475239 37.9909 0.554364 37.9383L9.96156 31.7746L0.941564 36.9813C0.858486 37.0278 0.760556 37.0402 0.668497 37.0159C0.576438 36.9915 0.497472 36.9323 0.448309 36.8507C0.399145 36.7692 0.383641 36.6717 0.405077 36.5789C0.426513 36.4861 0.483207 36.4053 0.563164 36.3536L2.78663 34.9558L0.93863 36.0221C0.85641 36.0689 0.759256 36.0822 0.667489 36.0591C0.575722 36.036 0.496448 35.9782 0.446249 35.898C0.39605 35.8178 0.378812 35.7213 0.398142 35.6286C0.417472 35.536 0.471872 35.4544 0.549964 35.401L7.59803 30.6482L0.93863 34.4924C0.856473 34.5379 0.759987 34.5501 0.669068 34.5266C0.578149 34.503 0.499728 34.4455 0.449978 34.3658C0.400227 34.2862 0.382939 34.1905 0.401679 34.0984C0.420419 34.0064 0.473758 33.9251 0.550697 33.8712L4.9419 30.921L0.93863 33.2318C0.857322 33.2792 0.760886 33.2935 0.669292 33.2718C0.577698 33.2501 0.497963 33.194 0.446599 33.1151C0.395235 33.0362 0.376177 32.9406 0.393371 32.8481C0.410565 32.7555 0.462694 32.6731 0.538964 32.618L5.1839 29.2351L0.93863 31.6866C0.85703 31.7345 0.760078 31.749 0.668041 31.7271C0.576005 31.7051 0.49601 31.6485 0.444779 31.5689C0.393549 31.4894 0.37505 31.3931 0.393149 31.3002C0.411249 31.2074 0.464545 31.1251 0.541897 31.0706L2.28576 29.824L0.93863 30.6035C0.858437 30.6494 0.763851 30.6634 0.673801 30.6426C0.583751 30.6218 0.504881 30.5677 0.452974 30.4913C0.401068 30.4148 0.379954 30.3215 0.393858 30.2302C0.407763 30.1388 0.45566 30.0561 0.527964 29.9985L1.9213 28.8985L0.937897 29.4668C0.866922 29.5075 0.784366 29.5233 0.703368 29.5117C0.62237 29.5001 0.547586 29.4617 0.490918 29.4027C0.434251 29.3437 0.398957 29.2674 0.390653 29.186C0.38235 29.1046 0.401514 29.0227 0.445097 28.9535L1.15203 27.8476L1.14396 27.852C1.10225 27.8765 1.05611 27.8924 1.0082 27.899C0.960286 27.9055 0.911553 27.9025 0.864803 27.8902C0.818054 27.8778 0.77421 27.8563 0.735798 27.827C0.697385 27.7976 0.665162 27.7609 0.640984 27.719C0.616805 27.6772 0.601149 27.6309 0.594916 27.583C0.588683 27.535 0.591997 27.4863 0.604667 27.4396C0.617336 27.393 0.639112 27.3493 0.668739 27.311C0.698366 27.2728 0.73526 27.2408 0.777297 27.2169L2.0863 26.4609C2.15727 26.4202 2.23983 26.4044 2.32083 26.416C2.40182 26.4276 2.47661 26.466 2.53328 26.525C2.58994 26.584 2.62524 26.6603 2.63354 26.7417C2.64184 26.8231 2.62268 26.905 2.5791 26.9742L1.87216 28.0808L5.91063 25.7466C5.99095 25.6994 6.08623 25.6845 6.17711 25.705C6.268 25.7255 6.34768 25.7798 6.39997 25.8569C6.45225 25.9341 6.47321 26.0282 6.4586 26.1202C6.44399 26.2122 6.3949 26.2952 6.3213 26.3523L4.92796 27.4524L8.50663 25.3902C8.58823 25.3423 8.68518 25.3278 8.77722 25.3498C8.86925 25.3717 8.94925 25.4284 9.00048 25.5079C9.05171 25.5875 9.07021 25.6837 9.05211 25.7766C9.03401 25.8695 8.98071 25.9517 8.90336 26.0062L7.1617 27.247L10.8122 25.1394C10.8935 25.0932 10.9893 25.0798 11.0802 25.1019C11.171 25.124 11.25 25.1799 11.301 25.2583C11.3519 25.3367 11.371 25.4316 11.3543 25.5236C11.3376 25.6156 11.2864 25.6977 11.2112 25.7532L6.56476 29.1368L13.9223 24.8893C14.0046 24.8416 14.1023 24.8278 14.1947 24.8508C14.2871 24.8738 14.3669 24.9318 14.4173 25.0125C14.4676 25.0933 14.4846 25.1905 14.4647 25.2835C14.4447 25.3766 14.3893 25.4582 14.3102 25.5112L9.91463 28.4636L16.3342 24.7581C16.4163 24.7131 16.5124 24.7012 16.6029 24.7248C16.6935 24.7484 16.7715 24.8057 16.8212 24.8849C16.8709 24.9642 16.8884 25.0595 16.8701 25.1512C16.8518 25.243 16.7992 25.3243 16.7229 25.3785L9.67996 30.1298L19.14 24.6664C19.2228 24.6221 19.3195 24.6113 19.4101 24.6363C19.5006 24.6612 19.5782 24.7199 19.6267 24.8003C19.6753 24.8808 19.6911 24.9767 19.6709 25.0685C19.6507 25.1602 19.5961 25.2408 19.5184 25.2934L17.2846 26.7007L20.8486 24.64C20.9312 24.593 21.0289 24.58 21.1209 24.6036C21.2129 24.6272 21.2922 24.6856 21.3421 24.7665C21.3919 24.8474 21.4084 24.9445 21.388 25.0374C21.3676 25.1302 21.312 25.2115 21.2329 25.2641L11.8294 31.4241L23.5678 24.6473C23.6514 24.5976 23.7513 24.583 23.8455 24.6069C23.9398 24.6307 24.0207 24.691 24.0705 24.7746C24.1203 24.8581 24.1349 24.958 24.111 25.0523C24.0872 25.1466 24.0268 25.2275 23.9433 25.2773L21.6612 26.6934L25.1408 24.6847C25.1821 24.66 25.2279 24.6436 25.2756 24.6366C25.3232 24.6295 25.3718 24.6319 25.4185 24.6436C25.4652 24.6553 25.5091 24.6761 25.5478 24.7048C25.5865 24.7335 25.6191 24.7696 25.6439 24.8109C25.6686 24.8522 25.685 24.898 25.6921 24.9456C25.6991 24.9933 25.6967 25.0418 25.685 25.0885C25.6733 25.1353 25.6525 25.1792 25.6238 25.2179C25.5951 25.2566 25.5591 25.2892 25.5178 25.3139L20.196 28.6176L26.9133 24.7397C26.9965 24.6894 27.0964 24.6741 27.1909 24.6974C27.2853 24.7206 27.3667 24.7804 27.4171 24.8637C27.4675 24.9469 27.4827 25.0468 27.4595 25.1412C27.4362 25.2357 27.3764 25.3171 27.2932 25.3675L16.1025 32.453L29.2556 24.86C29.3389 24.8139 29.4369 24.8021 29.5288 24.827C29.6208 24.8519 29.6994 24.9116 29.7481 24.9934C29.7968 25.0753 29.8117 25.1729 29.7897 25.2655C29.7677 25.3582 29.7106 25.4387 29.6303 25.4899L24.1853 28.834L30.8733 24.9722C30.9561 24.9274 31.053 24.9161 31.1438 24.9407C31.2347 24.9653 31.3127 25.0239 31.3615 25.1044C31.4103 25.1849 31.4263 25.2811 31.4062 25.3731C31.386 25.4651 31.3312 25.5458 31.2532 25.5985L17.5677 34.3127L33.3666 25.1929C33.4499 25.1449 33.5486 25.1315 33.6417 25.1556C33.7347 25.1797 33.8146 25.2394 33.8641 25.3217C33.9136 25.4041 33.9287 25.5026 33.9063 25.5961C33.8839 25.6895 33.8258 25.7704 33.7443 25.8214L24.5776 31.5414L35.2146 25.4005C35.2973 25.3562 35.3937 25.3453 35.4842 25.37C35.5746 25.3947 35.6522 25.4531 35.7009 25.5332C35.7497 25.6132 35.7659 25.709 35.7462 25.8006C35.7265 25.8923 35.6725 25.973 35.5952 26.026L23.4666 33.7972L37.4733 25.7092C37.5564 25.6654 37.6531 25.6552 37.7436 25.6806C37.834 25.7061 37.9112 25.7653 37.9593 25.846C38.0073 25.9267 38.0226 26.0228 38.0019 26.1144C37.9812 26.206 37.9261 26.2862 37.848 26.3384L34.6947 28.2796L38.783 25.9189C38.8658 25.8741 38.9627 25.8628 39.0536 25.8874C39.1445 25.912 39.2224 25.9707 39.2712 26.0512C39.3201 26.1317 39.3361 26.2279 39.3159 26.3199C39.2957 26.4118 39.2409 26.4925 39.1629 26.5452L29.2299 32.8673L40.6611 26.2673C40.7442 26.2168 40.844 26.2014 40.9385 26.2245C41.033 26.2476 41.1144 26.3073 41.1649 26.3905C41.2154 26.4736 41.2307 26.5734 41.2076 26.6679C41.1845 26.7624 41.1248 26.8438 41.0417 26.8943L32.0371 32.6187L42.3074 26.6934C42.3904 26.6477 42.4877 26.636 42.5791 26.6605C42.6705 26.685 42.7489 26.7439 42.7979 26.8249C42.8468 26.9059 42.8626 27.0027 42.8419 27.095C42.8211 27.1874 42.7655 27.2681 42.6866 27.3204L36.0734 31.4798L42.9836 27.4905C43.0669 27.4403 43.1668 27.4253 43.2612 27.4487C43.3556 27.4722 43.4368 27.5322 43.487 27.6155C43.5372 27.6989 43.5522 27.7987 43.5287 27.8931C43.5053 27.9875 43.4453 28.0688 43.362 28.119L38.3826 31.24L43.0613 28.5392C43.1441 28.4949 43.2408 28.4841 43.3314 28.509C43.422 28.5339 43.4995 28.5926 43.548 28.6731C43.5966 28.7535 43.6124 28.8495 43.5922 28.9412C43.5721 29.033 43.5175 29.1135 43.4397 29.1662L39.512 31.6426L43.0613 29.5937C43.1439 29.5467 43.2415 29.5337 43.3336 29.5573C43.4256 29.5809 43.5049 29.6393 43.5547 29.7202C43.6046 29.8011 43.621 29.8982 43.6007 29.991C43.5803 30.0838 43.5247 30.1651 43.4456 30.2178L36.6666 34.6596L43.0642 30.9665C43.1463 30.9221 43.2423 30.9107 43.3325 30.9346C43.4227 30.9585 43.5004 31.0159 43.5498 31.0951C43.5992 31.1743 43.6165 31.2693 43.5982 31.3608C43.5799 31.4523 43.5274 31.5335 43.4514 31.5876L37.1499 35.8146L43.0642 32.4009C43.1459 32.3557 43.2418 32.3433 43.3322 32.3663C43.4227 32.3893 43.501 32.446 43.5512 32.5248C43.6013 32.6035 43.6195 32.6984 43.6021 32.7902C43.5846 32.8819 43.5328 32.9635 43.4573 33.0184L37.5466 37.1434L43.0613 33.96C43.1427 33.9155 43.238 33.9037 43.3279 33.9267C43.4178 33.9497 43.4955 34.006 43.5456 34.0841C43.5956 34.1622 43.6142 34.2564 43.5975 34.3477C43.5809 34.439 43.5302 34.5205 43.4558 34.576L39.2524 37.5416L43.0613 35.3416C43.1417 35.2965 43.2361 35.2834 43.3258 35.3049C43.4154 35.3263 43.4937 35.3808 43.545 35.4573C43.5963 35.5339 43.6169 35.627 43.6027 35.718C43.5885 35.8091 43.5405 35.8915 43.4683 35.9488L39.4064 39.0867L43.0613 36.9776C43.1424 36.9312 43.2382 36.9174 43.329 36.9392C43.4199 36.961 43.499 37.0167 43.5503 37.0949C43.6015 37.173 43.6209 37.2678 43.6046 37.3598C43.5882 37.4519 43.5374 37.5342 43.4624 37.59L41.8594 38.7714L43.0613 38.0784C43.14 38.0334 43.2326 38.0192 43.3212 38.0385C43.4098 38.0579 43.4881 38.1093 43.541 38.183C43.5938 38.2566 43.6175 38.3473 43.6075 38.4374C43.5975 38.5275 43.5544 38.6107 43.4866 38.6709L41.4443 40.4654L43.0576 39.5318C43.1376 39.4849 43.2324 39.47 43.3229 39.4901C43.4134 39.5103 43.4929 39.5639 43.5454 39.6403C43.5979 39.7168 43.6195 39.8102 43.6059 39.9019C43.5923 39.9936 43.5444 40.0768 43.472 40.1346L43.2146 40.3429C43.2736 40.3398 43.3326 40.3505 43.3869 40.3742C43.4411 40.3978 43.4891 40.4338 43.527 40.4793C43.5819 40.5478 43.6103 40.6337 43.6072 40.7215C43.6042 40.8092 43.5697 40.893 43.5101 40.9574L42.9234 41.591L43.0532 41.5177C43.1374 41.4698 43.2371 41.4572 43.3305 41.4826C43.424 41.508 43.5036 41.5693 43.552 41.6531C43.6004 41.737 43.6137 41.8366 43.5889 41.9302C43.5642 42.0238 43.5034 42.1038 43.4199 42.1528L41.2133 43.4295C41.1571 43.4624 41.0929 43.4794 41.0278 43.4786Z" fill="#E1EFFF"/>
<path d="M23.9741 37.5665C23.9132 37.5664 23.8533 37.5513 23.7998 37.5223C23.7463 37.4933 23.7008 37.4515 23.6675 37.4006C23.6341 37.3496 23.614 37.2912 23.6089 37.2305C23.6038 37.1699 23.6139 37.1089 23.6382 37.0531L23.8663 36.531L23.1498 36.9446C23.0761 36.9867 22.9899 37.002 22.9062 36.9876C22.8225 36.9733 22.7463 36.9304 22.6907 36.8661C22.6351 36.8019 22.6035 36.7203 22.6014 36.6354C22.5993 36.5505 22.6267 36.4674 22.679 36.4005L23.0171 35.9722L22.2332 36.4239C22.1551 36.4687 22.0633 36.4831 21.9752 36.4645C21.8872 36.4459 21.8091 36.3956 21.7557 36.3231C21.7024 36.2507 21.6775 36.1611 21.6859 36.0715C21.6943 35.9819 21.7354 35.8986 21.8012 35.8373L23.7365 34.0413L19.4428 36.52C19.362 36.5657 19.2667 36.579 19.1765 36.5571C19.0862 36.5353 19.0075 36.4801 18.9564 36.4025C18.9053 36.3249 18.8855 36.2309 18.9011 36.1393C18.9166 36.0477 18.9664 35.9655 19.0402 35.9091L20.3082 34.9631L19.632 35.3533C19.554 35.3974 19.4624 35.4113 19.3748 35.3925C19.2871 35.3737 19.2094 35.3234 19.1563 35.2512C19.1032 35.1789 19.0784 35.0897 19.0866 35.0004C19.0948 34.9111 19.1354 34.828 19.2008 34.7666L20.8875 33.2266L19.291 34.144C19.2129 34.19 19.1205 34.2055 19.0317 34.1874C18.9428 34.1693 18.8638 34.1189 18.81 34.046C18.7561 33.9731 18.7311 33.8828 18.7399 33.7925C18.7487 33.7023 18.7907 33.6185 18.8576 33.5573L20.46 32.0635L18.4389 33.2295C18.3795 33.2639 18.3117 33.2809 18.2431 33.2787C18.1746 33.2764 18.108 33.255 18.051 33.2168C17.994 33.1786 17.9489 33.1252 17.9208 33.0626C17.8926 33.0001 17.8826 32.9309 17.8918 32.8629L17.974 32.208L17.8156 32.2997C17.7738 32.3262 17.7272 32.344 17.6784 32.352C17.6296 32.3601 17.5797 32.3581 17.5316 32.3464C17.4836 32.3346 17.4384 32.3133 17.3989 32.2836C17.3593 32.2539 17.3262 32.2165 17.3014 32.1737C17.2767 32.1309 17.2608 32.0835 17.2549 32.0345C17.2489 31.9854 17.2529 31.9356 17.2667 31.8881C17.2805 31.8406 17.3037 31.7964 17.335 31.7581C17.3664 31.7198 17.4051 31.6883 17.4489 31.6653L18.2468 31.2041C18.3062 31.1695 18.3741 31.1523 18.4428 31.1544C18.5114 31.1566 18.5781 31.178 18.6353 31.2162C18.6924 31.2544 18.7376 31.3079 18.7658 31.3706C18.7939 31.4333 18.8039 31.5027 18.7946 31.5707L18.7117 32.2256L22.8668 29.8276C22.9449 29.7809 23.0376 29.7648 23.1269 29.7827C23.2162 29.8005 23.2956 29.8509 23.3498 29.9241C23.404 29.9973 23.429 30.088 23.4199 30.1786C23.4109 30.2692 23.3685 30.3532 23.3009 30.4143L21.7 31.9103L23.4241 30.9144C23.5022 30.8703 23.5937 30.8564 23.6814 30.8752C23.769 30.894 23.8468 30.9443 23.8999 31.0165C23.953 31.0888 23.9778 31.178 23.9696 31.2673C23.9613 31.3565 23.9207 31.4397 23.8553 31.5011L22.1686 33.0411L25.3528 31.2033C25.4337 31.1577 25.5289 31.1444 25.6192 31.1662C25.7095 31.188 25.7881 31.2433 25.8392 31.3208C25.8903 31.3984 25.9101 31.4925 25.8945 31.5841C25.879 31.6756 25.8292 31.7579 25.7554 31.8142L24.4874 32.7602L26.1888 31.7783C26.2669 31.7329 26.359 31.718 26.4474 31.7363C26.5358 31.7547 26.6144 31.805 26.668 31.8777C26.7216 31.9504 26.7465 32.0403 26.7379 32.1302C26.7293 32.2201 26.6878 32.3037 26.6214 32.3649L24.5014 34.331C24.5692 34.3333 24.635 34.3544 24.6915 34.3919C24.7481 34.4294 24.7931 34.4819 24.8216 34.5434C24.8501 34.605 24.861 34.6732 24.853 34.7406C24.845 34.808 24.8185 34.8718 24.7764 34.925L24.4376 35.354L24.464 35.3386C24.5308 35.3001 24.6081 35.2836 24.6849 35.2916C24.7616 35.2996 24.8339 35.3315 24.8914 35.3829C24.949 35.4344 24.9888 35.5026 25.0053 35.578C25.0217 35.6534 25.014 35.7321 24.9832 35.8028L24.7441 36.3506C24.82 36.3351 24.8989 36.3437 24.9696 36.3753C25.0404 36.4068 25.0995 36.4598 25.1386 36.5266C25.1871 36.6107 25.2002 36.7105 25.1752 36.8042C25.1502 36.898 25.0891 36.978 25.0052 37.0267L24.1567 37.5166C24.1013 37.5489 24.0383 37.5661 23.9741 37.5665Z" fill="#ECECEC"/>
<path d="M20.7217 30.9782C20.6699 30.9782 20.6186 30.9672 20.5714 30.946C20.5241 30.9248 20.4818 30.8938 20.4474 30.855C20.3913 30.7918 20.3588 30.7111 20.3553 30.6267C20.3518 30.5422 20.3776 30.4591 20.4284 30.3915L21.246 29.2996C21.2082 29.2593 21.1801 29.211 21.1636 29.1582C21.1471 29.1055 21.1428 29.0497 21.1509 28.9951C21.159 28.9404 21.1793 28.8883 21.2104 28.8426C21.2415 28.7969 21.2825 28.7589 21.3304 28.7313L21.9999 28.3463C22.0731 28.304 22.1586 28.2884 22.2419 28.3019C22.3253 28.3154 22.4015 28.3573 22.4575 28.4205C22.5136 28.4838 22.5461 28.5644 22.5496 28.6488C22.553 28.7332 22.5272 28.8162 22.4766 28.8838L22.0894 29.3971L22.5213 29.1478C22.563 29.1213 22.6097 29.1035 22.6585 29.0954C22.7073 29.0874 22.7572 29.0893 22.8052 29.1011C22.8533 29.1129 22.8984 29.1342 22.938 29.1639C22.9775 29.1936 23.0107 29.2309 23.0354 29.2737C23.0602 29.3166 23.076 29.3639 23.082 29.413C23.0879 29.4621 23.0839 29.5119 23.0701 29.5594C23.0564 29.6069 23.0331 29.6511 23.0018 29.6894C22.9705 29.7277 22.9318 29.7592 22.888 29.7821L20.908 30.9254C20.8519 30.9597 20.7874 30.978 20.7217 30.9782Z" fill="white"/>
<path d="M6.3529 38.4721C6.27523 38.4723 6.19952 38.4478 6.13666 38.4022C6.07381 38.3566 6.02706 38.2922 6.00316 38.2183C5.97926 38.1444 5.97945 38.0648 6.00368 37.991C6.02792 37.9173 6.07497 37.8531 6.13803 37.8077L6.35803 37.6479L6.16003 37.7667C6.08028 37.8122 5.98634 37.8262 5.89678 37.8058C5.80723 37.7854 5.72859 37.7322 5.67642 37.6566C5.62425 37.581 5.60234 37.4886 5.61503 37.3976C5.62773 37.3066 5.67409 37.2238 5.74496 37.1653L8.5727 34.8605L6.43063 36.0939C6.35298 36.1415 6.26043 36.1584 6.17098 36.1414C6.08153 36.1245 6.00159 36.0749 5.9467 36.0023C5.89182 35.9296 5.86591 35.8392 5.87403 35.7485C5.88215 35.6578 5.92371 35.5734 5.99063 35.5117L7.8973 33.6879L6.00236 34.782C5.92534 34.8248 5.83547 34.8385 5.74922 34.8204C5.66296 34.8024 5.58608 34.7539 5.53266 34.6838C5.47923 34.6137 5.45283 34.5268 5.45828 34.4388C5.46374 34.3509 5.50069 34.2678 5.56236 34.2049L7.44703 32.3334L5.02043 33.7333C4.95591 33.7704 4.88163 33.787 4.80746 33.7808C4.7333 33.7747 4.66276 33.7461 4.60522 33.6989C4.54768 33.6517 4.50586 33.5882 4.48532 33.5166C4.46478 33.4451 4.46649 33.369 4.49023 33.2985L4.5709 33.0579C4.4853 33.0922 4.38993 33.093 4.30379 33.0601C4.21764 33.0273 4.14705 32.9631 4.10607 32.8805C4.06509 32.7979 4.05674 32.7029 4.08268 32.6144C4.10862 32.5259 4.16694 32.4505 4.24603 32.4031L5.0439 31.9418C5.10837 31.9046 5.18265 31.8879 5.25685 31.8939C5.33105 31.8999 5.40166 31.9284 5.45929 31.9755C5.51692 32.0226 5.55884 32.0862 5.57948 32.1577C5.60012 32.2292 5.5985 32.3054 5.57483 32.3759L5.4949 32.6128L9.52383 30.2867C9.60086 30.2439 9.69073 30.2302 9.77698 30.2483C9.86324 30.2663 9.94012 30.3148 9.99354 30.3849C10.047 30.4549 10.0734 30.5419 10.0679 30.6299C10.0625 30.7178 10.0255 30.8009 9.96383 30.8638L8.07917 32.736L10.1611 31.5333C10.2388 31.4858 10.3313 31.4689 10.4208 31.4858C10.5102 31.5028 10.5901 31.5524 10.645 31.625C10.6999 31.6977 10.7258 31.7881 10.7177 31.8788C10.7096 31.9695 10.668 32.0539 10.6011 32.1156L8.69443 33.9379L12.1624 31.9367C12.2421 31.8911 12.3361 31.8772 12.4256 31.8976C12.5152 31.9179 12.5938 31.9712 12.646 32.0468C12.6982 32.1224 12.7201 32.2148 12.7074 32.3057C12.6947 32.3967 12.6483 32.4796 12.5774 32.538L9.74897 34.8436L12.3574 33.3373C12.4389 33.2901 12.5355 33.276 12.627 33.298C12.7186 33.3201 12.7982 33.3765 12.8493 33.4556C12.9005 33.5347 12.9192 33.6305 12.9016 33.723C12.884 33.8155 12.8315 33.8978 12.7549 33.9526L11.3975 34.9279C11.4506 34.9482 11.4979 34.9812 11.5354 35.024C11.5915 35.0864 11.6245 35.1662 11.6289 35.25C11.6333 35.3338 11.6089 35.4166 11.5596 35.4845L11.0624 36.1665L11.2618 36.0521C11.3324 36.0114 11.4146 35.9953 11.4953 36.0065C11.5761 36.0176 11.6508 36.0554 11.7077 36.1137C11.7647 36.1722 11.8006 36.248 11.8096 36.3292C11.8187 36.4104 11.8003 36.4922 11.7576 36.5618L11.5808 36.8485C11.6443 36.8551 11.7057 36.8748 11.7611 36.9064C11.8165 36.9379 11.8648 36.9807 11.9028 37.0319C11.9514 37.1161 11.9646 37.2162 11.9394 37.3101C11.9142 37.404 11.8528 37.4841 11.7686 37.5327L10.7419 38.1253C10.6709 38.1671 10.5879 38.1837 10.5063 38.1726C10.4247 38.1614 10.3492 38.1231 10.292 38.0638C10.2348 38.0045 10.1993 37.9277 10.1911 37.8457C10.1829 37.7637 10.2026 37.6814 10.2469 37.6119L10.3723 37.4095L9.9323 37.6618C9.85962 37.7033 9.77492 37.7187 9.69228 37.7055C9.60963 37.6922 9.53402 37.651 9.478 37.5888C9.42197 37.5267 9.38891 37.4472 9.38431 37.3636C9.37971 37.28 9.40384 37.1974 9.4527 37.1294L9.94843 36.4474L6.5355 38.4267C6.47962 38.4575 6.41668 38.4731 6.3529 38.4721Z" fill="#ECECEC"/>
<path d="M7.36623 32.0188C7.29881 32.0189 7.23267 32.0003 7.1751 31.9652C7.11753 31.9301 7.07074 31.8798 7.0399 31.8199C7.00905 31.7599 6.99533 31.6926 7.00024 31.6254C7.00516 31.5582 7.02852 31.4936 7.06777 31.4387L8.06657 30.0491C8.04002 30.0247 8.0175 29.9962 7.99983 29.9647C7.95144 29.8806 7.9384 29.7807 7.96355 29.6869C7.98871 29.5932 8.05002 29.5132 8.13403 29.4646L8.7999 29.0796C8.87245 29.0379 8.95707 29.0224 9.0397 29.0354C9.12234 29.0485 9.19803 29.0894 9.2542 29.1514C9.31037 29.2134 9.34366 29.2927 9.34853 29.3762C9.35339 29.4598 9.32956 29.5424 9.28097 29.6105L8.65323 30.4905L9.4071 30.0557C9.44882 30.0312 9.49496 30.0153 9.54287 30.0087C9.59078 30.0022 9.63951 30.0051 9.68626 30.0175C9.73301 30.0299 9.77685 30.0513 9.81527 30.0807C9.85368 30.1101 9.8859 30.1468 9.91008 30.1887C9.93426 30.2305 9.94991 30.2768 9.95615 30.3247C9.96238 30.3727 9.95907 30.4214 9.9464 30.4681C9.93373 30.5147 9.91195 30.5584 9.88232 30.5966C9.8527 30.6349 9.8158 30.6668 9.77377 30.6907L7.55323 31.9733C7.49618 32.0052 7.43154 32.0209 7.36623 32.0188Z" fill="white"/>
<path d="M32.5416 38.3893C32.4646 38.3893 32.3896 38.3651 32.3272 38.3201C32.2648 38.2751 32.2181 38.2116 32.1937 38.1386C32.1694 38.0655 32.1687 37.9867 32.1916 37.9133C32.2145 37.8398 32.26 37.7754 32.3216 37.7293L33.8799 36.5882L32.6333 37.3076C32.5526 37.3542 32.4572 37.3683 32.3665 37.3472C32.2758 37.326 32.1966 37.2711 32.1449 37.1937C32.0932 37.1162 32.0729 37.022 32.0881 36.9301C32.1034 36.8382 32.153 36.7555 32.227 36.6989L33.9137 35.4083L32.8364 36.0301C32.7569 36.0759 32.6631 36.0901 32.5736 36.0701C32.4841 36.0501 32.4054 35.9973 32.3529 35.9221C32.3004 35.8469 32.2781 35.7547 32.2902 35.6638C32.3023 35.5729 32.348 35.4898 32.4184 35.431L33.5844 34.4586L32.6171 35.0167C32.5403 35.0604 32.4502 35.075 32.3636 35.0576C32.2769 35.0402 32.1994 34.9921 32.1454 34.9221C32.0913 34.8521 32.0644 34.7649 32.0696 34.6767C32.0748 34.5884 32.1116 34.505 32.1735 34.4417L34.0537 32.5409L31.6213 33.9475C31.5619 33.9816 31.4942 33.9985 31.4257 33.9962C31.3573 33.9938 31.2908 33.9723 31.234 33.9342C31.1771 33.896 31.1321 33.8427 31.104 33.7802C31.0758 33.7178 31.0658 33.6487 31.0749 33.5808L31.1615 32.9516L31.0148 33.0374C30.9731 33.0639 30.9264 33.0817 30.8776 33.0898C30.8288 33.0978 30.7789 33.0959 30.7308 33.0841C30.6828 33.0723 30.6377 33.051 30.5981 33.0213C30.5585 32.9916 30.5254 32.9543 30.5006 32.9115C30.4759 32.8687 30.4601 32.8213 30.4541 32.7722C30.4481 32.7231 30.4522 32.6733 30.4659 32.6258C30.4797 32.5783 30.503 32.5341 30.5343 32.4958C30.5656 32.4575 30.6043 32.426 30.6481 32.4031L31.4475 31.9418C31.5068 31.9076 31.5745 31.8908 31.643 31.8931C31.7114 31.8955 31.7779 31.917 31.8347 31.9551C31.8916 31.9933 31.9366 32.0466 31.9647 32.1091C31.9929 32.1715 32.0029 32.2406 31.9938 32.3085L31.9073 32.9377L36.0572 30.5419C36.1341 30.497 36.2248 30.4816 36.3122 30.4986C36.3996 30.5157 36.4779 30.5639 36.5323 30.6345C36.5867 30.705 36.6136 30.7929 36.608 30.8818C36.6023 30.9707 36.5645 31.0545 36.5016 31.1175L34.6221 33.0169L36.9189 31.691C36.9982 31.6462 37.0915 31.6326 37.1803 31.6529C37.2692 31.6731 37.3474 31.7257 37.3995 31.8004C37.4517 31.8751 37.4742 31.9666 37.4626 32.057C37.4511 32.1474 37.4062 32.2303 37.3369 32.2894L36.1694 33.2633L38.486 31.9264C38.5666 31.8808 38.6615 31.8674 38.7516 31.8889C38.8417 31.9103 38.9203 31.9651 38.9717 32.0422C39.0231 32.1193 39.0433 32.213 39.0285 32.3044C39.0136 32.3958 38.9647 32.4782 38.8915 32.5351L37.2005 33.8272L39.3873 32.5644C39.4684 32.5186 39.564 32.5054 39.6545 32.5275C39.745 32.5497 39.8237 32.6054 39.8746 32.6835C39.9255 32.7616 39.9448 32.8561 39.9285 32.9478C39.9122 33.0396 39.8616 33.1217 39.7869 33.1775L37.6801 34.7175C37.7646 34.7284 37.8426 34.7689 37.9001 34.8319C37.9564 34.8928 37.9903 34.971 37.9965 35.0537C38.0026 35.1364 37.9805 35.2187 37.9338 35.2873L37.3112 36.2017L37.6537 36.0045C37.7176 35.9676 37.7911 35.9509 37.8646 35.9566C37.9382 35.9622 38.0083 35.9898 38.0659 36.0359C38.1235 36.082 38.1658 36.1444 38.1874 36.2149C38.2089 36.2855 38.2087 36.3609 38.1868 36.4313L37.9353 37.2343C38.0217 37.2063 38.1155 37.2114 38.1984 37.2486C38.2813 37.2858 38.3474 37.3525 38.3839 37.4357C38.4205 37.5189 38.4248 37.6127 38.3961 37.6989C38.3674 37.7851 38.3077 37.8576 38.2286 37.9023L37.4953 38.3255C37.4313 38.3625 37.3577 38.3794 37.284 38.374C37.2103 38.3685 37.14 38.3408 37.0823 38.2947C37.0246 38.2486 36.9822 38.1861 36.9606 38.1154C36.939 38.0447 36.9393 37.9692 36.9614 37.8987L37.2085 37.1081L36.2875 37.6398C36.2156 37.6811 36.1318 37.6968 36.0498 37.6844C35.9679 37.672 35.8925 37.6321 35.8361 37.5714C35.7797 37.5106 35.7456 37.4325 35.7392 37.3499C35.7329 37.2672 35.7548 37.1848 35.8013 37.1162L36.4246 36.2017L32.7257 38.3372C32.6701 38.3708 32.6065 38.3888 32.5416 38.3893Z" fill="#ECECEC"/>
<path d="M33.9387 31.68C33.8706 31.68 33.8038 31.661 33.7459 31.6252C33.688 31.5894 33.6412 31.5382 33.6107 31.4773C33.5803 31.4164 33.5674 31.3482 33.5735 31.2804C33.5796 31.2126 33.6045 31.1478 33.6454 31.0933L34.444 30.0329C34.4252 30.0128 34.4087 29.9907 34.3948 29.9669C34.3708 29.9252 34.3552 29.8791 34.349 29.8314C34.3427 29.7836 34.346 29.7351 34.3585 29.6885C34.371 29.642 34.3926 29.5984 34.422 29.5603C34.4514 29.5221 34.488 29.4901 34.5298 29.4661L35.2 29.0789C35.2733 29.0359 35.3593 29.0198 35.4432 29.0332C35.5271 29.0466 35.6037 29.0887 35.66 29.1524C35.7163 29.216 35.7487 29.2972 35.7518 29.3821C35.7548 29.467 35.7283 29.5504 35.6767 29.6179L35.3174 30.0945L35.7119 29.8672C35.7536 29.8407 35.8003 29.8229 35.8491 29.8148C35.8979 29.8068 35.9478 29.8087 35.9958 29.8205C36.0439 29.8323 36.089 29.8536 36.1286 29.8833C36.1681 29.913 36.2013 29.9503 36.226 29.9931C36.2508 30.036 36.2666 30.0833 36.2726 30.1324C36.2785 30.1815 36.2745 30.2313 36.2607 30.2788C36.247 30.3263 36.2237 30.3705 36.1924 30.4088C36.1611 30.4471 36.1224 30.4786 36.0786 30.5015L34.122 31.6294C34.0666 31.6625 34.0032 31.6799 33.9387 31.68Z" fill="white"/>
<path d="M17.3338 14.8713C17.2562 14.8711 17.1807 14.8464 17.1181 14.8007C17.0555 14.755 17.009 14.6906 16.9853 14.6167C16.9616 14.5429 16.9619 14.4635 16.9861 14.3898C17.0104 14.3162 17.0574 14.2521 17.1204 14.2069L22.9724 10.0203L17.6814 13.0746C17.6001 13.1208 17.5042 13.1343 17.4134 13.1122C17.3226 13.0901 17.2436 13.0341 17.1926 12.9557C17.1417 12.8773 17.1226 12.7824 17.1393 12.6904C17.156 12.5984 17.2072 12.5163 17.2824 12.4608L21.8533 9.14173L17.974 11.3791C17.8919 11.4253 17.7952 11.4381 17.7039 11.4149C17.6126 11.3917 17.5337 11.3342 17.4837 11.2545C17.4336 11.1747 17.4162 11.0787 17.4349 10.9864C17.4537 10.8941 17.5073 10.8126 17.5846 10.7587L18.139 10.3803C18.0584 10.4237 17.9644 10.4354 17.8756 10.4131C17.7868 10.3908 17.7096 10.336 17.6592 10.2596C17.6087 10.1832 17.5886 10.0907 17.6029 10.0003C17.6172 9.90986 17.6648 9.82804 17.7364 9.77093L20.361 7.69193L17.6982 9.23193C17.6182 9.27735 17.5241 9.29105 17.4344 9.27028C17.3448 9.24952 17.2663 9.19583 17.2144 9.11985C17.1625 9.04387 17.1411 8.95117 17.1544 8.86013C17.1676 8.76909 17.2147 8.68638 17.2861 8.62839L19.8315 6.59779L16.816 8.33873C16.741 8.38241 16.6528 8.39803 16.5673 8.38281C16.4818 8.36759 16.4045 8.32251 16.3491 8.2556C16.2938 8.18869 16.2639 8.10431 16.265 8.01746C16.266 7.93062 16.2978 7.84697 16.3548 7.78139L17.6425 6.29273L15.829 7.33993C15.7772 7.37076 15.7184 7.388 15.6581 7.39005C15.5979 7.3921 15.5381 7.3789 15.4843 7.35166C15.4303 7.32511 15.3836 7.28566 15.3484 7.23681C15.3133 7.18795 15.2907 7.13119 15.2826 7.07153L15.1448 6.04486L14.8727 6.20179C14.831 6.22832 14.7843 6.24614 14.7355 6.25416C14.6867 6.26219 14.6368 6.26026 14.5888 6.24849C14.5407 6.23673 14.4956 6.21537 14.456 6.1857C14.4164 6.15603 14.3833 6.11867 14.3585 6.07585C14.3338 6.03304 14.318 5.98566 14.312 5.93657C14.306 5.88748 14.3101 5.83769 14.3238 5.79019C14.3376 5.7427 14.3609 5.69849 14.3922 5.66021C14.4235 5.62193 14.4622 5.59038 14.506 5.56746L15.2533 5.13332C15.3054 5.10315 15.3642 5.08628 15.4244 5.08422C15.4846 5.08215 15.5444 5.09495 15.5985 5.12148C15.6526 5.14802 15.6993 5.18747 15.7345 5.23635C15.7697 5.28522 15.7923 5.34202 15.8004 5.40173L15.9382 6.42839L19.1605 4.56792C19.2355 4.52469 19.3233 4.50937 19.4085 4.52469C19.4937 4.54 19.5707 4.58496 19.626 4.6516C19.6812 4.71825 19.7111 4.80228 19.7103 4.88883C19.7095 4.97539 19.6782 5.05887 19.6218 5.12452L18.3333 6.61393L23.7006 3.51486C23.7806 3.46943 23.8747 3.45574 23.9644 3.4765C24.054 3.49726 24.1325 3.55096 24.1844 3.62693C24.2363 3.70291 24.2577 3.79562 24.2444 3.88665C24.2312 3.97769 24.1841 4.06041 24.1127 4.11839L21.5666 6.14899L24.3276 4.55546C24.4076 4.5106 24.5016 4.49741 24.5909 4.51847C24.6803 4.53954 24.7584 4.59334 24.81 4.66925C24.8616 4.74516 24.8829 4.83765 24.8696 4.92846C24.8563 5.01927 24.8094 5.10179 24.7382 5.15972L22.1144 7.23873L26.2812 4.83339C26.3633 4.78722 26.46 4.77442 26.5513 4.79763C26.6425 4.82084 26.7214 4.87829 26.7715 4.95806C26.8215 5.03783 26.839 5.13382 26.8202 5.22611C26.8014 5.31841 26.7478 5.39993 26.6706 5.45379L26.1154 5.83146L27.5359 5.01232C27.6172 4.9661 27.713 4.95266 27.8039 4.97476C27.8947 4.99686 27.9737 5.05283 28.0246 5.13122C28.0756 5.20961 28.0947 5.30451 28.078 5.3965C28.0613 5.48849 28.0101 5.57063 27.9348 5.62613L23.3654 8.94666L29.1228 5.62319C29.2043 5.57717 29.3002 5.56401 29.3911 5.58641C29.4819 5.60882 29.5607 5.66508 29.6114 5.7437C29.6621 5.82232 29.6808 5.91734 29.6637 6.00932C29.6467 6.10129 29.5951 6.18327 29.5196 6.23846L23.6698 10.4229L25.7532 9.22019C25.8282 9.17698 25.9161 9.16173 26.0014 9.17714C26.0866 9.19255 26.1636 9.23763 26.2188 9.30439C26.2739 9.37116 26.3037 9.45529 26.3028 9.54189C26.3018 9.62849 26.2703 9.71197 26.2137 9.77753L24.7346 11.4877L26.0194 10.7455C26.0957 10.7009 26.1856 10.6853 26.2725 10.7017C26.3594 10.718 26.4374 10.7653 26.4922 10.8347C26.5471 10.904 26.575 10.9909 26.5708 11.0792C26.5667 11.1675 26.5307 11.2514 26.4696 11.3153L25.9812 11.8287L26.1888 11.7091C26.2617 11.6675 26.3467 11.6522 26.4296 11.6657C26.5125 11.6793 26.5883 11.7208 26.6442 11.7835C26.7001 11.8462 26.7328 11.9262 26.7368 12.0101C26.7408 12.094 26.7159 12.1767 26.6662 12.2445L26.3061 12.7307L26.3611 12.6991C26.4294 12.6588 26.509 12.6417 26.5878 12.6504C26.6667 12.6591 26.7406 12.6932 26.7985 12.7475C26.8563 12.8018 26.895 12.8734 26.9087 12.9516C26.9224 13.0297 26.9104 13.1102 26.8744 13.1809L26.6889 13.5476C26.7555 13.5465 26.8211 13.5628 26.8794 13.595C26.9377 13.6272 26.9865 13.674 27.0211 13.7309C27.0697 13.8151 27.0829 13.9152 27.0577 14.0092C27.0326 14.1031 26.9711 14.1832 26.8869 14.2318L26.0304 14.7261C25.9621 14.7662 25.8827 14.7832 25.804 14.7744C25.7253 14.7657 25.6515 14.7317 25.5937 14.6776C25.536 14.6234 25.4973 14.552 25.4834 14.474C25.4696 14.3961 25.4814 14.3157 25.517 14.245L25.6666 13.9487L25.1401 14.2523C25.0671 14.2943 24.9818 14.3098 24.8987 14.2964C24.8156 14.2829 24.7396 14.2412 24.6836 14.1783C24.6276 14.1154 24.5949 14.0351 24.5911 13.951C24.5873 13.8668 24.6126 13.784 24.6627 13.7163L25.0235 13.2286L24.1648 13.7243C24.0885 13.7685 23.9988 13.7836 23.9122 13.767C23.8257 13.7504 23.748 13.7032 23.6934 13.634C23.6388 13.5648 23.6109 13.4783 23.6149 13.3902C23.619 13.3021 23.6546 13.2185 23.7152 13.1545L24.2029 12.6412L23.2136 13.2125C23.1386 13.2557 23.0507 13.2709 22.9654 13.2555C22.8802 13.2401 22.8032 13.195 22.748 13.1283C22.6929 13.0615 22.6631 12.9774 22.664 12.8908C22.665 12.8042 22.6965 12.7207 22.7531 12.6551L24.233 10.945L17.5149 14.8236C17.4597 14.8551 17.3973 14.8715 17.3338 14.8713Z" fill="#F2CF7E"/>
<path d="M20.3793 3.72167C20.3122 3.72157 20.2464 3.70305 20.1891 3.66812C20.1317 3.63319 20.0851 3.5832 20.0542 3.52359C20.0234 3.46398 20.0095 3.39704 20.014 3.33007C20.0186 3.2631 20.0415 3.19867 20.0801 3.1438L21.2909 1.42927C21.2675 1.40612 21.2472 1.37998 21.2307 1.35153C21.1821 1.26732 21.1689 1.16724 21.1941 1.07331C21.2193 0.979375 21.2807 0.899289 21.3649 0.850665L22 0.484731C22.0723 0.443234 22.1567 0.427643 22.2391 0.440532C22.3215 0.45342 22.397 0.494017 22.4532 0.555624C22.5095 0.617231 22.543 0.696166 22.5483 0.779402C22.5537 0.862637 22.5304 0.9452 22.4825 1.01346L21.6421 2.2L22.6746 1.6038C22.7588 1.55594 22.8585 1.54332 22.9519 1.56869C23.0454 1.59406 23.125 1.65536 23.1734 1.73921C23.2218 1.82306 23.2351 1.92266 23.2104 2.01627C23.1856 2.10988 23.1248 2.1899 23.0413 2.23887L20.5627 3.67253C20.507 3.70501 20.4437 3.72198 20.3793 3.72167Z" fill="#F2CF7E"/>
<path d="M11.0813 20.8266C11.025 20.8266 10.9695 20.8136 10.919 20.7886C10.8686 20.7636 10.8245 20.7273 10.7904 20.6826C10.7562 20.6378 10.7328 20.5858 10.7219 20.5305C10.7111 20.4753 10.7131 20.4183 10.7279 20.3639L10.8489 19.9195L10.2798 20.248C10.2093 20.2887 10.1272 20.3048 10.0465 20.2937C9.96587 20.2826 9.8912 20.2449 9.8343 20.1867C9.7774 20.1284 9.7415 20.0529 9.73228 19.972C9.72305 19.8911 9.74102 19.8094 9.78335 19.7398L10.1823 19.0857L9.18568 19.6614C9.11127 19.704 9.0243 19.7191 8.93987 19.7043C8.85544 19.6894 8.7789 19.6454 8.72354 19.5799C8.66819 19.5144 8.63752 19.4316 8.63688 19.3459C8.63623 19.2602 8.66565 19.1769 8.72001 19.1106L9.46508 18.2064L8.02555 19.0373C7.94741 19.0848 7.85435 19.1014 7.7646 19.0839C7.67486 19.0663 7.59492 19.0158 7.54046 18.9424C7.48601 18.8689 7.46097 18.7777 7.47026 18.6868C7.47955 18.5958 7.5225 18.5116 7.59068 18.4506L8.75888 17.3506L3.24201 20.5333C3.16004 20.581 3.06278 20.5951 2.97065 20.5726C2.87851 20.5501 2.79868 20.4928 2.7479 20.4127C2.69713 20.3326 2.67937 20.2359 2.69834 20.143C2.71732 20.0501 2.77156 19.9682 2.84968 19.9144L6.44301 17.421L3.46715 19.14C3.38629 19.1874 3.29035 19.202 3.19904 19.1809C3.10772 19.1598 3.02796 19.1045 2.97614 19.0264C2.92433 18.9483 2.90439 18.8533 2.92042 18.761C2.93645 18.6686 2.98724 18.5859 3.06235 18.5298L7.19981 15.4007L3.77221 17.38C3.69043 17.4278 3.59333 17.442 3.50126 17.4198C3.40919 17.3976 3.32929 17.3406 3.27829 17.2608C3.2273 17.181 3.20916 17.0845 3.22769 16.9916C3.24622 16.8988 3.29997 16.8167 3.37768 16.7625L3.96435 16.3526L3.95261 16.3592C3.87141 16.4061 3.77532 16.4201 3.68411 16.3983C3.59289 16.3766 3.51348 16.3207 3.4622 16.2422C3.41092 16.1637 3.39168 16.0685 3.40842 15.9762C3.42516 15.884 3.47662 15.8016 3.55221 15.7461L4.01495 15.4058L3.49428 15.7065C3.41502 15.7524 3.32145 15.767 3.23198 15.7474C3.14251 15.7278 3.06362 15.6754 3.01084 15.6005C2.95805 15.5257 2.93519 15.4338 2.94676 15.3429C2.95833 15.2521 3.00349 15.1688 3.07335 15.1096L5.59528 12.966L2.52628 14.74C2.45662 14.7804 2.37559 14.7968 2.29569 14.7866C2.2158 14.7764 2.14149 14.7401 2.08425 14.6835C2.027 14.6268 1.99001 14.5529 1.97898 14.4731C1.96794 14.3933 1.98349 14.3121 2.02321 14.242L2.75655 12.9462L1.47908 13.6796C1.41896 13.7142 1.35025 13.7311 1.28093 13.7282C1.21161 13.7253 1.14452 13.7029 1.08746 13.6634C1.0304 13.6239 0.985717 13.5691 0.95859 13.5052C0.931463 13.4414 0.923009 13.3711 0.934212 13.3026L0.986279 12.9851L0.943745 13.0093C0.902012 13.0358 0.855344 13.0537 0.806547 13.0617C0.757751 13.0697 0.707836 13.0678 0.659804 13.056C0.611772 13.0443 0.566616 13.0229 0.527053 12.9932C0.48749 12.9636 0.454337 12.9262 0.429589 12.8834C0.404841 12.8406 0.38901 12.7932 0.383047 12.7441C0.377084 12.695 0.381112 12.6452 0.394891 12.5977C0.408669 12.5502 0.431912 12.506 0.463222 12.4677C0.494531 12.4295 0.53326 12.3979 0.577079 12.375L1.29208 11.9614C1.35226 11.9267 1.42105 11.9098 1.49045 11.9127C1.55986 11.9156 1.62701 11.9381 1.6841 11.9777C1.74119 12.0173 1.78587 12.0722 1.81293 12.1362C1.83999 12.2002 1.84832 12.2705 1.83695 12.3391L1.78488 12.6573L3.54928 11.6395C3.61886 11.5996 3.6996 11.5836 3.77914 11.594C3.85867 11.6043 3.9326 11.6405 3.98961 11.6969C4.04662 11.7534 4.08355 11.8269 4.09475 11.9063C4.10595 11.9858 4.09079 12.0667 4.05161 12.1366L3.31828 13.4324L8.72661 10.3107C8.80576 10.2657 8.89882 10.2517 8.98767 10.2716C9.07653 10.2914 9.15483 10.3436 9.20733 10.4179C9.25984 10.4923 9.28281 10.5836 9.27175 10.6739C9.2607 10.7643 9.21643 10.8473 9.14755 10.9069L6.62635 13.0533L9.39541 11.4547C9.47661 11.4077 9.5727 11.3937 9.66392 11.4155C9.75513 11.4372 9.83455 11.4931 9.88582 11.5716C9.9371 11.6502 9.95635 11.7453 9.93961 11.8376C9.92286 11.9299 9.87141 12.0122 9.79581 12.0677L9.33381 12.4073L10.6707 11.6351C10.7525 11.5873 10.8496 11.573 10.9416 11.5952C11.0337 11.6174 11.1136 11.6744 11.1646 11.7542C11.2156 11.834 11.2337 11.9305 11.2152 12.0234C11.1967 12.1163 11.1429 12.1984 11.0652 12.2525L10.4785 12.6676L11.9533 11.8147C12.034 11.7688 12.1291 11.7552 12.2195 11.7767C12.3099 11.7982 12.3887 11.8531 12.4401 11.9305C12.4915 12.0079 12.5116 12.1018 12.4964 12.1935C12.4811 12.2851 12.4317 12.3675 12.3581 12.4241L8.22135 15.5532L13.7279 12.3743C13.8099 12.3266 13.9072 12.3125 13.9993 12.335C14.0914 12.3574 14.1713 12.4148 14.2221 12.4949C14.2728 12.575 14.2906 12.6716 14.2716 12.7645C14.2526 12.8575 14.1984 12.9394 14.1203 12.9932L10.5269 15.4865L11.1209 15.1433C11.1991 15.0958 11.2921 15.0792 11.3819 15.0968C11.4716 15.1143 11.5516 15.1648 11.606 15.2383C11.6605 15.3117 11.6855 15.4029 11.6762 15.4939C11.6669 15.5848 11.624 15.669 11.5558 15.73L10.3876 16.83L10.8555 16.5601C10.9299 16.5171 11.0171 16.5016 11.1018 16.5163C11.1864 16.531 11.2633 16.575 11.3188 16.6406C11.3744 16.7062 11.4051 16.7892 11.4057 16.8752C11.4062 16.9611 11.3766 17.0445 11.3219 17.1108L10.5768 18.015L11.0623 17.7349C11.1328 17.6946 11.2147 17.6788 11.2952 17.69C11.3757 17.7013 11.4501 17.739 11.5069 17.7971C11.5636 17.8553 11.5994 17.9307 11.6087 18.0114C11.6179 18.0921 11.6001 18.1736 11.558 18.2431L11.1591 18.8972L11.2566 18.8415C11.3193 18.8046 11.3917 18.7875 11.4643 18.7924C11.5369 18.7972 11.6063 18.8238 11.6636 18.8686C11.7211 18.913 11.7641 18.9734 11.7872 19.0422C11.8103 19.111 11.8125 19.1851 11.7934 19.2551L11.6467 19.7948C11.7238 19.8027 11.7964 19.8348 11.8541 19.8865C11.9119 19.9381 11.9517 20.0068 11.968 20.0825C11.9843 20.1583 11.9762 20.2372 11.9448 20.3081C11.9134 20.3789 11.8604 20.438 11.7934 20.4768L11.2683 20.7797C11.2113 20.8118 11.1467 20.828 11.0813 20.8266Z" fill="#F2CF7E"/>
<path d="M5.62532 11.2471C5.55849 11.2471 5.49294 11.2287 5.43577 11.1941C5.3786 11.1595 5.33198 11.1099 5.30095 11.0507C5.26992 10.9915 5.25566 10.925 5.25971 10.8583C5.26376 10.7915 5.28596 10.7272 5.32392 10.6722L6.64906 8.7516C6.62755 8.72935 6.60861 8.70475 6.59259 8.67827C6.54391 8.59414 6.53062 8.49413 6.55565 8.40021C6.58067 8.30629 6.64197 8.22615 6.72606 8.1774L7.33326 7.82613C7.40535 7.78433 7.48953 7.76834 7.57193 7.78079C7.65434 7.79323 7.73004 7.83338 7.78657 7.89461C7.8431 7.95583 7.87709 8.0345 7.88294 8.11763C7.88878 8.20076 7.86613 8.2834 7.81872 8.35193L6.85146 9.74893L8.05119 9.0574C8.09292 9.03087 8.13959 9.01306 8.18839 9.00503C8.23718 8.99701 8.2871 8.99893 8.33513 9.0107C8.38316 9.02246 8.42832 9.04382 8.46788 9.07349C8.50745 9.10316 8.5406 9.14053 8.56535 9.18334C8.59009 9.22615 8.60593 9.27353 8.61189 9.32262C8.61785 9.37171 8.61382 9.4215 8.60004 9.469C8.58627 9.51649 8.56302 9.56071 8.53171 9.59899C8.5004 9.63726 8.46167 9.66881 8.41786 9.69173L5.80866 11.198C5.75292 11.2302 5.68969 11.2471 5.62532 11.2471Z" fill="#F2CF7E"/>
<path d="M32.6619 20.867C32.5842 20.8671 32.5084 20.8425 32.4456 20.7967C32.3828 20.7509 32.3361 20.6864 32.3124 20.6124C32.2886 20.5383 32.289 20.4587 32.3135 20.3849C32.3379 20.3111 32.3852 20.247 32.4485 20.2019L36.4349 17.3565L32.7404 19.4891C32.6596 19.5361 32.564 19.5504 32.473 19.5293C32.382 19.5081 32.3025 19.453 32.2507 19.3753C32.199 19.2975 32.1789 19.2029 32.1945 19.1108C32.2101 19.0187 32.2603 18.936 32.3348 18.8797L36.9152 15.4L33.063 17.6235C32.9816 17.6707 32.885 17.6848 32.7934 17.6628C32.7018 17.6408 32.6222 17.5844 32.5711 17.5052C32.52 17.4261 32.5013 17.3304 32.5189 17.2378C32.5365 17.1453 32.589 17.0631 32.6656 17.0082L34.1374 15.9507L33.2662 16.4523C33.1866 16.4975 33.093 16.5112 33.0038 16.4909C32.9146 16.4706 32.8363 16.4177 32.7841 16.3425C32.7319 16.2674 32.7097 16.1755 32.7218 16.0848C32.734 15.9941 32.7795 15.9113 32.8496 15.8525L35.0782 14.0147L32.5776 15.4587C32.4969 15.5053 32.4016 15.5194 32.3109 15.4983C32.2202 15.4771 32.1409 15.4222 32.0892 15.3447C32.0375 15.2673 32.0172 15.173 32.0324 15.0811C32.0477 14.9893 32.0973 14.9066 32.1713 14.85L33.5214 13.8197L31.886 14.7627C31.8098 14.8069 31.7202 14.8221 31.6337 14.8056C31.5472 14.7891 31.4695 14.742 31.4149 14.6729C31.3602 14.6038 31.3322 14.5174 31.3361 14.4294C31.3399 14.3414 31.3753 14.2577 31.4358 14.1937L32.2234 13.3584L31.1234 13.9942C31.0702 14.025 31.0101 14.0419 30.9486 14.0433C30.8872 14.0448 30.8264 14.0308 30.7717 14.0026C30.7171 13.9744 30.6705 13.9329 30.6361 13.882C30.6017 13.8311 30.5806 13.7723 30.5748 13.7111L30.4971 12.8817L30.2771 13.0093C30.1933 13.0532 30.0958 13.0629 30.005 13.0366C29.9142 13.0102 29.837 12.9498 29.7897 12.8679C29.7424 12.7861 29.7285 12.6891 29.751 12.5972C29.7735 12.5054 29.8306 12.4257 29.9104 12.375L30.6262 11.9614C30.6794 11.9307 30.7395 11.9138 30.8009 11.9123C30.8624 11.9108 30.9232 11.9248 30.9778 11.953C31.0324 11.9812 31.0791 12.0227 31.1135 12.0736C31.1479 12.1245 31.1689 12.1833 31.1747 12.2445L31.2524 13.0739L34.0266 11.4752C34.1029 11.4311 34.1924 11.4159 34.279 11.4324C34.3655 11.4489 34.4432 11.496 34.4978 11.5651C34.5525 11.6341 34.5804 11.7206 34.5766 11.8086C34.5728 11.8966 34.5374 11.9802 34.4769 12.0443L33.6886 12.8795L38.0798 10.34C38.1605 10.293 38.2562 10.2787 38.3472 10.2998C38.4382 10.321 38.5177 10.376 38.5694 10.4538C38.6212 10.5316 38.6413 10.6262 38.6257 10.7183C38.61 10.8104 38.5598 10.8931 38.4853 10.9494L37.1374 11.9761L38.5308 11.1694C38.6105 11.1233 38.7046 11.1088 38.7945 11.1289C38.8843 11.1489 38.9634 11.2021 39.0158 11.2777C39.0683 11.3534 39.0904 11.4461 39.0777 11.5373C39.065 11.6285 39.0185 11.7116 38.9473 11.77L36.7202 13.6033L40.1214 11.6402C40.2029 11.593 40.2994 11.5789 40.391 11.6009C40.4826 11.6229 40.5622 11.6793 40.6133 11.7585C40.6644 11.8376 40.6831 11.9333 40.6655 12.0259C40.6479 12.1184 40.5954 12.2006 40.5188 12.2555L39.0412 13.3173L41.588 11.8507C41.6688 11.8037 41.7644 11.7893 41.8554 11.8105C41.9464 11.8316 42.0259 11.8867 42.0777 11.9645C42.1294 12.0423 42.1496 12.1369 42.1339 12.229C42.1183 12.3211 42.0681 12.4037 41.9936 12.4601L37.4146 15.9441L42.6485 12.9221C42.7301 12.8742 42.827 12.8597 42.919 12.8816C43.0111 12.9036 43.0911 12.9602 43.1423 13.0398C43.1935 13.1193 43.212 13.2156 43.1939 13.3085C43.1758 13.4013 43.1225 13.4836 43.0452 13.5381L39.0595 16.3834L40.0561 15.8085C40.1299 15.7658 40.2162 15.7501 40.3002 15.7642C40.3843 15.7782 40.4608 15.8211 40.5166 15.8855C40.5725 15.9499 40.6042 16.0318 40.6062 16.1171C40.6082 16.2023 40.5804 16.2856 40.5276 16.3526L39.3631 17.8273L40.3164 17.2781C40.3881 17.2372 40.4714 17.2216 40.5529 17.2339C40.6345 17.2462 40.7095 17.2856 40.7659 17.3458C40.8223 17.406 40.8567 17.4835 40.8637 17.5656C40.8706 17.6478 40.8496 17.73 40.8041 17.7987L40.2475 18.6267L40.5232 18.4683C40.5873 18.4314 40.6611 18.4147 40.7348 18.4204C40.8085 18.4262 40.8788 18.4541 40.9363 18.5005C40.9939 18.5469 41.0361 18.6096 41.0574 18.6804C41.0787 18.7512 41.0781 18.8268 41.0556 18.8973L40.8357 19.5837C40.9209 19.5665 41.0094 19.5802 41.0855 19.6223C41.1616 19.6644 41.2202 19.7321 41.251 19.8134C41.2817 19.8948 41.2826 19.9844 41.2534 20.0663C41.2242 20.1482 41.1668 20.217 41.0916 20.2605L40.3898 20.6661C40.3257 20.703 40.252 20.7197 40.1783 20.7139C40.1045 20.7082 40.0343 20.6803 39.9767 20.6339C39.9191 20.5875 39.8769 20.5248 39.8556 20.4539C39.8343 20.3831 39.8349 20.3075 39.8574 20.2371L40.0678 19.5771L39.2458 20.0515C39.1741 20.0927 39.0906 20.1085 39.0088 20.0962C38.9271 20.084 38.8518 20.0444 38.7954 19.9841C38.7389 19.9237 38.7045 19.846 38.6977 19.7636C38.691 19.6812 38.7122 19.5989 38.7581 19.5301L39.311 18.7037L38.0702 19.4201C37.9965 19.4627 37.9102 19.4782 37.8262 19.4641C37.7422 19.45 37.6657 19.407 37.6099 19.3426C37.5542 19.2783 37.5225 19.1965 37.5205 19.1113C37.5184 19.0262 37.5461 18.943 37.5987 18.876L38.764 17.402L32.8438 20.8193C32.7884 20.8511 32.7257 20.8675 32.6619 20.867Z" fill="#F2CF7E"/>
<path d="M35.2338 10.736C35.1661 10.7361 35.0998 10.7174 35.042 10.6821C34.9843 10.6468 34.9375 10.5962 34.9067 10.5359C34.876 10.4757 34.8625 10.4081 34.8678 10.3406C34.8731 10.2731 34.897 10.2085 34.9368 10.1537L35.9634 8.73327C35.928 8.69247 35.9019 8.64433 35.8872 8.59229C35.8725 8.54025 35.8695 8.48561 35.8784 8.43228C35.8873 8.37894 35.9079 8.32824 35.9387 8.28379C35.9695 8.23935 36.0098 8.20227 36.0566 8.1752L36.6667 7.82613C36.7394 7.78423 36.8243 7.76852 36.9071 7.78164C36.99 7.79475 37.0659 7.83588 37.1221 7.89818C37.1783 7.96048 37.2114 8.04016 37.216 8.12394C37.2205 8.20772 37.1962 8.29053 37.147 8.35853L36.5428 9.1916L37.2416 8.78827C37.3258 8.74041 37.4255 8.72779 37.5189 8.75316C37.6124 8.77853 37.692 8.83983 37.7404 8.92368C37.7888 9.00753 37.8021 9.10713 37.7774 9.20074C37.7526 9.29435 37.6918 9.37437 37.6083 9.42333L35.42 10.6861C35.3637 10.7194 35.2993 10.7367 35.2338 10.736Z" fill="#F2CF7E"/>
<path d="M40.7484 26.18C28.3137 24.0091 15.5944 24.0374 3.16948 26.2636C1.87955 26.5247 0.293347 26.7667 0.200947 28.3969C0.168681 32.659 0.220014 36.9285 0.200947 41.1935C-0.136386 44.0733 2.46181 43.6135 4.34868 43.1633C12.8099 41.7858 21.4041 41.4119 29.953 42.0493C33.299 42.2588 36.6295 42.669 39.9263 43.2776C41.9958 43.9684 43.9597 43.4243 43.8013 40.931C43.7397 36.7026 43.9479 32.4573 43.8013 28.2326C43.7177 26.5599 42.0523 26.4352 40.7484 26.18ZM42.7343 41.6665C42.7189 42.405 42.4666 42.9718 41.5881 42.8853C39.0705 42.3984 36.5281 41.9708 33.9665 41.7303C23.8269 40.6596 13.5879 40.9944 3.53981 42.7255C2.51315 42.9264 1.38675 43.0738 1.26648 41.668V30.0857C1.26648 29.3656 1.04648 28.0427 1.52608 27.4303C4.56575 26.1067 8.28668 26.1609 11.5925 25.6799C21.4434 24.8857 31.4857 25.0323 41.1943 26.9999C42.4285 27.1238 42.9249 28.1116 42.7343 29.2813C42.7086 33.4107 42.7981 37.5408 42.7343 41.6673V41.6665Z" fill="black"/>
<path d="M18.2 31.8018L18.1721 31.8062C18.1721 31.8289 18.1655 31.8597 18.1619 31.8942C18.2161 31.8898 18.2396 31.8619 18.2 31.8018Z" fill="black"/>
<path d="M25.3381 31.1447L24.0804 30.9555C23.4607 30.1275 23.2935 28.259 22.0329 28.3272C20.7577 28.5553 20.633 30.0813 20.0053 31.0039C16.0841 31.4233 16.5073 32.0012 19.0057 34.4813C18.2115 38.1165 18.6391 38.4919 21.8518 36.5024C22.8469 37.0568 24.6201 38.5506 25.3865 36.9651C25.3325 36.0584 25.2022 35.1579 24.9971 34.2731C26.0069 33.1269 28.5303 31.2532 25.3381 31.1447ZM24.3466 37.2027C24.3503 37.2225 24.3466 37.224 24.3466 37.2027V37.2027ZM25.3381 32.8533L24.0987 34.1777C23.6998 34.9411 24.3129 36.0529 24.3239 36.9145C21.9288 35.4303 22.1099 35.6488 19.7574 37.0465C19.7474 37.0315 19.7353 37.0179 19.7215 37.0062C19.5961 36.0697 20.0962 35.0702 20.0471 34.1352C19.522 33.3909 18.4007 32.7235 18.1617 31.8927C17.7899 31.8575 17.9739 31.8318 18.1719 31.8047C18.1763 31.746 18.1851 31.7775 18.1998 31.8003C21.0686 31.4615 20.6748 31.6969 21.9574 29.1456C22.3453 29.8452 22.6284 30.6225 23.0486 31.3009C23.6551 32.0129 27.1604 31.2048 25.3381 32.8533Z" fill="black"/>
<path d="M4.99102 32.6795L4.94702 32.6883C4.9505 32.7103 4.95515 32.7321 4.96095 32.7536C5.05409 32.7661 5.11129 32.7551 4.99102 32.6795Z" fill="black"/>
<path d="M12.2291 31.7834L10.8241 31.5722C10.1934 30.7267 10.0629 28.9542 8.80007 28.9249C7.5732 29.1449 7.4456 30.7083 6.8274 31.5935C2.89307 31.9851 3.2634 32.7485 5.79193 35.2227C5.80367 36.1907 4.89507 37.73 5.8132 38.4135C6.87727 38.8718 7.80347 37.7095 8.7348 37.3355C9.69693 37.7234 10.6415 38.9312 11.7371 38.3658C12.7307 37.5826 11.8104 36.1621 11.817 35.1135C12.8481 33.9827 15.3135 32.0467 12.2291 31.7834ZM8.891 29.6743V29.6802V29.6743ZM12.1815 33.4143C10.2939 35.1699 10.7287 35.2139 11.113 37.5811C8.57713 36.1145 9.05967 36.1049 6.50767 37.6596C6.57839 36.8157 6.69912 35.9768 6.8692 35.1472C6.90488 35.0725 6.91126 34.9872 6.8871 34.908C6.86293 34.8289 6.80997 34.7617 6.73867 34.7197C6.11197 34.0953 5.51862 33.4383 4.96107 32.7514C4.6802 32.6949 4.7814 32.7191 4.94713 32.6861C4.93467 32.626 4.96913 32.6649 4.99113 32.6773C8.04473 32.2652 7.38913 32.604 8.78687 29.9427C9.17407 30.6467 9.46447 31.4204 9.88247 32.1053C10.4031 32.8827 13.8344 32.0833 12.1815 33.4165V33.4143Z" fill="black"/>
<path d="M31.4124 32.56L31.3728 32.5659C31.3677 32.6003 31.3633 32.6436 31.3596 32.6883C31.4396 32.7008 31.4858 32.6737 31.4124 32.56Z" fill="black"/>
<path d="M38.7734 31.8934L37.2686 31.6668C37.0242 31.1848 36.7798 30.7027 36.5353 30.2207C36.2508 29.6597 36.0579 28.974 35.2886 29.0283C33.9591 29.1911 33.8484 30.7773 33.2067 31.7064C29.2841 32.12 29.6926 32.7367 32.1984 35.2161C31.4012 38.8564 31.853 39.2575 35.0679 37.2541C36.0542 37.6677 36.9621 38.8256 38.1032 38.2653C39.1298 37.6017 38.1853 36.0287 38.1963 35.0284C39.0682 34.0149 41.6921 32.0885 38.7734 31.8934ZM38.5732 33.5221C38.1215 34.0971 37.4212 34.5591 37.1176 35.2088C37.2312 36.0155 37.397 36.8265 37.5187 37.6361C35.1266 36.1519 35.293 36.3484 32.9398 37.7586C32.9328 37.7491 32.925 37.7402 32.9163 37.7322C32.7968 36.7921 33.3116 35.7918 33.2404 34.8561C32.6721 34.1125 31.7364 33.5082 31.3565 32.6905C31.003 32.6033 31.179 32.6018 31.3697 32.5681C31.3778 32.4874 31.3873 32.5299 31.4093 32.5622C34.2847 32.2205 33.8711 32.4251 35.1632 29.8943C35.5424 30.5844 35.8298 31.3331 36.2332 32.0093C36.7274 32.7895 40.3281 31.955 38.5732 33.5221Z" fill="black"/>
<path d="M27.0057 8.89828C27.9048 7.95081 28.8963 7.05614 29.7506 6.08081C30.294 5.10108 28.3573 5.09448 27.8117 5.01674L24.9216 4.60534L23.6625 2.25134C23.2958 1.55908 22.9841 0.354943 22.0154 0.495743C21.0621 0.634343 20.7687 1.66908 20.3735 2.41121L19.1745 4.65374C12.826 5.45014 12.9573 5.23528 17.5061 9.61474C16.2668 15.9793 16.0915 16.0321 21.8453 12.7314C23.2386 13.167 26.2834 16.1619 27.2969 14.2714C27.1766 12.6581 26.7102 11.0205 26.4902 9.41454C26.6706 9.26128 26.8319 9.06548 27.0057 8.89828ZM24.8901 13.4523C24.0732 13.0438 23.2936 12.5217 22.4701 12.1381C21.8834 11.9482 21.1655 12.5099 20.6697 12.7791C19.6394 13.3335 18.6061 13.9084 17.5802 14.4577C17.3551 14.4958 17.7071 14.2494 17.7584 14.0859C18.0253 12.6984 18.2314 11.2882 18.4917 9.89488C18.7279 9.32214 18.3971 9.04421 17.9784 8.71494C16.997 7.78587 16.0642 6.80679 15.1837 5.78161C15.1507 5.79554 15.0876 5.79041 14.9556 5.73248C15.024 5.72614 15.0921 5.71635 15.1595 5.70314C15.147 5.64448 15.1763 5.65988 15.1976 5.69801C20.1197 4.90014 19.5815 6.03388 21.9149 1.37134C24.4933 5.57334 22.6534 5.02554 27.8286 5.62468C28.0794 5.66061 29.0884 5.64814 28.7254 6.19008C27.6511 7.33041 26.4425 8.41061 25.421 9.56341C25.6109 11.0946 26.0025 12.5752 26.1624 14.1438C25.739 13.9131 25.3149 13.6825 24.8901 13.4523Z" fill="black"/>
<path d="M15.1983 5.69873L15.1602 5.70386C15.1652 5.73087 15.1733 5.7572 15.1844 5.78233C15.2203 5.76693 15.2159 5.72953 15.1983 5.69873Z" fill="black"/>
<path d="M11.8469 15.3831C16.1611 11.3197 14.6248 12.3633 10.0275 11.5383L8.88278 9.4116C8.52785 8.7516 8.27925 7.72494 7.36625 7.8716C5.88052 8.29914 5.60625 10.4427 4.73798 11.6006C-0.987884 12.3273 -0.830951 12.1139 3.24932 16.0424C2.08185 21.7067 2.02612 21.7477 7.14918 18.8137C8.53445 19.2537 10.9075 21.7903 12.1234 20.218C11.9795 18.7364 11.7439 17.2652 11.4179 15.8129C11.5527 15.6617 11.696 15.5182 11.8469 15.3831ZM3.62918 20.3009L3.68565 20.2796C3.66658 20.3493 3.64678 20.3397 3.62918 20.3009ZM9.82438 19.3475C9.1922 18.9369 8.52783 18.5781 7.83778 18.2747C6.42612 18.2453 4.94478 19.6995 3.60572 20.2224C3.58152 20.1153 3.56612 19.9694 3.56758 19.9907C3.73698 18.5805 4.17698 17.1167 4.27818 15.7095C4.20852 15.5349 3.89758 15.3267 3.76485 15.1961C2.99778 14.2773 1.79145 13.5197 1.27152 12.4828C5.43612 11.8059 5.29752 12.7695 7.24525 8.7164C9.49292 12.5891 8.07612 11.8169 12.6331 12.4564C12.944 12.5004 13.6304 12.4923 13.3121 13.0042C12.3507 14.0133 11.2845 14.9776 10.3605 15.9896C10.5145 17.3235 10.8789 18.6296 11.0124 19.9958L9.82438 19.3475Z" fill="black"/>
<path d="M30.6285 12.529L30.5713 12.5393C30.5874 12.5774 30.6116 12.6288 30.6446 12.6925C30.6857 12.6684 30.6637 12.5928 30.6285 12.529Z" fill="black"/>
<path d="M41.2215 15.3721C42.0282 14.5215 42.9309 13.7221 43.6965 12.8429C44.4511 11.6585 40.1032 11.7949 39.3427 11.5038L38.2163 9.4094C37.8658 8.75894 37.5945 7.69487 36.6881 7.82467C35.7817 7.95447 35.5257 8.87627 35.1481 9.57587L34.0877 11.55C28.3904 12.2635 28.441 12.1 32.5711 16.0343C31.4066 21.78 31.3868 21.7609 36.5128 18.8467C37.8548 19.2617 40.4376 21.9443 41.487 20.1733C41.3799 18.7411 40.9656 17.2685 40.7625 15.8283C40.9271 15.6883 41.0806 15.5358 41.2215 15.3721ZM39.6375 19.5969C38.5375 19.2133 37.5219 17.9102 36.3082 18.359C35.129 18.953 33.9967 19.646 32.819 20.2437C32.401 20.4571 32.8014 20.2928 32.9048 20.0061C33.0918 19.0329 33.2392 18.0407 33.4218 17.0617C33.4819 16.7193 33.7503 16.0351 33.6081 15.6999C32.6503 14.6909 31.5775 13.7199 30.6447 12.6933C30.6058 12.716 30.5105 12.6933 30.3125 12.5715C30.3968 12.562 30.4841 12.5569 30.5713 12.54C30.498 12.3684 30.5757 12.4337 30.6285 12.5297C34.9889 11.8155 34.5475 12.8883 36.6037 8.68194C38.6849 12.5481 37.6913 11.9651 42.0715 12.5011C42.2805 12.5312 42.9603 12.5209 42.6706 12.9507C41.7173 13.9993 40.5403 14.9307 39.6903 16.0395C39.8766 17.4812 40.1839 18.3693 40.4303 20.0259L39.6375 19.5969Z" fill="black"/>
</g>
<defs>
<clipPath id="clip0_160_1926">
<rect width="44" height="44" fill="white"/>
</clipPath>
</defs>
</svg>
