<svg width="117" height="40" viewBox="0 0 117 40" fill="none" xmlns="http://www.w3.org/2000/svg">
<path fill-rule="evenodd" clip-rule="evenodd" d="M93.1152 36.7824V36.8139C93.1152 38.5735 91.6472 40 89.8367 40H26.5623C24.7517 40 23.2838 38.5735 23.2838 36.8139V36.7851H12.5398L12.2869 36.7811L12.222 36.7817C9.58782 36.7817 8.03289 35.6042 7.46953 33.1808C4.68818 21.2291 1.3321 6.89082 0.144494 1.81454C0.0932016 1.59614 0.0951611 1.3686 0.150208 1.1511C0.205255 0.93361 0.311775 0.732536 0.460794 0.564824C0.609812 0.397113 0.796961 0.26768 1.00647 0.187432C1.21598 0.107185 1.44171 0.0784739 1.66463 0.10372L57.7585 6.51881L114.511 0.008711C114.734 -0.0162604 114.959 0.012645 115.169 0.0929959C115.378 0.173347 115.565 0.302794 115.714 0.470449C115.863 0.638104 115.969 0.839065 116.024 1.05643C116.079 1.27379 116.081 1.5012 116.03 1.71954C113.581 12.2058 111.137 22.6931 108.697 33.1815C108.133 35.6035 106.578 36.7817 103.945 36.7817H93.1152V36.7824ZM93.083 34.7745L103.825 34.7739C105.553 34.7899 106.339 34.3122 106.709 32.7258C110.208 17.689 113.846 2.10091 113.846 2.10091L57.7211 8.53875L2.25409 2.19458C2.25409 2.19458 5.88449 17.689 9.38308 32.7258C9.75241 34.3122 10.5386 34.7899 12.2668 34.7739L12.5023 34.7785L23.3152 34.7779C23.5367 33.2283 24.9063 32.0347 26.5616 32.0347H89.836C91.4913 32.0347 92.8602 33.2263 93.083 34.7745Z" fill="#6952A9"/>
<path fill-rule="evenodd" clip-rule="evenodd" d="M30.2326 37.236C30.9124 37.236 31.4055 36.6994 31.4055 36.0129C31.4055 35.3305 30.9124 34.7939 30.2326 34.7939H29.6552V37.236H30.2326ZM28.7158 34.0218C28.7158 33.9615 28.764 33.9073 28.8242 33.9073H30.2928C30.8516 33.9082 31.3874 34.1301 31.7831 34.5246C32.1788 34.9191 32.4025 35.4542 32.4051 36.0129C32.4049 36.5734 32.1824 37.1109 31.7864 37.5075C31.3904 37.9041 30.8533 38.1275 30.2928 38.1285H28.8242C28.764 38.1285 28.7158 38.075 28.7158 38.0148V34.0218Z" fill="#6952A9"/>
<path fill-rule="evenodd" clip-rule="evenodd" d="M30.2326 37.2361C30.9124 37.2361 31.4055 36.6995 31.4055 36.013C31.4055 35.3306 30.9124 34.794 30.2326 34.794H29.6552V37.2361H30.2326ZM28.7158 34.0219C28.7158 33.9616 28.764 33.9074 28.8242 33.9074H30.2928C30.8516 33.9083 31.3874 34.1302 31.7831 34.5247C32.1788 34.9192 32.4025 35.4543 32.4051 36.013C32.4049 36.5735 32.1824 37.111 31.7864 37.5076C31.3904 37.9042 30.8533 38.1276 30.2928 38.1286H28.8242C28.764 38.1286 28.7158 38.0751 28.7158 38.0149V34.0219ZM37.7718 37.2247C38.4341 37.2247 38.9754 36.6814 38.9754 36.0251C38.9754 35.3613 38.4335 34.8127 37.7718 34.8127C37.1161 34.8127 36.5741 35.3613 36.5741 36.0251C36.5741 36.6814 37.1161 37.2247 37.7718 37.2247ZM37.7718 33.8479C38.0572 33.8476 38.34 33.9038 38.6036 34.0133C38.8673 34.1227 39.1067 34.2833 39.3081 34.4856C39.5094 34.688 39.6688 34.9282 39.7769 35.1924C39.8851 35.4566 39.9399 35.7396 39.9382 36.0251C39.9395 36.3099 39.8844 36.5921 39.776 36.8554C39.6675 37.1187 39.508 37.358 39.3065 37.5593C39.1051 37.7605 38.8657 37.9199 38.6022 38.0281C38.3388 38.1362 38.0565 38.1911 37.7718 38.1895C37.4873 38.191 37.2053 38.1361 36.9423 38.0278C36.6792 37.9195 36.4403 37.76 36.2393 37.5587C36.0383 37.3574 35.8793 37.1181 35.7715 36.8549C35.6637 36.5916 35.6093 36.3095 35.6113 36.0251C35.609 35.7399 35.6632 35.457 35.7708 35.1929C35.8784 34.9288 36.0373 34.6886 36.2382 34.4861C36.4391 34.2837 36.6781 34.1231 36.9415 34.0136C37.2048 33.904 37.4872 33.8477 37.7724 33.8479" fill="#2B146C"/>
<path fill-rule="evenodd" clip-rule="evenodd" d="M37.7718 37.2247C38.4342 37.2247 38.9755 36.6814 38.9755 36.0251C38.9755 35.3613 38.4336 34.8127 37.7718 34.8127C37.1161 34.8127 36.5742 35.3613 36.5742 36.0251C36.5742 36.6814 37.1161 37.2247 37.7718 37.2247ZM37.7718 33.8479C38.0573 33.8476 38.34 33.9038 38.6037 34.0133C38.8674 34.1227 39.1068 34.2833 39.3082 34.4856C39.5095 34.688 39.6689 34.9282 39.777 35.1924C39.8852 35.4566 39.94 35.7396 39.9383 36.0251C39.9396 36.3099 39.8845 36.5921 39.7761 36.8554C39.6676 37.1187 39.5081 37.358 39.3066 37.5593C39.1051 37.7605 38.8658 37.9199 38.6023 38.0281C38.3389 38.1362 38.0566 38.1911 37.7718 38.1895C37.4874 38.191 37.2054 38.1361 36.9424 38.0278C36.6793 37.9195 36.4404 37.76 36.2394 37.5587C36.0384 37.3574 35.8794 37.1181 35.7716 36.8549C35.6638 36.5916 35.6094 36.3095 35.6114 36.0251C35.6091 35.7399 35.6633 35.457 35.7709 35.1929C35.8785 34.9288 36.0373 34.6886 36.2383 34.4861C36.4392 34.2837 36.6782 34.1231 36.9416 34.0136C37.2049 33.904 37.4873 33.8477 37.7725 33.8479H37.7718ZM43.3606 34.0219C43.3606 33.9616 43.4155 33.9081 43.4757 33.9081H44.2157C44.2819 33.9081 44.3294 33.9616 44.3294 34.0219V36.4647C44.3294 36.8862 44.6426 37.2241 45.0701 37.2241C45.5037 37.2241 45.8222 36.8868 45.8222 36.4647V34.0225C45.822 34.0074 45.8248 33.9924 45.8305 33.9784C45.8362 33.9644 45.8446 33.9517 45.8552 33.941C45.8659 33.9303 45.8786 33.9218 45.8925 33.916C45.9065 33.9103 45.9215 33.9074 45.9366 33.9074H46.6772C46.7374 33.9074 46.791 33.961 46.791 34.0219V36.5128C46.791 37.4295 46.0215 38.1889 45.0701 38.1889C44.1254 38.1889 43.3606 37.4295 43.3606 36.5128V34.0219Z" fill="#2B146C"/>
<path fill-rule="evenodd" clip-rule="evenodd" d="M43.3608 34.0218C43.3608 33.9616 43.4157 33.9081 43.4759 33.9081H44.2159C44.2822 33.9081 44.3297 33.9616 44.3297 34.0218V36.4646C44.3297 36.8861 44.6428 37.224 45.0703 37.224C45.5039 37.224 45.8224 36.8868 45.8224 36.4646V34.0225C45.8222 34.0074 45.825 33.9924 45.8307 33.9784C45.8364 33.9644 45.8448 33.9517 45.8554 33.941C45.8661 33.9302 45.8788 33.9218 45.8927 33.916C45.9067 33.9102 45.9217 33.9073 45.9368 33.9074H46.6774C46.7377 33.9074 46.7912 33.9609 46.7912 34.0218V36.5128C46.7912 37.4294 46.0218 38.1888 45.0703 38.1888C44.1256 38.1888 43.3608 37.4294 43.3608 36.5128V34.0218ZM52.3713 33.8539C52.8771 33.8539 53.4311 34.064 53.8399 34.4199C53.8934 34.4634 53.9001 34.5357 53.8513 34.5832L53.3762 35.0903C53.354 35.1099 53.3256 35.1213 53.296 35.1224C53.2664 35.1235 53.2373 35.1143 53.2136 35.0964C52.9862 34.8843 52.7199 34.806 52.4255 34.806C51.7698 34.806 51.2399 35.3613 51.2399 36.025C51.2399 36.6821 51.7751 37.2247 52.4315 37.2247C52.6061 37.2247 52.7861 37.2006 52.9668 37.1283V36.7777H52.5881C52.5218 36.7777 52.4736 36.7302 52.4736 36.6694V36.0725C52.4736 36.0063 52.5218 35.9575 52.5874 35.9575H53.7984C53.8573 35.9575 53.9055 36.0123 53.9055 36.0725L53.9122 37.695C53.909 37.7321 53.8917 37.7666 53.864 37.7914C53.864 37.7914 53.2437 38.1835 52.3719 38.1835C52.0879 38.1852 51.8063 38.1306 51.5434 38.0228C51.2806 37.915 51.0418 37.7561 50.8408 37.5554C50.6398 37.3546 50.4806 37.116 50.3725 36.8533C50.2644 36.5906 50.2094 36.3091 50.2108 36.025C50.2092 35.7403 50.2638 35.458 50.3717 35.1945C50.4796 34.931 50.6386 34.6914 50.8395 34.4896C51.0403 34.2878 51.2792 34.1277 51.5422 34.0186C51.8052 33.9095 52.0872 33.8535 52.3719 33.8539" fill="#2B146C"/>
<path fill-rule="evenodd" clip-rule="evenodd" d="M52.3709 33.8539C52.8768 33.8539 53.4307 34.064 53.8396 34.4199C53.8931 34.4634 53.8998 34.5357 53.8509 34.5832L53.3759 35.0903C53.3536 35.1099 53.3253 35.1213 53.2957 35.1224C53.266 35.1235 53.2369 35.1143 53.2133 35.0964C52.9858 34.8843 52.7195 34.806 52.4251 34.806C51.7694 34.806 51.2395 35.3613 51.2395 36.025C51.2395 36.6821 51.7748 37.2247 52.4311 37.2247C52.6058 37.2247 52.7858 37.2006 52.9664 37.1283V36.7777H52.5877C52.5215 36.7777 52.4733 36.7302 52.4733 36.6694V36.0725C52.4733 36.0063 52.5215 35.9575 52.587 35.9575H53.7981C53.8569 35.9575 53.9051 36.0123 53.9051 36.0725L53.9118 37.695C53.9086 37.7321 53.8914 37.7666 53.8636 37.7914C53.8636 37.7914 53.2434 38.1835 52.3716 38.1835C52.0875 38.1852 51.8059 38.1306 51.5431 38.0228C51.2803 37.915 51.0415 37.7561 50.8405 37.5554C50.6395 37.3546 50.4803 37.116 50.3722 36.8533C50.264 36.5906 50.2091 36.3091 50.2105 36.025C50.2088 35.7403 50.2635 35.458 50.3714 35.1945C50.4793 34.931 50.6382 34.6914 50.8391 34.4896C51.04 34.2878 51.2788 34.1277 51.5418 34.0186C51.8048 33.9095 52.0869 33.8535 52.3716 33.8539H52.3709ZM57.5268 34.0218C57.5268 33.9616 57.581 33.9081 57.6412 33.9081H58.3571C58.3721 33.908 58.387 33.9109 58.4009 33.9165C58.4148 33.9222 58.4274 33.9306 58.438 33.9412C58.4486 33.9517 58.4571 33.9643 58.4628 33.9781C58.4686 33.992 58.4716 34.0068 58.4716 34.0218V35.542H60.1924V34.0218C60.1924 33.9917 60.2044 33.9627 60.2257 33.9414C60.2471 33.9201 60.276 33.9081 60.3062 33.9081H61.0234C61.0836 33.9081 61.1372 33.9616 61.1372 34.0218V38.0142C61.1372 38.0744 61.0836 38.1286 61.0234 38.1286H60.3062C60.2912 38.1286 60.2763 38.1256 60.2625 38.1199C60.2486 38.1141 60.2361 38.1057 60.2255 38.0951C60.2149 38.0844 60.2066 38.0718 60.2009 38.0579C60.1952 38.044 60.1923 38.0292 60.1924 38.0142V36.4285H58.4716V38.0142C58.4716 38.0292 58.4688 38.044 58.4631 38.0579C58.4574 38.0718 58.449 38.0844 58.4385 38.0951C58.4279 38.1057 58.4153 38.1141 58.4015 38.1199C58.3877 38.1256 58.3728 38.1286 58.3578 38.1286H57.6412C57.6112 38.1276 57.5827 38.1152 57.5614 38.094C57.5402 38.0727 57.5278 38.0442 57.5268 38.0142V34.0218Z" fill="#2B146C"/>
<path fill-rule="evenodd" clip-rule="evenodd" d="M57.5269 34.0218C57.5269 33.9616 57.5811 33.9081 57.6413 33.9081H58.3572C58.3722 33.908 58.387 33.9108 58.4009 33.9165C58.4148 33.9222 58.4274 33.9306 58.438 33.9411C58.4487 33.9517 58.4571 33.9643 58.4629 33.9781C58.4686 33.992 58.4716 34.0068 58.4716 34.0218V35.5419H60.1925V34.0218C60.1925 33.9916 60.2044 33.9627 60.2258 33.9414C60.2471 33.92 60.276 33.9081 60.3062 33.9081H61.0234C61.0837 33.9081 61.1372 33.9616 61.1372 34.0218V38.0142C61.1372 38.0744 61.0837 38.1286 61.0234 38.1286H60.3062C60.2912 38.1286 60.2764 38.1256 60.2625 38.1199C60.2487 38.1141 60.2361 38.1057 60.2255 38.095C60.215 38.0844 60.2066 38.0718 60.2009 38.0579C60.1952 38.044 60.1924 38.0292 60.1925 38.0142V36.4285H58.4716V38.0142C58.4717 38.0292 58.4688 38.044 58.4631 38.0579C58.4575 38.0718 58.4491 38.0844 58.4385 38.095C58.4279 38.1057 58.4154 38.1141 58.4015 38.1199C58.3877 38.1256 58.3728 38.1286 58.3578 38.1286H57.6413C57.6112 38.1276 57.5827 38.1152 57.5615 38.094C57.5402 38.0727 57.5279 38.0442 57.5269 38.0142V34.0218ZM64.8947 33.9556C64.8947 33.8953 64.9489 33.8472 65.0085 33.8472H65.1597L67.5603 36.1628H67.567V34.0231C67.5669 34.0081 67.5698 33.9933 67.5755 33.9794C67.5811 33.9655 67.5895 33.9529 67.6001 33.9423C67.6106 33.9316 67.6232 33.9232 67.6371 33.9174C67.6509 33.9117 67.6657 33.9087 67.6807 33.9087H68.4033C68.4636 33.9087 68.5171 33.9622 68.5171 34.0225V38.0817C68.5171 38.1406 68.4636 38.1888 68.4033 38.1888H68.307C68.279 38.1853 68.2523 38.1755 68.2287 38.16L65.8515 35.7647H65.8455V38.0142C65.8456 38.0292 65.8427 38.044 65.837 38.0579C65.8313 38.0718 65.823 38.0844 65.8124 38.095C65.8018 38.1057 65.7893 38.1141 65.7754 38.1199C65.7616 38.1256 65.7467 38.1286 65.7317 38.1286H65.0151C64.9853 38.1274 64.9569 38.1151 64.9357 38.094C64.9146 38.073 64.9021 38.0447 64.9007 38.0148L64.894 33.9556H64.8947Z" fill="#2B146C"/>
<path fill-rule="evenodd" clip-rule="evenodd" d="M64.8947 33.9556C64.8947 33.8953 64.9489 33.8472 65.0085 33.8472H65.1597L67.5603 36.1628H67.567V34.0231C67.5669 34.0081 67.5698 33.9933 67.5755 33.9794C67.5811 33.9655 67.5895 33.9529 67.6001 33.9423C67.6106 33.9316 67.6232 33.9232 67.6371 33.9174C67.6509 33.9117 67.6657 33.9087 67.6807 33.9087H68.4033C68.4636 33.9087 68.5171 33.9622 68.5171 34.0225V38.0817C68.5171 38.1406 68.4636 38.1888 68.4033 38.1888H68.307C68.279 38.1853 68.2523 38.1755 68.2287 38.16L65.8515 35.7647H65.8455V38.0142C65.8456 38.0292 65.8427 38.044 65.837 38.0579C65.8313 38.0718 65.823 38.0844 65.8124 38.095C65.8018 38.1057 65.7893 38.1141 65.7754 38.1199C65.7616 38.1256 65.7467 38.1286 65.7317 38.1286H65.0151C64.9853 38.1274 64.9569 38.1151 64.9357 38.094C64.9146 38.073 64.9021 38.0447 64.9007 38.0148L64.894 33.9556H64.8947ZM72.2338 34.0218C72.2338 33.9616 72.2887 33.9081 72.3489 33.9081H73.0895C73.1551 33.9081 73.2033 33.9616 73.2033 34.0218V36.4646C73.2033 36.8861 73.5157 37.224 73.9433 37.224C74.0431 37.2254 74.1421 37.2066 74.2345 37.1688C74.3269 37.1311 74.4107 37.0751 74.481 37.0042C74.5512 36.9333 74.6065 36.849 74.6434 36.7563C74.6804 36.6636 74.6983 36.5644 74.696 36.4646V34.0225C74.6958 34.0074 74.6986 33.9925 74.7043 33.9785C74.7099 33.9646 74.7183 33.9519 74.7288 33.9412C74.7394 33.9305 74.752 33.922 74.7659 33.9162C74.7798 33.9104 74.7947 33.9074 74.8097 33.9074H75.5497C75.61 33.9074 75.6648 33.9609 75.6648 34.0218V36.5128C75.6648 37.4294 74.894 38.1888 73.9433 38.1888C72.9986 38.1888 72.2338 37.4294 72.2338 36.5128V34.0218Z" fill="#2B146C"/>
<path fill-rule="evenodd" clip-rule="evenodd" d="M72.2339 34.0218C72.2339 33.9615 72.2887 33.908 72.349 33.908H73.0896C73.1552 33.908 73.2034 33.9615 73.2034 34.0218V36.4646C73.2034 36.8861 73.5158 37.224 73.9434 37.224C74.0432 37.2253 74.1422 37.2066 74.2346 37.1688C74.327 37.131 74.4108 37.0751 74.4811 37.0042C74.5513 36.9333 74.6066 36.849 74.6435 36.7563C74.6805 36.6635 74.6983 36.5643 74.6961 36.4646V34.0224C74.6959 34.0074 74.6987 33.9924 74.7044 33.9785C74.71 33.9645 74.7183 33.9518 74.7289 33.9411C74.7395 33.9304 74.7521 33.9219 74.766 33.9161C74.7799 33.9103 74.7948 33.9073 74.8098 33.9073H75.5498C75.61 33.9073 75.6649 33.9609 75.6649 34.0218V36.5127C75.6649 37.4294 74.8941 38.1888 73.9434 38.1888C72.9986 38.1888 72.2339 37.4294 72.2339 36.5127V34.0218ZM79.8981 34.7939H79.037C79.0069 34.7935 78.978 34.7813 78.9568 34.7599C78.9355 34.7385 78.9235 34.7096 78.9233 34.6795V34.0218C78.9232 34.0068 78.9261 33.9919 78.9318 33.978C78.9374 33.9642 78.9458 33.9515 78.9564 33.9409C78.9669 33.9303 78.9795 33.9218 78.9934 33.9161C79.0072 33.9103 79.022 33.9073 79.037 33.9073H81.71C81.7249 33.9074 81.7397 33.9105 81.7535 33.9163C81.7672 33.9221 81.7797 33.9305 81.7902 33.9411C81.8007 33.9518 81.809 33.9643 81.8147 33.9782C81.8203 33.992 81.8232 34.0068 81.8231 34.0218V34.6795C81.8232 34.6945 81.8203 34.7093 81.8146 34.7232C81.8089 34.7371 81.8006 34.7497 81.79 34.7603C81.7794 34.771 81.7669 34.7794 81.753 34.7851C81.7392 34.7909 81.7243 34.7939 81.7093 34.7939H80.8489V38.0148C80.8489 38.0737 80.7947 38.1285 80.7338 38.1285H80.0126C79.9826 38.1276 79.9542 38.1153 79.933 38.0942C79.9118 38.0731 79.8993 38.0447 79.8981 38.0148V34.7939Z" fill="#2B146C"/>
<path fill-rule="evenodd" clip-rule="evenodd" d="M79.8982 34.794H79.0371C79.0069 34.7936 78.9781 34.7814 78.9568 34.76C78.9355 34.7386 78.9235 34.7097 78.9233 34.6796V34.0219C78.9233 34.0069 78.9261 33.992 78.9318 33.9781C78.9375 33.9643 78.9458 33.9516 78.9564 33.941C78.967 33.9304 78.9796 33.9219 78.9934 33.9162C79.0072 33.9104 79.0221 33.9074 79.0371 33.9074H81.71C81.725 33.9075 81.7397 33.9106 81.7535 33.9164C81.7673 33.9222 81.7798 33.9306 81.7903 33.9412C81.8008 33.9519 81.8091 33.9644 81.8147 33.9783C81.8203 33.9921 81.8232 34.0069 81.8231 34.0219V34.6796C81.8232 34.6946 81.8203 34.7094 81.8146 34.7233C81.809 34.7372 81.8006 34.7498 81.79 34.7604C81.7795 34.7711 81.7669 34.7795 81.7531 34.7852C81.7392 34.791 81.7244 34.794 81.7094 34.794H80.8489V38.0149C80.8489 38.0738 80.7947 38.1286 80.7339 38.1286H80.0126C79.9827 38.1277 79.9543 38.1154 79.933 38.0943C79.9118 38.0732 79.8994 38.0448 79.8982 38.0149V34.794ZM84.9985 37.5559L85.2822 37.0554C85.3297 36.9772 85.4448 36.9892 85.4863 37.0193C85.5104 37.0314 85.9433 37.3505 86.3407 37.3505C86.5816 37.3505 86.7562 37.2 86.7562 36.9892C86.7562 36.7363 86.5448 36.5429 86.136 36.3803C85.6181 36.1749 84.9684 35.7708 84.9684 35.0469C84.9684 34.4507 85.4321 33.8479 86.3588 33.8479C86.9844 33.8479 87.4661 34.167 87.6461 34.2995C87.719 34.3417 87.707 34.4507 87.6829 34.4929L87.3751 34.9572C87.3336 35.0228 87.2252 35.0777 87.1717 35.0355C87.1175 35.0054 86.6779 34.6742 86.3106 34.6742C86.0938 34.6742 85.9312 34.8187 85.9312 34.9813C85.9312 35.2041 86.1119 35.3734 86.5883 35.5661C87.0566 35.7534 87.8033 36.1214 87.8033 36.941C87.8033 37.5619 87.268 38.1895 86.3829 38.1895C85.6 38.1895 85.1672 37.8637 85.0287 37.7245C84.9684 37.6643 84.9504 37.6402 84.9985 37.5559Z" fill="#2B146C"/>
<path fill-rule="evenodd" clip-rule="evenodd" d="M84.9984 37.5559L85.2821 37.0554C85.3296 36.9772 85.4446 36.9892 85.4861 37.0193C85.5102 37.0314 85.9431 37.3505 86.3405 37.3505C86.5814 37.3505 86.756 37.2 86.756 36.9892C86.756 36.7363 86.5446 36.5429 86.1358 36.3803C85.6179 36.1749 84.9683 35.7708 84.9683 35.0469C84.9683 34.4507 85.4319 33.8479 86.3586 33.8479C86.9842 33.8479 87.4659 34.167 87.6459 34.2995C87.7188 34.3417 87.7068 34.4507 87.6827 34.4929L87.3749 34.9572C87.3334 35.0228 87.2251 35.0777 87.1715 35.0355C87.1173 35.0054 86.6778 34.6742 86.3104 34.6742C86.0936 34.6742 85.9311 34.8187 85.9311 34.9813C85.9311 35.2041 86.1117 35.3734 86.5881 35.5661C87.0564 35.7534 87.8031 36.1214 87.8031 36.941C87.8031 37.5619 87.2679 38.1895 86.3827 38.1895C85.5999 38.1895 85.167 37.8637 85.0285 37.7245C84.9683 37.6643 84.9502 37.6402 84.9984 37.5559Z" fill="#2B146C"/>
<path fill-rule="evenodd" clip-rule="evenodd" d="M111.395 35.3305C111.268 35.3532 111.139 35.3545 110.991 35.3673V34.8882C111.131 34.8882 111.253 34.8815 111.374 34.8902C111.489 34.8989 111.551 34.9725 111.557 35.0882C111.563 35.2094 111.522 35.3084 111.395 35.3305ZM111.846 34.9979C111.808 34.8133 111.685 34.6942 111.507 34.6801C111.245 34.66 110.981 34.6748 110.702 34.6748V36.1273H110.973V35.6054C111.535 35.5747 111.496 35.5539 111.611 36.1461L111.841 36.132C111.824 35.8671 111.863 35.6141 111.6 35.4549C111.807 35.3552 111.888 35.206 111.846 34.9979Z" fill="#6952A9"/>
<path fill-rule="evenodd" clip-rule="evenodd" d="M111.25 36.5409C110.612 36.5462 110.114 36.0458 110.116 35.4015C110.114 35.2536 110.142 35.1069 110.198 34.97C110.254 34.8331 110.337 34.7088 110.442 34.6044C110.547 34.4999 110.671 34.4174 110.808 34.3617C110.945 34.3061 111.092 34.2783 111.24 34.2801C111.87 34.2808 112.357 34.7719 112.358 35.4061C112.359 36.0464 111.881 36.5362 111.25 36.5409ZM111.257 34.064C110.545 34.0212 109.893 34.6434 109.892 35.3887C109.89 36.1522 110.482 36.7624 111.238 36.767C111.983 36.7697 112.579 36.1783 112.592 35.4235C112.594 35.2464 112.561 35.0707 112.495 34.9063C112.429 34.742 112.331 34.5923 112.207 34.466C112.083 34.3396 111.935 34.2391 111.772 34.1701C111.609 34.1011 111.434 34.065 111.257 34.064Z" fill="#6952A9"/>
<path fill-rule="evenodd" clip-rule="evenodd" d="M83.7373 18.3186C84.2124 18.3186 84.2244 18.9757 84.195 19.3925C84.116 20.5112 83.4577 21.8239 81.803 22.0086C82.0111 20.1378 82.8368 18.3186 83.7373 18.3186ZM103.629 18.3186C103.97 18.3186 104.063 18.7602 104.069 19.0613C104.099 20.7099 103.064 21.9183 101.673 22.0072C101.881 20.1365 102.663 18.3186 103.629 18.3186ZM75.853 13.7047C70.1805 13.7047 67.3182 17.7479 67.3182 17.7479C67.9002 17.315 68.6061 17.0809 69.3315 17.0802C70.2675 17.0802 71.0135 17.6884 71.0323 18.704C71.0804 21.3201 69.4586 24.2995 69.4794 25.4483C69.4854 25.7728 69.6112 26.0438 69.9905 26.0438C70.4187 26.0438 70.9841 25.6383 71.6365 24.1556C72.3223 22.5967 73.0449 20.5313 73.7353 18.4217C73.3045 18.229 72.5711 17.8349 72.5524 16.8306C72.5404 16.1461 73.1185 15.6249 73.906 15.6249C75.5331 15.6249 75.202 17.222 75.1986 17.2394C76.2109 17.6308 78.0221 17.4455 78.6664 17.4348C78.8096 17.4321 78.908 17.582 78.8551 17.7165L78.7909 17.8797C77.3189 22.3659 77.3028 24.5464 78.2302 24.5464C78.8497 24.5464 79.3676 23.9469 79.4693 23.7495C79.4276 23.4658 79.4042 23.1798 79.3991 22.8931C79.3636 21.0036 80.6195 17.2327 83.7186 17.2327C85.3317 17.2327 85.9888 18.2497 86.0115 19.4808C86.047 21.4031 84.2164 22.8563 81.783 22.8563C81.706 23.8077 82.2005 24.9525 83.1479 24.9525C84.1702 24.9525 85.5311 24.7036 86.7629 21.7677C86.7977 21.648 87.9258 17.495 87.9258 17.495C87.937 17.451 87.9626 17.4119 87.9984 17.3839C88.0342 17.3559 88.0783 17.3407 88.1238 17.3404H90.0507C90.0842 17.3413 90.1171 17.3497 90.1468 17.3652C90.1766 17.3806 90.2024 17.4026 90.2224 17.4294C90.2424 17.4563 90.256 17.4874 90.2622 17.5203C90.2684 17.5532 90.267 17.5871 90.2581 17.6194L89.9985 18.5695C90.865 17.586 91.9355 17.2367 92.5939 17.2367C93.9207 17.2367 93.9902 18.1955 94.0485 18.7535C94.7276 17.8904 95.8369 17.2367 96.8907 17.2367C98.1767 17.2367 98.4443 18.1942 98.4543 18.7422C98.4784 20.0361 97.7083 21.9785 97.539 23.6746C97.4775 24.2834 97.5939 24.812 98.0689 24.812C98.5547 24.812 99.104 24.3771 99.3703 24.0205C99.3054 23.6846 99.2632 22.9787 99.2612 22.8315C99.2157 20.3774 100.83 17.2314 103.662 17.2314C105.308 17.2314 105.874 18.3855 105.896 19.5196C105.921 20.9381 104.582 22.8543 101.655 22.8543C101.645 22.948 101.64 23.0196 101.642 23.1353C101.655 23.8713 102.042 24.9458 103.074 24.9458C104.249 24.9458 104.887 24.3858 105.409 23.7301C105.467 23.6565 105.609 23.6411 105.71 23.7054C105.852 23.7937 105.931 23.8492 106.017 23.9195C106.104 23.9897 106.127 24.157 106.052 24.2714C105.577 24.998 104.484 26.4445 102.344 26.4445C101.331 26.4445 100.197 26.118 99.6948 24.9124C99.0826 25.7755 98.1124 26.4338 96.9181 26.4338C95.224 26.4338 94.4131 25.4577 95.2816 22.1571C95.4274 21.6038 95.9252 19.7036 95.9413 19.632C96.0262 19.262 95.8898 19.0887 95.6502 19.0887C95.1283 19.0887 94.2184 19.7926 93.8819 20.5513L92.4186 26.1849C92.4074 26.2289 92.3819 26.2679 92.3462 26.2958C92.3105 26.3238 92.2666 26.3391 92.2212 26.3395H90.1819C90.1486 26.3388 90.1159 26.3305 90.0862 26.3153C90.0566 26.3002 90.0308 26.2784 90.0108 26.2518C89.9907 26.2252 89.977 26.1944 89.9706 26.1618C89.9642 26.1291 89.9653 26.0954 89.9738 26.0632L91.6438 19.632C91.7321 19.2486 91.5849 19.0901 91.334 19.0901C90.8095 19.0901 89.8634 19.7638 89.5697 20.5513L88.0509 26.1849C88.0396 26.2291 88.0139 26.2683 87.978 26.2962C87.942 26.3242 87.8977 26.3394 87.8522 26.3395H85.8162C85.7828 26.3386 85.7501 26.3302 85.7205 26.3148C85.6909 26.2995 85.6651 26.2776 85.6452 26.2509C85.6252 26.2242 85.6116 26.1933 85.6053 26.1606C85.599 26.1278 85.6001 26.0941 85.6087 26.0618L85.9714 24.7458C85.0922 25.8832 83.8866 26.4385 82.4333 26.4385C80.9787 26.4385 80.0922 25.4597 79.7624 24.7157C79.2097 25.4249 78.2482 26.4399 76.7248 26.4399C75.3217 26.4399 74.9169 25.1432 74.9357 23.9596C74.9497 23.1326 75.1578 22.3706 75.3465 21.5911C75.5721 20.6728 75.8016 19.7555 76.035 18.8392C75.6335 18.8097 75.1344 18.7455 74.8219 18.6759C74.5208 19.6708 72.8849 24.4199 72.4681 25.2168C71.4698 27.1257 70.6422 28.1072 68.7561 28.1072C66.9489 28.1072 65.8242 26.7711 66.3093 24.8689C66.6906 23.3728 67.61 20.4945 67.5972 19.8361C67.5919 19.5517 67.3858 19.3075 66.9737 19.3075C66.0918 19.3075 65.0434 20.6269 64.3228 22.6342C64.3107 22.6696 63.1921 26.6252 62.9177 27.6067C62.9054 27.6542 62.8778 27.6962 62.839 27.7262C62.8003 27.7563 62.7526 27.7726 62.7036 27.7727H59.9149C59.8783 27.7719 59.8423 27.7628 59.8098 27.7459C59.7772 27.7291 59.749 27.705 59.7272 27.6755C59.7054 27.6461 59.6907 27.612 59.6841 27.5759C59.6776 27.5399 59.6794 27.5028 59.6894 27.4676C59.6894 27.4676 63.6303 12.9172 63.6611 12.7011C64.0117 11.2826 63.0576 10.91 62.5591 10.8116C62.3851 10.7775 62.3249 10.5085 62.4882 10.4443C63.9802 9.86888 66.961 10.0007 67.0091 12.5987C67.0292 13.7261 66.0751 16.6426 65.5974 18.0303C66.5769 16.7697 70.8135 10.7594 75.8101 10.7594L105.747 10.7641C106.524 10.7641 107.736 10.7641 108.089 10.2422C108.215 10.0562 108.528 10.2355 108.555 10.4624C108.563 10.5293 108.57 10.6617 108.57 10.6617C108.601 12.3431 107.304 13.706 105.674 13.706L75.8523 13.7047H75.853ZM36.2731 13.7054C36.5087 13.3956 36.7328 12.8168 36.7328 12.2347C36.7328 11.6761 36.5649 11.1876 36.2645 10.7648H57.984C58.7601 10.7648 59.8741 10.9133 60.3271 10.2422C60.4522 10.0562 60.7653 10.2355 60.7928 10.463C60.8008 10.5279 60.8061 10.6617 60.8061 10.6617C60.8389 12.3431 59.5416 13.706 57.9117 13.706H36.2731V13.7054ZM34.203 13.7054C34.0103 13.7048 33.8196 13.6663 33.6418 13.5921C33.464 13.5178 33.3025 13.4092 33.1667 13.2725C33.0308 13.1358 32.9233 12.9737 32.8501 12.7954C32.777 12.6171 32.7397 12.4261 32.7404 12.2334C32.7404 11.4205 33.3948 10.7614 34.203 10.7614C35.0106 10.7614 35.665 11.4205 35.665 12.2334C35.665 13.0463 35.0106 13.7054 34.203 13.7054ZM58.3901 17.2381C58.536 17.2381 58.643 17.3839 58.6049 17.5271L56.0557 26.9852L57.5845 27.41C57.6956 27.4408 57.7357 27.6041 57.705 27.7178L57.5725 28.1192C57.5662 28.1446 57.555 28.1684 57.5395 28.1894C57.524 28.2104 57.5045 28.2282 57.4821 28.2416C57.4597 28.255 57.4349 28.2639 57.4091 28.2677C57.3833 28.2715 57.3569 28.2702 57.3316 28.2638C57.0673 28.1955 56.1132 27.9399 55.7493 27.8804C55.1979 29.1797 54.4165 30.8718 51.88 30.8718C50.7814 30.8718 49.7724 30.2188 49.755 29.3115C49.7309 27.9868 51.3849 26.7664 53.5942 26.7664C53.6892 26.5188 53.9548 25.5487 53.9548 25.5487C53.259 26.3743 52.3959 26.4392 51.8853 26.4412C51.061 26.4439 50.2374 25.7226 50.1076 24.5959C49.0552 25.7534 47.3845 26.4472 45.59 26.4472C45.5873 26.4472 45.5847 26.4472 45.582 26.4459C44.3884 26.4432 43.8263 26.193 43.5045 25.7179L42.5638 29.2895C42.5514 29.3377 42.5235 29.3805 42.4843 29.4112C42.4451 29.442 42.3968 29.4589 42.347 29.4594H40.3545C40.2006 29.4594 40.0869 29.3075 40.1284 29.155L41.0316 25.7848L41.2029 25.1492C40.127 25.9113 38.6203 26.3743 37.2232 26.4385C37.1135 26.4452 37.0024 26.4486 36.886 26.4486C35.4803 26.4486 34.7383 25.8946 34.3797 25.3145C34.0224 25.748 33.1165 26.4606 32.1041 26.4606C31.4719 26.4606 30.8784 26.2646 30.493 25.7815C30.3602 25.6101 30.2649 25.4127 30.2133 25.2021C30.1652 25.2623 30.1177 25.3232 30.0675 25.3821C29.4921 26.0478 28.7072 26.47 27.7123 26.47C26.1922 26.47 25.8015 24.9873 25.8189 23.9596C25.8329 23.1333 26.0396 22.3712 26.229 21.5911C26.4571 20.6719 26.6891 19.7537 26.9248 18.8365C26.5247 18.8064 26.0182 18.7455 25.7071 18.6759C25.4054 19.6702 24.0525 23.708 23.35 25.2175C22.7244 26.5623 21.9436 28.1059 19.8293 28.1059C18.3386 28.1059 16.609 27.0755 17.1905 24.8943C17.5631 23.4892 17.907 22.1859 18.3051 20.823C18.5018 20.1459 18.718 19.3069 17.8569 19.3069C16.88 19.3069 15.8523 20.8337 15.206 22.6335C15.1926 22.6696 14.0746 26.6259 13.8009 27.6067C13.7885 27.6541 13.7608 27.6961 13.7221 27.7261C13.6834 27.7561 13.6358 27.7725 13.5868 27.7727H10.7968C10.7603 27.7718 10.7244 27.7626 10.692 27.7457C10.6596 27.7289 10.6315 27.7049 10.6098 27.6755C10.5881 27.6461 10.5735 27.6122 10.5669 27.5763C10.5603 27.5403 10.5621 27.5034 10.572 27.4682C10.572 27.4682 14.5128 12.9172 14.5429 12.7004C14.8935 11.282 13.9401 10.91 13.4416 10.8116C13.269 10.7782 13.2068 10.5078 13.37 10.4436C14.8634 9.86821 17.8435 10.0014 17.891 12.5987C17.9117 13.7261 16.9583 16.6426 16.4792 18.0303C17.4588 16.7691 21.6017 10.7594 26.5983 10.7594L32.1369 10.7641C31.866 11.1415 31.6585 11.6761 31.6686 12.2347C31.6793 12.7934 31.8271 13.2651 32.1302 13.706H26.6338C20.9614 13.706 18.2001 17.7472 18.2001 17.7472C18.7849 17.3217 19.3857 17.0748 20.2588 17.0748C21.6164 17.0748 21.9268 18.2838 21.9315 18.8305C21.9483 21.0498 20.3679 24.5591 20.3819 25.3553C20.3886 25.6791 20.4422 26.0545 20.8456 26.0545C21.4618 26.0545 22.0814 25.1793 22.2908 24.731C22.8328 23.5722 23.9341 20.655 24.6399 18.4083C24.2084 18.2143 23.5748 17.8108 23.4543 17.0942C23.3165 16.2759 23.9414 15.6223 24.7289 15.6223C26.2303 15.6223 26.1808 16.9069 26.1086 17.2361C27.1202 17.6261 28.912 17.4388 29.557 17.4281C29.6995 17.4261 29.7978 17.5753 29.7457 17.7091L29.6814 17.873C28.267 22.1785 28.2295 24.545 29.1468 24.545C29.6553 24.545 30.3177 23.9161 30.5318 23.1393C31.0172 21.3389 31.5007 19.538 31.9824 17.7365L32.0888 17.3793C32.1007 17.3388 32.1254 17.3033 32.1591 17.278C32.1929 17.2526 32.2339 17.2389 32.2761 17.2387H34.3348C34.3663 17.2395 34.3972 17.2475 34.4251 17.262C34.453 17.2765 34.4773 17.2972 34.4961 17.3225C34.5148 17.3477 34.5276 17.3769 34.5334 17.4079C34.5392 17.4388 34.5379 17.4707 34.5295 17.501L33.0402 23.0222C33.0402 23.0222 33.0362 23.0617 33.0201 23.1246C32.7123 24.3095 32.8127 24.8729 33.1318 24.8729C33.5708 24.8729 33.8846 24.4681 33.9916 24.3269C33.7327 23.4866 34.3864 22.7325 35.0782 22.6322C36.13 20.8919 37.885 17.683 38.3901 16.8473C38.4281 16.7862 38.4815 16.7361 38.5449 16.7021C38.6083 16.6681 38.6795 16.6512 38.7514 16.6533H39.8654C39.9992 16.6533 40.0574 16.8112 39.9825 16.9323C39.8453 17.1571 39.6506 17.5164 39.6613 18.14C39.6854 19.4233 40.4241 21.2418 40.4582 23.0871C40.4636 23.3748 40.4294 24.0901 40.0762 24.7886C40.2963 24.6815 40.5158 24.5544 40.7299 24.4079C41.0396 24.1851 41.5943 23.6886 41.8097 22.8871L43.1934 17.7365L43.2984 17.3879C43.3108 17.3449 43.3367 17.307 43.3725 17.28C43.4082 17.2529 43.4517 17.2382 43.4965 17.2381H45.4C45.5405 17.2381 45.6449 17.3786 45.6088 17.5191L45.4187 18.223C46.037 17.4415 46.7857 17.1304 47.4688 17.1304C49.2525 17.1304 49.7905 19.1416 49.3041 21.5723C49.0431 22.8717 48.631 24.0258 48.0689 24.8843C48.4346 24.7405 48.7811 24.5522 49.1007 24.3236C49.2766 24.1951 50.1277 23.5307 50.4248 22.4528C50.5626 21.9477 50.7238 21.4024 50.8663 20.8176L51.6947 17.7365L51.797 17.394C51.81 17.3494 51.837 17.3103 51.874 17.2823C51.911 17.2543 51.9561 17.2391 52.0024 17.2387H54.0204C54.1662 17.2387 54.2739 17.3839 54.2351 17.5271L52.6126 23.4919C52.4701 24.1282 52.5431 24.8789 53.1359 24.8789C53.7166 24.8789 54.3094 24.0981 54.753 22.588L56.1701 17.3993C56.1819 17.3536 56.2085 17.313 56.2458 17.284C56.2831 17.2549 56.3289 17.239 56.3762 17.2387H58.3901V17.2381ZM51.6097 29.5216C52.4869 29.5216 52.814 28.8224 53.267 27.7064C52.4072 27.7519 51.1019 28.227 51.1173 29.0894C51.1219 29.3276 51.318 29.5216 51.6097 29.5216ZM46.9489 20.5868C47.1644 19.2788 46.8285 18.795 46.4016 18.795C45.5619 18.795 45.0889 19.8026 44.8226 20.7848C44.7396 21.0886 44.4573 22.2013 44.1247 23.431C43.8745 24.3517 44.114 24.998 44.7149 24.998C45.8369 24.998 46.5595 22.966 46.9496 20.5868H46.9489ZM36.7589 25.4175C37.4614 25.4175 38.1425 24.5276 38.1205 23.3106C38.081 21.1736 37.7224 20.097 37.6789 19.8361C37.5424 20.1479 36.2143 22.5726 35.9915 22.9152C36.3106 23.0871 36.4705 23.5996 36.4765 23.9422C36.4886 24.6046 36.0885 24.7752 36.0938 25.0502C36.0972 25.2295 36.4123 25.4175 36.7596 25.4175H36.7589Z" fill="#6952A9"/>
</svg>
