<svg width="105" height="40" viewBox="0 0 105 40" fill="none" xmlns="http://www.w3.org/2000/svg">
<path d="M0.714844 39.9895H16.7192L0.714844 23.9851V39.9895ZM104.685 0.00170898H88.6809L104.685 16.0061V0.00170898ZM23.1067 30.3978L32.6962 39.9873H48.6787L39.0892 30.3978H23.1067ZM0.714844 0.00170898V7.99295L10.3043 17.5824V9.5912H18.2956L8.70609 0.00170898H0.714844ZM104.685 31.9962L95.0958 22.4067V30.398H87.1046L96.694 39.9875H104.685V31.9962ZM82.2934 9.59361L72.7039 0.0041173H56.6995L66.289 9.59361H82.2934ZM50.2923 9.59361L40.7028 0.0041173H24.6984L34.2879 9.59361H50.2923ZM55.0859 30.3978L64.6754 39.9873H80.6798L71.0903 30.3978H55.0859Z" fill="#2B146C"/>
<path d="M39.6345 16.7576C39.3061 16.473 38.8464 16.3197 38.2771 16.3197H36.5913V19.8008H38.2771C38.8683 19.8008 39.3061 19.6476 39.6345 19.341C39.963 19.0345 40.1162 18.6186 40.1162 18.0712V18.0274C40.1381 17.4582 39.9848 17.0422 39.6345 16.7576ZM65.462 21.5177H67.936L66.6881 17.6206L65.462 21.5177Z" fill="#6952A9"/>
<path d="M83.9907 26.382C83.0712 26.0755 82.2173 25.572 81.4291 24.8933L83.2463 22.3974C83.7936 22.8353 84.3629 23.2074 84.9759 23.4921C85.5889 23.7767 86.2239 23.908 86.8588 23.908C87.3186 23.908 87.6689 23.8205 87.8878 23.6453C88.1286 23.4702 88.2381 23.2293 88.2381 22.9447V22.9228C88.2381 22.7915 88.2162 22.682 88.1505 22.5506C88.0848 22.4412 87.9973 22.3317 87.844 22.2222C87.6908 22.1128 87.4937 22.0033 87.2529 21.8938C86.9901 21.7843 86.6836 21.653 86.2895 21.5216C85.6546 21.3027 85.0854 21.0837 84.5599 20.8429C84.0345 20.6021 83.5966 20.3394 83.2025 20.0109C82.8303 19.6825 82.5238 19.3103 82.3268 18.8944C82.1078 18.4565 82.0202 17.9529 82.0202 17.3399V17.2742C82.0202 16.6612 82.1297 16.1138 82.3487 15.6103C82.5676 15.1067 82.896 14.6689 83.2901 14.3186C83.7061 13.9464 84.2096 13.6836 84.8008 13.4647C85.3919 13.2677 86.0487 13.1582 86.7712 13.1582C87.6689 13.1582 88.5227 13.2895 89.3109 13.5304C90.0991 13.7931 90.8435 14.1872 91.5441 14.7783L89.8145 17.3399C89.3547 16.9896 88.873 16.6831 88.3257 16.4641C87.8002 16.2452 87.2529 16.1138 86.7055 16.1138C86.3114 16.1138 86.0049 16.2014 85.8079 16.3547C85.5889 16.5298 85.5014 16.7269 85.5014 16.9896V17.0115C85.5014 17.1648 85.5233 17.2961 85.5889 17.4056C85.6546 17.5151 85.7641 17.6245 85.9174 17.7559C86.0706 17.8654 86.2895 17.9967 86.5742 18.1281C86.8369 18.2594 87.1872 18.3908 87.6032 18.5441C88.2381 18.7411 88.8073 18.96 89.3109 19.2009C89.8144 19.4417 90.2523 19.7263 90.6026 20.0547C90.9529 20.3831 91.2375 20.7553 91.4127 21.1713C91.6097 21.5873 91.6973 22.0909 91.6973 22.6601V22.7039C91.6973 23.3607 91.566 23.9299 91.3251 24.4554C91.0843 24.9808 90.7559 25.4187 90.318 25.769C89.902 26.1412 89.3766 26.4039 88.7854 26.601C88.1943 26.798 87.5375 26.8856 86.815 26.8856C85.8736 26.8637 84.9102 26.6886 83.9907 26.382ZM78.2107 21.6311V26.6667H74.7734V21.6749L70.4822 13.3333H74.2698L76.503 18.15L78.7581 13.3333H82.48L78.2107 21.6311ZM69.5627 26.6667L68.7745 24.2583H64.5928L63.8265 26.6667H60.3016L64.9869 13.2677H68.4461L73.1533 26.6667H69.5627ZM57.0832 26.185C56.2293 26.4915 55.2879 26.6667 54.1932 26.6667H49.8801V13.3333H54.2589C55.3317 13.3333 56.2731 13.4866 57.1051 13.7931C57.9371 14.0996 58.6377 14.5375 59.2288 15.1067C59.798 15.676 60.2359 16.3547 60.5424 17.1648C60.8489 17.9748 60.9803 18.8506 60.9803 19.8358V20.0547C60.9803 21.04 60.827 21.9376 60.5424 22.7477C60.2359 23.5577 59.798 24.2583 59.2288 24.8276C58.6377 25.4187 57.9371 25.8785 57.0832 26.185ZM48.2162 26.6667H44.7789V13.3333H48.2162V26.6667ZM40.0936 26.6667L37.8385 22.5287H36.6125V26.6667H33.197V13.3333H38.4297C40.225 13.3333 41.5605 13.7931 42.4362 14.6908C42.8084 15.0629 43.0931 15.5008 43.2901 16.0044C43.4871 16.5298 43.5966 17.121 43.5966 17.7997V17.8872C43.5966 18.8725 43.3777 19.6825 42.9398 20.3175C42.5019 20.9524 41.9327 21.4559 41.2102 21.8062L43.9469 26.6448H40.0936V26.6667ZM32.168 16.4204H26.5413V18.7849H31.5988V21.7406H26.5413V26.6667H23.104V13.3333H32.168V16.4204ZM17.4554 21.7843H17.324C15.3317 21.7843 13.9305 20.405 13.9305 18.566C13.9305 17.6026 14.2151 16.9239 14.7406 16.2671L16.0542 17.2304C15.7477 17.5807 15.5068 17.9748 15.5068 18.5441C15.5068 19.3979 16.2512 20.0328 17.3459 20.0328H17.4335C18.6596 20.0328 19.3383 19.376 19.3383 18.5222C19.3383 18.1938 19.2726 17.931 19.1412 17.7559H18.156V18.8068H16.8205V16.1357H19.9951C20.4548 16.7707 20.827 17.5807 20.827 18.5879C20.827 20.405 19.5353 21.7843 17.4554 21.7843ZM20.7176 25.1998H15.5944V26.8418H14.04V21.8281H15.5944V23.4702H20.7176V25.1998ZM14.04 13.3333H20.7176V15.0411H14.04V13.3333ZM95.069 30.3886V22.3974L104.658 31.9869V15.9825L88.676 0H72.6716L82.2611 9.58949H66.3005L56.711 0H40.7285L50.318 9.58949H34.3136L24.7241 0H8.71976L18.3092 9.58949H10.318V17.5807L0.728516 7.99124V23.9956L16.7329 40H32.7373L23.1478 30.4105H39.1522L48.7417 40H64.746L55.1565 30.4105H71.1609L80.7504 40H96.7548L87.0777 30.3886H95.069Z" fill="#6952A9"/>
<path d="M54.2875 16.3987H53.3022V23.6017H54.2875C55.2289 23.6017 56.0171 23.3171 56.5863 22.7479C57.1775 22.1786 57.4621 21.3029 57.4621 20.0987V19.9236C57.4621 18.7194 57.1775 17.8218 56.5863 17.2525C56.0171 16.6833 55.2508 16.3987 54.2875 16.3987Z" fill="#6952A9"/>
<path d="M23.1051 26.6531H26.5424V21.727H31.5999V18.7713H26.5424V16.4068H32.1691V13.3197H23.1051V26.6531ZM40.1514 18.0851C40.1514 18.6106 39.9981 19.0485 39.6697 19.355C39.3413 19.6615 38.8815 19.8148 38.3123 19.8148H36.6265V16.3336H38.3123C38.8815 16.3336 39.3413 16.4869 39.6697 16.7715C39.9981 17.0561 40.1733 17.494 40.1733 18.0633V18.0851H40.1514ZM42.9319 20.3402C43.3698 19.7053 43.5887 18.8952 43.5887 17.91V17.8224C43.5887 17.1437 43.4792 16.5307 43.2822 16.0271C43.0851 15.5017 42.8005 15.0638 42.4283 14.7135C41.5526 13.8159 40.2171 13.3561 38.4218 13.3561H33.1891V26.6894H36.6046V22.5515H37.8306L40.0857 26.6894H43.9609L41.2242 21.8509C41.9248 21.4787 42.494 20.9751 42.9319 20.3402ZM44.7872 26.6566H48.2245V13.3232H44.7872V26.6566ZM57.4775 20.0889C57.4775 21.293 57.1929 22.1688 56.6017 22.738C56.0106 23.3073 55.2443 23.5919 54.3029 23.5919H53.3177V16.3888H54.3029C55.2443 16.3888 56.0325 16.6734 56.6017 17.2427C57.1929 17.8119 57.4775 18.7096 57.4775 19.9137V20.0889ZM60.9805 20.067V19.848C60.9805 18.8628 60.8272 17.9871 60.5426 17.177C60.2361 16.3669 59.8201 15.6882 59.229 15.119C58.6597 14.5497 57.9591 14.1119 57.1053 13.8053C56.2733 13.4988 55.31 13.3456 54.2591 13.3456H49.8803V26.6789H54.1934C55.2662 26.6789 56.2295 26.5257 57.0834 26.1972C57.9373 25.8907 58.6379 25.431 59.2071 24.8617C59.7763 24.2925 60.2142 23.5919 60.5207 22.7818C60.8272 21.9498 60.9805 21.0522 60.9805 20.067ZM65.4619 21.5177L66.7099 17.6206L67.9578 21.5177H65.4619ZM65.0022 13.2637L60.3169 26.6627H63.8418L64.6081 24.2544H68.7898L69.578 26.6627H73.1686L68.4614 13.2637H65.0022ZM78.762 13.3384L76.5069 18.155L74.2738 13.3384H70.4861L74.7773 21.6799V26.6717H78.2146V21.6361L82.5058 13.3384H78.762ZM90.3493 25.7362C90.7653 25.364 91.1156 24.9261 91.3564 24.4225C91.5972 23.919 91.7286 23.3278 91.7286 22.671V22.6272C91.7286 22.058 91.641 21.5544 91.444 21.1385C91.2469 20.7225 90.9842 20.3503 90.6339 20.0219C90.2836 19.6935 89.8457 19.4088 89.3422 19.168C88.8386 18.9272 88.2694 18.7082 87.6345 18.5112C87.2185 18.3579 86.8682 18.2266 86.6054 18.0952C86.3427 17.9639 86.1238 17.8544 85.9486 17.723C85.7954 17.6136 85.6859 17.5041 85.6202 17.3727C85.5545 17.2633 85.5327 17.1319 85.5327 16.9786V16.9567C85.5327 16.694 85.6421 16.497 85.8392 16.3218C86.0581 16.1467 86.3427 16.081 86.7368 16.081C87.2842 16.081 87.8315 16.1905 88.357 16.4313C88.8824 16.6502 89.386 16.9567 89.8457 17.307L91.5535 14.7674C90.8529 14.1981 90.1085 13.7821 89.3203 13.5194C88.5321 13.2567 87.7001 13.1472 86.7806 13.1472C86.0581 13.1472 85.4013 13.2567 84.8102 13.4537C84.219 13.6508 83.7155 13.9354 83.2995 14.3076C82.8835 14.6798 82.577 15.0958 82.358 15.5993C82.1391 16.1029 82.0296 16.6502 82.0296 17.2633V17.3289C82.0296 17.942 82.1391 18.4674 82.3362 18.8834C82.5551 19.3213 82.8397 19.6935 83.2119 20C83.5841 20.3065 84.0439 20.5911 84.5693 20.8319C85.0948 21.0728 85.664 21.2917 86.2989 21.5107C86.693 21.642 87.0214 21.7734 87.2623 21.8828C87.525 21.9923 87.722 22.1018 87.8534 22.2113C88.0067 22.3207 88.0942 22.4302 88.1599 22.5397C88.2256 22.6491 88.2475 22.7805 88.2475 22.9119V22.9338C88.2475 23.2184 88.138 23.4592 87.8972 23.6344C87.6563 23.8095 87.3061 23.8971 86.8682 23.8971C86.2114 23.8971 85.5983 23.7657 84.9853 23.4811C84.3723 23.1965 83.803 22.8462 83.2557 22.3864L81.4385 24.8823C82.2267 25.561 83.0805 26.0646 84.0001 26.3711C84.9196 26.6776 85.883 26.8309 86.8682 26.8309C87.5688 26.8309 88.2256 26.7433 88.8386 26.5462C89.4298 26.3711 89.9333 26.1084 90.3493 25.7362ZM15.5832 21.8428H14.0288V26.8565H15.5832V25.2144H20.7064V23.5067H15.5832V21.8428ZM16.8123 16.1261V18.7971H18.1479V17.7462H19.1331C19.2645 17.9433 19.3301 18.1841 19.3301 18.5125C19.3301 19.3664 18.6514 20.0232 17.4254 20.0232H17.3378C16.2212 20.0232 15.4987 19.3664 15.4987 18.5344C15.4987 17.9652 15.7396 17.5711 16.0461 17.2208L14.7324 16.2575C14.207 16.9143 13.9224 17.593 13.9224 18.5563C13.9224 20.3954 15.3236 21.7747 17.3159 21.7747H17.4473C19.5272 21.7747 20.8189 20.3954 20.8189 18.5782C20.8189 17.5711 20.4467 16.761 19.987 16.1261H16.8123ZM20.7259 13.3451H14.0483V15.0529H20.7259V13.3451Z" fill="#2B146C"/>
</svg>
