<svg width="166" height="40" viewBox="0 0 166 40" fill="none" xmlns="http://www.w3.org/2000/svg">
<path d="M18.6465 0.38622C19.0235 0.134402 19.4667 0 19.9201 0C20.3734 0 20.8166 0.134402 21.1936 0.38622C23.1571 1.6213 25.0408 2.97877 26.8337 4.45059C26.8337 4.45059 27.322 4.78912 27.3353 4.21567C27.2868 3.47521 27.3305 2.73157 27.4656 2.00192C27.5379 1.81138 27.6661 1.64719 27.8335 1.53092C28.0008 1.41465 28.1995 1.35176 28.4032 1.35051C28.4032 1.35051 30.618 1.4613 32.0244 1.65005C32.6533 1.73315 33.1436 2.23683 33.2103 2.86772C33.2103 2.86772 34.1151 8.89965 34.3182 11.0744C34.3182 11.0744 34.4926 12.1823 36.096 14.0576C36.096 14.0576 39.352 18.6174 39.7305 19.4894C39.7305 19.4894 40.4856 21.0661 38.8575 21.2805C38.8575 21.2805 35.8867 21.58 35.6005 21.6457C35.2004 21.6929 34.9111 22.0519 34.9491 22.453C34.9491 22.453 34.7932 32.9463 34.0248 37.9873C34.0248 37.9873 33.8227 39.9877 32.722 39.9415C32.722 39.9415 29.6671 39.8441 28.9572 39.8636C28.9572 39.8636 28.6515 39.8636 28.6966 39.4532C28.6966 39.4532 30.2528 23.0911 29.1983 14.8198C29.1983 14.8198 29.1521 13.7519 28.3386 13.517C28.3386 13.517 27.5959 13.2174 26.886 14.1684C23.8053 18.4814 22.1188 23.6343 22.0533 28.9343C22.0533 28.9343 21.9681 31.5399 22.3662 32.1903C22.3662 32.1903 22.6124 32.6468 23.8772 32.7504L25.4786 32.9658C25.4786 32.9658 25.772 32.9658 25.7453 33.3556C25.7453 33.3556 25.3811 38.1566 25.2775 39.0101C25.2703 39.205 25.2313 39.3958 25.1595 39.5763C25.1595 39.5763 25.1011 39.7394 24.5994 39.7199C24.5994 39.7199 17.5396 39.6687 16.7446 39.7199C16.7446 39.7199 16.4122 39.7199 16.3414 39.5445C16.2696 39.3681 15.8521 33.3495 15.8654 32.497C15.8591 32.4105 15.8794 32.3241 15.9236 32.2495C15.9678 32.1749 16.0338 32.1155 16.1127 32.0795C16.6515 31.7396 17.1069 31.2828 17.4452 30.743C17.7835 30.2031 17.996 29.5941 18.0669 28.961C18.153 28.048 18.1654 27.1319 18.1059 26.2179C18.1059 26.2179 18.3664 17.0151 18.4321 15.5358C18.4321 15.5358 18.4834 15.0342 17.832 14.9439C17.676 14.9059 17.5119 14.9336 17.3744 15.0167C17.2377 15.1015 17.14 15.2368 17.1026 15.3932V15.4445C17.1026 15.4968 16.6471 21.5154 16.7312 23.9118C16.7312 23.9118 16.8882 25.4813 15.8008 25.5141C15.8008 25.5141 14.7452 25.6711 14.6929 24.3621C14.6929 24.3621 14.7709 18.4605 15.0314 15.543C15.0335 15.2096 14.7832 14.9275 14.4518 14.8916C14.2858 14.8684 14.1173 14.9103 13.9815 15.0086C13.8458 15.1069 13.7533 15.2539 13.7235 15.4189C13.7194 15.4357 13.7194 15.4533 13.7235 15.4701C13.7235 15.4701 13.267 21.1184 13.3511 24.1016C13.3511 24.1016 13.4814 25.548 12.3283 25.4946C12.3283 25.4946 11.364 25.6054 11.3128 24.3221C11.3128 24.3221 11.5733 16.2395 11.6451 15.6148C11.6277 15.2968 11.3825 15.0362 11.0655 15.0024H10.9999C10.837 14.9887 10.6749 15.0366 10.5457 15.1367C10.4166 15.2369 10.3297 15.3818 10.3023 15.543C10.3003 15.5624 10.3003 15.582 10.3023 15.6015C10.3023 15.6015 9.87351 25.2669 9.93198 28.1064C9.93198 28.1064 9.893 31.0249 12.0483 32.2098C12.0483 32.2098 12.3673 32.3924 12.3745 32.6724C12.3745 32.6724 12.6156 37.7985 12.8361 39.4532C12.8361 39.4532 12.9151 39.8502 12.5633 39.8502L7.1376 40C6.54774 39.9969 6.06149 39.5343 6.02969 38.9444C5.32699 33.5136 4.99154 28.0397 5.02745 22.5638C5.04645 22.3612 4.99072 22.1586 4.87074 21.9942C4.75076 21.8299 4.57481 21.715 4.37604 21.6713C4.37604 21.6713 1.60114 21.418 0.930246 21.2487C0.316795 21.0887 -0.0535326 20.4629 0.103421 19.8484C0.132144 19.7438 0.173178 19.6433 0.226521 19.5479C4.73464 11.7708 11.0541 5.19725 18.6475 0.38622H18.6465ZM56.8538 15.5686H51.499C49.7673 15.5686 49.7673 15.5686 49.4021 17.5947C49.038 19.6197 49.0431 19.6915 50.6331 19.6915H53.8184L52.0078 30.0412C51.5708 32.3534 50.5613 33.9496 47.4479 34.8872C46.6539 35.1026 46.4385 35.3889 46.4385 35.753C46.4939 36.3357 46.6673 36.9009 46.9463 37.4149C47.4489 38.6459 47.7413 38.8664 48.1711 38.8664C48.6871 38.8172 49.197 38.7187 49.6955 38.5731C54.1046 37.1277 55.9152 33.728 56.6384 29.676L58.6644 18.0306C59.0225 15.5686 59.0225 15.5686 56.8538 15.5686ZM75.0122 15.5686C72.8436 15.5686 72.8436 15.5686 72.5502 17.3792L70.9868 26.7841C70.5508 29.5334 69.8276 31.1224 67.1502 31.1224C64.4738 31.1224 63.608 29.5323 64.0439 27.0703L65.5622 18.1025C65.9982 15.5686 65.9202 15.5686 63.6798 15.5686C61.4383 15.5686 61.4383 15.5686 61.1459 17.3074L59.5559 26.7133C58.6183 32.0672 61.9461 35.3889 66.6496 35.3889C71.9255 35.3889 74.6019 33.0048 75.4687 27.3647L77.0639 18.0306C77.4229 15.5686 77.2793 15.5686 75.0389 15.5686H75.0122ZM84.9187 30.9788C86.6585 30.907 87.5962 30.113 87.5962 29.3179C87.5962 28.3024 86.3652 27.9433 84.7033 27.4355C81.4473 26.4199 78.4836 25.2669 78.4836 21.7955C78.4836 17.6716 81.8843 15.425 86.1497 15.425C87.8655 15.4126 89.5808 15.4866 91.2892 15.6466C92.4422 15.7902 92.7356 16.1493 92.3704 17.9588C92.0052 19.7694 91.5754 19.9131 90.566 19.8412C89.335 19.7694 87.7398 19.6197 85.8635 19.6197C83.6949 19.6197 83.0425 20.4208 83.0425 21.1441C83.0425 22.0817 83.9093 22.5905 85.9353 23.1701C89.693 24.2513 92.155 25.7757 92.155 29.0317C92.155 32.8684 89.335 35.1088 84.7761 35.2514C82.5983 35.3283 80.4184 35.2083 78.2621 34.8934C76.8105 34.6718 76.7387 34.6718 77.1029 32.575C77.4619 30.6987 77.4619 30.549 78.8365 30.6987C80.8503 30.9531 82.8824 31.0485 84.9126 30.986L84.9187 30.9788ZM108.576 15.5686H96.3496C94.617 15.5686 94.617 15.5686 94.2528 17.6716C93.8876 19.7766 93.9656 19.7694 95.4838 19.7694H99.4641L97.2165 32.7442C96.7856 35.2709 96.8574 35.2709 99.0989 35.2709C101.196 35.2709 101.268 35.2709 101.561 33.4675L103.872 19.7889H107.709C109.442 19.7889 109.442 19.7889 109.807 17.6921C110.171 15.5943 110.165 15.5891 108.576 15.5891V15.5686ZM130.134 19.7181C131.867 19.7181 131.867 19.7181 132.231 17.6203C132.596 15.5235 132.59 15.5235 131 15.5235H122.247C119.134 15.5235 119.21 15.5235 118.704 18.6369L116.463 31.7276C115.883 35.1283 115.954 35.1283 119.069 35.1283H127.607C129.418 35.1283 129.34 35.1283 129.704 33.1023C130.069 31.0773 130.063 31.0054 128.473 31.0054H121.087L121.667 27.2406H127.815C129.483 27.2406 129.483 27.2406 129.769 25.2864C130.057 23.3322 130.057 23.2614 127.815 23.2614H122.39L122.969 19.712L130.134 19.7181ZM139.376 26.6415L142.197 20.4208C142.418 19.9131 142.418 19.9131 142.776 19.9131C143.135 19.9131 143.141 19.9131 143.213 20.4927L144.079 26.6415H139.376ZM147.042 17.9588C146.613 15.4968 146.613 15.4968 143.134 15.4968C139.878 15.4968 139.95 15.4968 138.94 17.5229L131.632 32.7894C130.545 34.959 130.766 35.1734 133.437 35.1734C135.54 35.1734 135.54 35.1734 136.407 33.2192L137.56 30.6136H144.652L145.011 33.2192C145.304 35.1734 145.375 35.1734 147.473 35.1734C149.864 35.1734 150.078 35.0298 149.641 32.6396L147.042 17.9599V17.9588ZM164.348 15.5686H152.052C150.312 15.5686 150.312 15.5686 149.954 17.6716C149.595 19.7766 149.66 19.7694 151.179 19.7694H155.159L152.917 32.7442C152.481 35.2709 152.552 35.2709 154.8 35.2709C156.897 35.2709 156.968 35.2709 157.256 33.4675L159.574 19.7889H163.404C165.142 19.7889 165.142 19.7889 165.501 17.6921C165.859 15.5943 165.937 15.5891 164.348 15.5891" fill="#6952A9"/>
</svg>
