<svg width="95" height="40" viewBox="0 0 95 40" fill="none" xmlns="http://www.w3.org/2000/svg">
<path fill-rule="evenodd" clip-rule="evenodd" d="M38.6313 19.9766C35.8189 21.5679 33.4685 24.8914 32.1437 27.5915C31.4599 28.6122 31.7755 30.6879 33.7239 29.3873C35.1593 28.4275 37.988 24.3518 39.8275 21.32C40.0283 20.988 40.2552 20.2879 40.1757 19.9553C39.8841 19.3716 38.995 19.8029 38.6313 19.9766ZM50.0753 22.0038C48.1002 22.5565 46.6678 24.2678 45.9075 26.0396C45.5085 26.9673 45.0278 28.5004 45.5916 29.26C45.8242 29.5472 46.2283 29.38 46.4595 29.2114C47.2472 28.6675 47.819 27.8232 48.3003 27.068C49.1837 25.4921 49.9596 23.8086 50.1797 21.9802L50.0753 22.0038ZM57.8114 22.5322C56.7843 23.063 56.1993 24.7802 55.9998 25.7312C55.7518 26.9274 55.5234 28.5561 56.0675 29.2718C56.1926 29.3925 56.3559 29.4801 56.5554 29.475C57.3719 29.4926 57.9393 28.2323 58.2595 27.5082C58.7954 26.3039 59.2759 24.3998 59.1043 23.1837C59.0391 22.5565 58.4399 22.2791 57.8114 22.5322ZM37.6353 3.57176C39.6197 5.60329 40.2195 8.64844 39.2672 11.263C36.9999 17.0632 31.1158 21.1956 24.9352 22.8554C22.0107 23.5163 17.7797 23.8403 15.0959 22.4682C12.6962 21.1434 11.5473 18.3477 12.0149 15.7037C12.7634 11.6591 15.8748 8.71914 19.5515 6.77956C22.6157 5.30437 26.2356 4.64346 29.8992 5.05574C30.304 5.11964 30.6756 5.31549 30.7789 5.78371C30.82 6.11997 30.7677 6.34752 30.6111 6.56329C30.3518 6.87964 30.0522 6.95549 29.7189 6.93624C25.591 6.91134 21.3482 7.9359 18.3236 10.6152C16.5518 12.2964 15.1233 14.9558 16.4916 17.7802C17.3674 19.5595 20.5068 20.1039 22.3515 19.9354C33.0798 18.9432 36.392 12.3913 37.0199 10.1435C38.3111 5.52313 33.7842 1.59168 25.0874 2.80031C13.8351 4.36379 6.83581 12.0036 5.40411 19.8317C3.90021 28.0557 11.8227 31.544 20.0763 29.8084C23.4401 29.1032 26.9842 27.503 30.4438 24.2119C33.2954 21.2192 37.1989 16.863 41.6197 17.5359C42.1642 17.6595 42.8268 17.9356 42.9828 18.539C43.2441 19.6071 42.695 20.5603 42.3476 21.5083C38.8321 27.5044 39.1921 29.9364 39.8199 30.2471C41.1111 30.6562 41.9435 28.8154 42.575 27.784C43.4149 23.9042 46.4754 20.227 50.4238 19.111C50.5438 18.6443 50.5563 18.1717 50.5438 17.6881C50.4827 15.6111 49.5075 14.1719 48.8869 12.4753C48.7403 12.0285 48.8919 11.4795 49.2401 11.1444C49.5163 10.8589 50.1125 10.5439 50.5954 10.675C51.0671 10.7552 51.3911 11.1349 51.6427 11.4677C52.54 12.8478 53.5322 13.6441 55.4107 13.6436C56.8122 13.6913 58.2358 13.5963 59.3598 12.8566C60.0671 12.0476 60.8754 11.1724 61.9317 10.8869C62.4439 10.7845 62.8524 10.8913 63.2036 11.204C63.5319 11.5354 63.6157 12.0352 63.4361 12.4803C63.1123 13.3122 61.9553 14.1152 61.1358 14.9845C59.7918 16.4156 58.8077 18.1593 58.1201 20.0157C58.5428 19.8846 59.1322 19.744 59.6756 19.8484C61.2391 20.1439 61.7352 21.6438 61.8242 23.0718C61.852 23.52 61.8389 24 61.7719 24.463C62.6683 24.3233 63.2389 23.9883 63.911 23.6438C65.0592 22.9998 66.0122 22.0516 66.9324 21.1515C67.3402 20.7759 67.9564 20.6405 68.4195 20.8121C68.7836 20.9203 69.0841 21.2434 69.1481 21.6431C69.3108 22.7243 68.3443 23.063 66.9597 25.1638C66.187 26.3394 65.308 27.5596 65.1599 28.9995C65.14 29.2594 65.2042 29.5044 65.375 29.6951C65.692 29.9593 66.2155 29.8202 66.5563 29.6237C67.2675 29.2283 67.8363 28.5917 68.2553 27.9364C68.867 25.707 69.7441 23.5885 71.5309 22.0393C71.9835 21.699 72.5317 21.3766 73.1242 21.5077C73.4431 21.5636 73.703 21.7918 73.7677 22.0471C74.1232 23.1115 73.3909 24.4999 72.8831 25.3918C72.2321 26.5402 71.1797 27.6436 70.2801 28.6557C70.2558 29.1872 70.3758 29.5288 70.788 29.6323C71.4158 29.715 71.9119 29.2476 72.3994 28.8559C73.7604 27.5877 75.047 26.103 75.8522 24.4034C75.7197 22.8723 76.2439 21.1117 77.6115 20.3042C78.0759 20.0717 78.6155 20.0951 78.9873 20.3483C79.367 20.6391 79.3802 21.1925 79.3075 21.6637C79.1999 22.2157 78.8885 22.6516 78.6125 23.1314C79.3714 23.18 80.0391 22.823 80.7403 22.6478C81.1041 22.5719 81.3204 22.6765 81.5231 22.8355C81.888 23.1794 81.9234 23.6275 81.74 24.072C81.3551 24.8884 80.8354 25.3279 80.2841 26.0956C79.5244 27.1556 78.8311 28.5805 78.8069 29.6473C78.8114 29.899 78.9164 30.0718 79.088 30.144C79.4958 30.2884 79.8482 29.9842 80.187 29.7789C82.5395 27.9998 84.3398 25.4602 86.2912 23.3485C86.8029 22.8717 87.3879 22.3805 88.1078 22.6081C88.3589 22.6957 88.5561 22.8966 88.6231 23.1674C88.732 23.6798 88.4323 24.3201 88.1109 24.7485C87.1362 26.2356 85.8313 27.9269 85.7803 29.6839C85.7884 29.9917 85.884 30.0962 86.024 30.1404C86.5916 30.3037 87.2709 29.7244 87.7803 29.2526C89.4917 27.6796 90.6356 25.6798 91.928 23.8365C92.1805 23.4391 92.567 23.1115 93.0359 23.0594C93.3634 23.0395 93.6351 23.1278 93.847 23.3485C94.4123 24.1442 93.9398 25.3322 93.5431 26.0956C91.803 29.3792 89.9642 32.7004 88.1314 36.0511C87.2077 37.6643 86.6998 38.5721 86.6439 39.8278C86.5908 39.9714 86.4596 40.0436 86.264 39.9721C85.224 39.5872 84.811 38.9445 84.8029 38.1717C84.7956 37.4886 85.4035 36.5199 85.6324 36.068C86.5312 34.2954 87.7509 32.423 88.5996 30.6512C88.4789 30.7483 88.2595 30.9714 88.0675 31.1281C86.936 32.0519 85.863 33.2356 84.3436 33.0273C83.8482 32.9397 83.408 32.4355 83.2718 31.9326C83.0275 31.0803 83.1841 29.8605 83.4404 28.9882L83.347 29.0803C82.0522 30.459 80.6558 31.996 78.9083 32.8557C78.3719 33.1 77.4436 33.2753 76.904 32.7873C75.8802 31.7317 76.1282 29.8556 76.6882 28.4803C77.1358 27.3513 77.7551 26.2952 78.4285 25.3005C77.9317 25.4522 77.4879 25.5238 76.988 25.5274L76.8202 25.7717C75.2324 28.1485 73.731 30.824 71.3878 32.4678C70.5871 33.031 69.5272 33.0765 68.8633 32.6526C68.3032 32.2912 68.0756 31.636 67.9153 31.031C66.739 31.9231 64.6949 33.4874 63.2756 32.7923C62.4233 32.3359 62.056 31.3717 62.0957 30.3956C62.1281 28.987 62.748 27.5317 63.3118 26.2685C63.0954 26.3709 62.9792 26.4157 62.7553 26.5166C62.212 26.7603 61.6557 26.9317 61.1028 27.14C60.6964 28.2869 59.8353 29.899 59.3598 30.543C58.659 31.6199 57.2642 32.9757 56.0004 33.0161C54.9999 33.0846 54.1204 32.6202 53.6441 31.7878C52.5113 29.9518 53.0391 27.4434 53.491 25.2831C54.3043 22.0436 55.5993 19.0315 57.1279 16.2005C56.6349 16.2632 56.2477 16.2911 55.7553 16.3205C54.8756 16.3764 54.2029 16.4591 53.2512 16.2713C53.3203 21.4481 51.9593 26.7845 48.5631 30.8683C47.6003 32.024 46.0515 33.24 44.3599 32.9751C43.2877 32.8159 42.5 31.7243 42.3483 30.7366C41.5916 32.0358 40.1468 33.5993 38.0594 32.4522C36.8228 31.7684 36.8036 31.156 36.716 29.7966C36.716 29.7966 34.1035 33.7566 30.6713 32.8272C29.1234 32.395 27.7961 30.8551 28.6162 28.4033C24.3513 31.6912 19.5551 33.8312 15.2947 33.9045C9.41207 34.0084 4.22419 31.6081 1.70386 27.5965C-1.75705 22.0878 0.43498 14.3603 4.86684 9.46702C9.29572 4.57143 14.3231 2.53923 17.5868 1.47168C26.6441 -1.48865 34.415 0.431678 37.6353 3.57176Z" fill="#6952A9"/>
</svg>
