<svg width="135" height="40" viewBox="0 0 135 40" fill="none" xmlns="http://www.w3.org/2000/svg">
<path d="M104.612 30.8203H99.4361V20.1251C99.4361 18.5535 98.7748 17.6846 96.9942 17.6846C95.653 17.6846 94.7885 18.3273 93.8209 19.1003V30.8203H88.645V14.1692H93.6749V15.6335C95.3625 14.4998 97.2934 13.7784 99.3875 13.7784C102.688 13.7784 104.612 15.8296 104.612 18.9543V30.8203ZM118.539 17.4885H113.998V25.009C113.998 27.1489 115.125 27.5482 116.585 27.5482C117.094 27.5482 117.643 27.4752 118.199 27.4008L118.539 30.7717C117.35 30.9821 115.762 31.161 114.73 31.161C111.599 31.161 108.822 30.0689 108.822 26.2299V17.4885H106.185V14.1692H108.822V10.5063L113.998 9.04199V14.1692H118.539V17.4885Z" fill="#6952A9"/>
<path d="M78.2 0C75.582 4.43726 76.7185 8.45369 74.1578 11.0159C72.1009 13.0727 70.1929 13.0069 67.9499 13.0069C67.1698 13.0069 65.654 13.0742 65.0184 13.5351C64.6506 12.3628 64.4917 11.0731 64.4917 9.84356C64.4917 7.73085 64.9655 5.85289 66.4842 4.33563C69.3927 1.42851 74.6616 0.503844 78.2 0Z" fill="#6952A9"/>
<path d="M33.1808 14.1692L24.8803 34.3358C23.6035 37.4333 21.0428 39.7063 17.556 39.7063C15.8111 39.7063 14.8864 39.4788 13.7471 39.2182L14.4799 35.8989C15.4003 36.1036 16.0902 36.1909 16.7258 36.1909C18.807 36.1909 19.9149 34.4203 20.9268 31.9912L21.4149 30.8204L14.9695 14.1692H20.5361L23.5634 22.4211C23.9284 23.4173 24.1317 24.4379 24.2963 25.155C24.4852 24.4322 24.8545 23.2327 25.2238 22.2736L28.3485 14.1692H33.1808ZM50.217 30.8204H45.0412V20.1252C45.0412 18.5535 44.3799 17.6847 42.5993 17.6847C41.2624 17.6847 40.3935 18.3288 39.4259 19.1003V30.8204H34.2501V14.1692H39.2799V15.6335C40.9675 14.4999 42.8999 13.7784 44.9925 13.7784C48.2933 13.7784 50.217 15.8296 50.217 18.9543V30.8204Z" fill="#6952A9"/>
<path d="M134.425 30.8204H129.541V29.5021C128.271 30.6243 126.631 31.161 124.804 31.161C121.705 31.161 119.58 29.6624 119.58 26.5219C119.58 21.0026 125.091 20.1466 129.393 20.1251V19.6871C129.393 18.3144 128.875 17.3425 126.416 17.3425C124.757 17.3425 122.868 18.1641 121.629 18.9056L120.36 15.8281C122.56 14.6358 125.289 13.7784 127.879 13.7784C131.854 13.7784 134.423 15.6793 134.423 19.0029V30.8204H134.425ZM129.393 26.3759V23.2999C126.997 23.2613 124.757 23.5003 124.757 25.7905C124.757 27.2061 125.951 27.6456 126.855 27.6456C127.929 27.6456 128.761 27.1088 129.393 26.3759ZM14.8962 25.4971C14.8962 29.1213 11.5468 31.1124 7.57189 31.1124C4.98253 31.1124 2.89129 30.6801 0.685547 29.7941L2.10118 26.4246C3.41375 26.9556 5.30173 27.5482 6.83759 27.5482C8.04138 27.5482 9.72038 27.4008 9.72038 25.9365C9.72038 25.2537 9.29097 24.9002 8.49798 24.6669C7.50891 24.3749 5.98592 24.1129 4.98253 23.8367C2.87269 23.2555 1.12498 22.1477 1.12498 19.0516C1.12498 15.6177 4.055 13.485 8.05998 13.485C10.7052 13.485 12.3842 13.8342 13.8714 14.2665L12.5516 17.636C11.8961 17.3382 10.0539 16.9031 8.74275 16.9031C7.31996 16.9031 6.34949 17.447 6.34949 18.3187C6.34949 18.751 6.61859 19.2978 7.37579 19.5397C8.18881 19.8002 9.47275 20.0364 10.5506 20.2726C12.7549 20.7564 14.8962 22.0231 14.8962 25.4971ZM86.3747 21.8843C86.3747 22.4354 86.3576 23.0051 86.3261 23.5933H75.2902C75.3374 26.0152 76.5455 27.4495 80.0753 27.4495C81.6397 27.4495 83.5191 26.7395 84.3264 26.1813L85.6934 29.2573C83.4118 30.4954 80.9556 31.161 78.2202 31.161C73.0486 31.161 69.8252 27.8302 69.8252 22.5184C69.8252 17.1192 74.0492 13.7784 78.6124 13.7784C84.2964 13.7784 86.3747 17.0992 86.3747 21.8843ZM81.0529 20.2726C81.1416 18.4375 80.2198 17.2939 78.4149 17.2939C76.6715 17.2939 75.6337 18.5735 75.3403 20.2726H81.0529ZM69.8352 32.8715C69.8352 37.7267 64.9943 39.9769 60.215 39.9998C56.011 40.0198 51.9631 38.8103 51.9631 34.7752C51.9631 32.8873 53.6349 31.6248 54.6483 30.9664C54.0844 30.6443 53.5748 30.3924 53.1339 29.8914C52.6702 29.3646 52.3037 28.596 52.3037 27.3035C52.3037 25.676 53.7394 24.1702 55.4785 23.2026C54.5138 22.6944 53.2327 21.8771 53.2327 19.1489C53.2327 15.6006 56.5993 13.7298 60.9965 13.7298C64.7338 13.7298 68.3208 14.6229 68.3208 19.0029C68.3208 23.1868 64.3888 24.7155 60.411 24.7155C59.6682 24.7155 59.0069 24.5982 58.3585 24.4722C57.9348 24.6984 57.0888 25.2595 57.0888 25.8878C57.0888 27.1675 58.8351 27.3536 59.6281 27.3536H63.729C67.5336 27.3536 69.8352 29.1986 69.8352 32.8715ZM63.291 19.2463C63.291 17.8521 62.5209 16.707 60.8004 16.707C59.2287 16.707 58.2626 18.0368 58.2626 19.2463C58.2626 20.6433 59.1314 21.7855 60.703 21.7855C62.4307 21.7855 63.291 20.639 63.291 19.2463ZM64.6579 33.5543C64.6579 32.1959 63.5715 31.6992 62.4608 31.6992H57.919C57.2277 32.0943 56.1599 32.9603 56.1599 34.091C56.1599 35.5539 58.1294 36.533 60.4568 36.533C62.8687 36.533 64.6579 35.4251 64.6579 33.5543Z" fill="#6952A9"/>
</svg>
